<?xml version="1.0" encoding="utf-8" standalone="no"?>
<!DOCTYPE svg PUBLIC "-//W3C//DTD SVG 1.1//EN"
  "http://www.w3.org/Graphics/SVG/1.1/DTD/svg11.dtd">
<svg xmlns:xlink="http://www.w3.org/1999/xlink" width="485.234375pt" height="707.43125pt" viewBox="0 0 485.234375 707.43125" xmlns="http://www.w3.org/2000/svg" version="1.1">
 <metadata>
  <rdf:RDF xmlns:dc="http://purl.org/dc/elements/1.1/" xmlns:cc="http://creativecommons.org/ns#" xmlns:rdf="http://www.w3.org/1999/02/22-rdf-syntax-ns#">
   <cc:Work>
    <dc:type rdf:resource="http://purl.org/dc/dcmitype/StillImage"/>
    <dc:date>2022-07-30T14:43:53.699313</dc:date>
    <dc:format>image/svg+xml</dc:format>
    <dc:creator>
     <cc:Agent>
      <dc:title>Matplotlib v3.5.1, https://matplotlib.org/</dc:title>
     </cc:Agent>
    </dc:creator>
   </cc:Work>
  </rdf:RDF>
 </metadata>
 <defs>
  <style type="text/css">*{stroke-linejoin: round; stroke-linecap: butt}</style>
 </defs>
 <g id="figure_1">
  <g id="patch_1">
   <path d="M 0 707.43125 
L 485.234375 707.43125 
L 485.234375 0 
L 0 0 
z
" style="fill: #ffffff"/>
  </g>
  <g id="axes_1">
   <g id="patch_2">
    <path d="M 80.76125 290.56 
L 471.36125 290.56 
L 471.36125 7.2 
L 80.76125 7.2 
z
" style="fill: #ffffff"/>
   </g>
   <g id="matplotlib.axis_1">
    <g id="xtick_1">
     <g id="line2d_1">
      <path d="M 80.76125 290.56 
L 80.76125 7.2 
" clip-path="url(#pad1bd950bb)" style="fill: none; stroke: #e2e2e2; stroke-width: 0.8; stroke-linecap: square"/>
     </g>
     <g id="line2d_2">
      <defs>
       <path id="m722f3dec82" d="M 0 0 
L 0 3.5 
" style="stroke: #000000; stroke-width: 0.8"/>
      </defs>
      <g>
       <use xlink:href="#m722f3dec82" x="80.76125" y="290.56" style="stroke: #000000; stroke-width: 0.8"/>
      </g>
     </g>
     <g id="text_1">
      <!-- 0 -->
      <g transform="translate(74.088125 314.73875)scale(0.24 -0.24)">
       <defs>
        <path id="ArialMT-30" d="M 266 2259 
Q 266 3072 433 3567 
Q 600 4063 929 4331 
Q 1259 4600 1759 4600 
Q 2128 4600 2406 4451 
Q 2684 4303 2865 4023 
Q 3047 3744 3150 3342 
Q 3253 2941 3253 2259 
Q 3253 1453 3087 958 
Q 2922 463 2592 192 
Q 2263 -78 1759 -78 
Q 1097 -78 719 397 
Q 266 969 266 2259 
z
M 844 2259 
Q 844 1131 1108 757 
Q 1372 384 1759 384 
Q 2147 384 2411 759 
Q 2675 1134 2675 2259 
Q 2675 3391 2411 3762 
Q 2147 4134 1753 4134 
Q 1366 4134 1134 3806 
Q 844 3388 844 2259 
z
" transform="scale(0.015625)"/>
       </defs>
       <use xlink:href="#ArialMT-30"/>
      </g>
     </g>
    </g>
    <g id="xtick_2">
     <g id="line2d_3">
      <path d="M 129.58625 290.56 
L 129.58625 7.2 
" clip-path="url(#pad1bd950bb)" style="fill: none; stroke: #e2e2e2; stroke-width: 0.8; stroke-linecap: square"/>
     </g>
     <g id="line2d_4">
      <g>
       <use xlink:href="#m722f3dec82" x="129.58625" y="290.56" style="stroke: #000000; stroke-width: 0.8"/>
      </g>
     </g>
     <g id="text_2">
      <!-- 1 -->
      <g transform="translate(122.913125 314.73875)scale(0.24 -0.24)">
       <defs>
        <path id="ArialMT-31" d="M 2384 0 
L 1822 0 
L 1822 3584 
Q 1619 3391 1289 3197 
Q 959 3003 697 2906 
L 697 3450 
Q 1169 3672 1522 3987 
Q 1875 4303 2022 4600 
L 2384 4600 
L 2384 0 
z
" transform="scale(0.015625)"/>
       </defs>
       <use xlink:href="#ArialMT-31"/>
      </g>
     </g>
    </g>
    <g id="xtick_3">
     <g id="line2d_5">
      <path d="M 178.41125 290.56 
L 178.41125 7.2 
" clip-path="url(#pad1bd950bb)" style="fill: none; stroke: #e2e2e2; stroke-width: 0.8; stroke-linecap: square"/>
     </g>
     <g id="line2d_6">
      <g>
       <use xlink:href="#m722f3dec82" x="178.41125" y="290.56" style="stroke: #000000; stroke-width: 0.8"/>
      </g>
     </g>
     <g id="text_3">
      <!-- 2 -->
      <g transform="translate(171.738125 314.73875)scale(0.24 -0.24)">
       <defs>
        <path id="ArialMT-32" d="M 3222 541 
L 3222 0 
L 194 0 
Q 188 203 259 391 
Q 375 700 629 1000 
Q 884 1300 1366 1694 
Q 2113 2306 2375 2664 
Q 2638 3022 2638 3341 
Q 2638 3675 2398 3904 
Q 2159 4134 1775 4134 
Q 1369 4134 1125 3890 
Q 881 3647 878 3216 
L 300 3275 
Q 359 3922 746 4261 
Q 1134 4600 1788 4600 
Q 2447 4600 2831 4234 
Q 3216 3869 3216 3328 
Q 3216 3053 3103 2787 
Q 2991 2522 2730 2228 
Q 2469 1934 1863 1422 
Q 1356 997 1212 845 
Q 1069 694 975 541 
L 3222 541 
z
" transform="scale(0.015625)"/>
       </defs>
       <use xlink:href="#ArialMT-32"/>
      </g>
     </g>
    </g>
    <g id="xtick_4">
     <g id="line2d_7">
      <path d="M 227.23625 290.56 
L 227.23625 7.2 
" clip-path="url(#pad1bd950bb)" style="fill: none; stroke: #e2e2e2; stroke-width: 0.8; stroke-linecap: square"/>
     </g>
     <g id="line2d_8">
      <g>
       <use xlink:href="#m722f3dec82" x="227.23625" y="290.56" style="stroke: #000000; stroke-width: 0.8"/>
      </g>
     </g>
     <g id="text_4">
      <!-- 3 -->
      <g transform="translate(220.563125 314.73875)scale(0.24 -0.24)">
       <defs>
        <path id="ArialMT-33" d="M 269 1209 
L 831 1284 
Q 928 806 1161 595 
Q 1394 384 1728 384 
Q 2125 384 2398 659 
Q 2672 934 2672 1341 
Q 2672 1728 2419 1979 
Q 2166 2231 1775 2231 
Q 1616 2231 1378 2169 
L 1441 2663 
Q 1497 2656 1531 2656 
Q 1891 2656 2178 2843 
Q 2466 3031 2466 3422 
Q 2466 3731 2256 3934 
Q 2047 4138 1716 4138 
Q 1388 4138 1169 3931 
Q 950 3725 888 3313 
L 325 3413 
Q 428 3978 793 4289 
Q 1159 4600 1703 4600 
Q 2078 4600 2393 4439 
Q 2709 4278 2876 4000 
Q 3044 3722 3044 3409 
Q 3044 3113 2884 2869 
Q 2725 2625 2413 2481 
Q 2819 2388 3044 2092 
Q 3269 1797 3269 1353 
Q 3269 753 2831 336 
Q 2394 -81 1725 -81 
Q 1122 -81 723 278 
Q 325 638 269 1209 
z
" transform="scale(0.015625)"/>
       </defs>
       <use xlink:href="#ArialMT-33"/>
      </g>
     </g>
    </g>
    <g id="xtick_5">
     <g id="line2d_9">
      <path d="M 276.06125 290.56 
L 276.06125 7.2 
" clip-path="url(#pad1bd950bb)" style="fill: none; stroke: #e2e2e2; stroke-width: 0.8; stroke-linecap: square"/>
     </g>
     <g id="line2d_10">
      <g>
       <use xlink:href="#m722f3dec82" x="276.06125" y="290.56" style="stroke: #000000; stroke-width: 0.8"/>
      </g>
     </g>
     <g id="text_5">
      <!-- 4 -->
      <g transform="translate(269.388125 314.73875)scale(0.24 -0.24)">
       <defs>
        <path id="ArialMT-34" d="M 2069 0 
L 2069 1097 
L 81 1097 
L 81 1613 
L 2172 4581 
L 2631 4581 
L 2631 1613 
L 3250 1613 
L 3250 1097 
L 2631 1097 
L 2631 0 
L 2069 0 
z
M 2069 1613 
L 2069 3678 
L 634 1613 
L 2069 1613 
z
" transform="scale(0.015625)"/>
       </defs>
       <use xlink:href="#ArialMT-34"/>
      </g>
     </g>
    </g>
    <g id="xtick_6">
     <g id="line2d_11">
      <path d="M 324.88625 290.56 
L 324.88625 7.2 
" clip-path="url(#pad1bd950bb)" style="fill: none; stroke: #e2e2e2; stroke-width: 0.8; stroke-linecap: square"/>
     </g>
     <g id="line2d_12">
      <g>
       <use xlink:href="#m722f3dec82" x="324.88625" y="290.56" style="stroke: #000000; stroke-width: 0.8"/>
      </g>
     </g>
     <g id="text_6">
      <!-- 5 -->
      <g transform="translate(318.213125 314.73875)scale(0.24 -0.24)">
       <defs>
        <path id="ArialMT-35" d="M 266 1200 
L 856 1250 
Q 922 819 1161 601 
Q 1400 384 1738 384 
Q 2144 384 2425 690 
Q 2706 997 2706 1503 
Q 2706 1984 2436 2262 
Q 2166 2541 1728 2541 
Q 1456 2541 1237 2417 
Q 1019 2294 894 2097 
L 366 2166 
L 809 4519 
L 3088 4519 
L 3088 3981 
L 1259 3981 
L 1013 2750 
Q 1425 3038 1878 3038 
Q 2478 3038 2890 2622 
Q 3303 2206 3303 1553 
Q 3303 931 2941 478 
Q 2500 -78 1738 -78 
Q 1113 -78 717 272 
Q 322 622 266 1200 
z
" transform="scale(0.015625)"/>
       </defs>
       <use xlink:href="#ArialMT-35"/>
      </g>
     </g>
    </g>
    <g id="xtick_7">
     <g id="line2d_13">
      <path d="M 373.71125 290.56 
L 373.71125 7.2 
" clip-path="url(#pad1bd950bb)" style="fill: none; stroke: #e2e2e2; stroke-width: 0.8; stroke-linecap: square"/>
     </g>
     <g id="line2d_14">
      <g>
       <use xlink:href="#m722f3dec82" x="373.71125" y="290.56" style="stroke: #000000; stroke-width: 0.8"/>
      </g>
     </g>
     <g id="text_7">
      <!-- 6 -->
      <g transform="translate(367.038125 314.73875)scale(0.24 -0.24)">
       <defs>
        <path id="ArialMT-36" d="M 3184 3459 
L 2625 3416 
Q 2550 3747 2413 3897 
Q 2184 4138 1850 4138 
Q 1581 4138 1378 3988 
Q 1113 3794 959 3422 
Q 806 3050 800 2363 
Q 1003 2672 1297 2822 
Q 1591 2972 1913 2972 
Q 2475 2972 2870 2558 
Q 3266 2144 3266 1488 
Q 3266 1056 3080 686 
Q 2894 316 2569 119 
Q 2244 -78 1831 -78 
Q 1128 -78 684 439 
Q 241 956 241 2144 
Q 241 3472 731 4075 
Q 1159 4600 1884 4600 
Q 2425 4600 2770 4297 
Q 3116 3994 3184 3459 
z
M 888 1484 
Q 888 1194 1011 928 
Q 1134 663 1356 523 
Q 1578 384 1822 384 
Q 2178 384 2434 671 
Q 2691 959 2691 1453 
Q 2691 1928 2437 2201 
Q 2184 2475 1800 2475 
Q 1419 2475 1153 2201 
Q 888 1928 888 1484 
z
" transform="scale(0.015625)"/>
       </defs>
       <use xlink:href="#ArialMT-36"/>
      </g>
     </g>
    </g>
    <g id="xtick_8">
     <g id="line2d_15">
      <path d="M 422.53625 290.56 
L 422.53625 7.2 
" clip-path="url(#pad1bd950bb)" style="fill: none; stroke: #e2e2e2; stroke-width: 0.8; stroke-linecap: square"/>
     </g>
     <g id="line2d_16">
      <g>
       <use xlink:href="#m722f3dec82" x="422.53625" y="290.56" style="stroke: #000000; stroke-width: 0.8"/>
      </g>
     </g>
     <g id="text_8">
      <!-- 7 -->
      <g transform="translate(415.863125 314.73875)scale(0.24 -0.24)">
       <defs>
        <path id="ArialMT-37" d="M 303 3981 
L 303 4522 
L 3269 4522 
L 3269 4084 
Q 2831 3619 2401 2847 
Q 1972 2075 1738 1259 
Q 1569 684 1522 0 
L 944 0 
Q 953 541 1156 1306 
Q 1359 2072 1739 2783 
Q 2119 3494 2547 3981 
L 303 3981 
z
" transform="scale(0.015625)"/>
       </defs>
       <use xlink:href="#ArialMT-37"/>
      </g>
     </g>
    </g>
    <g id="xtick_9">
     <g id="line2d_17">
      <path d="M 471.36125 290.56 
L 471.36125 7.2 
" clip-path="url(#pad1bd950bb)" style="fill: none; stroke: #e2e2e2; stroke-width: 0.8; stroke-linecap: square"/>
     </g>
     <g id="line2d_18">
      <g>
       <use xlink:href="#m722f3dec82" x="471.36125" y="290.56" style="stroke: #000000; stroke-width: 0.8"/>
      </g>
     </g>
     <g id="text_9">
      <!-- 8 -->
      <g transform="translate(464.688125 314.73875)scale(0.24 -0.24)">
       <defs>
        <path id="ArialMT-38" d="M 1131 2484 
Q 781 2613 612 2850 
Q 444 3088 444 3419 
Q 444 3919 803 4259 
Q 1163 4600 1759 4600 
Q 2359 4600 2725 4251 
Q 3091 3903 3091 3403 
Q 3091 3084 2923 2848 
Q 2756 2613 2416 2484 
Q 2838 2347 3058 2040 
Q 3278 1734 3278 1309 
Q 3278 722 2862 322 
Q 2447 -78 1769 -78 
Q 1091 -78 675 323 
Q 259 725 259 1325 
Q 259 1772 486 2073 
Q 713 2375 1131 2484 
z
M 1019 3438 
Q 1019 3113 1228 2906 
Q 1438 2700 1772 2700 
Q 2097 2700 2305 2904 
Q 2513 3109 2513 3406 
Q 2513 3716 2298 3927 
Q 2084 4138 1766 4138 
Q 1444 4138 1231 3931 
Q 1019 3725 1019 3438 
z
M 838 1322 
Q 838 1081 952 856 
Q 1066 631 1291 507 
Q 1516 384 1775 384 
Q 2178 384 2440 643 
Q 2703 903 2703 1303 
Q 2703 1709 2433 1975 
Q 2163 2241 1756 2241 
Q 1359 2241 1098 1978 
Q 838 1716 838 1322 
z
" transform="scale(0.015625)"/>
       </defs>
       <use xlink:href="#ArialMT-38"/>
      </g>
     </g>
    </g>
    <g id="text_10">
     <!-- Time (ns) -->
     <g transform="translate(225.84875 340.98)scale(0.24 -0.24)">
      <defs>
       <path id="ArialMT-54" d="M 1659 0 
L 1659 4041 
L 150 4041 
L 150 4581 
L 3781 4581 
L 3781 4041 
L 2266 4041 
L 2266 0 
L 1659 0 
z
" transform="scale(0.015625)"/>
       <path id="ArialMT-69" d="M 425 3934 
L 425 4581 
L 988 4581 
L 988 3934 
L 425 3934 
z
M 425 0 
L 425 3319 
L 988 3319 
L 988 0 
L 425 0 
z
" transform="scale(0.015625)"/>
       <path id="ArialMT-6d" d="M 422 0 
L 422 3319 
L 925 3319 
L 925 2853 
Q 1081 3097 1340 3245 
Q 1600 3394 1931 3394 
Q 2300 3394 2536 3241 
Q 2772 3088 2869 2813 
Q 3263 3394 3894 3394 
Q 4388 3394 4653 3120 
Q 4919 2847 4919 2278 
L 4919 0 
L 4359 0 
L 4359 2091 
Q 4359 2428 4304 2576 
Q 4250 2725 4106 2815 
Q 3963 2906 3769 2906 
Q 3419 2906 3187 2673 
Q 2956 2441 2956 1928 
L 2956 0 
L 2394 0 
L 2394 2156 
Q 2394 2531 2256 2718 
Q 2119 2906 1806 2906 
Q 1569 2906 1367 2781 
Q 1166 2656 1075 2415 
Q 984 2175 984 1722 
L 984 0 
L 422 0 
z
" transform="scale(0.015625)"/>
       <path id="ArialMT-65" d="M 2694 1069 
L 3275 997 
Q 3138 488 2766 206 
Q 2394 -75 1816 -75 
Q 1088 -75 661 373 
Q 234 822 234 1631 
Q 234 2469 665 2931 
Q 1097 3394 1784 3394 
Q 2450 3394 2872 2941 
Q 3294 2488 3294 1666 
Q 3294 1616 3291 1516 
L 816 1516 
Q 847 969 1125 678 
Q 1403 388 1819 388 
Q 2128 388 2347 550 
Q 2566 713 2694 1069 
z
M 847 1978 
L 2700 1978 
Q 2663 2397 2488 2606 
Q 2219 2931 1791 2931 
Q 1403 2931 1139 2672 
Q 875 2413 847 1978 
z
" transform="scale(0.015625)"/>
       <path id="ArialMT-20" transform="scale(0.015625)"/>
       <path id="ArialMT-28" d="M 1497 -1347 
Q 1031 -759 709 28 
Q 388 816 388 1659 
Q 388 2403 628 3084 
Q 909 3875 1497 4659 
L 1900 4659 
Q 1522 4009 1400 3731 
Q 1209 3300 1100 2831 
Q 966 2247 966 1656 
Q 966 153 1900 -1347 
L 1497 -1347 
z
" transform="scale(0.015625)"/>
       <path id="ArialMT-6e" d="M 422 0 
L 422 3319 
L 928 3319 
L 928 2847 
Q 1294 3394 1984 3394 
Q 2284 3394 2536 3286 
Q 2788 3178 2913 3003 
Q 3038 2828 3088 2588 
Q 3119 2431 3119 2041 
L 3119 0 
L 2556 0 
L 2556 2019 
Q 2556 2363 2490 2533 
Q 2425 2703 2258 2804 
Q 2091 2906 1866 2906 
Q 1506 2906 1245 2678 
Q 984 2450 984 1813 
L 984 0 
L 422 0 
z
" transform="scale(0.015625)"/>
       <path id="ArialMT-73" d="M 197 991 
L 753 1078 
Q 800 744 1014 566 
Q 1228 388 1613 388 
Q 2000 388 2187 545 
Q 2375 703 2375 916 
Q 2375 1106 2209 1216 
Q 2094 1291 1634 1406 
Q 1016 1563 777 1677 
Q 538 1791 414 1992 
Q 291 2194 291 2438 
Q 291 2659 392 2848 
Q 494 3038 669 3163 
Q 800 3259 1026 3326 
Q 1253 3394 1513 3394 
Q 1903 3394 2198 3281 
Q 2494 3169 2634 2976 
Q 2775 2784 2828 2463 
L 2278 2388 
Q 2241 2644 2061 2787 
Q 1881 2931 1553 2931 
Q 1166 2931 1000 2803 
Q 834 2675 834 2503 
Q 834 2394 903 2306 
Q 972 2216 1119 2156 
Q 1203 2125 1616 2013 
Q 2213 1853 2448 1751 
Q 2684 1650 2818 1456 
Q 2953 1263 2953 975 
Q 2953 694 2789 445 
Q 2625 197 2315 61 
Q 2006 -75 1616 -75 
Q 969 -75 630 194 
Q 291 463 197 991 
z
" transform="scale(0.015625)"/>
       <path id="ArialMT-29" d="M 791 -1347 
L 388 -1347 
Q 1322 153 1322 1656 
Q 1322 2244 1188 2822 
Q 1081 3291 891 3722 
Q 769 4003 388 4659 
L 791 4659 
Q 1378 3875 1659 3084 
Q 1900 2403 1900 1659 
Q 1900 816 1576 28 
Q 1253 -759 791 -1347 
z
" transform="scale(0.015625)"/>
      </defs>
      <use xlink:href="#ArialMT-54"/>
      <use xlink:href="#ArialMT-69" x="57.333984"/>
      <use xlink:href="#ArialMT-6d" x="79.550781"/>
      <use xlink:href="#ArialMT-65" x="162.851562"/>
      <use xlink:href="#ArialMT-20" x="218.466797"/>
      <use xlink:href="#ArialMT-28" x="246.25"/>
      <use xlink:href="#ArialMT-6e" x="279.550781"/>
      <use xlink:href="#ArialMT-73" x="335.166016"/>
      <use xlink:href="#ArialMT-29" x="385.166016"/>
     </g>
    </g>
   </g>
   <g id="matplotlib.axis_2">
    <g id="ytick_1">
     <g id="line2d_19">
      <path d="M 80.76125 290.56 
L 471.36125 290.56 
" clip-path="url(#pad1bd950bb)" style="fill: none; stroke: #e2e2e2; stroke-width: 0.8; stroke-linecap: square"/>
     </g>
     <g id="line2d_20">
      <defs>
       <path id="mee2c86f6fb" d="M 0 0 
L -3.5 0 
" style="stroke: #000000; stroke-width: 0.8"/>
      </defs>
      <g>
       <use xlink:href="#mee2c86f6fb" x="80.76125" y="290.56" style="stroke: #000000; stroke-width: 0.8"/>
      </g>
     </g>
     <g id="text_11">
      <!-- 0 -->
      <g transform="translate(60.415 299.149375)scale(0.24 -0.24)">
       <use xlink:href="#ArialMT-30"/>
      </g>
     </g>
    </g>
    <g id="ytick_2">
     <g id="line2d_21">
      <path d="M 80.76125 259.075556 
L 471.36125 259.075556 
" clip-path="url(#pad1bd950bb)" style="fill: none; stroke: #e2e2e2; stroke-width: 0.8; stroke-linecap: square"/>
     </g>
     <g id="line2d_22">
      <g>
       <use xlink:href="#mee2c86f6fb" x="80.76125" y="259.075556" style="stroke: #000000; stroke-width: 0.8"/>
      </g>
     </g>
    </g>
    <g id="ytick_3">
     <g id="line2d_23">
      <path d="M 80.76125 227.591111 
L 471.36125 227.591111 
" clip-path="url(#pad1bd950bb)" style="fill: none; stroke: #e2e2e2; stroke-width: 0.8; stroke-linecap: square"/>
     </g>
     <g id="line2d_24">
      <g>
       <use xlink:href="#mee2c86f6fb" x="80.76125" y="227.591111" style="stroke: #000000; stroke-width: 0.8"/>
      </g>
     </g>
     <g id="text_12">
      <!-- 1 -->
      <g transform="translate(60.415 236.180486)scale(0.24 -0.24)">
       <use xlink:href="#ArialMT-31"/>
      </g>
     </g>
    </g>
    <g id="ytick_4">
     <g id="line2d_25">
      <path d="M 80.76125 196.106667 
L 471.36125 196.106667 
" clip-path="url(#pad1bd950bb)" style="fill: none; stroke: #e2e2e2; stroke-width: 0.8; stroke-linecap: square"/>
     </g>
     <g id="line2d_26">
      <g>
       <use xlink:href="#mee2c86f6fb" x="80.76125" y="196.106667" style="stroke: #000000; stroke-width: 0.8"/>
      </g>
     </g>
    </g>
    <g id="ytick_5">
     <g id="line2d_27">
      <path d="M 80.76125 164.622222 
L 471.36125 164.622222 
" clip-path="url(#pad1bd950bb)" style="fill: none; stroke: #e2e2e2; stroke-width: 0.8; stroke-linecap: square"/>
     </g>
     <g id="line2d_28">
      <g>
       <use xlink:href="#mee2c86f6fb" x="80.76125" y="164.622222" style="stroke: #000000; stroke-width: 0.8"/>
      </g>
     </g>
     <g id="text_13">
      <!-- 2 -->
      <g transform="translate(60.415 173.211597)scale(0.24 -0.24)">
       <use xlink:href="#ArialMT-32"/>
      </g>
     </g>
    </g>
    <g id="ytick_6">
     <g id="line2d_29">
      <path d="M 80.76125 133.137778 
L 471.36125 133.137778 
" clip-path="url(#pad1bd950bb)" style="fill: none; stroke: #e2e2e2; stroke-width: 0.8; stroke-linecap: square"/>
     </g>
     <g id="line2d_30">
      <g>
       <use xlink:href="#mee2c86f6fb" x="80.76125" y="133.137778" style="stroke: #000000; stroke-width: 0.8"/>
      </g>
     </g>
    </g>
    <g id="ytick_7">
     <g id="line2d_31">
      <path d="M 80.76125 101.653333 
L 471.36125 101.653333 
" clip-path="url(#pad1bd950bb)" style="fill: none; stroke: #e2e2e2; stroke-width: 0.8; stroke-linecap: square"/>
     </g>
     <g id="line2d_32">
      <g>
       <use xlink:href="#mee2c86f6fb" x="80.76125" y="101.653333" style="stroke: #000000; stroke-width: 0.8"/>
      </g>
     </g>
     <g id="text_14">
      <!-- 3 -->
      <g transform="translate(60.415 110.242708)scale(0.24 -0.24)">
       <use xlink:href="#ArialMT-33"/>
      </g>
     </g>
    </g>
    <g id="ytick_8">
     <g id="line2d_33">
      <path d="M 80.76125 70.168889 
L 471.36125 70.168889 
" clip-path="url(#pad1bd950bb)" style="fill: none; stroke: #e2e2e2; stroke-width: 0.8; stroke-linecap: square"/>
     </g>
     <g id="line2d_34">
      <g>
       <use xlink:href="#mee2c86f6fb" x="80.76125" y="70.168889" style="stroke: #000000; stroke-width: 0.8"/>
      </g>
     </g>
    </g>
    <g id="ytick_9">
     <g id="line2d_35">
      <path d="M 80.76125 38.684444 
L 471.36125 38.684444 
" clip-path="url(#pad1bd950bb)" style="fill: none; stroke: #e2e2e2; stroke-width: 0.8; stroke-linecap: square"/>
     </g>
     <g id="line2d_36">
      <g>
       <use xlink:href="#mee2c86f6fb" x="80.76125" y="38.684444" style="stroke: #000000; stroke-width: 0.8"/>
      </g>
     </g>
     <g id="text_15">
      <!-- 4 -->
      <g transform="translate(60.415 47.273819)scale(0.24 -0.24)">
       <use xlink:href="#ArialMT-34"/>
      </g>
     </g>
    </g>
    <g id="ytick_10">
     <g id="line2d_37">
      <path d="M 80.76125 7.2 
L 471.36125 7.2 
" clip-path="url(#pad1bd950bb)" style="fill: none; stroke: #e2e2e2; stroke-width: 0.8; stroke-linecap: square"/>
     </g>
     <g id="line2d_38">
      <g>
       <use xlink:href="#mee2c86f6fb" x="80.76125" y="7.2" style="stroke: #000000; stroke-width: 0.8"/>
      </g>
     </g>
    </g>
    <g id="text_16">
     <!-- J$_2$ (A/m$^2$) -->
     <g transform="translate(51.135 199.16)rotate(-90)scale(0.24 -0.24)">
      <defs>
       <path id="ArialMT-4a" d="M 184 1300 
L 731 1375 
Q 753 850 928 656 
Q 1103 463 1413 463 
Q 1641 463 1806 567 
Q 1972 672 2034 851 
Q 2097 1031 2097 1425 
L 2097 4581 
L 2703 4581 
L 2703 1459 
Q 2703 884 2564 568 
Q 2425 253 2123 87 
Q 1822 -78 1416 -78 
Q 813 -78 492 269 
Q 172 616 184 1300 
z
" transform="scale(0.015625)"/>
       <path id="DejaVuSans-32" d="M 1228 531 
L 3431 531 
L 3431 0 
L 469 0 
L 469 531 
Q 828 903 1448 1529 
Q 2069 2156 2228 2338 
Q 2531 2678 2651 2914 
Q 2772 3150 2772 3378 
Q 2772 3750 2511 3984 
Q 2250 4219 1831 4219 
Q 1534 4219 1204 4116 
Q 875 4013 500 3803 
L 500 4441 
Q 881 4594 1212 4672 
Q 1544 4750 1819 4750 
Q 2544 4750 2975 4387 
Q 3406 4025 3406 3419 
Q 3406 3131 3298 2873 
Q 3191 2616 2906 2266 
Q 2828 2175 2409 1742 
Q 1991 1309 1228 531 
z
" transform="scale(0.015625)"/>
       <path id="ArialMT-41" d="M -9 0 
L 1750 4581 
L 2403 4581 
L 4278 0 
L 3588 0 
L 3053 1388 
L 1138 1388 
L 634 0 
L -9 0 
z
M 1313 1881 
L 2866 1881 
L 2388 3150 
Q 2169 3728 2063 4100 
Q 1975 3659 1816 3225 
L 1313 1881 
z
" transform="scale(0.015625)"/>
       <path id="ArialMT-2f" d="M 0 -78 
L 1328 4659 
L 1778 4659 
L 453 -78 
L 0 -78 
z
" transform="scale(0.015625)"/>
      </defs>
      <use xlink:href="#ArialMT-4a" transform="translate(0 0.765625)"/>
      <use xlink:href="#DejaVuSans-32" transform="translate(50.957031 -15.640625)scale(0.7)"/>
      <use xlink:href="#ArialMT-20" transform="translate(98.227539 0.765625)"/>
      <use xlink:href="#ArialMT-28" transform="translate(126.010742 0.765625)"/>
      <use xlink:href="#ArialMT-41" transform="translate(159.311523 0.765625)"/>
      <use xlink:href="#ArialMT-2f" transform="translate(226.010742 0.765625)"/>
      <use xlink:href="#ArialMT-6d" transform="translate(253.793945 0.765625)"/>
      <use xlink:href="#DejaVuSans-32" transform="translate(338.051758 39.046875)scale(0.7)"/>
      <use xlink:href="#ArialMT-29" transform="translate(385.322266 0.765625)"/>
     </g>
    </g>
   </g>
   <g id="line2d_39">
    <path d="M 80.76125 290.56 
L 127.145 290.56 
L 129.58625 101.653333 
L 237.00125 101.653333 
L 239.4425 114.938461 
L 241.88375 127.413767 
L 244.325 138.667036 
L 246.76625 148.77731 
L 249.2075 157.92511 
L 251.64875 166.340653 
L 254.09 174.206068 
L 256.53125 181.565791 
L 258.9725 188.31907 
L 261.41375 194.322841 
L 263.855 199.505279 
L 266.29625 203.896283 
L 268.7375 207.598038 
L 271.17875 210.745178 
L 273.62 213.474903 
L 276.06125 215.906578 
L 280.94375 220.216949 
L 285.82625 224.13625 
L 288.2675 226.020062 
L 290.70875 227.590875 
L 371.27 227.591111 
L 373.71125 290.56 
L 468.92 290.56 
L 468.92 290.56 
" clip-path="url(#pad1bd950bb)" style="fill: none; stroke: #1f77b4; stroke-width: 3.5; stroke-linecap: square"/>
   </g>
   <g id="line2d_40">
    <path d="M 80.76125 290.56 
L 127.145 290.56 
L 129.58625 101.653333 
L 254.09 101.653333 
L 256.53125 111.210092 
L 258.9725 126.192318 
L 261.41375 138.35332 
L 263.855 148.362376 
L 266.29625 156.715907 
L 268.7375 163.795911 
L 271.17875 169.90079 
L 273.62 175.26288 
L 276.06125 180.062398 
L 278.5025 184.442399 
L 283.385 192.413385 
L 290.70875 203.683095 
L 295.59125 210.853523 
L 298.0325 214.161509 
L 300.47375 217.232414 
L 302.915 220.058018 
L 305.35625 222.648858 
L 307.7975 225.033126 
L 310.23875 227.249212 
L 312.68 227.591111 
L 371.27 227.591111 
L 373.71125 290.56 
L 468.92 290.56 
L 468.92 290.56 
" clip-path="url(#pad1bd950bb)" style="fill: none; stroke: #ff7f0e; stroke-width: 3.5; stroke-linecap: square"/>
   </g>
   <g id="line2d_41">
    <path d="M 80.76125 290.56 
L 127.145 290.56 
L 129.58625 101.653333 
L 254.09 101.653333 
L 258.9725 124.950935 
L 261.41375 136.118001 
L 263.855 146.691191 
L 266.29625 156.491145 
L 268.7375 165.382031 
L 271.17875 173.311222 
L 273.62 180.348811 
L 276.06125 186.672115 
L 278.5025 192.467357 
L 280.94375 197.835278 
L 283.385 202.789364 
L 285.82625 207.319843 
L 288.2675 211.4287 
L 290.70875 215.122827 
L 293.15 218.41618 
L 295.59125 221.342469 
L 298.0325 223.941279 
L 300.47375 226.230811 
L 302.915 227.591111 
L 371.27 227.591111 
L 373.71125 290.56 
L 468.92 290.56 
L 468.92 290.56 
" clip-path="url(#pad1bd950bb)" style="fill: none; stroke: #2ca02c; stroke-width: 3.5; stroke-linecap: square"/>
   </g>
   <g id="patch_3">
    <path d="M 80.76125 290.56 
L 80.76125 7.2 
" style="fill: none; stroke: #000000; stroke-width: 4; stroke-linejoin: miter; stroke-linecap: square"/>
   </g>
   <g id="patch_4">
    <path d="M 471.36125 290.56 
L 471.36125 7.2 
" style="fill: none; stroke: #000000; stroke-width: 4; stroke-linejoin: miter; stroke-linecap: square"/>
   </g>
   <g id="patch_5">
    <path d="M 80.76125 290.56 
L 471.36125 290.56 
" style="fill: none; stroke: #000000; stroke-width: 4; stroke-linejoin: miter; stroke-linecap: square"/>
   </g>
   <g id="patch_6">
    <path d="M 80.76125 7.2 
L 471.36125 7.2 
" style="fill: none; stroke: #000000; stroke-width: 4; stroke-linejoin: miter; stroke-linecap: square"/>
   </g>
  </g>
  <g id="axes_2">
   <g id="patch_7">
    <path d="M 80.76125 644.76 
L 471.36125 644.76 
L 471.36125 361.4 
L 80.76125 361.4 
z
" style="fill: #ffffff"/>
   </g>
   <g id="matplotlib.axis_3">
    <g id="xtick_10">
     <g id="line2d_42">
      <path d="M 80.76125 644.76 
L 80.76125 361.4 
" clip-path="url(#pb30546ad4a)" style="fill: none; stroke: #e2e2e2; stroke-width: 0.8; stroke-linecap: square"/>
     </g>
     <g id="line2d_43">
      <g>
       <use xlink:href="#m722f3dec82" x="80.76125" y="644.76" style="stroke: #000000; stroke-width: 0.8"/>
      </g>
     </g>
     <g id="text_17">
      <!-- 0 -->
      <g transform="translate(74.088125 668.93875)scale(0.24 -0.24)">
       <use xlink:href="#ArialMT-30"/>
      </g>
     </g>
    </g>
    <g id="xtick_11">
     <g id="line2d_44">
      <path d="M 129.58625 644.76 
L 129.58625 361.4 
" clip-path="url(#pb30546ad4a)" style="fill: none; stroke: #e2e2e2; stroke-width: 0.8; stroke-linecap: square"/>
     </g>
     <g id="line2d_45">
      <g>
       <use xlink:href="#m722f3dec82" x="129.58625" y="644.76" style="stroke: #000000; stroke-width: 0.8"/>
      </g>
     </g>
     <g id="text_18">
      <!-- 1 -->
      <g transform="translate(122.913125 668.93875)scale(0.24 -0.24)">
       <use xlink:href="#ArialMT-31"/>
      </g>
     </g>
    </g>
    <g id="xtick_12">
     <g id="line2d_46">
      <path d="M 178.41125 644.76 
L 178.41125 361.4 
" clip-path="url(#pb30546ad4a)" style="fill: none; stroke: #e2e2e2; stroke-width: 0.8; stroke-linecap: square"/>
     </g>
     <g id="line2d_47">
      <g>
       <use xlink:href="#m722f3dec82" x="178.41125" y="644.76" style="stroke: #000000; stroke-width: 0.8"/>
      </g>
     </g>
     <g id="text_19">
      <!-- 2 -->
      <g transform="translate(171.738125 668.93875)scale(0.24 -0.24)">
       <use xlink:href="#ArialMT-32"/>
      </g>
     </g>
    </g>
    <g id="xtick_13">
     <g id="line2d_48">
      <path d="M 227.23625 644.76 
L 227.23625 361.4 
" clip-path="url(#pb30546ad4a)" style="fill: none; stroke: #e2e2e2; stroke-width: 0.8; stroke-linecap: square"/>
     </g>
     <g id="line2d_49">
      <g>
       <use xlink:href="#m722f3dec82" x="227.23625" y="644.76" style="stroke: #000000; stroke-width: 0.8"/>
      </g>
     </g>
     <g id="text_20">
      <!-- 3 -->
      <g transform="translate(220.563125 668.93875)scale(0.24 -0.24)">
       <use xlink:href="#ArialMT-33"/>
      </g>
     </g>
    </g>
    <g id="xtick_14">
     <g id="line2d_50">
      <path d="M 276.06125 644.76 
L 276.06125 361.4 
" clip-path="url(#pb30546ad4a)" style="fill: none; stroke: #e2e2e2; stroke-width: 0.8; stroke-linecap: square"/>
     </g>
     <g id="line2d_51">
      <g>
       <use xlink:href="#m722f3dec82" x="276.06125" y="644.76" style="stroke: #000000; stroke-width: 0.8"/>
      </g>
     </g>
     <g id="text_21">
      <!-- 4 -->
      <g transform="translate(269.388125 668.93875)scale(0.24 -0.24)">
       <use xlink:href="#ArialMT-34"/>
      </g>
     </g>
    </g>
    <g id="xtick_15">
     <g id="line2d_52">
      <path d="M 324.88625 644.76 
L 324.88625 361.4 
" clip-path="url(#pb30546ad4a)" style="fill: none; stroke: #e2e2e2; stroke-width: 0.8; stroke-linecap: square"/>
     </g>
     <g id="line2d_53">
      <g>
       <use xlink:href="#m722f3dec82" x="324.88625" y="644.76" style="stroke: #000000; stroke-width: 0.8"/>
      </g>
     </g>
     <g id="text_22">
      <!-- 5 -->
      <g transform="translate(318.213125 668.93875)scale(0.24 -0.24)">
       <use xlink:href="#ArialMT-35"/>
      </g>
     </g>
    </g>
    <g id="xtick_16">
     <g id="line2d_54">
      <path d="M 373.71125 644.76 
L 373.71125 361.4 
" clip-path="url(#pb30546ad4a)" style="fill: none; stroke: #e2e2e2; stroke-width: 0.8; stroke-linecap: square"/>
     </g>
     <g id="line2d_55">
      <g>
       <use xlink:href="#m722f3dec82" x="373.71125" y="644.76" style="stroke: #000000; stroke-width: 0.8"/>
      </g>
     </g>
     <g id="text_23">
      <!-- 6 -->
      <g transform="translate(367.038125 668.93875)scale(0.24 -0.24)">
       <use xlink:href="#ArialMT-36"/>
      </g>
     </g>
    </g>
    <g id="xtick_17">
     <g id="line2d_56">
      <path d="M 422.53625 644.76 
L 422.53625 361.4 
" clip-path="url(#pb30546ad4a)" style="fill: none; stroke: #e2e2e2; stroke-width: 0.8; stroke-linecap: square"/>
     </g>
     <g id="line2d_57">
      <g>
       <use xlink:href="#m722f3dec82" x="422.53625" y="644.76" style="stroke: #000000; stroke-width: 0.8"/>
      </g>
     </g>
     <g id="text_24">
      <!-- 7 -->
      <g transform="translate(415.863125 668.93875)scale(0.24 -0.24)">
       <use xlink:href="#ArialMT-37"/>
      </g>
     </g>
    </g>
    <g id="xtick_18">
     <g id="line2d_58">
      <path d="M 471.36125 644.76 
L 471.36125 361.4 
" clip-path="url(#pb30546ad4a)" style="fill: none; stroke: #e2e2e2; stroke-width: 0.8; stroke-linecap: square"/>
     </g>
     <g id="line2d_59">
      <g>
       <use xlink:href="#m722f3dec82" x="471.36125" y="644.76" style="stroke: #000000; stroke-width: 0.8"/>
      </g>
     </g>
     <g id="text_25">
      <!-- 8 -->
      <g transform="translate(464.688125 668.93875)scale(0.24 -0.24)">
       <use xlink:href="#ArialMT-38"/>
      </g>
     </g>
    </g>
    <g id="text_26">
     <!-- Time (ns) -->
     <g transform="translate(225.84875 695.18)scale(0.24 -0.24)">
      <use xlink:href="#ArialMT-54"/>
      <use xlink:href="#ArialMT-69" x="57.333984"/>
      <use xlink:href="#ArialMT-6d" x="79.550781"/>
      <use xlink:href="#ArialMT-65" x="162.851562"/>
      <use xlink:href="#ArialMT-20" x="218.466797"/>
      <use xlink:href="#ArialMT-28" x="246.25"/>
      <use xlink:href="#ArialMT-6e" x="279.550781"/>
      <use xlink:href="#ArialMT-73" x="335.166016"/>
      <use xlink:href="#ArialMT-29" x="385.166016"/>
     </g>
    </g>
   </g>
   <g id="matplotlib.axis_4">
    <g id="ytick_11">
     <g id="line2d_60">
      <path d="M 80.76125 644.76 
L 471.36125 644.76 
" clip-path="url(#pb30546ad4a)" style="fill: none; stroke: #e2e2e2; stroke-width: 0.8; stroke-linecap: square"/>
     </g>
     <g id="line2d_61">
      <g>
       <use xlink:href="#mee2c86f6fb" x="80.76125" y="644.76" style="stroke: #000000; stroke-width: 0.8"/>
      </g>
     </g>
     <g id="text_27">
      <!-- 0 -->
      <g transform="translate(60.415 653.349375)scale(0.24 -0.24)">
       <use xlink:href="#ArialMT-30"/>
      </g>
     </g>
    </g>
    <g id="ytick_12">
     <g id="line2d_62">
      <path d="M 80.76125 609.34 
L 471.36125 609.34 
" clip-path="url(#pb30546ad4a)" style="fill: none; stroke: #e2e2e2; stroke-width: 0.8; stroke-linecap: square"/>
     </g>
     <g id="line2d_63">
      <g>
       <use xlink:href="#mee2c86f6fb" x="80.76125" y="609.34" style="stroke: #000000; stroke-width: 0.8"/>
      </g>
     </g>
     <g id="text_28">
      <!-- 40 -->
      <g transform="translate(47.06875 617.929375)scale(0.24 -0.24)">
       <use xlink:href="#ArialMT-34"/>
       <use xlink:href="#ArialMT-30" x="55.615234"/>
      </g>
     </g>
    </g>
    <g id="ytick_13">
     <g id="line2d_64">
      <path d="M 80.76125 573.92 
L 471.36125 573.92 
" clip-path="url(#pb30546ad4a)" style="fill: none; stroke: #e2e2e2; stroke-width: 0.8; stroke-linecap: square"/>
     </g>
     <g id="line2d_65">
      <g>
       <use xlink:href="#mee2c86f6fb" x="80.76125" y="573.92" style="stroke: #000000; stroke-width: 0.8"/>
      </g>
     </g>
     <g id="text_29">
      <!-- 80 -->
      <g transform="translate(47.06875 582.509375)scale(0.24 -0.24)">
       <use xlink:href="#ArialMT-38"/>
       <use xlink:href="#ArialMT-30" x="55.615234"/>
      </g>
     </g>
    </g>
    <g id="ytick_14">
     <g id="line2d_66">
      <path d="M 80.76125 538.5 
L 471.36125 538.5 
" clip-path="url(#pb30546ad4a)" style="fill: none; stroke: #e2e2e2; stroke-width: 0.8; stroke-linecap: square"/>
     </g>
     <g id="line2d_67">
      <g>
       <use xlink:href="#mee2c86f6fb" x="80.76125" y="538.5" style="stroke: #000000; stroke-width: 0.8"/>
      </g>
     </g>
     <g id="text_30">
      <!-- 120 -->
      <g transform="translate(33.7225 547.089375)scale(0.24 -0.24)">
       <use xlink:href="#ArialMT-31"/>
       <use xlink:href="#ArialMT-32" x="55.615234"/>
       <use xlink:href="#ArialMT-30" x="111.230469"/>
      </g>
     </g>
    </g>
    <g id="ytick_15">
     <g id="line2d_68">
      <path d="M 80.76125 503.08 
L 471.36125 503.08 
" clip-path="url(#pb30546ad4a)" style="fill: none; stroke: #e2e2e2; stroke-width: 0.8; stroke-linecap: square"/>
     </g>
     <g id="line2d_69">
      <g>
       <use xlink:href="#mee2c86f6fb" x="80.76125" y="503.08" style="stroke: #000000; stroke-width: 0.8"/>
      </g>
     </g>
     <g id="text_31">
      <!-- 160 -->
      <g transform="translate(33.7225 511.669375)scale(0.24 -0.24)">
       <use xlink:href="#ArialMT-31"/>
       <use xlink:href="#ArialMT-36" x="55.615234"/>
       <use xlink:href="#ArialMT-30" x="111.230469"/>
      </g>
     </g>
    </g>
    <g id="ytick_16">
     <g id="line2d_70">
      <path d="M 80.76125 467.66 
L 471.36125 467.66 
" clip-path="url(#pb30546ad4a)" style="fill: none; stroke: #e2e2e2; stroke-width: 0.8; stroke-linecap: square"/>
     </g>
     <g id="line2d_71">
      <g>
       <use xlink:href="#mee2c86f6fb" x="80.76125" y="467.66" style="stroke: #000000; stroke-width: 0.8"/>
      </g>
     </g>
     <g id="text_32">
      <!-- 200 -->
      <g transform="translate(33.7225 476.249375)scale(0.24 -0.24)">
       <use xlink:href="#ArialMT-32"/>
       <use xlink:href="#ArialMT-30" x="55.615234"/>
       <use xlink:href="#ArialMT-30" x="111.230469"/>
      </g>
     </g>
    </g>
    <g id="ytick_17">
     <g id="line2d_72">
      <path d="M 80.76125 432.24 
L 471.36125 432.24 
" clip-path="url(#pb30546ad4a)" style="fill: none; stroke: #e2e2e2; stroke-width: 0.8; stroke-linecap: square"/>
     </g>
     <g id="line2d_73">
      <g>
       <use xlink:href="#mee2c86f6fb" x="80.76125" y="432.24" style="stroke: #000000; stroke-width: 0.8"/>
      </g>
     </g>
     <g id="text_33">
      <!-- 240 -->
      <g transform="translate(33.7225 440.829375)scale(0.24 -0.24)">
       <use xlink:href="#ArialMT-32"/>
       <use xlink:href="#ArialMT-34" x="55.615234"/>
       <use xlink:href="#ArialMT-30" x="111.230469"/>
      </g>
     </g>
    </g>
    <g id="ytick_18">
     <g id="line2d_74">
      <path d="M 80.76125 396.82 
L 471.36125 396.82 
" clip-path="url(#pb30546ad4a)" style="fill: none; stroke: #e2e2e2; stroke-width: 0.8; stroke-linecap: square"/>
     </g>
     <g id="line2d_75">
      <g>
       <use xlink:href="#mee2c86f6fb" x="80.76125" y="396.82" style="stroke: #000000; stroke-width: 0.8"/>
      </g>
     </g>
     <g id="text_34">
      <!-- 280 -->
      <g transform="translate(33.7225 405.409375)scale(0.24 -0.24)">
       <use xlink:href="#ArialMT-32"/>
       <use xlink:href="#ArialMT-38" x="55.615234"/>
       <use xlink:href="#ArialMT-30" x="111.230469"/>
      </g>
     </g>
    </g>
    <g id="ytick_19">
     <g id="line2d_76">
      <path d="M 80.76125 361.4 
L 471.36125 361.4 
" clip-path="url(#pb30546ad4a)" style="fill: none; stroke: #e2e2e2; stroke-width: 0.8; stroke-linecap: square"/>
     </g>
     <g id="line2d_77">
      <g>
       <use xlink:href="#mee2c86f6fb" x="80.76125" y="361.4" style="stroke: #000000; stroke-width: 0.8"/>
      </g>
     </g>
     <g id="text_35">
      <!-- 320 -->
      <g transform="translate(33.7225 369.989375)scale(0.24 -0.24)">
       <use xlink:href="#ArialMT-33"/>
       <use xlink:href="#ArialMT-32" x="55.615234"/>
       <use xlink:href="#ArialMT-30" x="111.230469"/>
      </g>
     </g>
    </g>
    <g id="text_36">
     <!-- DW position (nm) -->
     <g transform="translate(24.67125 595.759375)rotate(-90)scale(0.24 -0.24)">
      <defs>
       <path id="ArialMT-44" d="M 494 0 
L 494 4581 
L 2072 4581 
Q 2606 4581 2888 4516 
Q 3281 4425 3559 4188 
Q 3922 3881 4101 3404 
Q 4281 2928 4281 2316 
Q 4281 1794 4159 1391 
Q 4038 988 3847 723 
Q 3656 459 3429 307 
Q 3203 156 2883 78 
Q 2563 0 2147 0 
L 494 0 
z
M 1100 541 
L 2078 541 
Q 2531 541 2789 625 
Q 3047 709 3200 863 
Q 3416 1078 3536 1442 
Q 3656 1806 3656 2325 
Q 3656 3044 3420 3430 
Q 3184 3816 2847 3947 
Q 2603 4041 2063 4041 
L 1100 4041 
L 1100 541 
z
" transform="scale(0.015625)"/>
       <path id="ArialMT-57" d="M 1294 0 
L 78 4581 
L 700 4581 
L 1397 1578 
Q 1509 1106 1591 641 
Q 1766 1375 1797 1488 
L 2669 4581 
L 3400 4581 
L 4056 2263 
Q 4303 1400 4413 641 
Q 4500 1075 4641 1638 
L 5359 4581 
L 5969 4581 
L 4713 0 
L 4128 0 
L 3163 3491 
Q 3041 3928 3019 4028 
Q 2947 3713 2884 3491 
L 1913 0 
L 1294 0 
z
" transform="scale(0.015625)"/>
       <path id="ArialMT-70" d="M 422 -1272 
L 422 3319 
L 934 3319 
L 934 2888 
Q 1116 3141 1344 3267 
Q 1572 3394 1897 3394 
Q 2322 3394 2647 3175 
Q 2972 2956 3137 2557 
Q 3303 2159 3303 1684 
Q 3303 1175 3120 767 
Q 2938 359 2589 142 
Q 2241 -75 1856 -75 
Q 1575 -75 1351 44 
Q 1128 163 984 344 
L 984 -1272 
L 422 -1272 
z
M 931 1641 
Q 931 1000 1190 694 
Q 1450 388 1819 388 
Q 2194 388 2461 705 
Q 2728 1022 2728 1688 
Q 2728 2322 2467 2637 
Q 2206 2953 1844 2953 
Q 1484 2953 1207 2617 
Q 931 2281 931 1641 
z
" transform="scale(0.015625)"/>
       <path id="ArialMT-6f" d="M 213 1659 
Q 213 2581 725 3025 
Q 1153 3394 1769 3394 
Q 2453 3394 2887 2945 
Q 3322 2497 3322 1706 
Q 3322 1066 3130 698 
Q 2938 331 2570 128 
Q 2203 -75 1769 -75 
Q 1072 -75 642 372 
Q 213 819 213 1659 
z
M 791 1659 
Q 791 1022 1069 705 
Q 1347 388 1769 388 
Q 2188 388 2466 706 
Q 2744 1025 2744 1678 
Q 2744 2294 2464 2611 
Q 2184 2928 1769 2928 
Q 1347 2928 1069 2612 
Q 791 2297 791 1659 
z
" transform="scale(0.015625)"/>
       <path id="ArialMT-74" d="M 1650 503 
L 1731 6 
Q 1494 -44 1306 -44 
Q 1000 -44 831 53 
Q 663 150 594 308 
Q 525 466 525 972 
L 525 2881 
L 113 2881 
L 113 3319 
L 525 3319 
L 525 4141 
L 1084 4478 
L 1084 3319 
L 1650 3319 
L 1650 2881 
L 1084 2881 
L 1084 941 
Q 1084 700 1114 631 
Q 1144 563 1211 522 
Q 1278 481 1403 481 
Q 1497 481 1650 503 
z
" transform="scale(0.015625)"/>
      </defs>
      <use xlink:href="#ArialMT-44"/>
      <use xlink:href="#ArialMT-57" x="72.216797"/>
      <use xlink:href="#ArialMT-20" x="166.601562"/>
      <use xlink:href="#ArialMT-70" x="194.384766"/>
      <use xlink:href="#ArialMT-6f" x="250"/>
      <use xlink:href="#ArialMT-73" x="305.615234"/>
      <use xlink:href="#ArialMT-69" x="355.615234"/>
      <use xlink:href="#ArialMT-74" x="377.832031"/>
      <use xlink:href="#ArialMT-69" x="405.615234"/>
      <use xlink:href="#ArialMT-6f" x="427.832031"/>
      <use xlink:href="#ArialMT-6e" x="483.447266"/>
      <use xlink:href="#ArialMT-20" x="539.0625"/>
      <use xlink:href="#ArialMT-28" x="566.845703"/>
      <use xlink:href="#ArialMT-6e" x="600.146484"/>
      <use xlink:href="#ArialMT-6d" x="655.761719"/>
      <use xlink:href="#ArialMT-29" x="739.0625"/>
     </g>
    </g>
   </g>
   <g id="line2d_78">
    <path d="M 129.58625 644.76 
L 129.58625 361.4 
" clip-path="url(#pb30546ad4a)" style="fill: none; stroke-dasharray: 12.95,5.6; stroke-dashoffset: 0; stroke: #000000; stroke-width: 3.5"/>
   </g>
   <g id="line2d_79">
    <path d="M 373.71125 644.76 
L 373.71125 361.4 
" clip-path="url(#pb30546ad4a)" style="fill: none; stroke-dasharray: 12.95,5.6; stroke-dashoffset: 0; stroke: #000000; stroke-width: 3.5"/>
   </g>
   <g id="line2d_80">
    <path d="M 80.76125 600.306965 
L 85.156525 600.192601 
L 90.038732 599.831544 
L 94.921172 599.251656 
L 99.805353 598.461328 
L 104.687614 597.455221 
L 109.57002 596.225391 
L 114.93875 594.629706 
L 122.2625 592.181866 
L 131.052597 589.079562 
L 134.46875 587.415139 
L 138.865201 585.025233 
L 143.747669 582.109784 
L 159.370113 572.344 
L 164.252603 569.009069 
L 173.042183 562.87552 
L 177.436364 560.154445 
L 182.31908 557.43628 
L 191.10631 552.631653 
L 196.477167 549.367485 
L 207.70625 542.493894 
L 214.053991 538.522058 
L 217.960077 535.843748 
L 221.866023 532.896326 
L 227.725022 528.119833 
L 232.11875 524.683894 
L 235.538922 522.3252 
L 239.4425 519.95579 
L 244.325 517.319215 
L 250.185148 514.446789 
L 255.067549 512.308142 
L 260.438916 510.225433 
L 270.204028 506.512751 
L 274.597591 504.543841 
L 279.968772 501.843507 
L 285.340278 499.206986 
L 288.756355 497.796341 
L 292.175064 496.651475 
L 295.59132 495.738777 
L 299.988018 494.795569 
L 313.65753 492.055797 
L 317.563394 490.95654 
L 320.981538 489.763794 
L 324.400219 488.320194 
L 327.816349 486.627365 
L 332.212576 484.173658 
L 338.55881 480.612796 
L 341.977574 478.972418 
L 344.905046 477.808591 
L 347.835084 476.880744 
L 350.765118 476.184418 
L 353.695157 475.704639 
L 357.111379 475.392941 
L 360.530185 475.316757 
L 364.435159 475.477132 
L 368.342728 475.858105 
L 373.225236 476.577428 
L 375.666484 477.104883 
L 380.06021 478.274687 
L 394.218912 482.288297 
L 398.126333 483.037964 
L 401.542636 483.468258 
L 404.961407 483.682197 
L 408.866364 483.679694 
L 412.773829 483.455318 
L 417.656328 482.953347 
L 434.745078 480.992519 
L 440.113843 480.721952 
L 445.48512 480.673084 
L 451.833831 480.846713 
L 462.573878 481.418178 
L 470.875158 481.81131 
L 470.875158 481.81131 
" clip-path="url(#pb30546ad4a)" style="fill: none; stroke: #1f77b4; stroke-width: 3.5; stroke-linecap: square"/>
   </g>
   <g id="line2d_81">
    <path d="M 80.76125 600.317832 
L 86.134442 600.197126 
L 91.993295 599.837826 
L 98.827845 599.194375 
L 107.128846 598.186591 
L 117.38 596.711971 
L 127.145 595.098477 
L 130.0751 594.504446 
L 133.493783 593.284208 
L 136.91 591.790206 
L 140.817658 589.803511 
L 145.70016 587.038528 
L 152.535194 582.883683 
L 158.395292 579.089294 
L 161.811591 576.645276 
L 164.741329 574.296937 
L 168.15937 571.228854 
L 173.042183 566.483276 
L 183.29375 556.406227 
L 186.223887 553.943212 
L 189.642616 551.364381 
L 194.525033 548.037107 
L 209.172672 538.586353 
L 215.518771 534.651314 
L 219.9125 532.176054 
L 224.795 529.69744 
L 234.073816 525.06221 
L 238.467675 522.551663 
L 242.372286 520.070037 
L 246.76625 516.998884 
L 252.137565 512.941115 
L 260.927668 506.245258 
L 264.832522 503.59366 
L 269.226523 500.891541 
L 274.10884 498.156362 
L 279.48002 495.419582 
L 285.340278 492.70904 
L 291.686308 490.024195 
L 298.521745 487.380571 
L 304.870198 485.170366 
L 310.727551 483.351196 
L 317.075867 481.617515 
L 323.911457 479.985843 
L 334.165087 477.806389 
L 344.905046 475.47291 
L 352.228847 473.644125 
L 359.066333 471.698765 
L 375.666484 466.776333 
L 379.082669 466.17189 
L 382.501458 465.770343 
L 386.406409 465.546559 
L 390.313959 465.545857 
L 394.707679 465.767329 
L 400.078929 466.276444 
L 408.377599 467.33073 
L 418.631348 468.58421 
L 425.466324 469.176784 
L 431.815131 469.505718 
L 438.650124 469.637187 
L 446.462656 469.561364 
L 457.202616 469.213309 
L 470.875158 468.675251 
L 470.875158 468.675251 
" clip-path="url(#pb30546ad4a)" style="fill: none; stroke: #ff7f0e; stroke-width: 3.5; stroke-linecap: square"/>
   </g>
   <g id="line2d_82">
    <path d="M 80.76125 600.18998 
L 83.692005 600.074553 
L 87.109891 599.692343 
L 91.015262 599.007711 
L 96.875441 597.708724 
L 104.687614 595.996209 
L 109.57002 595.16 
L 113.963703 594.616784 
L 118.846643 594.244464 
L 123.728798 594.091047 
L 131.541345 593.937273 
L 135.447672 593.338836 
L 139.840132 592.423033 
L 144.722619 591.165842 
L 149.605154 589.69509 
L 154.976357 587.857685 
L 160.347548 585.80428 
L 165.230055 583.709918 
L 169.136769 581.798145 
L 173.042183 579.603611 
L 176.94762 577.12635 
L 181.830326 573.732756 
L 186.712647 570.063111 
L 199.896563 559.858157 
L 203.801251 557.350697 
L 213.079081 551.593949 
L 216.496258 549.062836 
L 219.9125 546.233651 
L 234.073816 534.181721 
L 237.978928 531.244553 
L 241.88375 528.584219 
L 246.279472 525.888348 
L 255.556296 520.584909 
L 259.950167 518.233981 
L 263.855 516.394914 
L 267.763302 514.839158 
L 271.17875 513.692134 
L 275.575094 512.454094 
L 281.433419 511.046224 
L 291.686308 508.605492 
L 296.568612 507.20584 
L 300.962759 505.717437 
L 304.870198 504.179681 
L 308.775091 502.430462 
L 313.65753 499.982143 
L 320.981538 496.007412 
L 331.723853 490.197519 
L 337.581282 487.312949 
L 341.977574 485.384089 
L 345.882582 483.910241 
L 349.78758 482.689977 
L 353.695157 481.70643 
L 358.088921 480.830104 
L 363.460218 479.991222 
L 371.272587 479.025823 
L 375.666484 478.633144 
L 381.037586 478.452885 
L 387.38395 478.467989 
L 394.707679 478.721299 
L 402.520165 479.220809 
L 410.332579 479.947269 
L 417.167628 480.792183 
L 424.002606 481.865459 
L 430.837599 483.174165 
L 451.833831 487.419136 
L 457.202616 488.14871 
L 462.573878 488.664726 
L 468.433915 489.001491 
L 470.875158 489.079692 
L 470.875158 489.079692 
" clip-path="url(#pb30546ad4a)" style="fill: none; stroke: #2ca02c; stroke-width: 3.5; stroke-linecap: square"/>
   </g>
   <g id="patch_8">
    <path d="M 80.76125 644.76 
L 80.76125 361.4 
" style="fill: none; stroke: #000000; stroke-width: 4; stroke-linejoin: miter; stroke-linecap: square"/>
   </g>
   <g id="patch_9">
    <path d="M 471.36125 644.76 
L 471.36125 361.4 
" style="fill: none; stroke: #000000; stroke-width: 4; stroke-linejoin: miter; stroke-linecap: square"/>
   </g>
   <g id="patch_10">
    <path d="M 80.76125 644.76 
L 471.36125 644.76 
" style="fill: none; stroke: #000000; stroke-width: 4; stroke-linejoin: miter; stroke-linecap: square"/>
   </g>
   <g id="patch_11">
    <path d="M 80.76125 361.4 
L 471.36125 361.4 
" style="fill: none; stroke: #000000; stroke-width: 4; stroke-linejoin: miter; stroke-linecap: square"/>
   </g>
  </g>
 </g>
 <defs>
  <clipPath id="pad1bd950bb">
   <rect x="80.76125" y="7.2" width="390.6" height="283.36"/>
  </clipPath>
  <clipPath id="pb30546ad4a">
   <rect x="80.76125" y="361.4" width="390.6" height="283.36"/>
  </clipPath>
 </defs>
</svg>
