<?xml version="1.0" encoding="utf-8" standalone="no"?>
<!DOCTYPE svg PUBLIC "-//W3C//DTD SVG 1.1//EN"
  "http://www.w3.org/Graphics/SVG/1.1/DTD/svg11.dtd">
<svg xmlns:xlink="http://www.w3.org/1999/xlink" width="491.9675pt" height="708.71pt" viewBox="0 0 491.9675 708.71" xmlns="http://www.w3.org/2000/svg" version="1.1">
 <metadata>
  <rdf:RDF xmlns:dc="http://purl.org/dc/elements/1.1/" xmlns:cc="http://creativecommons.org/ns#" xmlns:rdf="http://www.w3.org/1999/02/22-rdf-syntax-ns#">
   <cc:Work>
    <dc:type rdf:resource="http://purl.org/dc/dcmitype/StillImage"/>
    <dc:date>2022-09-15T15:32:43.413654</dc:date>
    <dc:format>image/svg+xml</dc:format>
    <dc:creator>
     <cc:Agent>
      <dc:title>Matplotlib v3.5.3, https://matplotlib.org/</dc:title>
     </cc:Agent>
    </dc:creator>
   </cc:Work>
  </rdf:RDF>
 </metadata>
 <defs>
  <style type="text/css">*{stroke-linejoin: round; stroke-linecap: butt}</style>
 </defs>
 <g id="figure_1">
  <g id="patch_1">
   <path d="M 0 708.71 
L 491.9675 708.71 
L 491.9675 0 
L 0 0 
z
" style="fill: #ffffff"/>
  </g>
  <g id="axes_1">
   <g id="patch_2">
    <path d="M 86.5325 290.56 
L 477.1325 290.56 
L 477.1325 7.2 
L 86.5325 7.2 
z
" style="fill: #ffffff"/>
   </g>
   <g id="matplotlib.axis_1">
    <g id="xtick_1">
     <g id="line2d_1">
      <path d="M 86.5325 290.56 
L 86.5325 7.2 
" clip-path="url(#p131f446771)" style="fill: none; stroke: #e2e2e2; stroke-width: 0.8; stroke-linecap: square"/>
     </g>
     <g id="line2d_2">
      <defs>
       <path id="m0fabc3007b" d="M 0 0 
L 0 3.5 
" style="stroke: #000000; stroke-width: 0.8"/>
      </defs>
      <g>
       <use xlink:href="#m0fabc3007b" x="86.5325" y="290.56" style="stroke: #000000; stroke-width: 0.8"/>
      </g>
     </g>
     <g id="text_1">
      <!-- 0 -->
      <g transform="translate(78.8975 315.79625)scale(0.24 -0.24)">
       <defs>
        <path id="DejaVuSans-30" d="M 2034 4250 
Q 1547 4250 1301 3770 
Q 1056 3291 1056 2328 
Q 1056 1369 1301 889 
Q 1547 409 2034 409 
Q 2525 409 2770 889 
Q 3016 1369 3016 2328 
Q 3016 3291 2770 3770 
Q 2525 4250 2034 4250 
z
M 2034 4750 
Q 2819 4750 3233 4129 
Q 3647 3509 3647 2328 
Q 3647 1150 3233 529 
Q 2819 -91 2034 -91 
Q 1250 -91 836 529 
Q 422 1150 422 2328 
Q 422 3509 836 4129 
Q 1250 4750 2034 4750 
z
" transform="scale(0.015625)"/>
       </defs>
       <use xlink:href="#DejaVuSans-30"/>
      </g>
     </g>
    </g>
    <g id="xtick_2">
     <g id="line2d_3">
      <path d="M 164.6525 290.56 
L 164.6525 7.2 
" clip-path="url(#p131f446771)" style="fill: none; stroke: #e2e2e2; stroke-width: 0.8; stroke-linecap: square"/>
     </g>
     <g id="line2d_4">
      <g>
       <use xlink:href="#m0fabc3007b" x="164.6525" y="290.56" style="stroke: #000000; stroke-width: 0.8"/>
      </g>
     </g>
     <g id="text_2">
      <!-- 1 -->
      <g transform="translate(157.0175 315.79625)scale(0.24 -0.24)">
       <defs>
        <path id="DejaVuSans-31" d="M 794 531 
L 1825 531 
L 1825 4091 
L 703 3866 
L 703 4441 
L 1819 4666 
L 2450 4666 
L 2450 531 
L 3481 531 
L 3481 0 
L 794 0 
L 794 531 
z
" transform="scale(0.015625)"/>
       </defs>
       <use xlink:href="#DejaVuSans-31"/>
      </g>
     </g>
    </g>
    <g id="xtick_3">
     <g id="line2d_5">
      <path d="M 242.7725 290.56 
L 242.7725 7.2 
" clip-path="url(#p131f446771)" style="fill: none; stroke: #e2e2e2; stroke-width: 0.8; stroke-linecap: square"/>
     </g>
     <g id="line2d_6">
      <g>
       <use xlink:href="#m0fabc3007b" x="242.7725" y="290.56" style="stroke: #000000; stroke-width: 0.8"/>
      </g>
     </g>
     <g id="text_3">
      <!-- 2 -->
      <g transform="translate(235.1375 315.79625)scale(0.24 -0.24)">
       <defs>
        <path id="DejaVuSans-32" d="M 1228 531 
L 3431 531 
L 3431 0 
L 469 0 
L 469 531 
Q 828 903 1448 1529 
Q 2069 2156 2228 2338 
Q 2531 2678 2651 2914 
Q 2772 3150 2772 3378 
Q 2772 3750 2511 3984 
Q 2250 4219 1831 4219 
Q 1534 4219 1204 4116 
Q 875 4013 500 3803 
L 500 4441 
Q 881 4594 1212 4672 
Q 1544 4750 1819 4750 
Q 2544 4750 2975 4387 
Q 3406 4025 3406 3419 
Q 3406 3131 3298 2873 
Q 3191 2616 2906 2266 
Q 2828 2175 2409 1742 
Q 1991 1309 1228 531 
z
" transform="scale(0.015625)"/>
       </defs>
       <use xlink:href="#DejaVuSans-32"/>
      </g>
     </g>
    </g>
    <g id="xtick_4">
     <g id="line2d_7">
      <path d="M 320.8925 290.56 
L 320.8925 7.2 
" clip-path="url(#p131f446771)" style="fill: none; stroke: #e2e2e2; stroke-width: 0.8; stroke-linecap: square"/>
     </g>
     <g id="line2d_8">
      <g>
       <use xlink:href="#m0fabc3007b" x="320.8925" y="290.56" style="stroke: #000000; stroke-width: 0.8"/>
      </g>
     </g>
     <g id="text_4">
      <!-- 3 -->
      <g transform="translate(313.2575 315.79625)scale(0.24 -0.24)">
       <defs>
        <path id="DejaVuSans-33" d="M 2597 2516 
Q 3050 2419 3304 2112 
Q 3559 1806 3559 1356 
Q 3559 666 3084 287 
Q 2609 -91 1734 -91 
Q 1441 -91 1130 -33 
Q 819 25 488 141 
L 488 750 
Q 750 597 1062 519 
Q 1375 441 1716 441 
Q 2309 441 2620 675 
Q 2931 909 2931 1356 
Q 2931 1769 2642 2001 
Q 2353 2234 1838 2234 
L 1294 2234 
L 1294 2753 
L 1863 2753 
Q 2328 2753 2575 2939 
Q 2822 3125 2822 3475 
Q 2822 3834 2567 4026 
Q 2313 4219 1838 4219 
Q 1578 4219 1281 4162 
Q 984 4106 628 3988 
L 628 4550 
Q 988 4650 1302 4700 
Q 1616 4750 1894 4750 
Q 2613 4750 3031 4423 
Q 3450 4097 3450 3541 
Q 3450 3153 3228 2886 
Q 3006 2619 2597 2516 
z
" transform="scale(0.015625)"/>
       </defs>
       <use xlink:href="#DejaVuSans-33"/>
      </g>
     </g>
    </g>
    <g id="xtick_5">
     <g id="line2d_9">
      <path d="M 399.0125 290.56 
L 399.0125 7.2 
" clip-path="url(#p131f446771)" style="fill: none; stroke: #e2e2e2; stroke-width: 0.8; stroke-linecap: square"/>
     </g>
     <g id="line2d_10">
      <g>
       <use xlink:href="#m0fabc3007b" x="399.0125" y="290.56" style="stroke: #000000; stroke-width: 0.8"/>
      </g>
     </g>
     <g id="text_5">
      <!-- 4 -->
      <g transform="translate(391.3775 315.79625)scale(0.24 -0.24)">
       <defs>
        <path id="DejaVuSans-34" d="M 2419 4116 
L 825 1625 
L 2419 1625 
L 2419 4116 
z
M 2253 4666 
L 3047 4666 
L 3047 1625 
L 3713 1625 
L 3713 1100 
L 3047 1100 
L 3047 0 
L 2419 0 
L 2419 1100 
L 313 1100 
L 313 1709 
L 2253 4666 
z
" transform="scale(0.015625)"/>
       </defs>
       <use xlink:href="#DejaVuSans-34"/>
      </g>
     </g>
    </g>
    <g id="xtick_6">
     <g id="line2d_11">
      <path d="M 477.1325 290.56 
L 477.1325 7.2 
" clip-path="url(#p131f446771)" style="fill: none; stroke: #e2e2e2; stroke-width: 0.8; stroke-linecap: square"/>
     </g>
     <g id="line2d_12">
      <g>
       <use xlink:href="#m0fabc3007b" x="477.1325" y="290.56" style="stroke: #000000; stroke-width: 0.8"/>
      </g>
     </g>
     <g id="text_6">
      <!-- 5 -->
      <g transform="translate(469.4975 315.79625)scale(0.24 -0.24)">
       <defs>
        <path id="DejaVuSans-35" d="M 691 4666 
L 3169 4666 
L 3169 4134 
L 1269 4134 
L 1269 2991 
Q 1406 3038 1543 3061 
Q 1681 3084 1819 3084 
Q 2600 3084 3056 2656 
Q 3513 2228 3513 1497 
Q 3513 744 3044 326 
Q 2575 -91 1722 -91 
Q 1428 -91 1123 -41 
Q 819 9 494 109 
L 494 744 
Q 775 591 1075 516 
Q 1375 441 1709 441 
Q 2250 441 2565 725 
Q 2881 1009 2881 1497 
Q 2881 1984 2565 2268 
Q 2250 2553 1709 2553 
Q 1456 2553 1204 2497 
Q 953 2441 691 2322 
L 691 4666 
z
" transform="scale(0.015625)"/>
       </defs>
       <use xlink:href="#DejaVuSans-35"/>
      </g>
     </g>
    </g>
    <g id="text_7">
     <!-- Time (ns) -->
     <g transform="translate(231.62 342.25875)scale(0.24 -0.24)">
      <defs>
       <path id="ArialMT-54" d="M 1659 0 
L 1659 4041 
L 150 4041 
L 150 4581 
L 3781 4581 
L 3781 4041 
L 2266 4041 
L 2266 0 
L 1659 0 
z
" transform="scale(0.015625)"/>
       <path id="ArialMT-69" d="M 425 3934 
L 425 4581 
L 988 4581 
L 988 3934 
L 425 3934 
z
M 425 0 
L 425 3319 
L 988 3319 
L 988 0 
L 425 0 
z
" transform="scale(0.015625)"/>
       <path id="ArialMT-6d" d="M 422 0 
L 422 3319 
L 925 3319 
L 925 2853 
Q 1081 3097 1340 3245 
Q 1600 3394 1931 3394 
Q 2300 3394 2536 3241 
Q 2772 3088 2869 2813 
Q 3263 3394 3894 3394 
Q 4388 3394 4653 3120 
Q 4919 2847 4919 2278 
L 4919 0 
L 4359 0 
L 4359 2091 
Q 4359 2428 4304 2576 
Q 4250 2725 4106 2815 
Q 3963 2906 3769 2906 
Q 3419 2906 3187 2673 
Q 2956 2441 2956 1928 
L 2956 0 
L 2394 0 
L 2394 2156 
Q 2394 2531 2256 2718 
Q 2119 2906 1806 2906 
Q 1569 2906 1367 2781 
Q 1166 2656 1075 2415 
Q 984 2175 984 1722 
L 984 0 
L 422 0 
z
" transform="scale(0.015625)"/>
       <path id="ArialMT-65" d="M 2694 1069 
L 3275 997 
Q 3138 488 2766 206 
Q 2394 -75 1816 -75 
Q 1088 -75 661 373 
Q 234 822 234 1631 
Q 234 2469 665 2931 
Q 1097 3394 1784 3394 
Q 2450 3394 2872 2941 
Q 3294 2488 3294 1666 
Q 3294 1616 3291 1516 
L 816 1516 
Q 847 969 1125 678 
Q 1403 388 1819 388 
Q 2128 388 2347 550 
Q 2566 713 2694 1069 
z
M 847 1978 
L 2700 1978 
Q 2663 2397 2488 2606 
Q 2219 2931 1791 2931 
Q 1403 2931 1139 2672 
Q 875 2413 847 1978 
z
" transform="scale(0.015625)"/>
       <path id="ArialMT-20" transform="scale(0.015625)"/>
       <path id="ArialMT-28" d="M 1497 -1347 
Q 1031 -759 709 28 
Q 388 816 388 1659 
Q 388 2403 628 3084 
Q 909 3875 1497 4659 
L 1900 4659 
Q 1522 4009 1400 3731 
Q 1209 3300 1100 2831 
Q 966 2247 966 1656 
Q 966 153 1900 -1347 
L 1497 -1347 
z
" transform="scale(0.015625)"/>
       <path id="ArialMT-6e" d="M 422 0 
L 422 3319 
L 928 3319 
L 928 2847 
Q 1294 3394 1984 3394 
Q 2284 3394 2536 3286 
Q 2788 3178 2913 3003 
Q 3038 2828 3088 2588 
Q 3119 2431 3119 2041 
L 3119 0 
L 2556 0 
L 2556 2019 
Q 2556 2363 2490 2533 
Q 2425 2703 2258 2804 
Q 2091 2906 1866 2906 
Q 1506 2906 1245 2678 
Q 984 2450 984 1813 
L 984 0 
L 422 0 
z
" transform="scale(0.015625)"/>
       <path id="ArialMT-73" d="M 197 991 
L 753 1078 
Q 800 744 1014 566 
Q 1228 388 1613 388 
Q 2000 388 2187 545 
Q 2375 703 2375 916 
Q 2375 1106 2209 1216 
Q 2094 1291 1634 1406 
Q 1016 1563 777 1677 
Q 538 1791 414 1992 
Q 291 2194 291 2438 
Q 291 2659 392 2848 
Q 494 3038 669 3163 
Q 800 3259 1026 3326 
Q 1253 3394 1513 3394 
Q 1903 3394 2198 3281 
Q 2494 3169 2634 2976 
Q 2775 2784 2828 2463 
L 2278 2388 
Q 2241 2644 2061 2787 
Q 1881 2931 1553 2931 
Q 1166 2931 1000 2803 
Q 834 2675 834 2503 
Q 834 2394 903 2306 
Q 972 2216 1119 2156 
Q 1203 2125 1616 2013 
Q 2213 1853 2448 1751 
Q 2684 1650 2818 1456 
Q 2953 1263 2953 975 
Q 2953 694 2789 445 
Q 2625 197 2315 61 
Q 2006 -75 1616 -75 
Q 969 -75 630 194 
Q 291 463 197 991 
z
" transform="scale(0.015625)"/>
       <path id="ArialMT-29" d="M 791 -1347 
L 388 -1347 
Q 1322 153 1322 1656 
Q 1322 2244 1188 2822 
Q 1081 3291 891 3722 
Q 769 4003 388 4659 
L 791 4659 
Q 1378 3875 1659 3084 
Q 1900 2403 1900 1659 
Q 1900 816 1576 28 
Q 1253 -759 791 -1347 
z
" transform="scale(0.015625)"/>
      </defs>
      <use xlink:href="#ArialMT-54"/>
      <use xlink:href="#ArialMT-69" x="57.333984"/>
      <use xlink:href="#ArialMT-6d" x="79.550781"/>
      <use xlink:href="#ArialMT-65" x="162.851562"/>
      <use xlink:href="#ArialMT-20" x="218.466797"/>
      <use xlink:href="#ArialMT-28" x="246.25"/>
      <use xlink:href="#ArialMT-6e" x="279.550781"/>
      <use xlink:href="#ArialMT-73" x="335.166016"/>
      <use xlink:href="#ArialMT-29" x="385.166016"/>
     </g>
    </g>
   </g>
   <g id="matplotlib.axis_2">
    <g id="ytick_1">
     <g id="line2d_13">
      <path d="M 86.5325 290.56 
L 477.1325 290.56 
" clip-path="url(#p131f446771)" style="fill: none; stroke: #e2e2e2; stroke-width: 0.8; stroke-linecap: square"/>
     </g>
     <g id="line2d_14">
      <defs>
       <path id="m8c9d4106df" d="M 0 0 
L -3.5 0 
" style="stroke: #000000; stroke-width: 0.8"/>
      </defs>
      <g>
       <use xlink:href="#m8c9d4106df" x="86.5325" y="290.56" style="stroke: #000000; stroke-width: 0.8"/>
      </g>
     </g>
     <g id="text_8">
      <!-- 0 -->
      <g transform="translate(66.18625 299.149375)scale(0.24 -0.24)">
       <defs>
        <path id="ArialMT-30" d="M 266 2259 
Q 266 3072 433 3567 
Q 600 4063 929 4331 
Q 1259 4600 1759 4600 
Q 2128 4600 2406 4451 
Q 2684 4303 2865 4023 
Q 3047 3744 3150 3342 
Q 3253 2941 3253 2259 
Q 3253 1453 3087 958 
Q 2922 463 2592 192 
Q 2263 -78 1759 -78 
Q 1097 -78 719 397 
Q 266 969 266 2259 
z
M 844 2259 
Q 844 1131 1108 757 
Q 1372 384 1759 384 
Q 2147 384 2411 759 
Q 2675 1134 2675 2259 
Q 2675 3391 2411 3762 
Q 2147 4134 1753 4134 
Q 1366 4134 1134 3806 
Q 844 3388 844 2259 
z
" transform="scale(0.015625)"/>
       </defs>
       <use xlink:href="#ArialMT-30"/>
      </g>
     </g>
    </g>
    <g id="ytick_2">
     <g id="line2d_15">
      <path d="M 86.5325 259.075556 
L 477.1325 259.075556 
" clip-path="url(#p131f446771)" style="fill: none; stroke: #e2e2e2; stroke-width: 0.8; stroke-linecap: square"/>
     </g>
     <g id="line2d_16">
      <g>
       <use xlink:href="#m8c9d4106df" x="86.5325" y="259.075556" style="stroke: #000000; stroke-width: 0.8"/>
      </g>
     </g>
    </g>
    <g id="ytick_3">
     <g id="line2d_17">
      <path d="M 86.5325 227.591111 
L 477.1325 227.591111 
" clip-path="url(#p131f446771)" style="fill: none; stroke: #e2e2e2; stroke-width: 0.8; stroke-linecap: square"/>
     </g>
     <g id="line2d_18">
      <g>
       <use xlink:href="#m8c9d4106df" x="86.5325" y="227.591111" style="stroke: #000000; stroke-width: 0.8"/>
      </g>
     </g>
     <g id="text_9">
      <!-- 1 -->
      <g transform="translate(66.18625 236.180486)scale(0.24 -0.24)">
       <defs>
        <path id="ArialMT-31" d="M 2384 0 
L 1822 0 
L 1822 3584 
Q 1619 3391 1289 3197 
Q 959 3003 697 2906 
L 697 3450 
Q 1169 3672 1522 3987 
Q 1875 4303 2022 4600 
L 2384 4600 
L 2384 0 
z
" transform="scale(0.015625)"/>
       </defs>
       <use xlink:href="#ArialMT-31"/>
      </g>
     </g>
    </g>
    <g id="ytick_4">
     <g id="line2d_19">
      <path d="M 86.5325 196.106667 
L 477.1325 196.106667 
" clip-path="url(#p131f446771)" style="fill: none; stroke: #e2e2e2; stroke-width: 0.8; stroke-linecap: square"/>
     </g>
     <g id="line2d_20">
      <g>
       <use xlink:href="#m8c9d4106df" x="86.5325" y="196.106667" style="stroke: #000000; stroke-width: 0.8"/>
      </g>
     </g>
    </g>
    <g id="ytick_5">
     <g id="line2d_21">
      <path d="M 86.5325 164.622222 
L 477.1325 164.622222 
" clip-path="url(#p131f446771)" style="fill: none; stroke: #e2e2e2; stroke-width: 0.8; stroke-linecap: square"/>
     </g>
     <g id="line2d_22">
      <g>
       <use xlink:href="#m8c9d4106df" x="86.5325" y="164.622222" style="stroke: #000000; stroke-width: 0.8"/>
      </g>
     </g>
     <g id="text_10">
      <!-- 2 -->
      <g transform="translate(66.18625 173.211597)scale(0.24 -0.24)">
       <defs>
        <path id="ArialMT-32" d="M 3222 541 
L 3222 0 
L 194 0 
Q 188 203 259 391 
Q 375 700 629 1000 
Q 884 1300 1366 1694 
Q 2113 2306 2375 2664 
Q 2638 3022 2638 3341 
Q 2638 3675 2398 3904 
Q 2159 4134 1775 4134 
Q 1369 4134 1125 3890 
Q 881 3647 878 3216 
L 300 3275 
Q 359 3922 746 4261 
Q 1134 4600 1788 4600 
Q 2447 4600 2831 4234 
Q 3216 3869 3216 3328 
Q 3216 3053 3103 2787 
Q 2991 2522 2730 2228 
Q 2469 1934 1863 1422 
Q 1356 997 1212 845 
Q 1069 694 975 541 
L 3222 541 
z
" transform="scale(0.015625)"/>
       </defs>
       <use xlink:href="#ArialMT-32"/>
      </g>
     </g>
    </g>
    <g id="ytick_6">
     <g id="line2d_23">
      <path d="M 86.5325 133.137778 
L 477.1325 133.137778 
" clip-path="url(#p131f446771)" style="fill: none; stroke: #e2e2e2; stroke-width: 0.8; stroke-linecap: square"/>
     </g>
     <g id="line2d_24">
      <g>
       <use xlink:href="#m8c9d4106df" x="86.5325" y="133.137778" style="stroke: #000000; stroke-width: 0.8"/>
      </g>
     </g>
    </g>
    <g id="ytick_7">
     <g id="line2d_25">
      <path d="M 86.5325 101.653333 
L 477.1325 101.653333 
" clip-path="url(#p131f446771)" style="fill: none; stroke: #e2e2e2; stroke-width: 0.8; stroke-linecap: square"/>
     </g>
     <g id="line2d_26">
      <g>
       <use xlink:href="#m8c9d4106df" x="86.5325" y="101.653333" style="stroke: #000000; stroke-width: 0.8"/>
      </g>
     </g>
     <g id="text_11">
      <!-- 3 -->
      <g transform="translate(66.18625 110.242708)scale(0.24 -0.24)">
       <defs>
        <path id="ArialMT-33" d="M 269 1209 
L 831 1284 
Q 928 806 1161 595 
Q 1394 384 1728 384 
Q 2125 384 2398 659 
Q 2672 934 2672 1341 
Q 2672 1728 2419 1979 
Q 2166 2231 1775 2231 
Q 1616 2231 1378 2169 
L 1441 2663 
Q 1497 2656 1531 2656 
Q 1891 2656 2178 2843 
Q 2466 3031 2466 3422 
Q 2466 3731 2256 3934 
Q 2047 4138 1716 4138 
Q 1388 4138 1169 3931 
Q 950 3725 888 3313 
L 325 3413 
Q 428 3978 793 4289 
Q 1159 4600 1703 4600 
Q 2078 4600 2393 4439 
Q 2709 4278 2876 4000 
Q 3044 3722 3044 3409 
Q 3044 3113 2884 2869 
Q 2725 2625 2413 2481 
Q 2819 2388 3044 2092 
Q 3269 1797 3269 1353 
Q 3269 753 2831 336 
Q 2394 -81 1725 -81 
Q 1122 -81 723 278 
Q 325 638 269 1209 
z
" transform="scale(0.015625)"/>
       </defs>
       <use xlink:href="#ArialMT-33"/>
      </g>
     </g>
    </g>
    <g id="ytick_8">
     <g id="line2d_27">
      <path d="M 86.5325 70.168889 
L 477.1325 70.168889 
" clip-path="url(#p131f446771)" style="fill: none; stroke: #e2e2e2; stroke-width: 0.8; stroke-linecap: square"/>
     </g>
     <g id="line2d_28">
      <g>
       <use xlink:href="#m8c9d4106df" x="86.5325" y="70.168889" style="stroke: #000000; stroke-width: 0.8"/>
      </g>
     </g>
    </g>
    <g id="ytick_9">
     <g id="line2d_29">
      <path d="M 86.5325 38.684444 
L 477.1325 38.684444 
" clip-path="url(#p131f446771)" style="fill: none; stroke: #e2e2e2; stroke-width: 0.8; stroke-linecap: square"/>
     </g>
     <g id="line2d_30">
      <g>
       <use xlink:href="#m8c9d4106df" x="86.5325" y="38.684444" style="stroke: #000000; stroke-width: 0.8"/>
      </g>
     </g>
     <g id="text_12">
      <!-- 4 -->
      <g transform="translate(66.18625 47.273819)scale(0.24 -0.24)">
       <defs>
        <path id="ArialMT-34" d="M 2069 0 
L 2069 1097 
L 81 1097 
L 81 1613 
L 2172 4581 
L 2631 4581 
L 2631 1613 
L 3250 1613 
L 3250 1097 
L 2631 1097 
L 2631 0 
L 2069 0 
z
M 2069 1613 
L 2069 3678 
L 634 1613 
L 2069 1613 
z
" transform="scale(0.015625)"/>
       </defs>
       <use xlink:href="#ArialMT-34"/>
      </g>
     </g>
    </g>
    <g id="ytick_10">
     <g id="line2d_31">
      <path d="M 86.5325 7.2 
L 477.1325 7.2 
" clip-path="url(#p131f446771)" style="fill: none; stroke: #e2e2e2; stroke-width: 0.8; stroke-linecap: square"/>
     </g>
     <g id="line2d_32">
      <g>
       <use xlink:href="#m8c9d4106df" x="86.5325" y="7.2" style="stroke: #000000; stroke-width: 0.8"/>
      </g>
     </g>
    </g>
    <g id="text_13">
     <!-- J$_2$ (A/m$^2$) -->
     <g transform="translate(56.90625 199.16)rotate(-90)scale(0.24 -0.24)">
      <defs>
       <path id="ArialMT-4a" d="M 184 1300 
L 731 1375 
Q 753 850 928 656 
Q 1103 463 1413 463 
Q 1641 463 1806 567 
Q 1972 672 2034 851 
Q 2097 1031 2097 1425 
L 2097 4581 
L 2703 4581 
L 2703 1459 
Q 2703 884 2564 568 
Q 2425 253 2123 87 
Q 1822 -78 1416 -78 
Q 813 -78 492 269 
Q 172 616 184 1300 
z
" transform="scale(0.015625)"/>
       <path id="ArialMT-41" d="M -9 0 
L 1750 4581 
L 2403 4581 
L 4278 0 
L 3588 0 
L 3053 1388 
L 1138 1388 
L 634 0 
L -9 0 
z
M 1313 1881 
L 2866 1881 
L 2388 3150 
Q 2169 3728 2063 4100 
Q 1975 3659 1816 3225 
L 1313 1881 
z
" transform="scale(0.015625)"/>
       <path id="ArialMT-2f" d="M 0 -78 
L 1328 4659 
L 1778 4659 
L 453 -78 
L 0 -78 
z
" transform="scale(0.015625)"/>
      </defs>
      <use xlink:href="#ArialMT-4a" transform="translate(0 0.765625)"/>
      <use xlink:href="#DejaVuSans-32" transform="translate(50.957031 -15.640625)scale(0.7)"/>
      <use xlink:href="#ArialMT-20" transform="translate(98.227539 0.765625)"/>
      <use xlink:href="#ArialMT-28" transform="translate(126.010742 0.765625)"/>
      <use xlink:href="#ArialMT-41" transform="translate(159.311523 0.765625)"/>
      <use xlink:href="#ArialMT-2f" transform="translate(226.010742 0.765625)"/>
      <use xlink:href="#ArialMT-6d" transform="translate(253.793945 0.765625)"/>
      <use xlink:href="#DejaVuSans-32" transform="translate(338.051758 39.046875)scale(0.7)"/>
      <use xlink:href="#ArialMT-29" transform="translate(385.322266 0.765625)"/>
     </g>
    </g>
   </g>
   <g id="line2d_33">
    <path d="M 86.5325 290.56 
L 90.4385 290.56 
L 94.3445 290.56 
L 98.2505 290.56 
L 102.1565 290.56 
L 106.0625 290.56 
L 109.9685 290.56 
L 113.8745 290.56 
L 117.7805 290.56 
L 121.6865 290.56 
L 125.5925 290.56 
L 129.4985 290.56 
L 133.4045 290.56 
L 137.3105 290.56 
L 141.2165 290.56 
L 145.1225 290.56 
L 149.0285 290.56 
L 152.9345 290.56 
L 156.8405 290.56 
L 160.7465 290.56 
L 164.6525 102.288351 
L 168.5585 101.653333 
L 172.4645 101.653333 
L 176.3705 101.653333 
L 180.2765 101.653333 
L 184.1825 101.653333 
L 188.0885 101.653333 
L 191.9945 101.653333 
L 195.9005 101.653333 
L 199.8065 101.653333 
L 203.7125 101.653333 
L 207.6185 101.653333 
L 211.5245 101.653333 
L 215.4305 101.653333 
L 219.3365 101.653333 
L 223.2425 101.653333 
L 227.1485 101.653333 
L 231.0545 101.653333 
L 234.9605 101.653333 
L 238.8665 101.653333 
L 242.7725 101.653333 
L 246.6785 101.653333 
L 250.5845 101.653333 
L 254.4905 101.653333 
L 258.3965 101.653333 
L 262.3025 101.653333 
L 266.2085 101.653333 
L 270.1145 101.653333 
L 274.0205 101.653333 
L 277.9265 101.653333 
L 281.8325 101.653333 
L 285.7385 143.084718 
L 289.6445 172.83043 
L 293.5505 192.376555 
L 297.4565 206.177627 
L 301.3625 216.55276 
L 305.2685 224.74056 
L 309.1745 227.591111 
L 313.0805 227.591111 
L 316.9865 227.591111 
L 320.8925 227.591111 
L 324.7985 227.591111 
L 328.7045 227.591111 
L 332.6105 227.591111 
L 336.5165 227.591111 
L 340.4225 227.591111 
L 344.3285 227.591111 
L 348.2345 227.591111 
L 352.1405 227.591111 
L 356.0465 227.591111 
L 359.9525 227.591111 
L 363.8585 227.591111 
L 367.7645 227.591111 
L 371.6705 227.591111 
L 375.5765 227.591111 
L 379.4825 227.591111 
L 383.3885 227.591111 
L 387.2945 227.591111 
L 391.2005 227.591111 
L 395.1065 227.591111 
L 399.0125 290.56 
L 402.9185 290.56 
L 406.8245 290.56 
L 410.7305 290.56 
L 414.6365 290.56 
L 418.5425 290.56 
L 422.4485 290.56 
L 426.3545 290.56 
L 430.2605 290.56 
L 434.1665 290.56 
L 438.0725 290.56 
L 441.9785 290.56 
L 445.8845 290.56 
L 449.7905 290.56 
L 453.6965 290.56 
L 457.6025 290.56 
L 461.5085 290.56 
L 465.4145 290.56 
L 469.3205 290.56 
L 473.2265 290.56 
L 477.1325 290.56 
L 481.0385 290.56 
L 484.9445 290.56 
L 488.8505 290.56 
L 492.7565 290.56 
L 492.9675 290.56 
" clip-path="url(#p131f446771)" style="fill: none; stroke: #1f77b4; stroke-width: 3.5; stroke-linecap: square"/>
   </g>
   <g id="line2d_34">
    <path d="M 86.5325 290.56 
L 90.4385 290.56 
L 94.3445 290.56 
L 98.2505 290.56 
L 102.1565 290.56 
L 106.0625 290.56 
L 109.9685 290.56 
L 113.8745 290.56 
L 117.7805 290.56 
L 121.6865 290.56 
L 125.5925 290.56 
L 129.4985 290.56 
L 133.4045 290.56 
L 137.3105 290.56 
L 141.2165 290.56 
L 145.1225 290.56 
L 149.0285 290.56 
L 152.9345 290.56 
L 156.8405 290.56 
L 160.7465 290.56 
L 164.6525 102.288351 
L 168.5585 101.653333 
L 172.4645 101.653333 
L 176.3705 101.653333 
L 180.2765 101.653333 
L 184.1825 101.653333 
L 188.0885 101.653333 
L 191.9945 101.653333 
L 195.9005 101.653333 
L 199.8065 101.653333 
L 203.7125 101.653333 
L 207.6185 101.653333 
L 211.5245 101.653333 
L 215.4305 101.653333 
L 219.3365 101.653333 
L 223.2425 101.653333 
L 227.1485 101.653333 
L 231.0545 101.653333 
L 234.9605 101.653333 
L 238.8665 101.653333 
L 242.7725 101.653333 
L 246.6785 101.653333 
L 250.5845 101.653333 
L 254.4905 101.653333 
L 258.3965 101.653333 
L 262.3025 101.653333 
L 266.2085 101.653333 
L 270.1145 101.653333 
L 274.0205 101.653333 
L 277.9265 101.653333 
L 281.8325 114.344719 
L 285.7385 158.385052 
L 289.6445 184.936505 
L 293.5505 202.354946 
L 297.4565 214.454759 
L 301.3625 223.148273 
L 305.2685 227.591111 
L 309.1745 227.591111 
L 313.0805 227.591111 
L 316.9865 227.591111 
L 320.8925 227.591111 
L 324.7985 227.591111 
L 328.7045 227.591111 
L 332.6105 227.591111 
L 336.5165 227.591111 
L 340.4225 227.591111 
L 344.3285 227.591111 
L 348.2345 227.591111 
L 352.1405 227.591111 
L 356.0465 227.591111 
L 359.9525 227.591111 
L 363.8585 227.591111 
L 367.7645 227.591111 
L 371.6705 227.591111 
L 375.5765 227.591111 
L 379.4825 227.591111 
L 383.3885 227.591111 
L 387.2945 227.591111 
L 391.2005 227.591111 
L 395.1065 227.591111 
L 399.0125 290.56 
L 402.9185 290.56 
L 406.8245 290.56 
L 410.7305 290.56 
L 414.6365 290.56 
L 418.5425 290.56 
L 422.4485 290.56 
L 426.3545 290.56 
L 430.2605 290.56 
L 434.1665 290.56 
L 438.0725 290.56 
L 441.9785 290.56 
L 445.8845 290.56 
L 449.7905 290.56 
L 453.6965 290.56 
L 457.6025 290.56 
L 461.5085 290.56 
L 465.4145 290.56 
L 469.3205 290.56 
L 473.2265 290.56 
L 477.1325 290.56 
L 481.0385 290.56 
L 484.9445 290.56 
L 488.8505 290.56 
L 492.7565 290.56 
L 492.9675 290.56 
" clip-path="url(#p131f446771)" style="fill: none; stroke: #ff7f0e; stroke-width: 3.5; stroke-linecap: square"/>
   </g>
   <g id="line2d_35">
    <path d="M 86.5325 290.56 
L 90.4385 290.56 
L 94.3445 290.56 
L 98.2505 290.56 
L 102.1565 290.56 
L 106.0625 290.56 
L 109.9685 290.56 
L 113.8745 290.56 
L 117.7805 290.56 
L 121.6865 290.56 
L 125.5925 290.56 
L 129.4985 290.56 
L 133.4045 290.56 
L 137.3105 290.56 
L 141.2165 290.56 
L 145.1225 290.56 
L 149.0285 290.56 
L 152.9345 290.56 
L 156.8405 290.56 
L 160.7465 290.56 
L 164.6525 102.288351 
L 168.5585 101.653333 
L 172.4645 101.653333 
L 176.3705 101.653333 
L 180.2765 101.653333 
L 184.1825 101.653333 
L 188.0885 101.653333 
L 191.9945 101.653333 
L 195.9005 101.653333 
L 199.8065 101.653333 
L 203.7125 101.653333 
L 207.6185 101.653333 
L 211.5245 101.653333 
L 215.4305 101.653333 
L 219.3365 101.653333 
L 223.2425 101.653333 
L 227.1485 101.653333 
L 231.0545 101.653333 
L 234.9605 101.653333 
L 238.8665 101.653333 
L 242.7725 101.653333 
L 246.6785 101.653333 
L 250.5845 101.653333 
L 254.4905 101.653333 
L 258.3965 101.653333 
L 262.3025 101.653333 
L 266.2085 101.653333 
L 270.1145 101.653333 
L 274.0205 101.653333 
L 277.9265 101.653333 
L 281.8325 101.653333 
L 285.7385 101.653333 
L 289.6445 101.653333 
L 293.5505 116.839941 
L 297.4565 148.711785 
L 301.3625 172.793434 
L 305.2685 191.286326 
L 309.1745 205.523186 
L 313.0805 216.545759 
L 316.9865 225.178583 
L 320.8925 227.591111 
L 324.7985 227.591111 
L 328.7045 227.591111 
L 332.6105 227.591111 
L 336.5165 227.591111 
L 340.4225 227.591111 
L 344.3285 227.591111 
L 348.2345 227.591111 
L 352.1405 227.591111 
L 356.0465 227.591111 
L 359.9525 227.591111 
L 363.8585 227.591111 
L 367.7645 227.591111 
L 371.6705 227.591111 
L 375.5765 227.591111 
L 379.4825 227.591111 
L 383.3885 227.591111 
L 387.2945 227.591111 
L 391.2005 227.591111 
L 395.1065 227.591111 
L 399.0125 290.56 
L 402.9185 290.56 
L 406.8245 290.56 
L 410.7305 290.56 
L 414.6365 290.56 
L 418.5425 290.56 
L 422.4485 290.56 
L 426.3545 290.56 
L 430.2605 290.56 
L 434.1665 290.56 
L 438.0725 290.56 
L 441.9785 290.56 
L 445.8845 290.56 
L 449.7905 290.56 
L 453.6965 290.56 
L 457.6025 290.56 
L 461.5085 290.56 
L 465.4145 290.56 
L 469.3205 290.56 
L 473.2265 290.56 
L 477.1325 290.56 
L 481.0385 290.56 
L 484.9445 290.56 
L 488.8505 290.56 
L 492.7565 290.56 
L 492.9675 290.56 
" clip-path="url(#p131f446771)" style="fill: none; stroke: #2ca02c; stroke-width: 3.5; stroke-linecap: square"/>
   </g>
   <g id="patch_3">
    <path d="M 86.5325 290.56 
L 86.5325 7.2 
" style="fill: none; stroke: #000000; stroke-width: 4; stroke-linejoin: miter; stroke-linecap: square"/>
   </g>
   <g id="patch_4">
    <path d="M 477.1325 290.56 
L 477.1325 7.2 
" style="fill: none; stroke: #000000; stroke-width: 4; stroke-linejoin: miter; stroke-linecap: square"/>
   </g>
   <g id="patch_5">
    <path d="M 86.5325 290.56 
L 477.1325 290.56 
" style="fill: none; stroke: #000000; stroke-width: 4; stroke-linejoin: miter; stroke-linecap: square"/>
   </g>
   <g id="patch_6">
    <path d="M 86.5325 7.2 
L 477.1325 7.2 
" style="fill: none; stroke: #000000; stroke-width: 4; stroke-linejoin: miter; stroke-linecap: square"/>
   </g>
  </g>
  <g id="axes_2">
   <g id="patch_7">
    <path d="M 86.5325 644.76 
L 477.1325 644.76 
L 477.1325 361.4 
L 86.5325 361.4 
z
" style="fill: #ffffff"/>
   </g>
   <g id="matplotlib.axis_3">
    <g id="xtick_7">
     <g id="line2d_36">
      <path d="M 86.5325 644.76 
L 86.5325 361.4 
" clip-path="url(#pb315b041b7)" style="fill: none; stroke: #e2e2e2; stroke-width: 0.8; stroke-linecap: square"/>
     </g>
     <g id="line2d_37">
      <g>
       <use xlink:href="#m0fabc3007b" x="86.5325" y="644.76" style="stroke: #000000; stroke-width: 0.8"/>
      </g>
     </g>
     <g id="text_14">
      <!-- 0 -->
      <g transform="translate(78.8975 669.99625)scale(0.24 -0.24)">
       <use xlink:href="#DejaVuSans-30"/>
      </g>
     </g>
    </g>
    <g id="xtick_8">
     <g id="line2d_38">
      <path d="M 216.949852 644.76 
L 216.949852 361.4 
" clip-path="url(#pb315b041b7)" style="fill: none; stroke: #e2e2e2; stroke-width: 0.8; stroke-linecap: square"/>
     </g>
     <g id="line2d_39">
      <g>
       <use xlink:href="#m0fabc3007b" x="216.949852" y="644.76" style="stroke: #000000; stroke-width: 0.8"/>
      </g>
     </g>
     <g id="text_15">
      <!-- 2 -->
      <g transform="translate(209.314852 669.99625)scale(0.24 -0.24)">
       <use xlink:href="#DejaVuSans-32"/>
      </g>
     </g>
    </g>
    <g id="xtick_9">
     <g id="line2d_40">
      <path d="M 347.367204 644.76 
L 347.367204 361.4 
" clip-path="url(#pb315b041b7)" style="fill: none; stroke: #e2e2e2; stroke-width: 0.8; stroke-linecap: square"/>
     </g>
     <g id="line2d_41">
      <g>
       <use xlink:href="#m0fabc3007b" x="347.367204" y="644.76" style="stroke: #000000; stroke-width: 0.8"/>
      </g>
     </g>
     <g id="text_16">
      <!-- 4 -->
      <g transform="translate(339.732204 669.99625)scale(0.24 -0.24)">
       <use xlink:href="#DejaVuSans-34"/>
      </g>
     </g>
    </g>
    <g id="text_17">
     <!-- Time (ns) -->
     <g transform="translate(231.62 696.45875)scale(0.24 -0.24)">
      <use xlink:href="#ArialMT-54"/>
      <use xlink:href="#ArialMT-69" x="57.333984"/>
      <use xlink:href="#ArialMT-6d" x="79.550781"/>
      <use xlink:href="#ArialMT-65" x="162.851562"/>
      <use xlink:href="#ArialMT-20" x="218.466797"/>
      <use xlink:href="#ArialMT-28" x="246.25"/>
      <use xlink:href="#ArialMT-6e" x="279.550781"/>
      <use xlink:href="#ArialMT-73" x="335.166016"/>
      <use xlink:href="#ArialMT-29" x="385.166016"/>
     </g>
    </g>
   </g>
   <g id="matplotlib.axis_4">
    <g id="ytick_11">
     <g id="line2d_42">
      <path d="M 86.5325 644.76 
L 477.1325 644.76 
" clip-path="url(#pb315b041b7)" style="fill: none; stroke: #e2e2e2; stroke-width: 0.8; stroke-linecap: square"/>
     </g>
     <g id="line2d_43">
      <g>
       <use xlink:href="#m8c9d4106df" x="86.5325" y="644.76" style="stroke: #000000; stroke-width: 0.8"/>
      </g>
     </g>
     <g id="text_18">
      <!-- 0 -->
      <g transform="translate(64.2625 653.878125)scale(0.24 -0.24)">
       <use xlink:href="#DejaVuSans-30"/>
      </g>
     </g>
    </g>
    <g id="ytick_12">
     <g id="line2d_44">
      <path d="M 86.5325 539.811852 
L 477.1325 539.811852 
" clip-path="url(#pb315b041b7)" style="fill: none; stroke: #e2e2e2; stroke-width: 0.8; stroke-linecap: square"/>
     </g>
     <g id="line2d_45">
      <g>
       <use xlink:href="#m8c9d4106df" x="86.5325" y="539.811852" style="stroke: #000000; stroke-width: 0.8"/>
      </g>
     </g>
     <g id="text_19">
      <!-- 50 -->
      <g transform="translate(48.9925 548.929977)scale(0.24 -0.24)">
       <use xlink:href="#DejaVuSans-35"/>
       <use xlink:href="#DejaVuSans-30" x="63.623047"/>
      </g>
     </g>
    </g>
    <g id="ytick_13">
     <g id="line2d_46">
      <path d="M 86.5325 434.863704 
L 477.1325 434.863704 
" clip-path="url(#pb315b041b7)" style="fill: none; stroke: #e2e2e2; stroke-width: 0.8; stroke-linecap: square"/>
     </g>
     <g id="line2d_47">
      <g>
       <use xlink:href="#m8c9d4106df" x="86.5325" y="434.863704" style="stroke: #000000; stroke-width: 0.8"/>
      </g>
     </g>
     <g id="text_20">
      <!-- 100 -->
      <g transform="translate(33.7225 443.981829)scale(0.24 -0.24)">
       <use xlink:href="#DejaVuSans-31"/>
       <use xlink:href="#DejaVuSans-30" x="63.623047"/>
       <use xlink:href="#DejaVuSans-30" x="127.246094"/>
      </g>
     </g>
    </g>
    <g id="text_21">
     <!-- DW position (nm) -->
     <g transform="translate(24.67125 595.759375)rotate(-90)scale(0.24 -0.24)">
      <defs>
       <path id="ArialMT-44" d="M 494 0 
L 494 4581 
L 2072 4581 
Q 2606 4581 2888 4516 
Q 3281 4425 3559 4188 
Q 3922 3881 4101 3404 
Q 4281 2928 4281 2316 
Q 4281 1794 4159 1391 
Q 4038 988 3847 723 
Q 3656 459 3429 307 
Q 3203 156 2883 78 
Q 2563 0 2147 0 
L 494 0 
z
M 1100 541 
L 2078 541 
Q 2531 541 2789 625 
Q 3047 709 3200 863 
Q 3416 1078 3536 1442 
Q 3656 1806 3656 2325 
Q 3656 3044 3420 3430 
Q 3184 3816 2847 3947 
Q 2603 4041 2063 4041 
L 1100 4041 
L 1100 541 
z
" transform="scale(0.015625)"/>
       <path id="ArialMT-57" d="M 1294 0 
L 78 4581 
L 700 4581 
L 1397 1578 
Q 1509 1106 1591 641 
Q 1766 1375 1797 1488 
L 2669 4581 
L 3400 4581 
L 4056 2263 
Q 4303 1400 4413 641 
Q 4500 1075 4641 1638 
L 5359 4581 
L 5969 4581 
L 4713 0 
L 4128 0 
L 3163 3491 
Q 3041 3928 3019 4028 
Q 2947 3713 2884 3491 
L 1913 0 
L 1294 0 
z
" transform="scale(0.015625)"/>
       <path id="ArialMT-70" d="M 422 -1272 
L 422 3319 
L 934 3319 
L 934 2888 
Q 1116 3141 1344 3267 
Q 1572 3394 1897 3394 
Q 2322 3394 2647 3175 
Q 2972 2956 3137 2557 
Q 3303 2159 3303 1684 
Q 3303 1175 3120 767 
Q 2938 359 2589 142 
Q 2241 -75 1856 -75 
Q 1575 -75 1351 44 
Q 1128 163 984 344 
L 984 -1272 
L 422 -1272 
z
M 931 1641 
Q 931 1000 1190 694 
Q 1450 388 1819 388 
Q 2194 388 2461 705 
Q 2728 1022 2728 1688 
Q 2728 2322 2467 2637 
Q 2206 2953 1844 2953 
Q 1484 2953 1207 2617 
Q 931 2281 931 1641 
z
" transform="scale(0.015625)"/>
       <path id="ArialMT-6f" d="M 213 1659 
Q 213 2581 725 3025 
Q 1153 3394 1769 3394 
Q 2453 3394 2887 2945 
Q 3322 2497 3322 1706 
Q 3322 1066 3130 698 
Q 2938 331 2570 128 
Q 2203 -75 1769 -75 
Q 1072 -75 642 372 
Q 213 819 213 1659 
z
M 791 1659 
Q 791 1022 1069 705 
Q 1347 388 1769 388 
Q 2188 388 2466 706 
Q 2744 1025 2744 1678 
Q 2744 2294 2464 2611 
Q 2184 2928 1769 2928 
Q 1347 2928 1069 2612 
Q 791 2297 791 1659 
z
" transform="scale(0.015625)"/>
       <path id="ArialMT-74" d="M 1650 503 
L 1731 6 
Q 1494 -44 1306 -44 
Q 1000 -44 831 53 
Q 663 150 594 308 
Q 525 466 525 972 
L 525 2881 
L 113 2881 
L 113 3319 
L 525 3319 
L 525 4141 
L 1084 4478 
L 1084 3319 
L 1650 3319 
L 1650 2881 
L 1084 2881 
L 1084 941 
Q 1084 700 1114 631 
Q 1144 563 1211 522 
Q 1278 481 1403 481 
Q 1497 481 1650 503 
z
" transform="scale(0.015625)"/>
      </defs>
      <use xlink:href="#ArialMT-44"/>
      <use xlink:href="#ArialMT-57" x="72.216797"/>
      <use xlink:href="#ArialMT-20" x="166.601562"/>
      <use xlink:href="#ArialMT-70" x="194.384766"/>
      <use xlink:href="#ArialMT-6f" x="250"/>
      <use xlink:href="#ArialMT-73" x="305.615234"/>
      <use xlink:href="#ArialMT-69" x="355.615234"/>
      <use xlink:href="#ArialMT-74" x="377.832031"/>
      <use xlink:href="#ArialMT-69" x="405.615234"/>
      <use xlink:href="#ArialMT-6f" x="427.832031"/>
      <use xlink:href="#ArialMT-6e" x="483.447266"/>
      <use xlink:href="#ArialMT-20" x="539.0625"/>
      <use xlink:href="#ArialMT-28" x="566.845703"/>
      <use xlink:href="#ArialMT-6e" x="600.146484"/>
      <use xlink:href="#ArialMT-6d" x="655.761719"/>
      <use xlink:href="#ArialMT-29" x="739.0625"/>
     </g>
    </g>
   </g>
   <g id="line2d_48">
    <path d="M 151.741176 644.76 
L 151.741176 361.4 
" clip-path="url(#pb315b041b7)" style="fill: none; stroke-dasharray: 12.95,5.6; stroke-dashoffset: 0; stroke: #000000; stroke-width: 3.5"/>
   </g>
   <g id="line2d_49">
    <path d="M 347.367204 644.76 
L 347.367204 361.4 
" clip-path="url(#pb315b041b7)" style="fill: none; stroke-dasharray: 12.95,5.6; stroke-dashoffset: 0; stroke: #000000; stroke-width: 3.5"/>
   </g>
   <g id="line2d_50">
    <path d="M 86.5325 518.822222 
L 492.9675 518.822222 
" clip-path="url(#pb315b041b7)" style="fill: none; stroke-dasharray: 3.5,5.775; stroke-dashoffset: 0; stroke: #ff0000; stroke-width: 3.5"/>
   </g>
   <g id="line2d_51">
    <path d="M 86.5325 487.337778 
L 492.9675 487.337778 
" clip-path="url(#pb315b041b7)" style="fill: none; stroke-dasharray: 3.5,5.775; stroke-dashoffset: 0; stroke: #ff0000; stroke-width: 3.5"/>
   </g>
   <g id="line2d_52">
    <path d="M 86.5325 581.791111 
L 492.9675 581.791111 
" clip-path="url(#pb315b041b7)" style="fill: none; stroke-dasharray: 2,3.3; stroke-dashoffset: 0; stroke: #008000; stroke-width: 2"/>
   </g>
   <g id="line2d_53">
    <path d="M 86.5325 550.306667 
L 492.9675 550.306667 
" clip-path="url(#pb315b041b7)" style="fill: none; stroke-dasharray: 2,3.3; stroke-dashoffset: 0; stroke: #008000; stroke-width: 2"/>
   </g>
   <g id="line2d_54">
    <path d="M 86.5325 455.853333 
L 492.9675 455.853333 
" clip-path="url(#pb315b041b7)" style="fill: none; stroke-dasharray: 2,3.3; stroke-dashoffset: 0; stroke: #008000; stroke-width: 2"/>
   </g>
   <g id="line2d_55">
    <path d="M 86.5325 424.368889 
L 492.9675 424.368889 
" clip-path="url(#pb315b041b7)" style="fill: none; stroke-dasharray: 2,3.3; stroke-dashoffset: 0; stroke: #008000; stroke-width: 2"/>
   </g>
   <g id="line2d_56">
    <path d="M 86.5325 574.918809 
L 151.741176 574.993959 
L 153.700494 574.308871 
L 155.00161 573.651788 
L 156.30765 572.735828 
L 158.262043 571.092644 
L 160.220813 569.062696 
L 162.828431 565.935963 
L 166.088863 561.501815 
L 181.08508 540.170569 
L 186.953865 532.526939 
L 195.432941 521.900116 
L 201.953861 513.615726 
L 206.516726 507.4668 
L 212.388196 499.098251 
L 218.256168 490.807332 
L 222.169675 485.69967 
L 226.079786 481.013542 
L 229.991587 476.674579 
L 234.558425 471.923374 
L 240.425983 466.141566 
L 246.293756 460.65843 
L 250.207009 457.273984 
L 252.814624 455.225287 
L 255.426214 453.539873 
L 257.381058 452.527093 
L 259.335491 451.742163 
L 261.294275 451.212481 
L 263.249053 450.917589 
L 265.207488 450.861371 
L 267.162302 451.034013 
L 269.116793 451.410721 
L 271.728339 452.216012 
L 274.335955 453.29346 
L 277.596401 454.921997 
L 282.158528 457.499239 
L 286.072134 459.6974 
L 286.725001 459.846113 
L 287.377943 459.860782 
L 288.027444 459.723083 
L 288.679395 459.442097 
L 289.985487 458.521254 
L 291.291165 457.178047 
L 293.24591 454.595372 
L 297.159217 449.231452 
L 298.460697 447.888731 
L 299.766749 446.925806 
L 301.072451 446.419376 
L 301.72113 446.347942 
L 302.374334 446.39291 
L 303.680027 446.813017 
L 304.981564 447.628847 
L 306.287623 448.769966 
L 308.241998 450.828129 
L 310.850392 453.646403 
L 312.155674 454.835657 
L 313.46144 455.763594 
L 314.762866 456.368372 
L 316.069001 456.620744 
L 317.371329 456.519974 
L 318.676545 456.086262 
L 319.9823 455.368335 
L 321.936965 453.91399 
L 326.503094 450.227975 
L 327.804601 449.473889 
L 329.11066 448.963039 
L 330.416361 448.726476 
L 331.718242 448.770794 
L 333.023946 449.079835 
L 334.325468 449.613761 
L 336.284397 450.724452 
L 340.846336 453.564004 
L 342.152457 454.153622 
L 343.45477 454.556404 
L 344.760011 454.751957 
L 346.065759 454.733348 
L 348.020437 454.381003 
L 349.975608 453.790396 
L 353.236021 452.435304 
L 355.847009 451.418698 
L 357.801722 450.901895 
L 359.756855 450.680354 
L 361.715014 450.77627 
L 363.672865 451.147848 
L 366.277742 451.924296 
L 370.193736 453.143428 
L 372.149215 453.54727 
L 374.10391 453.725379 
L 376.05909 453.662769 
L 378.017211 453.385996 
L 381.277635 452.629824 
L 385.190926 451.72972 
L 387.145629 451.464284 
L 389.100775 451.380118 
L 391.058924 451.479534 
L 393.666504 451.841956 
L 400.840248 453.060737 
L 403.44781 453.185684 
L 406.058507 453.062771 
L 409.31894 452.656644 
L 414.534832 451.954542 
L 417.142398 451.803941 
L 419.749973 451.847035 
L 423.010404 452.121929 
L 430.18415 452.815182 
L 433.444576 452.848627 
L 437.357876 452.620261 
L 445.183711 452.062866 
L 449.093878 452.089822 
L 454.965013 452.444913 
L 460.180919 452.66783 
L 464.746315 452.595251 
L 476.483079 452.193372 
L 477.1325 452.201357 
L 477.1325 452.201357 
" clip-path="url(#pb315b041b7)" style="fill: none; stroke: #1f77b4; stroke-width: 3.5; stroke-linecap: square"/>
   </g>
   <g id="line2d_57">
    <path d="M 86.5325 574.918809 
L 151.741176 574.993959 
L 154.349918 574.16235 
L 155.654796 573.543031 
L 158.262043 571.93668 
L 160.220813 570.407984 
L 162.828431 568.019938 
L 165.436047 565.211617 
L 168.043345 562.022937 
L 170.654945 558.456256 
L 173.262599 554.597939 
L 177.824646 547.410745 
L 191.519618 525.637321 
L 202.60677 508.392712 
L 206.516726 502.808799 
L 210.428984 497.667307 
L 214.342721 492.924239 
L 218.256168 488.522823 
L 222.169675 484.425607 
L 226.079786 480.613384 
L 230.64489 476.494726 
L 235.211571 472.708515 
L 239.772888 469.235043 
L 244.339578 466.041171 
L 248.903123 463.116564 
L 252.162921 461.236045 
L 254.120577 460.260917 
L 256.728218 459.165674 
L 259.335491 458.312765 
L 261.947084 457.70947 
L 264.554673 457.344346 
L 267.162302 457.211227 
L 269.769916 457.29558 
L 273.030338 457.677068 
L 276.290774 458.314334 
L 280.204026 459.354502 
L 284.770092 460.854239 
L 286.072134 461.222204 
L 286.725001 461.193116 
L 287.377943 461.013717 
L 288.027444 460.672757 
L 289.332643 459.557581 
L 290.638323 457.983189 
L 291.939829 456.03203 
L 296.506355 448.733982 
L 297.808642 447.174584 
L 299.113905 446.061436 
L 299.766749 445.696253 
L 300.419595 445.468214 
L 301.072451 445.380516 
L 301.72113 445.431872 
L 302.374334 445.615294 
L 303.680027 446.342279 
L 304.981564 447.483904 
L 306.287623 448.947331 
L 311.502432 455.253539 
L 312.808557 456.342849 
L 314.110885 457.061972 
L 315.41612 457.373079 
L 316.721883 457.27292 
L 318.023299 456.789615 
L 319.329422 455.970159 
L 320.631739 454.899644 
L 323.242696 452.360621 
L 325.197386 450.524193 
L 326.503094 449.504586 
L 327.804601 448.741976 
L 329.11066 448.280662 
L 330.416361 448.144979 
L 331.718242 448.330828 
L 333.023946 448.809576 
L 334.325468 449.525554 
L 336.284397 450.902068 
L 339.544862 453.322431 
L 341.499578 454.439711 
L 342.805329 454.92895 
L 344.10677 455.176919 
L 345.412882 455.176835 
L 346.715197 454.940025 
L 349.326178 454.036861 
L 351.93373 452.766803 
L 354.541292 451.502191 
L 356.496432 450.789603 
L 357.801722 450.494201 
L 359.107432 450.362373 
L 360.41243 450.397988 
L 362.367878 450.740151 
L 364.322594 451.346111 
L 370.193736 453.465105 
L 372.149215 453.858063 
L 374.10391 453.972266 
L 376.05909 453.807416 
L 378.017211 453.409966 
L 381.930499 452.276432 
L 384.538068 451.603515 
L 386.495902 451.289079 
L 388.45135 451.189903 
L 390.406064 451.307659 
L 393.01677 451.737451 
L 400.187377 453.17895 
L 402.142547 453.318044 
L 404.753547 453.242506 
L 407.361102 452.919484 
L 415.184255 451.752393 
L 417.79526 451.688809 
L 420.402834 451.845071 
L 424.965564 452.421037 
L 428.881543 452.847134 
L 432.141977 452.941732 
L 435.402411 452.775818 
L 445.833441 451.974822 
L 449.093878 452.061689 
L 461.485881 452.712374 
L 466.04891 452.520684 
L 473.222643 452.163456 
L 477.1325 452.175503 
L 477.1325 452.175503 
" clip-path="url(#pb315b041b7)" style="fill: none; stroke: #ff7f0e; stroke-width: 3.5; stroke-linecap: square"/>
   </g>
   <g id="line2d_58">
    <path d="M 86.5325 574.918809 
L 151.741176 574.993959 
L 154.349918 574.151761 
L 155.654796 573.525664 
L 158.262043 571.913385 
L 160.873625 569.850738 
L 163.48125 567.461499 
L 166.741674 564.059092 
L 170.002123 560.3049 
L 173.915434 555.432051 
L 178.477831 549.378715 
L 186.304441 538.9741 
L 189.564905 535.0499 
L 192.17249 532.180655 
L 195.432941 528.916939 
L 199.346303 525.357964 
L 207.16855 518.412517 
L 210.428984 515.165236 
L 213.689418 511.542928 
L 216.949852 507.528673 
L 220.863618 502.29153 
L 227.384519 493.082844 
L 233.90528 483.979661 
L 238.471995 478.002639 
L 242.382209 473.256753 
L 246.293756 468.861287 
L 250.207009 464.817173 
L 253.467772 461.7492 
L 256.728218 459.010772 
L 259.335491 457.095528 
L 261.947084 455.504184 
L 263.901862 454.559943 
L 265.856359 453.834389 
L 267.815113 453.357103 
L 269.769916 453.097497 
L 271.728339 453.064264 
L 273.683144 453.246295 
L 275.63766 453.622492 
L 278.249215 454.422872 
L 280.856839 455.511472 
L 283.464465 456.836442 
L 286.072134 458.265748 
L 287.377943 458.539545 
L 288.027444 458.484936 
L 289.332643 458.020042 
L 290.638323 457.155449 
L 291.939829 455.938167 
L 294.548221 452.940487 
L 297.159217 449.957531 
L 298.460697 448.781425 
L 299.766749 447.909079 
L 301.072451 447.412398 
L 302.374334 447.31867 
L 303.680027 447.602398 
L 304.981564 448.228074 
L 306.287623 449.140937 
L 308.241998 450.829481 
L 311.502432 453.735955 
L 312.808557 454.662962 
L 314.110885 455.350909 
L 315.41612 455.756915 
L 316.721883 455.864224 
L 318.023299 455.67946 
L 319.329422 455.225992 
L 320.631739 454.556824 
L 322.589832 453.274921 
L 325.850243 451.019733 
L 327.804601 449.977978 
L 329.11066 449.524279 
L 330.416361 449.29738 
L 331.718242 449.305534 
L 333.023946 449.537399 
L 334.325468 449.96158 
L 336.284397 450.868305 
L 341.499578 453.52352 
L 343.45477 454.116182 
L 344.760011 454.300122 
L 346.065759 454.304758 
L 348.020437 454.044407 
L 349.975608 453.595706 
L 353.236021 452.512864 
L 356.496432 451.498961 
L 358.454572 451.125837 
L 360.41243 450.998613 
L 362.367878 451.125964 
L 364.322594 451.464714 
L 368.235904 452.467773 
L 370.843471 453.077009 
L 372.798652 453.369929 
L 374.756784 453.474031 
L 376.714604 453.384742 
L 379.319506 453.018473 
L 387.145629 451.657722 
L 389.756336 451.575256 
L 392.361211 451.748501 
L 396.277205 452.308951 
L 400.187377 452.850356 
L 402.798074 453.020927 
L 405.402979 452.987917 
L 408.663396 452.708914 
L 415.839807 451.967368 
L 419.10024 451.919518 
L 422.360675 452.096101 
L 431.486448 452.762238 
L 435.402411 452.70166 
L 448.444145 452.122748 
L 453.660042 452.347942 
L 460.180919 452.610495 
L 464.746315 452.562005 
L 477.1325 452.232759 
L 477.1325 452.232759 
" clip-path="url(#pb315b041b7)" style="fill: none; stroke: #2ca02c; stroke-width: 3.5; stroke-linecap: square"/>
   </g>
   <g id="patch_8">
    <path d="M 86.5325 644.76 
L 86.5325 361.4 
" style="fill: none; stroke: #000000; stroke-width: 4; stroke-linejoin: miter; stroke-linecap: square"/>
   </g>
   <g id="patch_9">
    <path d="M 477.1325 644.76 
L 477.1325 361.4 
" style="fill: none; stroke: #000000; stroke-width: 4; stroke-linejoin: miter; stroke-linecap: square"/>
   </g>
   <g id="patch_10">
    <path d="M 86.5325 644.76 
L 477.1325 644.76 
" style="fill: none; stroke: #000000; stroke-width: 4; stroke-linejoin: miter; stroke-linecap: square"/>
   </g>
   <g id="patch_11">
    <path d="M 86.5325 361.4 
L 477.1325 361.4 
" style="fill: none; stroke: #000000; stroke-width: 4; stroke-linejoin: miter; stroke-linecap: square"/>
   </g>
  </g>
 </g>
 <defs>
  <clipPath id="p131f446771">
   <rect x="86.5325" y="7.2" width="390.6" height="283.36"/>
  </clipPath>
  <clipPath id="pb315b041b7">
   <rect x="86.5325" y="361.4" width="390.6" height="283.36"/>
  </clipPath>
 </defs>
</svg>
