<?xml version="1.0" encoding="utf-8" standalone="no"?>
<!DOCTYPE svg PUBLIC "-//W3C//DTD SVG 1.1//EN"
  "http://www.w3.org/Graphics/SVG/1.1/DTD/svg11.dtd">
<svg xmlns:xlink="http://www.w3.org/1999/xlink" width="1003.615625pt" height="415.2275pt" viewBox="0 0 1003.615625 415.2275" xmlns="http://www.w3.org/2000/svg" version="1.1">
 <metadata>
  <rdf:RDF xmlns:dc="http://purl.org/dc/elements/1.1/" xmlns:cc="http://creativecommons.org/ns#" xmlns:rdf="http://www.w3.org/1999/02/22-rdf-syntax-ns#">
   <cc:Work>
    <dc:type rdf:resource="http://purl.org/dc/dcmitype/StillImage"/>
    <dc:date>2022-09-15T15:43:00.984996</dc:date>
    <dc:format>image/svg+xml</dc:format>
    <dc:creator>
     <cc:Agent>
      <dc:title>Matplotlib v3.5.3, https://matplotlib.org/</dc:title>
     </cc:Agent>
    </dc:creator>
   </cc:Work>
  </rdf:RDF>
 </metadata>
 <defs>
  <style type="text/css">*{stroke-linejoin: round; stroke-linecap: butt}</style>
 </defs>
 <g id="figure_1">
  <g id="patch_1">
   <path d="M 0 415.2275 
L 1003.615625 415.2275 
L 1003.615625 0 
L 0 0 
z
" style="fill: #ffffff"/>
  </g>
  <g id="axes_1">
   <g id="patch_2">
    <path d="M 103.615625 339.84 
L 491.789538 339.84 
L 491.789538 7.2 
L 103.615625 7.2 
z
" style="fill: #ffffff"/>
   </g>
   <g id="matplotlib.axis_1">
    <g id="xtick_1">
     <g id="line2d_1">
      <path d="M 103.615625 339.84 
L 103.615625 7.2 
" clip-path="url(#pdc293ec4ab)" style="fill: none; stroke: #e2e2e2; stroke-width: 0.8; stroke-linecap: square"/>
     </g>
     <g id="line2d_2">
      <defs>
       <path id="m68bc8d777e" d="M 0 0 
L 0 3.5 
" style="stroke: #000000; stroke-width: 0.8"/>
      </defs>
      <g>
       <use xlink:href="#m68bc8d777e" x="103.615625" y="339.84" style="stroke: #000000; stroke-width: 0.8"/>
      </g>
     </g>
     <g id="text_1">
      <!-- 0 -->
      <g transform="translate(94.071875 369.635312)scale(0.3 -0.3)">
       <defs>
        <path id="DejaVuSans-30" d="M 2034 4250 
Q 1547 4250 1301 3770 
Q 1056 3291 1056 2328 
Q 1056 1369 1301 889 
Q 1547 409 2034 409 
Q 2525 409 2770 889 
Q 3016 1369 3016 2328 
Q 3016 3291 2770 3770 
Q 2525 4250 2034 4250 
z
M 2034 4750 
Q 2819 4750 3233 4129 
Q 3647 3509 3647 2328 
Q 3647 1150 3233 529 
Q 2819 -91 2034 -91 
Q 1250 -91 836 529 
Q 422 1150 422 2328 
Q 422 3509 836 4129 
Q 1250 4750 2034 4750 
z
" transform="scale(0.015625)"/>
       </defs>
       <use xlink:href="#DejaVuSans-30"/>
      </g>
     </g>
    </g>
    <g id="xtick_2">
     <g id="line2d_3">
      <path d="M 233.092944 339.84 
L 233.092944 7.2 
" clip-path="url(#pdc293ec4ab)" style="fill: none; stroke: #e2e2e2; stroke-width: 0.8; stroke-linecap: square"/>
     </g>
     <g id="line2d_4">
      <g>
       <use xlink:href="#m68bc8d777e" x="233.092944" y="339.84" style="stroke: #000000; stroke-width: 0.8"/>
      </g>
     </g>
     <g id="text_2">
      <!-- 5 -->
      <g transform="translate(223.549194 369.635312)scale(0.3 -0.3)">
       <defs>
        <path id="DejaVuSans-35" d="M 691 4666 
L 3169 4666 
L 3169 4134 
L 1269 4134 
L 1269 2991 
Q 1406 3038 1543 3061 
Q 1681 3084 1819 3084 
Q 2600 3084 3056 2656 
Q 3513 2228 3513 1497 
Q 3513 744 3044 326 
Q 2575 -91 1722 -91 
Q 1428 -91 1123 -41 
Q 819 9 494 109 
L 494 744 
Q 775 591 1075 516 
Q 1375 441 1709 441 
Q 2250 441 2565 725 
Q 2881 1009 2881 1497 
Q 2881 1984 2565 2268 
Q 2250 2553 1709 2553 
Q 1456 2553 1204 2497 
Q 953 2441 691 2322 
L 691 4666 
z
" transform="scale(0.015625)"/>
       </defs>
       <use xlink:href="#DejaVuSans-35"/>
      </g>
     </g>
    </g>
    <g id="xtick_3">
     <g id="line2d_5">
      <path d="M 362.570263 339.84 
L 362.570263 7.2 
" clip-path="url(#pdc293ec4ab)" style="fill: none; stroke: #e2e2e2; stroke-width: 0.8; stroke-linecap: square"/>
     </g>
     <g id="line2d_6">
      <g>
       <use xlink:href="#m68bc8d777e" x="362.570263" y="339.84" style="stroke: #000000; stroke-width: 0.8"/>
      </g>
     </g>
     <g id="text_3">
      <!-- 10 -->
      <g transform="translate(343.482763 369.635312)scale(0.3 -0.3)">
       <defs>
        <path id="DejaVuSans-31" d="M 794 531 
L 1825 531 
L 1825 4091 
L 703 3866 
L 703 4441 
L 1819 4666 
L 2450 4666 
L 2450 531 
L 3481 531 
L 3481 0 
L 794 0 
L 794 531 
z
" transform="scale(0.015625)"/>
       </defs>
       <use xlink:href="#DejaVuSans-31"/>
       <use xlink:href="#DejaVuSans-30" x="63.623047"/>
      </g>
     </g>
    </g>
    <g id="text_4">
     <!-- Time (ns) -->
     <g transform="translate(234.936957 401.713437)scale(0.3 -0.3)">
      <defs>
       <path id="ArialMT-54" d="M 1659 0 
L 1659 4041 
L 150 4041 
L 150 4581 
L 3781 4581 
L 3781 4041 
L 2266 4041 
L 2266 0 
L 1659 0 
z
" transform="scale(0.015625)"/>
       <path id="ArialMT-69" d="M 425 3934 
L 425 4581 
L 988 4581 
L 988 3934 
L 425 3934 
z
M 425 0 
L 425 3319 
L 988 3319 
L 988 0 
L 425 0 
z
" transform="scale(0.015625)"/>
       <path id="ArialMT-6d" d="M 422 0 
L 422 3319 
L 925 3319 
L 925 2853 
Q 1081 3097 1340 3245 
Q 1600 3394 1931 3394 
Q 2300 3394 2536 3241 
Q 2772 3088 2869 2813 
Q 3263 3394 3894 3394 
Q 4388 3394 4653 3120 
Q 4919 2847 4919 2278 
L 4919 0 
L 4359 0 
L 4359 2091 
Q 4359 2428 4304 2576 
Q 4250 2725 4106 2815 
Q 3963 2906 3769 2906 
Q 3419 2906 3187 2673 
Q 2956 2441 2956 1928 
L 2956 0 
L 2394 0 
L 2394 2156 
Q 2394 2531 2256 2718 
Q 2119 2906 1806 2906 
Q 1569 2906 1367 2781 
Q 1166 2656 1075 2415 
Q 984 2175 984 1722 
L 984 0 
L 422 0 
z
" transform="scale(0.015625)"/>
       <path id="ArialMT-65" d="M 2694 1069 
L 3275 997 
Q 3138 488 2766 206 
Q 2394 -75 1816 -75 
Q 1088 -75 661 373 
Q 234 822 234 1631 
Q 234 2469 665 2931 
Q 1097 3394 1784 3394 
Q 2450 3394 2872 2941 
Q 3294 2488 3294 1666 
Q 3294 1616 3291 1516 
L 816 1516 
Q 847 969 1125 678 
Q 1403 388 1819 388 
Q 2128 388 2347 550 
Q 2566 713 2694 1069 
z
M 847 1978 
L 2700 1978 
Q 2663 2397 2488 2606 
Q 2219 2931 1791 2931 
Q 1403 2931 1139 2672 
Q 875 2413 847 1978 
z
" transform="scale(0.015625)"/>
       <path id="ArialMT-20" transform="scale(0.015625)"/>
       <path id="ArialMT-28" d="M 1497 -1347 
Q 1031 -759 709 28 
Q 388 816 388 1659 
Q 388 2403 628 3084 
Q 909 3875 1497 4659 
L 1900 4659 
Q 1522 4009 1400 3731 
Q 1209 3300 1100 2831 
Q 966 2247 966 1656 
Q 966 153 1900 -1347 
L 1497 -1347 
z
" transform="scale(0.015625)"/>
       <path id="ArialMT-6e" d="M 422 0 
L 422 3319 
L 928 3319 
L 928 2847 
Q 1294 3394 1984 3394 
Q 2284 3394 2536 3286 
Q 2788 3178 2913 3003 
Q 3038 2828 3088 2588 
Q 3119 2431 3119 2041 
L 3119 0 
L 2556 0 
L 2556 2019 
Q 2556 2363 2490 2533 
Q 2425 2703 2258 2804 
Q 2091 2906 1866 2906 
Q 1506 2906 1245 2678 
Q 984 2450 984 1813 
L 984 0 
L 422 0 
z
" transform="scale(0.015625)"/>
       <path id="ArialMT-73" d="M 197 991 
L 753 1078 
Q 800 744 1014 566 
Q 1228 388 1613 388 
Q 2000 388 2187 545 
Q 2375 703 2375 916 
Q 2375 1106 2209 1216 
Q 2094 1291 1634 1406 
Q 1016 1563 777 1677 
Q 538 1791 414 1992 
Q 291 2194 291 2438 
Q 291 2659 392 2848 
Q 494 3038 669 3163 
Q 800 3259 1026 3326 
Q 1253 3394 1513 3394 
Q 1903 3394 2198 3281 
Q 2494 3169 2634 2976 
Q 2775 2784 2828 2463 
L 2278 2388 
Q 2241 2644 2061 2787 
Q 1881 2931 1553 2931 
Q 1166 2931 1000 2803 
Q 834 2675 834 2503 
Q 834 2394 903 2306 
Q 972 2216 1119 2156 
Q 1203 2125 1616 2013 
Q 2213 1853 2448 1751 
Q 2684 1650 2818 1456 
Q 2953 1263 2953 975 
Q 2953 694 2789 445 
Q 2625 197 2315 61 
Q 2006 -75 1616 -75 
Q 969 -75 630 194 
Q 291 463 197 991 
z
" transform="scale(0.015625)"/>
       <path id="ArialMT-29" d="M 791 -1347 
L 388 -1347 
Q 1322 153 1322 1656 
Q 1322 2244 1188 2822 
Q 1081 3291 891 3722 
Q 769 4003 388 4659 
L 791 4659 
Q 1378 3875 1659 3084 
Q 1900 2403 1900 1659 
Q 1900 816 1576 28 
Q 1253 -759 791 -1347 
z
" transform="scale(0.015625)"/>
      </defs>
      <use xlink:href="#ArialMT-54"/>
      <use xlink:href="#ArialMT-69" x="57.333984"/>
      <use xlink:href="#ArialMT-6d" x="79.550781"/>
      <use xlink:href="#ArialMT-65" x="162.851562"/>
      <use xlink:href="#ArialMT-20" x="218.466797"/>
      <use xlink:href="#ArialMT-28" x="246.25"/>
      <use xlink:href="#ArialMT-6e" x="279.550781"/>
      <use xlink:href="#ArialMT-73" x="335.166016"/>
      <use xlink:href="#ArialMT-29" x="385.166016"/>
     </g>
    </g>
   </g>
   <g id="matplotlib.axis_2">
    <g id="ytick_1">
     <g id="line2d_7">
      <path d="M 103.615625 339.84 
L 491.789538 339.84 
" clip-path="url(#pdc293ec4ab)" style="fill: none; stroke: #e2e2e2; stroke-width: 0.8; stroke-linecap: square"/>
     </g>
     <g id="line2d_8">
      <defs>
       <path id="m0097b3684a" d="M 0 0 
L -3.5 0 
" style="stroke: #000000; stroke-width: 0.8"/>
      </defs>
      <g>
       <use xlink:href="#m0097b3684a" x="103.615625" y="339.84" style="stroke: #000000; stroke-width: 0.8"/>
      </g>
     </g>
     <g id="text_5">
      <!-- 0 -->
      <g transform="translate(77.528125 351.237656)scale(0.3 -0.3)">
       <use xlink:href="#DejaVuSans-30"/>
      </g>
     </g>
    </g>
    <g id="ytick_2">
     <g id="line2d_9">
      <path d="M 103.615625 216.64 
L 491.789538 216.64 
" clip-path="url(#pdc293ec4ab)" style="fill: none; stroke: #e2e2e2; stroke-width: 0.8; stroke-linecap: square"/>
     </g>
     <g id="line2d_10">
      <g>
       <use xlink:href="#m0097b3684a" x="103.615625" y="216.64" style="stroke: #000000; stroke-width: 0.8"/>
      </g>
     </g>
     <g id="text_6">
      <!-- 50 -->
      <g transform="translate(58.440625 228.037656)scale(0.3 -0.3)">
       <use xlink:href="#DejaVuSans-35"/>
       <use xlink:href="#DejaVuSans-30" x="63.623047"/>
      </g>
     </g>
    </g>
    <g id="ytick_3">
     <g id="line2d_11">
      <path d="M 103.615625 93.44 
L 491.789538 93.44 
" clip-path="url(#pdc293ec4ab)" style="fill: none; stroke: #e2e2e2; stroke-width: 0.8; stroke-linecap: square"/>
     </g>
     <g id="line2d_12">
      <g>
       <use xlink:href="#m0097b3684a" x="103.615625" y="93.44" style="stroke: #000000; stroke-width: 0.8"/>
      </g>
     </g>
     <g id="text_7">
      <!-- 100 -->
      <g transform="translate(39.353125 104.837656)scale(0.3 -0.3)">
       <use xlink:href="#DejaVuSans-31"/>
       <use xlink:href="#DejaVuSans-30" x="63.623047"/>
       <use xlink:href="#DejaVuSans-30" x="127.246094"/>
      </g>
     </g>
    </g>
    <g id="text_8">
     <!-- DW position (nm) -->
     <g transform="translate(29.039062 289.369219)rotate(-90)scale(0.3 -0.3)">
      <defs>
       <path id="ArialMT-44" d="M 494 0 
L 494 4581 
L 2072 4581 
Q 2606 4581 2888 4516 
Q 3281 4425 3559 4188 
Q 3922 3881 4101 3404 
Q 4281 2928 4281 2316 
Q 4281 1794 4159 1391 
Q 4038 988 3847 723 
Q 3656 459 3429 307 
Q 3203 156 2883 78 
Q 2563 0 2147 0 
L 494 0 
z
M 1100 541 
L 2078 541 
Q 2531 541 2789 625 
Q 3047 709 3200 863 
Q 3416 1078 3536 1442 
Q 3656 1806 3656 2325 
Q 3656 3044 3420 3430 
Q 3184 3816 2847 3947 
Q 2603 4041 2063 4041 
L 1100 4041 
L 1100 541 
z
" transform="scale(0.015625)"/>
       <path id="ArialMT-57" d="M 1294 0 
L 78 4581 
L 700 4581 
L 1397 1578 
Q 1509 1106 1591 641 
Q 1766 1375 1797 1488 
L 2669 4581 
L 3400 4581 
L 4056 2263 
Q 4303 1400 4413 641 
Q 4500 1075 4641 1638 
L 5359 4581 
L 5969 4581 
L 4713 0 
L 4128 0 
L 3163 3491 
Q 3041 3928 3019 4028 
Q 2947 3713 2884 3491 
L 1913 0 
L 1294 0 
z
" transform="scale(0.015625)"/>
       <path id="ArialMT-70" d="M 422 -1272 
L 422 3319 
L 934 3319 
L 934 2888 
Q 1116 3141 1344 3267 
Q 1572 3394 1897 3394 
Q 2322 3394 2647 3175 
Q 2972 2956 3137 2557 
Q 3303 2159 3303 1684 
Q 3303 1175 3120 767 
Q 2938 359 2589 142 
Q 2241 -75 1856 -75 
Q 1575 -75 1351 44 
Q 1128 163 984 344 
L 984 -1272 
L 422 -1272 
z
M 931 1641 
Q 931 1000 1190 694 
Q 1450 388 1819 388 
Q 2194 388 2461 705 
Q 2728 1022 2728 1688 
Q 2728 2322 2467 2637 
Q 2206 2953 1844 2953 
Q 1484 2953 1207 2617 
Q 931 2281 931 1641 
z
" transform="scale(0.015625)"/>
       <path id="ArialMT-6f" d="M 213 1659 
Q 213 2581 725 3025 
Q 1153 3394 1769 3394 
Q 2453 3394 2887 2945 
Q 3322 2497 3322 1706 
Q 3322 1066 3130 698 
Q 2938 331 2570 128 
Q 2203 -75 1769 -75 
Q 1072 -75 642 372 
Q 213 819 213 1659 
z
M 791 1659 
Q 791 1022 1069 705 
Q 1347 388 1769 388 
Q 2188 388 2466 706 
Q 2744 1025 2744 1678 
Q 2744 2294 2464 2611 
Q 2184 2928 1769 2928 
Q 1347 2928 1069 2612 
Q 791 2297 791 1659 
z
" transform="scale(0.015625)"/>
       <path id="ArialMT-74" d="M 1650 503 
L 1731 6 
Q 1494 -44 1306 -44 
Q 1000 -44 831 53 
Q 663 150 594 308 
Q 525 466 525 972 
L 525 2881 
L 113 2881 
L 113 3319 
L 525 3319 
L 525 4141 
L 1084 4478 
L 1084 3319 
L 1650 3319 
L 1650 2881 
L 1084 2881 
L 1084 941 
Q 1084 700 1114 631 
Q 1144 563 1211 522 
Q 1278 481 1403 481 
Q 1497 481 1650 503 
z
" transform="scale(0.015625)"/>
      </defs>
      <use xlink:href="#ArialMT-44"/>
      <use xlink:href="#ArialMT-57" x="72.216797"/>
      <use xlink:href="#ArialMT-20" x="166.601562"/>
      <use xlink:href="#ArialMT-70" x="194.384766"/>
      <use xlink:href="#ArialMT-6f" x="250"/>
      <use xlink:href="#ArialMT-73" x="305.615234"/>
      <use xlink:href="#ArialMT-69" x="355.615234"/>
      <use xlink:href="#ArialMT-74" x="377.832031"/>
      <use xlink:href="#ArialMT-69" x="405.615234"/>
      <use xlink:href="#ArialMT-6f" x="427.832031"/>
      <use xlink:href="#ArialMT-6e" x="483.447266"/>
      <use xlink:href="#ArialMT-20" x="539.0625"/>
      <use xlink:href="#ArialMT-28" x="566.845703"/>
      <use xlink:href="#ArialMT-6e" x="600.146484"/>
      <use xlink:href="#ArialMT-6d" x="655.761719"/>
      <use xlink:href="#ArialMT-29" x="739.0625"/>
     </g>
    </g>
   </g>
   <g id="line2d_13">
    <path d="M 181.302016 339.84 
L 181.302016 7.2 
" clip-path="url(#pdc293ec4ab)" style="fill: none; stroke-dasharray: 12.95,5.6; stroke-dashoffset: 0; stroke: #000000; stroke-width: 3.5"/>
   </g>
   <g id="line2d_14">
    <path d="M 258.988408 339.84 
L 258.988408 7.2 
" clip-path="url(#pdc293ec4ab)" style="fill: none; stroke-dasharray: 12.95,5.6; stroke-dashoffset: 0; stroke: #000000; stroke-width: 3.5"/>
   </g>
   <g id="line2d_15">
    <path d="M 336.674799 339.84 
L 336.674799 7.2 
" clip-path="url(#pdc293ec4ab)" style="fill: none; stroke-dasharray: 12.95,5.6; stroke-dashoffset: 0; stroke: #000000; stroke-width: 3.5"/>
   </g>
   <g id="line2d_16">
    <path d="M 414.361191 339.84 
L 414.361191 7.2 
" clip-path="url(#pdc293ec4ab)" style="fill: none; stroke-dasharray: 12.95,5.6; stroke-dashoffset: 0; stroke: #000000; stroke-width: 3.5"/>
   </g>
   <g id="line2d_17">
    <path d="M 103.615625 192 
L 1004.615625 192 
" clip-path="url(#pdc293ec4ab)" style="fill: none; stroke-dasharray: 3.5,5.775; stroke-dashoffset: 0; stroke: #ff0000; stroke-width: 3.5"/>
   </g>
   <g id="line2d_18">
    <path d="M 103.615625 155.04 
L 1004.615625 155.04 
" clip-path="url(#pdc293ec4ab)" style="fill: none; stroke-dasharray: 3.5,5.775; stroke-dashoffset: 0; stroke: #ff0000; stroke-width: 3.5"/>
   </g>
   <g id="line2d_19">
    <path d="M 103.615625 265.92 
L 1004.615625 265.92 
" clip-path="url(#pdc293ec4ab)" style="fill: none; stroke-dasharray: 2,3.3; stroke-dashoffset: 0; stroke: #008000; stroke-width: 2"/>
   </g>
   <g id="line2d_20">
    <path d="M 103.615625 228.96 
L 1004.615625 228.96 
" clip-path="url(#pdc293ec4ab)" style="fill: none; stroke-dasharray: 2,3.3; stroke-dashoffset: 0; stroke: #008000; stroke-width: 2"/>
   </g>
   <g id="line2d_21">
    <path d="M 103.615625 118.08 
L 1004.615625 118.08 
" clip-path="url(#pdc293ec4ab)" style="fill: none; stroke-dasharray: 2,3.3; stroke-dashoffset: 0; stroke: #008000; stroke-width: 2"/>
   </g>
   <g id="line2d_22">
    <path d="M 103.615625 81.12 
L 1004.615625 81.12 
" clip-path="url(#pdc293ec4ab)" style="fill: none; stroke-dasharray: 2,3.3; stroke-dashoffset: 0; stroke: #008000; stroke-width: 2"/>
   </g>
   <g id="line2d_23">
    <path d="M 103.615625 257.852515 
L 107.760195 257.977811 
L 111.384536 257.960384 
L 116.564605 257.905674 
L 123.038113 257.943303 
L 129.25235 257.937192 
L 135.985125 257.923461 
L 150.745658 257.930529 
L 174.569646 257.935688 
L 181.302016 257.933666 
L 182.080073 257.117209 
L 182.597244 256.33722 
L 183.375004 254.643161 
L 184.151361 252.557962 
L 185.18696 249.150731 
L 186.481816 244.173706 
L 188.812292 234.224722 
L 192.437721 219.058029 
L 195.804 206.083266 
L 203.055502 178.601995 
L 210.047306 150.252327 
L 212.377327 142.471317 
L 215.226317 133.839061 
L 218.59177 124.371667 
L 220.663202 119.088749 
L 222.217344 115.678003 
L 223.512238 113.359968 
L 224.547861 111.915766 
L 225.583461 110.867777 
L 226.361187 110.348416 
L 227.137553 110.057233 
L 227.913918 109.985747 
L 228.691641 110.122151 
L 229.468 110.449449 
L 230.503602 111.148183 
L 231.798444 112.36488 
L 234.388082 115.04202 
L 234.906601 115.236821 
L 235.423725 115.260295 
L 235.942226 115.084412 
L 236.718643 114.575722 
L 237.754339 113.545794 
L 239.30856 112.012598 
L 240.084991 111.53966 
L 240.86278 111.355817 
L 241.639204 111.489185 
L 242.415621 111.882858 
L 243.710564 112.882385 
L 245.005512 113.849802 
L 245.78194 114.221168 
L 246.559734 114.362473 
L 247.336163 114.267335 
L 248.371858 113.830846 
L 251.478915 112.162519 
L 252.256699 112.049697 
L 253.033121 112.120202 
L 254.068801 112.453096 
L 257.175867 113.738833 
L 258.211561 113.825902 
L 259.248709 113.835212 
L 261.060821 114.514992 
L 262.09651 114.691248 
L 263.1322 114.649047 
L 264.427156 114.346994 
L 267.274962 113.566905 
L 268.569912 113.522374 
L 269.864864 113.714387 
L 273.490462 114.41496 
L 274.785416 114.374563 
L 276.856799 114.030229 
L 278.928175 113.74046 
L 280.482389 113.754966 
L 282.813032 114.055456 
L 284.884414 114.253743 
L 286.697896 114.198615 
L 291.617079 113.853602 
L 294.466251 114.059548 
L 297.054794 114.162643 
L 300.16323 114.001278 
L 303.011034 113.922899 
L 312.074342 113.995199 
L 315.699938 113.987919 
L 321.65618 114.049569 
L 327.871681 114.01539 
L 334.345085 114.022957 
L 336.675671 114.004138 
L 338.228724 115.120495 
L 339.523682 115.916506 
L 340.301479 116.159474 
L 341.07791 116.198456 
L 341.854343 116.021801 
L 342.890042 115.554045 
L 345.220685 114.340308 
L 346.256372 114.102881 
L 347.292057 114.158996 
L 348.329112 114.465103 
L 351.436192 115.631202 
L 352.47189 115.712785 
L 353.507587 115.577471 
L 355.061808 115.109967 
L 356.873924 114.584991 
L 358.168878 114.466124 
L 359.463829 114.607376 
L 362.829642 115.393497 
L 363.607345 115.863162 
L 364.383725 116.731495 
L 365.160126 117.92555 
L 366.195721 120.032003 
L 367.232693 122.651481 
L 368.527552 126.530732 
L 370.080294 131.887342 
L 372.152906 139.859863 
L 374.483427 149.669807 
L 377.590406 163.829018 
L 383.287533 189.603162 
L 389.243249 216.434391 
L 392.091851 227.783581 
L 394.681402 237.252749 
L 396.752473 244.109497 
L 398.306263 248.633634 
L 399.602105 251.830121 
L 400.637205 253.923824 
L 401.672858 255.567461 
L 402.70846 256.742283 
L 403.486209 257.316689 
L 404.26258 257.633525 
L 405.038934 257.704843 
L 405.816653 257.544514 
L 406.59301 257.170507 
L 407.628611 256.373751 
L 408.664208 255.286048 
L 409.959044 253.607741 
L 412.031609 250.481041 
L 414.620311 246.453062 
L 414.87962 246.23268 
L 415.138906 246.193952 
L 415.398202 246.368166 
L 415.915387 247.292679 
L 416.433887 248.859446 
L 417.210309 252.23362 
L 419.540973 263.430855 
L 420.059487 264.961764 
L 420.576636 265.851218 
L 420.835891 266.03589 
L 421.095147 266.04849 
L 421.353039 265.896934 
L 421.871548 265.129008 
L 422.390059 263.803804 
L 423.166468 261.083276 
L 425.237868 253.344139 
L 425.756414 252.095357 
L 426.273596 251.327095 
L 426.792144 251.065598 
L 427.050053 251.124071 
L 427.568598 251.605539 
L 428.08714 252.519547 
L 428.863577 254.50118 
L 431.194199 261.13956 
L 431.71135 262.017155 
L 432.229865 262.512036 
L 432.747013 262.598676 
L 433.265526 262.288938 
L 433.784042 261.626429 
L 434.56046 260.130254 
L 436.891126 255.002692 
L 437.4083 254.308414 
L 437.92684 253.902984 
L 438.444015 253.806314 
L 438.962553 254.01062 
L 439.481088 254.487173 
L 440.257522 255.599182 
L 442.84741 259.886883 
L 443.364566 260.343654 
L 443.883085 260.567164 
L 444.400238 260.549381 
L 444.918759 260.302801 
L 445.695178 259.575487 
L 446.990128 257.826785 
L 448.285092 256.194819 
L 449.06153 255.593993 
L 449.580064 255.41123 
L 450.097234 255.412246 
L 450.615766 255.588477 
L 451.392199 256.129801 
L 452.687154 257.462614 
L 453.9821 258.734553 
L 454.758519 259.214984 
L 455.536301 259.390912 
L 456.312721 259.251912 
L 457.089142 258.844554 
L 458.384096 257.824061 
L 459.679053 256.84128 
L 460.455485 256.465371 
L 461.233284 256.321315 
L 462.009714 256.418381 
L 462.786144 256.722898 
L 464.340361 257.668402 
L 465.63531 258.38119 
L 466.670994 258.662469 
L 467.447414 258.656534 
L 468.4831 258.385438 
L 470.037319 257.661408 
L 471.590177 257.031786 
L 472.627234 256.870821 
L 473.662928 256.961704 
L 474.957886 257.346884 
L 477.288523 258.131708 
L 478.324208 258.261529 
L 479.359894 258.19722 
L 480.912747 257.830897 
L 483.243392 257.259022 
L 484.538347 257.199466 
L 485.833303 257.356931 
L 489.718159 258.013554 
L 491.271011 257.928269 
L 491.789538 257.855569 
L 491.789538 257.855569 
" clip-path="url(#pdc293ec4ab)" style="fill: none; stroke: #1f77b4; stroke-width: 3.5; stroke-linecap: square"/>
   </g>
   <g id="line2d_24">
    <path d="M 103.615625 257.852515 
L 107.760195 257.977811 
L 111.384536 257.960384 
L 116.564605 257.905674 
L 123.038113 257.943303 
L 129.25235 257.937192 
L 135.985125 257.923461 
L 150.745658 257.930529 
L 174.569646 257.935688 
L 181.302016 257.933666 
L 182.337992 256.941196 
L 183.115749 255.764158 
L 184.151361 253.73225 
L 185.18696 251.157782 
L 186.481816 247.247495 
L 187.776671 242.627236 
L 189.330787 236.220264 
L 191.919213 224.220472 
L 200.982599 181.950554 
L 203.313427 172.069456 
L 205.385052 164.247291 
L 207.716099 156.358576 
L 210.047306 149.276436 
L 212.377327 142.917016 
L 214.707549 137.210848 
L 217.037994 132.095182 
L 219.3687 127.513312 
L 221.440989 123.87783 
L 223.252988 121.078872 
L 224.807102 119.01511 
L 226.361187 117.316085 
L 227.656041 116.210475 
L 228.950882 115.403214 
L 230.245725 114.897591 
L 231.540567 114.684429 
L 232.834045 114.742927 
L 233.611582 114.800861 
L 234.128805 114.68361 
L 235.165844 114.093001 
L 238.272869 111.850506 
L 239.049295 111.695951 
L 239.827092 111.799808 
L 240.86278 112.245715 
L 243.710564 113.892756 
L 244.486987 114.074874 
L 245.264777 114.063187 
L 246.300469 113.78278 
L 248.112593 112.915245 
L 249.407548 112.406364 
L 250.443232 112.250291 
L 251.478915 112.350763 
L 252.773858 112.750801 
L 255.104487 113.543886 
L 256.140177 113.666184 
L 257.175867 113.590609 
L 258.730091 113.207984 
L 258.988408 113.130431 
L 260.025136 113.566048 
L 262.355774 114.646192 
L 263.391465 114.843866 
L 264.427156 114.772761 
L 265.462848 114.482426 
L 268.569912 113.446775 
L 269.605599 113.392568 
L 270.900549 113.592714 
L 274.785416 114.502987 
L 276.080371 114.440547 
L 277.892487 114.071147 
L 279.963863 113.687789 
L 281.258817 113.657414 
L 282.813032 113.839856 
L 285.920105 114.292862 
L 287.474321 114.273615 
L 290.064228 113.953822 
L 292.135606 113.800317 
L 294.206986 113.908037 
L 298.091848 114.191473 
L 300.422493 114.069898 
L 303.788823 113.890475 
L 306.636628 114.014904 
L 310.002964 114.117414 
L 318.807008 114.042999 
L 322.691869 114.055633 
L 328.648109 113.999468 
L 335.121511 114.025668 
L 336.675671 114.003012 
L 337.970825 114.919672 
L 339.264418 115.769969 
L 340.042211 116.08144 
L 340.818645 116.193031 
L 341.595078 116.086772 
L 342.630777 115.68638 
L 345.479949 114.262475 
L 346.515634 114.095664 
L 347.551319 114.216787 
L 348.846275 114.670867 
L 351.176928 115.562199 
L 352.212623 115.701289 
L 353.248321 115.620561 
L 354.543278 115.281321 
L 357.133189 114.542368 
L 358.428142 114.475897 
L 359.723093 114.657033 
L 363.088874 115.496711 
L 363.607345 115.844028 
L 364.383725 116.705233 
L 365.160126 117.88705 
L 366.195721 119.966579 
L 367.232693 122.547594 
L 368.527552 126.391765 
L 370.080294 131.821448 
L 371.634409 138.058273 
L 373.446421 146.211003 
L 375.776965 157.690515 
L 381.473953 186.038612 
L 383.546816 194.833614 
L 385.359102 201.572631 
L 387.690082 209.33173 
L 391.055836 219.655346 
L 394.422024 229.341611 
L 397.011882 236.1596 
L 399.083212 241.000627 
L 400.896527 244.684981 
L 402.70846 247.814574 
L 404.26258 250.045125 
L 405.557412 251.575192 
L 406.852251 252.801862 
L 408.147092 253.724389 
L 409.44193 254.347983 
L 410.736767 254.684671 
L 412.031609 254.754331 
L 413.326454 254.581881 
L 414.361191 254.289901 
L 414.87962 253.966693 
L 415.398202 253.923262 
L 415.915387 254.1965 
L 416.433887 254.701719 
L 417.210309 255.85274 
L 419.540973 259.664272 
L 420.317378 260.343992 
L 420.835891 260.508123 
L 421.353039 260.435656 
L 421.871548 260.155929 
L 422.647951 259.390662 
L 424.202154 257.315471 
L 425.237868 256.127506 
L 426.014323 255.594833 
L 426.53287 255.458675 
L 427.050053 255.49751 
L 427.827869 255.863819 
L 428.604312 256.513642 
L 431.194199 258.966901 
L 431.970607 259.296326 
L 432.747013 259.317801 
L 433.524783 259.047849 
L 434.56046 258.357506 
L 436.631858 256.797095 
L 437.4083 256.462788 
L 438.18611 256.357994 
L 438.962553 256.485273 
L 439.998256 256.946615 
L 442.84741 258.49764 
L 443.623824 258.647738 
L 444.400238 258.615225 
L 445.435916 258.32347 
L 449.06153 256.924669 
L 450.097234 256.919812 
L 451.132934 257.138013 
L 455.017781 258.240646 
L 456.053461 258.203407 
L 457.348405 257.938797 
L 460.196219 257.256599 
L 461.491184 257.219022 
L 463.045407 257.438192 
L 466.152472 257.987135 
L 467.706676 257.965077 
L 470.037319 257.61995 
L 472.108706 257.398257 
L 473.920826 257.465691 
L 478.582106 257.861889 
L 480.912747 257.69333 
L 483.761923 257.502456 
L 486.092567 257.592431 
L 489.976057 257.77989 
L 491.789538 257.713172 
L 491.789538 257.713172 
" clip-path="url(#pdc293ec4ab)" style="fill: none; stroke: #ff7f0e; stroke-width: 3.5; stroke-linecap: square"/>
   </g>
   <g id="line2d_25">
    <path d="M 103.615625 257.852515 
L 107.760195 257.977811 
L 111.384536 257.960384 
L 116.564605 257.905674 
L 123.038113 257.943303 
L 129.25235 257.937192 
L 135.985125 257.923461 
L 150.745658 257.930529 
L 174.569646 257.935688 
L 181.302016 257.933666 
L 182.337992 256.928865 
L 183.115749 255.741294 
L 184.151361 253.709803 
L 185.18696 251.189486 
L 186.481816 247.489743 
L 188.035915 242.437926 
L 190.366427 233.908469 
L 196.839695 209.258042 
L 198.65321 203.786502 
L 200.724683 198.279514 
L 203.832008 189.973575 
L 205.385052 185.132424 
L 206.93952 179.631629 
L 209.011344 171.439112 
L 215.484339 144.964209 
L 217.814867 136.665114 
L 219.88758 130.06779 
L 221.700223 124.939673 
L 223.252988 121.142378 
L 224.547861 118.488766 
L 225.842703 116.354208 
L 226.878309 115.040756 
L 227.913918 114.081214 
L 228.950882 113.468862 
L 229.727242 113.230373 
L 230.503602 113.170874 
L 231.540567 113.352176 
L 232.576168 113.803703 
L 233.870885 114.51924 
L 234.647352 114.6103 
L 235.423725 114.447913 
L 236.45938 113.864072 
L 239.30856 112.009697 
L 240.084991 111.855642 
L 240.86278 111.912402 
L 241.898464 112.289047 
L 245.264777 113.907109 
L 246.041205 113.976592 
L 247.076899 113.812774 
L 248.371858 113.318965 
L 250.443232 112.502181 
L 251.478915 112.341717 
L 252.514597 112.411646 
L 253.809539 112.752635 
L 256.39944 113.517769 
L 257.694396 113.590464 
L 259.248709 113.510146 
L 262.09651 114.67761 
L 263.1322 114.781194 
L 264.167893 114.645086 
L 265.462848 114.243165 
L 267.534225 113.576205 
L 268.569912 113.442223 
L 269.864864 113.536277 
L 271.678341 113.989158 
L 273.490462 114.399361 
L 274.785416 114.464337 
L 276.339636 114.27139 
L 279.705966 113.691831 
L 281.258817 113.728854 
L 283.848723 114.115937 
L 285.660841 114.2825 
L 287.474321 114.203373 
L 291.876343 113.818989 
L 294.206986 113.97236 
L 297.314058 114.177485 
L 299.644704 114.080654 
L 303.270297 113.901427 
L 306.377365 114.033738 
L 309.485803 114.108556 
L 318.289843 114.043082 
L 322.173342 114.051415 
L 328.388845 114.007493 
L 334.604349 114.024351 
L 336.675671 113.999651 
L 338.228724 115.109676 
L 339.523682 115.904098 
L 340.301479 116.148015 
L 341.07791 116.189093 
L 341.854343 116.015258 
L 342.890042 115.551433 
L 345.220685 114.342159 
L 346.256372 114.103739 
L 347.292057 114.157361 
L 348.329112 114.460495 
L 351.436192 115.622407 
L 352.47189 115.705264 
L 353.507587 115.572072 
L 355.061808 115.107751 
L 356.873924 114.584228 
L 358.168878 114.464387 
L 359.463829 114.60363 
L 362.829642 115.383618 
L 363.607345 115.840614 
L 364.383725 116.686988 
L 365.160126 117.837989 
L 366.195721 119.829106 
L 367.490574 122.88075 
L 369.30392 127.820466 
L 375.259821 144.587102 
L 378.107563 152.592981 
L 379.661787 157.520873 
L 381.216043 163.124946 
L 383.02825 170.589466 
L 385.359102 181.262184 
L 392.351199 213.989855 
L 394.422024 222.370635 
L 395.975621 227.884991 
L 397.529352 232.517468 
L 398.825136 235.650608 
L 399.860194 237.691211 
L 400.896527 239.338781 
L 401.932093 240.620709 
L 402.967711 241.564696 
L 404.003337 242.20108 
L 405.038934 242.554372 
L 406.075893 242.648399 
L 407.111493 242.505091 
L 408.147092 242.143854 
L 409.44193 241.412415 
L 410.736767 240.399292 
L 412.290851 238.852283 
L 414.102817 236.655384 
L 414.620311 235.961014 
L 414.87962 235.839988 
L 415.138906 235.933488 
L 415.398202 236.263808 
L 415.915387 237.626982 
L 416.433887 239.801882 
L 417.210309 244.648049 
L 418.246026 253.031617 
L 419.540973 263.889253 
L 420.317378 268.825519 
L 420.835891 270.951223 
L 421.353039 272.002753 
L 421.612293 272.125386 
L 421.871548 271.977328 
L 422.130802 271.565391 
L 422.647951 269.998419 
L 423.166468 267.596608 
L 423.942887 262.892896 
L 425.756414 251.274077 
L 426.53287 247.938799 
L 427.050053 246.650501 
L 427.309327 246.306494 
L 427.568598 246.166859 
L 427.827869 246.227183 
L 428.08714 246.481711 
L 428.604312 247.541364 
L 429.122843 249.250604 
L 429.899269 252.734363 
L 431.970607 262.882875 
L 432.489121 264.582358 
L 433.006269 265.666082 
L 433.265526 265.955393 
L 433.524783 266.072708 
L 433.784042 266.020633 
L 434.041937 265.802854 
L 434.56046 264.90612 
L 435.07762 263.486921 
L 436.114684 259.635066 
L 437.4083 254.618799 
L 438.18611 252.41047 
L 438.703285 251.491405 
L 439.22182 251.076919 
L 439.481088 251.06154 
L 439.998256 251.402945 
L 440.516786 252.194844 
L 441.29321 254.057103 
L 443.883085 261.348244 
L 444.400238 262.155436 
L 444.918759 262.567674 
L 445.435916 262.572214 
L 445.954441 262.186082 
L 446.471601 261.460631 
L 447.249393 259.899249 
L 449.320797 255.254276 
L 450.097234 254.19432 
L 450.615766 253.850972 
L 451.132934 253.815929 
L 451.651466 254.078834 
L 452.168628 254.604272 
L 452.946417 255.768723 
L 455.277042 259.708068 
L 456.053461 260.41037 
L 456.571981 260.585126 
L 457.089142 260.519609 
L 457.607669 260.230522 
L 458.384096 259.452301 
L 459.679053 257.676668 
L 460.714752 256.351903 
L 461.491184 255.678611 
L 462.009714 255.441028 
L 462.52688 255.387443 
L 463.045407 255.513211 
L 463.821836 255.994884 
L 464.857521 257.006449 
L 466.411734 258.606587 
L 467.188151 259.142254 
L 467.965938 259.381976 
L 468.742362 259.303754 
L 469.518789 258.94345 
L 470.554481 258.171158 
L 472.36797 256.776295 
L 473.144399 256.428047 
L 473.920826 256.316553 
L 474.698621 256.443988 
L 475.734311 256.915452 
L 478.582106 258.514565 
L 479.359894 258.671935 
L 480.136318 258.641358 
L 481.17201 258.344102 
L 484.797611 256.901474 
L 485.833303 256.893494 
L 486.868996 257.115688 
L 490.753847 258.253306 
L 491.789538 258.217441 
L 491.789538 258.217441 
" clip-path="url(#pdc293ec4ab)" style="fill: none; stroke: #2ca02c; stroke-width: 3.5; stroke-linecap: square"/>
   </g>
   <g id="patch_3">
    <path d="M 103.615625 339.84 
L 103.615625 7.2 
" style="fill: none; stroke: #000000; stroke-width: 4; stroke-linejoin: miter; stroke-linecap: square"/>
   </g>
   <g id="patch_4">
    <path d="M 491.789538 339.84 
L 491.789538 7.2 
" style="fill: none; stroke: #000000; stroke-width: 4; stroke-linejoin: miter; stroke-linecap: square"/>
   </g>
   <g id="patch_5">
    <path d="M 103.615625 339.84 
L 491.789538 339.84 
" style="fill: none; stroke: #000000; stroke-width: 4; stroke-linejoin: miter; stroke-linecap: square"/>
   </g>
   <g id="patch_6">
    <path d="M 103.615625 7.2 
L 491.789538 7.2 
" style="fill: none; stroke: #000000; stroke-width: 4; stroke-linejoin: miter; stroke-linecap: square"/>
   </g>
  </g>
  <g id="axes_2">
   <g id="patch_7">
    <path d="M 608.241712 339.84 
L 996.415625 339.84 
L 996.415625 7.2 
L 608.241712 7.2 
z
" style="fill: #ffffff"/>
   </g>
   <g id="matplotlib.axis_3">
    <g id="xtick_4">
     <g id="line2d_26">
      <path d="M 608.241712 339.84 
L 608.241712 7.2 
" clip-path="url(#pfc6d2d21fd)" style="fill: none; stroke: #e2e2e2; stroke-width: 0.8; stroke-linecap: square"/>
     </g>
     <g id="line2d_27">
      <g>
       <use xlink:href="#m68bc8d777e" x="608.241712" y="339.84" style="stroke: #000000; stroke-width: 0.8"/>
      </g>
     </g>
     <g id="text_9">
      <!-- 8 -->
      <g transform="translate(598.697962 369.635312)scale(0.3 -0.3)">
       <defs>
        <path id="DejaVuSans-38" d="M 2034 2216 
Q 1584 2216 1326 1975 
Q 1069 1734 1069 1313 
Q 1069 891 1326 650 
Q 1584 409 2034 409 
Q 2484 409 2743 651 
Q 3003 894 3003 1313 
Q 3003 1734 2745 1975 
Q 2488 2216 2034 2216 
z
M 1403 2484 
Q 997 2584 770 2862 
Q 544 3141 544 3541 
Q 544 4100 942 4425 
Q 1341 4750 2034 4750 
Q 2731 4750 3128 4425 
Q 3525 4100 3525 3541 
Q 3525 3141 3298 2862 
Q 3072 2584 2669 2484 
Q 3125 2378 3379 2068 
Q 3634 1759 3634 1313 
Q 3634 634 3220 271 
Q 2806 -91 2034 -91 
Q 1263 -91 848 271 
Q 434 634 434 1313 
Q 434 1759 690 2068 
Q 947 2378 1403 2484 
z
M 1172 3481 
Q 1172 3119 1398 2916 
Q 1625 2713 2034 2713 
Q 2441 2713 2670 2916 
Q 2900 3119 2900 3481 
Q 2900 3844 2670 4047 
Q 2441 4250 2034 4250 
Q 1625 4250 1398 4047 
Q 1172 3844 1172 3481 
z
" transform="scale(0.015625)"/>
       </defs>
       <use xlink:href="#DejaVuSans-38"/>
      </g>
     </g>
    </g>
    <g id="xtick_5">
     <g id="line2d_28">
      <path d="M 763.511277 339.84 
L 763.511277 7.2 
" clip-path="url(#pfc6d2d21fd)" style="fill: none; stroke: #e2e2e2; stroke-width: 0.8; stroke-linecap: square"/>
     </g>
     <g id="line2d_29">
      <g>
       <use xlink:href="#m68bc8d777e" x="763.511277" y="339.84" style="stroke: #000000; stroke-width: 0.8"/>
      </g>
     </g>
     <g id="text_10">
      <!-- 10 -->
      <g transform="translate(744.423777 369.635312)scale(0.3 -0.3)">
       <use xlink:href="#DejaVuSans-31"/>
       <use xlink:href="#DejaVuSans-30" x="63.623047"/>
      </g>
     </g>
    </g>
    <g id="xtick_6">
     <g id="line2d_30">
      <path d="M 918.780842 339.84 
L 918.780842 7.2 
" clip-path="url(#pfc6d2d21fd)" style="fill: none; stroke: #e2e2e2; stroke-width: 0.8; stroke-linecap: square"/>
     </g>
     <g id="line2d_31">
      <g>
       <use xlink:href="#m68bc8d777e" x="918.780842" y="339.84" style="stroke: #000000; stroke-width: 0.8"/>
      </g>
     </g>
     <g id="text_11">
      <!-- 12 -->
      <g transform="translate(899.693342 369.635312)scale(0.3 -0.3)">
       <defs>
        <path id="DejaVuSans-32" d="M 1228 531 
L 3431 531 
L 3431 0 
L 469 0 
L 469 531 
Q 828 903 1448 1529 
Q 2069 2156 2228 2338 
Q 2531 2678 2651 2914 
Q 2772 3150 2772 3378 
Q 2772 3750 2511 3984 
Q 2250 4219 1831 4219 
Q 1534 4219 1204 4116 
Q 875 4013 500 3803 
L 500 4441 
Q 881 4594 1212 4672 
Q 1544 4750 1819 4750 
Q 2544 4750 2975 4387 
Q 3406 4025 3406 3419 
Q 3406 3131 3298 2873 
Q 3191 2616 2906 2266 
Q 2828 2175 2409 1742 
Q 1991 1309 1228 531 
z
" transform="scale(0.015625)"/>
       </defs>
       <use xlink:href="#DejaVuSans-31"/>
       <use xlink:href="#DejaVuSans-32" x="63.623047"/>
      </g>
     </g>
    </g>
    <g id="text_12">
     <!-- Time (ns) -->
     <g transform="translate(739.563043 401.713437)scale(0.3 -0.3)">
      <use xlink:href="#ArialMT-54"/>
      <use xlink:href="#ArialMT-69" x="57.333984"/>
      <use xlink:href="#ArialMT-6d" x="79.550781"/>
      <use xlink:href="#ArialMT-65" x="162.851562"/>
      <use xlink:href="#ArialMT-20" x="218.466797"/>
      <use xlink:href="#ArialMT-28" x="246.25"/>
      <use xlink:href="#ArialMT-6e" x="279.550781"/>
      <use xlink:href="#ArialMT-73" x="335.166016"/>
      <use xlink:href="#ArialMT-29" x="385.166016"/>
     </g>
    </g>
   </g>
   <g id="matplotlib.axis_4">
    <g id="ytick_4">
     <g id="line2d_32">
      <path d="M 608.241712 339.84 
L 996.415625 339.84 
" clip-path="url(#pfc6d2d21fd)" style="fill: none; stroke: #e2e2e2; stroke-width: 0.8; stroke-linecap: square"/>
     </g>
     <g id="line2d_33">
      <g>
       <use xlink:href="#m0097b3684a" x="608.241712" y="339.84" style="stroke: #000000; stroke-width: 0.8"/>
      </g>
     </g>
     <g id="text_13">
      <!-- 0 -->
      <g transform="translate(584.558899 350.576719)scale(0.3 -0.3)">
       <defs>
        <path id="ArialMT-30" d="M 266 2259 
Q 266 3072 433 3567 
Q 600 4063 929 4331 
Q 1259 4600 1759 4600 
Q 2128 4600 2406 4451 
Q 2684 4303 2865 4023 
Q 3047 3744 3150 3342 
Q 3253 2941 3253 2259 
Q 3253 1453 3087 958 
Q 2922 463 2592 192 
Q 2263 -78 1759 -78 
Q 1097 -78 719 397 
Q 266 969 266 2259 
z
M 844 2259 
Q 844 1131 1108 757 
Q 1372 384 1759 384 
Q 2147 384 2411 759 
Q 2675 1134 2675 2259 
Q 2675 3391 2411 3762 
Q 2147 4134 1753 4134 
Q 1366 4134 1134 3806 
Q 844 3388 844 2259 
z
" transform="scale(0.015625)"/>
       </defs>
       <use xlink:href="#ArialMT-30"/>
      </g>
     </g>
    </g>
    <g id="ytick_5">
     <g id="line2d_34">
      <path d="M 608.241712 302.88 
L 996.415625 302.88 
" clip-path="url(#pfc6d2d21fd)" style="fill: none; stroke: #e2e2e2; stroke-width: 0.8; stroke-linecap: square"/>
     </g>
     <g id="line2d_35">
      <g>
       <use xlink:href="#m0097b3684a" x="608.241712" y="302.88" style="stroke: #000000; stroke-width: 0.8"/>
      </g>
     </g>
    </g>
    <g id="ytick_6">
     <g id="line2d_36">
      <path d="M 608.241712 265.92 
L 996.415625 265.92 
" clip-path="url(#pfc6d2d21fd)" style="fill: none; stroke: #e2e2e2; stroke-width: 0.8; stroke-linecap: square"/>
     </g>
     <g id="line2d_37">
      <g>
       <use xlink:href="#m0097b3684a" x="608.241712" y="265.92" style="stroke: #000000; stroke-width: 0.8"/>
      </g>
     </g>
     <g id="text_14">
      <!-- 1 -->
      <g transform="translate(584.558899 276.656719)scale(0.3 -0.3)">
       <defs>
        <path id="ArialMT-31" d="M 2384 0 
L 1822 0 
L 1822 3584 
Q 1619 3391 1289 3197 
Q 959 3003 697 2906 
L 697 3450 
Q 1169 3672 1522 3987 
Q 1875 4303 2022 4600 
L 2384 4600 
L 2384 0 
z
" transform="scale(0.015625)"/>
       </defs>
       <use xlink:href="#ArialMT-31"/>
      </g>
     </g>
    </g>
    <g id="ytick_7">
     <g id="line2d_38">
      <path d="M 608.241712 228.96 
L 996.415625 228.96 
" clip-path="url(#pfc6d2d21fd)" style="fill: none; stroke: #e2e2e2; stroke-width: 0.8; stroke-linecap: square"/>
     </g>
     <g id="line2d_39">
      <g>
       <use xlink:href="#m0097b3684a" x="608.241712" y="228.96" style="stroke: #000000; stroke-width: 0.8"/>
      </g>
     </g>
    </g>
    <g id="ytick_8">
     <g id="line2d_40">
      <path d="M 608.241712 192 
L 996.415625 192 
" clip-path="url(#pfc6d2d21fd)" style="fill: none; stroke: #e2e2e2; stroke-width: 0.8; stroke-linecap: square"/>
     </g>
     <g id="line2d_41">
      <g>
       <use xlink:href="#m0097b3684a" x="608.241712" y="192" style="stroke: #000000; stroke-width: 0.8"/>
      </g>
     </g>
     <g id="text_15">
      <!-- 2 -->
      <g transform="translate(584.558899 202.736719)scale(0.3 -0.3)">
       <defs>
        <path id="ArialMT-32" d="M 3222 541 
L 3222 0 
L 194 0 
Q 188 203 259 391 
Q 375 700 629 1000 
Q 884 1300 1366 1694 
Q 2113 2306 2375 2664 
Q 2638 3022 2638 3341 
Q 2638 3675 2398 3904 
Q 2159 4134 1775 4134 
Q 1369 4134 1125 3890 
Q 881 3647 878 3216 
L 300 3275 
Q 359 3922 746 4261 
Q 1134 4600 1788 4600 
Q 2447 4600 2831 4234 
Q 3216 3869 3216 3328 
Q 3216 3053 3103 2787 
Q 2991 2522 2730 2228 
Q 2469 1934 1863 1422 
Q 1356 997 1212 845 
Q 1069 694 975 541 
L 3222 541 
z
" transform="scale(0.015625)"/>
       </defs>
       <use xlink:href="#ArialMT-32"/>
      </g>
     </g>
    </g>
    <g id="ytick_9">
     <g id="line2d_42">
      <path d="M 608.241712 155.04 
L 996.415625 155.04 
" clip-path="url(#pfc6d2d21fd)" style="fill: none; stroke: #e2e2e2; stroke-width: 0.8; stroke-linecap: square"/>
     </g>
     <g id="line2d_43">
      <g>
       <use xlink:href="#m0097b3684a" x="608.241712" y="155.04" style="stroke: #000000; stroke-width: 0.8"/>
      </g>
     </g>
    </g>
    <g id="ytick_10">
     <g id="line2d_44">
      <path d="M 608.241712 118.08 
L 996.415625 118.08 
" clip-path="url(#pfc6d2d21fd)" style="fill: none; stroke: #e2e2e2; stroke-width: 0.8; stroke-linecap: square"/>
     </g>
     <g id="line2d_45">
      <g>
       <use xlink:href="#m0097b3684a" x="608.241712" y="118.08" style="stroke: #000000; stroke-width: 0.8"/>
      </g>
     </g>
     <g id="text_16">
      <!-- 3 -->
      <g transform="translate(584.558899 128.816719)scale(0.3 -0.3)">
       <defs>
        <path id="ArialMT-33" d="M 269 1209 
L 831 1284 
Q 928 806 1161 595 
Q 1394 384 1728 384 
Q 2125 384 2398 659 
Q 2672 934 2672 1341 
Q 2672 1728 2419 1979 
Q 2166 2231 1775 2231 
Q 1616 2231 1378 2169 
L 1441 2663 
Q 1497 2656 1531 2656 
Q 1891 2656 2178 2843 
Q 2466 3031 2466 3422 
Q 2466 3731 2256 3934 
Q 2047 4138 1716 4138 
Q 1388 4138 1169 3931 
Q 950 3725 888 3313 
L 325 3413 
Q 428 3978 793 4289 
Q 1159 4600 1703 4600 
Q 2078 4600 2393 4439 
Q 2709 4278 2876 4000 
Q 3044 3722 3044 3409 
Q 3044 3113 2884 2869 
Q 2725 2625 2413 2481 
Q 2819 2388 3044 2092 
Q 3269 1797 3269 1353 
Q 3269 753 2831 336 
Q 2394 -81 1725 -81 
Q 1122 -81 723 278 
Q 325 638 269 1209 
z
" transform="scale(0.015625)"/>
       </defs>
       <use xlink:href="#ArialMT-33"/>
      </g>
     </g>
    </g>
    <g id="ytick_11">
     <g id="line2d_46">
      <path d="M 608.241712 81.12 
L 996.415625 81.12 
" clip-path="url(#pfc6d2d21fd)" style="fill: none; stroke: #e2e2e2; stroke-width: 0.8; stroke-linecap: square"/>
     </g>
     <g id="line2d_47">
      <g>
       <use xlink:href="#m0097b3684a" x="608.241712" y="81.12" style="stroke: #000000; stroke-width: 0.8"/>
      </g>
     </g>
    </g>
    <g id="ytick_12">
     <g id="line2d_48">
      <path d="M 608.241712 44.16 
L 996.415625 44.16 
" clip-path="url(#pfc6d2d21fd)" style="fill: none; stroke: #e2e2e2; stroke-width: 0.8; stroke-linecap: square"/>
     </g>
     <g id="line2d_49">
      <g>
       <use xlink:href="#m0097b3684a" x="608.241712" y="44.16" style="stroke: #000000; stroke-width: 0.8"/>
      </g>
     </g>
     <g id="text_17">
      <!-- 4 -->
      <g transform="translate(584.558899 54.896719)scale(0.3 -0.3)">
       <defs>
        <path id="ArialMT-34" d="M 2069 0 
L 2069 1097 
L 81 1097 
L 81 1613 
L 2172 4581 
L 2631 4581 
L 2631 1613 
L 3250 1613 
L 3250 1097 
L 2631 1097 
L 2631 0 
L 2069 0 
z
M 2069 1613 
L 2069 3678 
L 634 1613 
L 2069 1613 
z
" transform="scale(0.015625)"/>
       </defs>
       <use xlink:href="#ArialMT-34"/>
      </g>
     </g>
    </g>
    <g id="ytick_13">
     <g id="line2d_50">
      <path d="M 608.241712 7.2 
L 996.415625 7.2 
" clip-path="url(#pfc6d2d21fd)" style="fill: none; stroke: #e2e2e2; stroke-width: 0.8; stroke-linecap: square"/>
     </g>
     <g id="line2d_51">
      <g>
       <use xlink:href="#m0097b3684a" x="608.241712" y="7.2" style="stroke: #000000; stroke-width: 0.8"/>
      </g>
     </g>
    </g>
    <g id="text_18">
     <!-- J$_2$ (A/m$^2$) -->
     <g transform="translate(573.958899 236.37)rotate(-90)scale(0.3 -0.3)">
      <defs>
       <path id="ArialMT-4a" d="M 184 1300 
L 731 1375 
Q 753 850 928 656 
Q 1103 463 1413 463 
Q 1641 463 1806 567 
Q 1972 672 2034 851 
Q 2097 1031 2097 1425 
L 2097 4581 
L 2703 4581 
L 2703 1459 
Q 2703 884 2564 568 
Q 2425 253 2123 87 
Q 1822 -78 1416 -78 
Q 813 -78 492 269 
Q 172 616 184 1300 
z
" transform="scale(0.015625)"/>
       <path id="ArialMT-41" d="M -9 0 
L 1750 4581 
L 2403 4581 
L 4278 0 
L 3588 0 
L 3053 1388 
L 1138 1388 
L 634 0 
L -9 0 
z
M 1313 1881 
L 2866 1881 
L 2388 3150 
Q 2169 3728 2063 4100 
Q 1975 3659 1816 3225 
L 1313 1881 
z
" transform="scale(0.015625)"/>
       <path id="ArialMT-2f" d="M 0 -78 
L 1328 4659 
L 1778 4659 
L 453 -78 
L 0 -78 
z
" transform="scale(0.015625)"/>
      </defs>
      <use xlink:href="#ArialMT-4a" transform="translate(0 0.765625)"/>
      <use xlink:href="#DejaVuSans-32" transform="translate(50.957031 -15.640625)scale(0.7)"/>
      <use xlink:href="#ArialMT-20" transform="translate(98.227539 0.765625)"/>
      <use xlink:href="#ArialMT-28" transform="translate(126.010742 0.765625)"/>
      <use xlink:href="#ArialMT-41" transform="translate(159.311523 0.765625)"/>
      <use xlink:href="#ArialMT-2f" transform="translate(226.010742 0.765625)"/>
      <use xlink:href="#ArialMT-6d" transform="translate(253.793945 0.765625)"/>
      <use xlink:href="#DejaVuSans-32" transform="translate(338.051758 39.046875)scale(0.7)"/>
      <use xlink:href="#ArialMT-29" transform="translate(385.322266 0.765625)"/>
     </g>
    </g>
   </g>
   <g id="line2d_52">
    <path d="M 607.468684 339.84 
L 685.102002 339.84 
L 685.879107 118.08 
L 802.331906 118.08 
L 803.105061 123.108002 
L 804.659571 147.30934 
L 806.214079 166.760392 
L 807.764507 182.643233 
L 809.319035 195.872977 
L 810.869485 206.96701 
L 812.424024 216.443223 
L 813.974502 224.584291 
L 815.529075 231.689455 
L 817.079561 237.928206 
L 818.634151 243.487956 
L 820.961981 250.768282 
L 823.293917 257.070803 
L 825.621797 262.57981 
L 827.172371 265.889259 
L 830.277665 265.92 
L 918.006235 265.92 
L 918.780842 339.84 
L 996.418224 339.84 
L 996.418224 339.84 
" clip-path="url(#pfc6d2d21fd)" style="fill: none; stroke: #1f77b4; stroke-width: 3.5; stroke-linecap: square"/>
   </g>
   <g id="line2d_53">
    <path d="M 607.468684 339.84 
L 685.102002 339.84 
L 685.879107 118.08 
L 800.777419 118.08 
L 801.55466 118.436492 
L 803.105061 145.896555 
L 804.659571 167.396374 
L 806.214079 184.716886 
L 807.764507 198.86885 
L 809.319035 210.673297 
L 810.869485 220.585261 
L 812.424024 229.049154 
L 813.974502 236.297709 
L 815.529075 242.580105 
L 817.079561 248.046697 
L 818.634151 252.814781 
L 820.184672 257.013812 
L 821.739292 260.708948 
L 823.293917 263.991482 
L 824.067141 265.485361 
L 824.844464 265.92 
L 918.006235 265.92 
L 918.780842 339.84 
L 996.418224 339.84 
L 996.418224 339.84 
" clip-path="url(#pfc6d2d21fd)" style="fill: none; stroke: #ff7f0e; stroke-width: 3.5; stroke-linecap: square"/>
   </g>
   <g id="line2d_54">
    <path d="M 607.468684 339.84 
L 685.102002 339.84 
L 685.879107 118.08 
L 812.424024 118.08 
L 814.751785 144.326924 
L 816.306358 159.688823 
L 817.856849 173.332943 
L 819.411455 185.571859 
L 820.961981 196.530817 
L 822.516603 206.419233 
L 824.067141 215.320326 
L 826.399129 227.01956 
L 827.949707 233.854064 
L 830.277665 242.883746 
L 832.609746 250.618504 
L 834.160399 255.180634 
L 836.488462 261.246954 
L 838.043257 264.844458 
L 838.82067 265.92 
L 918.006235 265.92 
L 918.780842 339.84 
L 996.418224 339.84 
L 996.418224 339.84 
" clip-path="url(#pfc6d2d21fd)" style="fill: none; stroke: #2ca02c; stroke-width: 3.5; stroke-linecap: square"/>
   </g>
   <g id="patch_8">
    <path d="M 608.241712 339.84 
L 608.241712 7.2 
" style="fill: none; stroke: #000000; stroke-width: 4; stroke-linejoin: miter; stroke-linecap: square"/>
   </g>
   <g id="patch_9">
    <path d="M 996.415625 339.84 
L 996.415625 7.2 
" style="fill: none; stroke: #000000; stroke-width: 4; stroke-linejoin: miter; stroke-linecap: square"/>
   </g>
   <g id="patch_10">
    <path d="M 608.241712 339.84 
L 996.415625 339.84 
" style="fill: none; stroke: #000000; stroke-width: 4; stroke-linejoin: miter; stroke-linecap: square"/>
   </g>
   <g id="patch_11">
    <path d="M 608.241712 7.2 
L 996.415625 7.2 
" style="fill: none; stroke: #000000; stroke-width: 4; stroke-linejoin: miter; stroke-linecap: square"/>
   </g>
  </g>
 </g>
 <defs>
  <clipPath id="pdc293ec4ab">
   <rect x="103.615625" y="7.2" width="388.173913" height="332.64"/>
  </clipPath>
  <clipPath id="pfc6d2d21fd">
   <rect x="608.241712" y="7.2" width="388.173913" height="332.64"/>
  </clipPath>
 </defs>
</svg>
