<?xml version="1.0" encoding="utf-8" standalone="no"?>
<!DOCTYPE svg PUBLIC "-//W3C//DTD SVG 1.1//EN"
  "http://www.w3.org/Graphics/SVG/1.1/DTD/svg11.dtd">
<svg xmlns:xlink="http://www.w3.org/1999/xlink" width="547.407031pt" height="535.245781pt" viewBox="0 0 547.407031 535.245781" xmlns="http://www.w3.org/2000/svg" version="1.1">
 <metadata>
  <rdf:RDF xmlns:dc="http://purl.org/dc/elements/1.1/" xmlns:cc="http://creativecommons.org/ns#" xmlns:rdf="http://www.w3.org/1999/02/22-rdf-syntax-ns#">
   <cc:Work>
    <dc:type rdf:resource="http://purl.org/dc/dcmitype/StillImage"/>
    <dc:date>2022-11-21T10:02:01.920313</dc:date>
    <dc:format>image/svg+xml</dc:format>
    <dc:creator>
     <cc:Agent>
      <dc:title>Matplotlib v3.5.3, https://matplotlib.org/</dc:title>
     </cc:Agent>
    </dc:creator>
   </cc:Work>
  </rdf:RDF>
 </metadata>
 <defs>
  <style type="text/css">*{stroke-linejoin: round; stroke-linecap: butt}</style>
 </defs>
 <g id="figure_1">
  <g id="patch_1">
   <path d="M 0 535.245781 
L 547.407031 535.245781 
L 547.407031 0 
L 0 0 
z
" style="fill: #ffffff"/>
  </g>
  <g id="axes_1">
   <g id="patch_2">
    <path d="M 85.465625 461.456719 
L 531.865625 461.456719 
L 531.865625 17.936719 
L 85.465625 17.936719 
z
" style="fill: #ffffff"/>
   </g>
   <g id="matplotlib.axis_1">
    <g id="xtick_1">
     <g id="line2d_1">
      <path d="M 85.465625 461.456719 
L 85.465625 17.936719 
" clip-path="url(#p747ee6290f)" style="fill: none; stroke: #e2e2e2; stroke-width: 0.8; stroke-linecap: square"/>
     </g>
     <g id="line2d_2">
      <defs>
       <path id="m22b8b0de0c" d="M 0 0 
L 0 3.5 
" style="stroke: #000000; stroke-width: 0.8"/>
      </defs>
      <g>
       <use xlink:href="#m22b8b0de0c" x="85.465625" y="461.456719" style="stroke: #000000; stroke-width: 0.8"/>
      </g>
     </g>
     <g id="text_1">
      <!-- 1 -->
      <g transform="translate(77.124219 489.930156)scale(0.3 -0.3)">
       <defs>
        <path id="ArialMT-31" d="M 2384 0 
L 1822 0 
L 1822 3584 
Q 1619 3391 1289 3197 
Q 959 3003 697 2906 
L 697 3450 
Q 1169 3672 1522 3987 
Q 1875 4303 2022 4600 
L 2384 4600 
L 2384 0 
z
" transform="scale(0.015625)"/>
       </defs>
       <use xlink:href="#ArialMT-31"/>
      </g>
     </g>
    </g>
    <g id="xtick_2">
     <g id="line2d_3">
      <path d="M 197.065625 461.456719 
L 197.065625 17.936719 
" clip-path="url(#p747ee6290f)" style="fill: none; stroke: #e2e2e2; stroke-width: 0.8; stroke-linecap: square"/>
     </g>
     <g id="line2d_4">
      <g>
       <use xlink:href="#m22b8b0de0c" x="197.065625" y="461.456719" style="stroke: #000000; stroke-width: 0.8"/>
      </g>
     </g>
     <g id="text_2">
      <!-- 2 -->
      <g transform="translate(188.724219 489.930156)scale(0.3 -0.3)">
       <defs>
        <path id="ArialMT-32" d="M 3222 541 
L 3222 0 
L 194 0 
Q 188 203 259 391 
Q 375 700 629 1000 
Q 884 1300 1366 1694 
Q 2113 2306 2375 2664 
Q 2638 3022 2638 3341 
Q 2638 3675 2398 3904 
Q 2159 4134 1775 4134 
Q 1369 4134 1125 3890 
Q 881 3647 878 3216 
L 300 3275 
Q 359 3922 746 4261 
Q 1134 4600 1788 4600 
Q 2447 4600 2831 4234 
Q 3216 3869 3216 3328 
Q 3216 3053 3103 2787 
Q 2991 2522 2730 2228 
Q 2469 1934 1863 1422 
Q 1356 997 1212 845 
Q 1069 694 975 541 
L 3222 541 
z
" transform="scale(0.015625)"/>
       </defs>
       <use xlink:href="#ArialMT-32"/>
      </g>
     </g>
    </g>
    <g id="xtick_3">
     <g id="line2d_5">
      <path d="M 308.665625 461.456719 
L 308.665625 17.936719 
" clip-path="url(#p747ee6290f)" style="fill: none; stroke: #e2e2e2; stroke-width: 0.8; stroke-linecap: square"/>
     </g>
     <g id="line2d_6">
      <g>
       <use xlink:href="#m22b8b0de0c" x="308.665625" y="461.456719" style="stroke: #000000; stroke-width: 0.8"/>
      </g>
     </g>
     <g id="text_3">
      <!-- 3 -->
      <g transform="translate(300.324219 489.930156)scale(0.3 -0.3)">
       <defs>
        <path id="ArialMT-33" d="M 269 1209 
L 831 1284 
Q 928 806 1161 595 
Q 1394 384 1728 384 
Q 2125 384 2398 659 
Q 2672 934 2672 1341 
Q 2672 1728 2419 1979 
Q 2166 2231 1775 2231 
Q 1616 2231 1378 2169 
L 1441 2663 
Q 1497 2656 1531 2656 
Q 1891 2656 2178 2843 
Q 2466 3031 2466 3422 
Q 2466 3731 2256 3934 
Q 2047 4138 1716 4138 
Q 1388 4138 1169 3931 
Q 950 3725 888 3313 
L 325 3413 
Q 428 3978 793 4289 
Q 1159 4600 1703 4600 
Q 2078 4600 2393 4439 
Q 2709 4278 2876 4000 
Q 3044 3722 3044 3409 
Q 3044 3113 2884 2869 
Q 2725 2625 2413 2481 
Q 2819 2388 3044 2092 
Q 3269 1797 3269 1353 
Q 3269 753 2831 336 
Q 2394 -81 1725 -81 
Q 1122 -81 723 278 
Q 325 638 269 1209 
z
" transform="scale(0.015625)"/>
       </defs>
       <use xlink:href="#ArialMT-33"/>
      </g>
     </g>
    </g>
    <g id="xtick_4">
     <g id="line2d_7">
      <path d="M 420.265625 461.456719 
L 420.265625 17.936719 
" clip-path="url(#p747ee6290f)" style="fill: none; stroke: #e2e2e2; stroke-width: 0.8; stroke-linecap: square"/>
     </g>
     <g id="line2d_8">
      <g>
       <use xlink:href="#m22b8b0de0c" x="420.265625" y="461.456719" style="stroke: #000000; stroke-width: 0.8"/>
      </g>
     </g>
     <g id="text_4">
      <!-- 4 -->
      <g transform="translate(411.924219 489.930156)scale(0.3 -0.3)">
       <defs>
        <path id="ArialMT-34" d="M 2069 0 
L 2069 1097 
L 81 1097 
L 81 1613 
L 2172 4581 
L 2631 4581 
L 2631 1613 
L 3250 1613 
L 3250 1097 
L 2631 1097 
L 2631 0 
L 2069 0 
z
M 2069 1613 
L 2069 3678 
L 634 1613 
L 2069 1613 
z
" transform="scale(0.015625)"/>
       </defs>
       <use xlink:href="#ArialMT-34"/>
      </g>
     </g>
    </g>
    <g id="xtick_5">
     <g id="line2d_9">
      <path d="M 531.865625 461.456719 
L 531.865625 17.936719 
" clip-path="url(#p747ee6290f)" style="fill: none; stroke: #e2e2e2; stroke-width: 0.8; stroke-linecap: square"/>
     </g>
     <g id="line2d_10">
      <g>
       <use xlink:href="#m22b8b0de0c" x="531.865625" y="461.456719" style="stroke: #000000; stroke-width: 0.8"/>
      </g>
     </g>
     <g id="text_5">
      <!-- 5 -->
      <g transform="translate(523.524219 489.930156)scale(0.3 -0.3)">
       <defs>
        <path id="ArialMT-35" d="M 266 1200 
L 856 1250 
Q 922 819 1161 601 
Q 1400 384 1738 384 
Q 2144 384 2425 690 
Q 2706 997 2706 1503 
Q 2706 1984 2436 2262 
Q 2166 2541 1728 2541 
Q 1456 2541 1237 2417 
Q 1019 2294 894 2097 
L 366 2166 
L 809 4519 
L 3088 4519 
L 3088 3981 
L 1259 3981 
L 1013 2750 
Q 1425 3038 1878 3038 
Q 2478 3038 2890 2622 
Q 3303 2206 3303 1553 
Q 3303 931 2941 478 
Q 2500 -78 1738 -78 
Q 1113 -78 717 272 
Q 322 622 266 1200 
z
" transform="scale(0.015625)"/>
       </defs>
       <use xlink:href="#ArialMT-35"/>
      </g>
     </g>
    </g>
    <g id="text_6">
     <!-- Time (ns) -->
     <g transform="translate(245.9 521.731719)scale(0.3 -0.3)">
      <defs>
       <path id="ArialMT-54" d="M 1659 0 
L 1659 4041 
L 150 4041 
L 150 4581 
L 3781 4581 
L 3781 4041 
L 2266 4041 
L 2266 0 
L 1659 0 
z
" transform="scale(0.015625)"/>
       <path id="ArialMT-69" d="M 425 3934 
L 425 4581 
L 988 4581 
L 988 3934 
L 425 3934 
z
M 425 0 
L 425 3319 
L 988 3319 
L 988 0 
L 425 0 
z
" transform="scale(0.015625)"/>
       <path id="ArialMT-6d" d="M 422 0 
L 422 3319 
L 925 3319 
L 925 2853 
Q 1081 3097 1340 3245 
Q 1600 3394 1931 3394 
Q 2300 3394 2536 3241 
Q 2772 3088 2869 2813 
Q 3263 3394 3894 3394 
Q 4388 3394 4653 3120 
Q 4919 2847 4919 2278 
L 4919 0 
L 4359 0 
L 4359 2091 
Q 4359 2428 4304 2576 
Q 4250 2725 4106 2815 
Q 3963 2906 3769 2906 
Q 3419 2906 3187 2673 
Q 2956 2441 2956 1928 
L 2956 0 
L 2394 0 
L 2394 2156 
Q 2394 2531 2256 2718 
Q 2119 2906 1806 2906 
Q 1569 2906 1367 2781 
Q 1166 2656 1075 2415 
Q 984 2175 984 1722 
L 984 0 
L 422 0 
z
" transform="scale(0.015625)"/>
       <path id="ArialMT-65" d="M 2694 1069 
L 3275 997 
Q 3138 488 2766 206 
Q 2394 -75 1816 -75 
Q 1088 -75 661 373 
Q 234 822 234 1631 
Q 234 2469 665 2931 
Q 1097 3394 1784 3394 
Q 2450 3394 2872 2941 
Q 3294 2488 3294 1666 
Q 3294 1616 3291 1516 
L 816 1516 
Q 847 969 1125 678 
Q 1403 388 1819 388 
Q 2128 388 2347 550 
Q 2566 713 2694 1069 
z
M 847 1978 
L 2700 1978 
Q 2663 2397 2488 2606 
Q 2219 2931 1791 2931 
Q 1403 2931 1139 2672 
Q 875 2413 847 1978 
z
" transform="scale(0.015625)"/>
       <path id="ArialMT-20" transform="scale(0.015625)"/>
       <path id="ArialMT-28" d="M 1497 -1347 
Q 1031 -759 709 28 
Q 388 816 388 1659 
Q 388 2403 628 3084 
Q 909 3875 1497 4659 
L 1900 4659 
Q 1522 4009 1400 3731 
Q 1209 3300 1100 2831 
Q 966 2247 966 1656 
Q 966 153 1900 -1347 
L 1497 -1347 
z
" transform="scale(0.015625)"/>
       <path id="ArialMT-6e" d="M 422 0 
L 422 3319 
L 928 3319 
L 928 2847 
Q 1294 3394 1984 3394 
Q 2284 3394 2536 3286 
Q 2788 3178 2913 3003 
Q 3038 2828 3088 2588 
Q 3119 2431 3119 2041 
L 3119 0 
L 2556 0 
L 2556 2019 
Q 2556 2363 2490 2533 
Q 2425 2703 2258 2804 
Q 2091 2906 1866 2906 
Q 1506 2906 1245 2678 
Q 984 2450 984 1813 
L 984 0 
L 422 0 
z
" transform="scale(0.015625)"/>
       <path id="ArialMT-73" d="M 197 991 
L 753 1078 
Q 800 744 1014 566 
Q 1228 388 1613 388 
Q 2000 388 2187 545 
Q 2375 703 2375 916 
Q 2375 1106 2209 1216 
Q 2094 1291 1634 1406 
Q 1016 1563 777 1677 
Q 538 1791 414 1992 
Q 291 2194 291 2438 
Q 291 2659 392 2848 
Q 494 3038 669 3163 
Q 800 3259 1026 3326 
Q 1253 3394 1513 3394 
Q 1903 3394 2198 3281 
Q 2494 3169 2634 2976 
Q 2775 2784 2828 2463 
L 2278 2388 
Q 2241 2644 2061 2787 
Q 1881 2931 1553 2931 
Q 1166 2931 1000 2803 
Q 834 2675 834 2503 
Q 834 2394 903 2306 
Q 972 2216 1119 2156 
Q 1203 2125 1616 2013 
Q 2213 1853 2448 1751 
Q 2684 1650 2818 1456 
Q 2953 1263 2953 975 
Q 2953 694 2789 445 
Q 2625 197 2315 61 
Q 2006 -75 1616 -75 
Q 969 -75 630 194 
Q 291 463 197 991 
z
" transform="scale(0.015625)"/>
       <path id="ArialMT-29" d="M 791 -1347 
L 388 -1347 
Q 1322 153 1322 1656 
Q 1322 2244 1188 2822 
Q 1081 3291 891 3722 
Q 769 4003 388 4659 
L 791 4659 
Q 1378 3875 1659 3084 
Q 1900 2403 1900 1659 
Q 1900 816 1576 28 
Q 1253 -759 791 -1347 
z
" transform="scale(0.015625)"/>
      </defs>
      <use xlink:href="#ArialMT-54"/>
      <use xlink:href="#ArialMT-69" x="57.333984"/>
      <use xlink:href="#ArialMT-6d" x="79.550781"/>
      <use xlink:href="#ArialMT-65" x="162.851562"/>
      <use xlink:href="#ArialMT-20" x="218.466797"/>
      <use xlink:href="#ArialMT-28" x="246.25"/>
      <use xlink:href="#ArialMT-6e" x="279.550781"/>
      <use xlink:href="#ArialMT-73" x="335.166016"/>
      <use xlink:href="#ArialMT-29" x="385.166016"/>
     </g>
    </g>
   </g>
   <g id="matplotlib.axis_2">
    <g id="ytick_1">
     <g id="line2d_11">
      <path d="M 85.465625 461.456719 
L 531.865625 461.456719 
" clip-path="url(#p747ee6290f)" style="fill: none; stroke: #e2e2e2; stroke-width: 0.8; stroke-linecap: square"/>
     </g>
     <g id="line2d_12">
      <defs>
       <path id="m5b30b98de8" d="M 0 0 
L -3.5 0 
" style="stroke: #000000; stroke-width: 0.8"/>
      </defs>
      <g>
       <use xlink:href="#m5b30b98de8" x="85.465625" y="461.456719" style="stroke: #000000; stroke-width: 0.8"/>
      </g>
     </g>
     <g id="text_7">
      <!-- 0 -->
      <g transform="translate(61.782813 472.193437)scale(0.3 -0.3)">
       <defs>
        <path id="ArialMT-30" d="M 266 2259 
Q 266 3072 433 3567 
Q 600 4063 929 4331 
Q 1259 4600 1759 4600 
Q 2128 4600 2406 4451 
Q 2684 4303 2865 4023 
Q 3047 3744 3150 3342 
Q 3253 2941 3253 2259 
Q 3253 1453 3087 958 
Q 2922 463 2592 192 
Q 2263 -78 1759 -78 
Q 1097 -78 719 397 
Q 266 969 266 2259 
z
M 844 2259 
Q 844 1131 1108 757 
Q 1372 384 1759 384 
Q 2147 384 2411 759 
Q 2675 1134 2675 2259 
Q 2675 3391 2411 3762 
Q 2147 4134 1753 4134 
Q 1366 4134 1134 3806 
Q 844 3388 844 2259 
z
" transform="scale(0.015625)"/>
       </defs>
       <use xlink:href="#ArialMT-30"/>
      </g>
     </g>
    </g>
    <g id="ytick_2">
     <g id="line2d_13">
      <path d="M 85.465625 417.104719 
L 531.865625 417.104719 
" clip-path="url(#p747ee6290f)" style="fill: none; stroke: #e2e2e2; stroke-width: 0.8; stroke-linecap: square"/>
     </g>
     <g id="line2d_14">
      <g>
       <use xlink:href="#m5b30b98de8" x="85.465625" y="417.104719" style="stroke: #000000; stroke-width: 0.8"/>
      </g>
     </g>
    </g>
    <g id="ytick_3">
     <g id="line2d_15">
      <path d="M 85.465625 372.752719 
L 531.865625 372.752719 
" clip-path="url(#p747ee6290f)" style="fill: none; stroke: #e2e2e2; stroke-width: 0.8; stroke-linecap: square"/>
     </g>
     <g id="line2d_16">
      <g>
       <use xlink:href="#m5b30b98de8" x="85.465625" y="372.752719" style="stroke: #000000; stroke-width: 0.8"/>
      </g>
     </g>
     <g id="text_8">
      <!-- 2 -->
      <g transform="translate(61.782813 383.489437)scale(0.3 -0.3)">
       <use xlink:href="#ArialMT-32"/>
      </g>
     </g>
    </g>
    <g id="ytick_4">
     <g id="line2d_17">
      <path d="M 85.465625 328.400719 
L 531.865625 328.400719 
" clip-path="url(#p747ee6290f)" style="fill: none; stroke: #e2e2e2; stroke-width: 0.8; stroke-linecap: square"/>
     </g>
     <g id="line2d_18">
      <g>
       <use xlink:href="#m5b30b98de8" x="85.465625" y="328.400719" style="stroke: #000000; stroke-width: 0.8"/>
      </g>
     </g>
    </g>
    <g id="ytick_5">
     <g id="line2d_19">
      <path d="M 85.465625 284.048719 
L 531.865625 284.048719 
" clip-path="url(#p747ee6290f)" style="fill: none; stroke: #e2e2e2; stroke-width: 0.8; stroke-linecap: square"/>
     </g>
     <g id="line2d_20">
      <g>
       <use xlink:href="#m5b30b98de8" x="85.465625" y="284.048719" style="stroke: #000000; stroke-width: 0.8"/>
      </g>
     </g>
     <g id="text_9">
      <!-- 4 -->
      <g transform="translate(61.782813 294.785437)scale(0.3 -0.3)">
       <use xlink:href="#ArialMT-34"/>
      </g>
     </g>
    </g>
    <g id="ytick_6">
     <g id="line2d_21">
      <path d="M 85.465625 239.696719 
L 531.865625 239.696719 
" clip-path="url(#p747ee6290f)" style="fill: none; stroke: #e2e2e2; stroke-width: 0.8; stroke-linecap: square"/>
     </g>
     <g id="line2d_22">
      <g>
       <use xlink:href="#m5b30b98de8" x="85.465625" y="239.696719" style="stroke: #000000; stroke-width: 0.8"/>
      </g>
     </g>
    </g>
    <g id="ytick_7">
     <g id="line2d_23">
      <path d="M 85.465625 195.344719 
L 531.865625 195.344719 
" clip-path="url(#p747ee6290f)" style="fill: none; stroke: #e2e2e2; stroke-width: 0.8; stroke-linecap: square"/>
     </g>
     <g id="line2d_24">
      <g>
       <use xlink:href="#m5b30b98de8" x="85.465625" y="195.344719" style="stroke: #000000; stroke-width: 0.8"/>
      </g>
     </g>
     <g id="text_10">
      <!-- 6 -->
      <g transform="translate(61.782813 206.081437)scale(0.3 -0.3)">
       <defs>
        <path id="ArialMT-36" d="M 3184 3459 
L 2625 3416 
Q 2550 3747 2413 3897 
Q 2184 4138 1850 4138 
Q 1581 4138 1378 3988 
Q 1113 3794 959 3422 
Q 806 3050 800 2363 
Q 1003 2672 1297 2822 
Q 1591 2972 1913 2972 
Q 2475 2972 2870 2558 
Q 3266 2144 3266 1488 
Q 3266 1056 3080 686 
Q 2894 316 2569 119 
Q 2244 -78 1831 -78 
Q 1128 -78 684 439 
Q 241 956 241 2144 
Q 241 3472 731 4075 
Q 1159 4600 1884 4600 
Q 2425 4600 2770 4297 
Q 3116 3994 3184 3459 
z
M 888 1484 
Q 888 1194 1011 928 
Q 1134 663 1356 523 
Q 1578 384 1822 384 
Q 2178 384 2434 671 
Q 2691 959 2691 1453 
Q 2691 1928 2437 2201 
Q 2184 2475 1800 2475 
Q 1419 2475 1153 2201 
Q 888 1928 888 1484 
z
" transform="scale(0.015625)"/>
       </defs>
       <use xlink:href="#ArialMT-36"/>
      </g>
     </g>
    </g>
    <g id="ytick_8">
     <g id="line2d_25">
      <path d="M 85.465625 150.992719 
L 531.865625 150.992719 
" clip-path="url(#p747ee6290f)" style="fill: none; stroke: #e2e2e2; stroke-width: 0.8; stroke-linecap: square"/>
     </g>
     <g id="line2d_26">
      <g>
       <use xlink:href="#m5b30b98de8" x="85.465625" y="150.992719" style="stroke: #000000; stroke-width: 0.8"/>
      </g>
     </g>
    </g>
    <g id="ytick_9">
     <g id="line2d_27">
      <path d="M 85.465625 106.640719 
L 531.865625 106.640719 
" clip-path="url(#p747ee6290f)" style="fill: none; stroke: #e2e2e2; stroke-width: 0.8; stroke-linecap: square"/>
     </g>
     <g id="line2d_28">
      <g>
       <use xlink:href="#m5b30b98de8" x="85.465625" y="106.640719" style="stroke: #000000; stroke-width: 0.8"/>
      </g>
     </g>
     <g id="text_11">
      <!-- 8 -->
      <g transform="translate(61.782813 117.377437)scale(0.3 -0.3)">
       <defs>
        <path id="ArialMT-38" d="M 1131 2484 
Q 781 2613 612 2850 
Q 444 3088 444 3419 
Q 444 3919 803 4259 
Q 1163 4600 1759 4600 
Q 2359 4600 2725 4251 
Q 3091 3903 3091 3403 
Q 3091 3084 2923 2848 
Q 2756 2613 2416 2484 
Q 2838 2347 3058 2040 
Q 3278 1734 3278 1309 
Q 3278 722 2862 322 
Q 2447 -78 1769 -78 
Q 1091 -78 675 323 
Q 259 725 259 1325 
Q 259 1772 486 2073 
Q 713 2375 1131 2484 
z
M 1019 3438 
Q 1019 3113 1228 2906 
Q 1438 2700 1772 2700 
Q 2097 2700 2305 2904 
Q 2513 3109 2513 3406 
Q 2513 3716 2298 3927 
Q 2084 4138 1766 4138 
Q 1444 4138 1231 3931 
Q 1019 3725 1019 3438 
z
M 838 1322 
Q 838 1081 952 856 
Q 1066 631 1291 507 
Q 1516 384 1775 384 
Q 2178 384 2440 643 
Q 2703 903 2703 1303 
Q 2703 1709 2433 1975 
Q 2163 2241 1756 2241 
Q 1359 2241 1098 1978 
Q 838 1716 838 1322 
z
" transform="scale(0.015625)"/>
       </defs>
       <use xlink:href="#ArialMT-38"/>
      </g>
     </g>
    </g>
    <g id="ytick_10">
     <g id="line2d_29">
      <path d="M 85.465625 62.288719 
L 531.865625 62.288719 
" clip-path="url(#p747ee6290f)" style="fill: none; stroke: #e2e2e2; stroke-width: 0.8; stroke-linecap: square"/>
     </g>
     <g id="line2d_30">
      <g>
       <use xlink:href="#m5b30b98de8" x="85.465625" y="62.288719" style="stroke: #000000; stroke-width: 0.8"/>
      </g>
     </g>
    </g>
    <g id="ytick_11">
     <g id="line2d_31">
      <path d="M 85.465625 17.936719 
L 531.865625 17.936719 
" clip-path="url(#p747ee6290f)" style="fill: none; stroke: #e2e2e2; stroke-width: 0.8; stroke-linecap: square"/>
     </g>
     <g id="line2d_32">
      <g>
       <use xlink:href="#m5b30b98de8" x="85.465625" y="17.936719" style="stroke: #000000; stroke-width: 0.8"/>
      </g>
     </g>
     <g id="text_12">
      <!-- 10 -->
      <g transform="translate(45.1 28.673437)scale(0.3 -0.3)">
       <use xlink:href="#ArialMT-31"/>
       <use xlink:href="#ArialMT-30" x="55.615234"/>
      </g>
     </g>
    </g>
    <g id="text_13">
     <!-- J$_2$ (A/m$^2$) -->
     <g transform="translate(34.5 302.546719)rotate(-90)scale(0.3 -0.3)">
      <defs>
       <path id="ArialMT-4a" d="M 184 1300 
L 731 1375 
Q 753 850 928 656 
Q 1103 463 1413 463 
Q 1641 463 1806 567 
Q 1972 672 2034 851 
Q 2097 1031 2097 1425 
L 2097 4581 
L 2703 4581 
L 2703 1459 
Q 2703 884 2564 568 
Q 2425 253 2123 87 
Q 1822 -78 1416 -78 
Q 813 -78 492 269 
Q 172 616 184 1300 
z
" transform="scale(0.015625)"/>
       <path id="DejaVuSans-32" d="M 1228 531 
L 3431 531 
L 3431 0 
L 469 0 
L 469 531 
Q 828 903 1448 1529 
Q 2069 2156 2228 2338 
Q 2531 2678 2651 2914 
Q 2772 3150 2772 3378 
Q 2772 3750 2511 3984 
Q 2250 4219 1831 4219 
Q 1534 4219 1204 4116 
Q 875 4013 500 3803 
L 500 4441 
Q 881 4594 1212 4672 
Q 1544 4750 1819 4750 
Q 2544 4750 2975 4387 
Q 3406 4025 3406 3419 
Q 3406 3131 3298 2873 
Q 3191 2616 2906 2266 
Q 2828 2175 2409 1742 
Q 1991 1309 1228 531 
z
" transform="scale(0.015625)"/>
       <path id="ArialMT-41" d="M -9 0 
L 1750 4581 
L 2403 4581 
L 4278 0 
L 3588 0 
L 3053 1388 
L 1138 1388 
L 634 0 
L -9 0 
z
M 1313 1881 
L 2866 1881 
L 2388 3150 
Q 2169 3728 2063 4100 
Q 1975 3659 1816 3225 
L 1313 1881 
z
" transform="scale(0.015625)"/>
       <path id="ArialMT-2f" d="M 0 -78 
L 1328 4659 
L 1778 4659 
L 453 -78 
L 0 -78 
z
" transform="scale(0.015625)"/>
      </defs>
      <use xlink:href="#ArialMT-4a" transform="translate(0 0.765625)"/>
      <use xlink:href="#DejaVuSans-32" transform="translate(50.957031 -15.640625)scale(0.7)"/>
      <use xlink:href="#ArialMT-20" transform="translate(98.227539 0.765625)"/>
      <use xlink:href="#ArialMT-28" transform="translate(126.010742 0.765625)"/>
      <use xlink:href="#ArialMT-41" transform="translate(159.311523 0.765625)"/>
      <use xlink:href="#ArialMT-2f" transform="translate(226.010742 0.765625)"/>
      <use xlink:href="#ArialMT-6d" transform="translate(253.793945 0.765625)"/>
      <use xlink:href="#DejaVuSans-32" transform="translate(338.051758 39.046875)scale(0.7)"/>
      <use xlink:href="#ArialMT-29" transform="translate(385.322266 0.765625)"/>
     </g>
    </g>
   </g>
   <g id="line2d_33">
    <path d="M 85.465625 461.456719 
L 91.045625 461.456719 
L 96.625625 461.456719 
L 102.205625 461.456719 
L 107.785625 461.456719 
L 113.365625 461.456719 
L 118.945625 461.456719 
L 124.525625 461.456719 
L 130.105625 461.456719 
L 135.685625 461.456719 
L 141.265625 461.456719 
L 146.845625 461.456719 
L 152.425625 461.456719 
L 158.005625 461.456719 
L 163.585625 461.456719 
L 169.165625 461.456719 
L 174.745625 461.456719 
L 180.325625 461.456719 
L 185.905625 461.456719 
L 191.485625 461.456719 
L 197.065625 461.456719 
L 202.645625 51.200719 
L 208.225625 51.200719 
L 213.805625 51.200719 
L 219.385625 51.200719 
L 224.965625 51.200719 
L 230.545625 51.200719 
L 236.125625 51.200719 
L 241.705625 51.200719 
L 247.285625 51.200719 
L 252.865625 51.200719 
L 258.445625 91.857866 
L 264.025625 133.900797 
L 269.605625 167.885998 
L 275.185625 190.449039 
L 280.765625 209.314473 
L 286.345625 225.521593 
L 291.925625 227.024719 
L 297.505625 227.024719 
L 303.085625 227.024719 
L 308.665625 227.024719 
L 314.245625 227.024719 
L 319.825625 227.024719 
L 325.405625 227.024719 
L 330.985625 227.024719 
L 336.565625 227.024719 
L 342.145625 227.024719 
L 347.725625 227.024719 
L 353.305625 227.024719 
L 358.885625 227.024719 
L 364.465625 227.024719 
L 370.045625 227.024719 
L 375.625625 227.024719 
L 381.205625 227.024719 
L 386.785625 227.024719 
L 392.365625 227.024719 
L 397.945625 227.024719 
L 403.525625 227.024719 
L 409.105625 227.024719 
L 414.685625 227.024719 
L 420.265625 460.216406 
L 425.845625 461.456719 
L 431.425625 461.456719 
L 437.005625 461.456719 
L 442.585625 461.456719 
L 448.165625 461.456719 
L 453.745625 461.456719 
L 459.325625 461.456719 
L 464.905625 461.456719 
L 470.485625 461.456719 
L 476.065625 461.456719 
L 481.645625 461.456719 
L 487.225625 461.456719 
L 492.805625 461.456719 
L 498.385625 461.456719 
L 503.965625 461.456719 
L 509.545625 461.456719 
L 515.125625 461.456719 
L 520.705625 461.456719 
L 526.285625 461.456719 
L 531.865625 461.456719 
L 537.445625 461.456719 
L 543.025625 461.456719 
L 548.407031 461.456719 
" clip-path="url(#p747ee6290f)" style="fill: none; stroke: #1f77b4; stroke-width: 4.5; stroke-linecap: square"/>
   </g>
   <g id="line2d_34">
    <path d="M 85.465625 461.456719 
L 91.045625 461.456719 
L 96.625625 461.456719 
L 102.205625 461.456719 
L 107.785625 461.456719 
L 113.365625 461.456719 
L 118.945625 461.456719 
L 124.525625 461.456719 
L 130.105625 461.456719 
L 135.685625 461.456719 
L 141.265625 461.456719 
L 146.845625 461.456719 
L 152.425625 461.456719 
L 158.005625 461.456719 
L 163.585625 461.456719 
L 169.165625 461.456719 
L 174.745625 461.456719 
L 180.325625 461.456719 
L 185.905625 461.456719 
L 191.485625 461.456719 
L 197.065625 461.456719 
L 202.645625 51.200719 
L 208.225625 51.200719 
L 213.805625 51.200719 
L 219.385625 51.200719 
L 224.965625 51.200719 
L 230.545625 51.200719 
L 236.125625 51.200719 
L 241.705625 51.200719 
L 247.285625 51.200719 
L 252.865625 51.899444 
L 258.445625 102.37784 
L 264.025625 142.541061 
L 269.605625 175.04146 
L 275.185625 196.659827 
L 280.765625 214.744512 
L 286.345625 227.024719 
L 291.925625 227.024719 
L 297.505625 227.024719 
L 303.085625 227.024719 
L 308.665625 227.024719 
L 314.245625 227.024719 
L 319.825625 227.024719 
L 325.405625 227.024719 
L 330.985625 227.024719 
L 336.565625 227.024719 
L 342.145625 227.024719 
L 347.725625 227.024719 
L 353.305625 227.024719 
L 358.885625 227.024719 
L 364.465625 227.024719 
L 370.045625 227.024719 
L 375.625625 227.024719 
L 381.205625 227.024719 
L 386.785625 227.024719 
L 392.365625 227.024719 
L 397.945625 227.024719 
L 403.525625 227.024719 
L 409.105625 227.024719 
L 414.685625 227.024719 
L 420.265625 460.216406 
L 425.845625 461.456719 
L 431.425625 461.456719 
L 437.005625 461.456719 
L 442.585625 461.456719 
L 448.165625 461.456719 
L 453.745625 461.456719 
L 459.325625 461.456719 
L 464.905625 461.456719 
L 470.485625 461.456719 
L 476.065625 461.456719 
L 481.645625 461.456719 
L 487.225625 461.456719 
L 492.805625 461.456719 
L 498.385625 461.456719 
L 503.965625 461.456719 
L 509.545625 461.456719 
L 515.125625 461.456719 
L 520.705625 461.456719 
L 526.285625 461.456719 
L 531.865625 461.456719 
L 537.445625 461.456719 
L 543.025625 461.456719 
L 548.407031 461.456719 
" clip-path="url(#p747ee6290f)" style="fill: none; stroke: #ff7f0e; stroke-width: 4.5; stroke-linecap: square"/>
   </g>
   <g id="line2d_35">
    <path d="M 85.465625 461.456719 
L 91.045625 461.456719 
L 96.625625 461.456719 
L 102.205625 461.456719 
L 107.785625 461.456719 
L 113.365625 461.456719 
L 118.945625 461.456719 
L 124.525625 461.456719 
L 130.105625 461.456719 
L 135.685625 461.456719 
L 141.265625 461.456719 
L 146.845625 461.456719 
L 152.425625 461.456719 
L 158.005625 461.456719 
L 163.585625 461.456719 
L 169.165625 461.456719 
L 174.745625 461.456719 
L 180.325625 461.456719 
L 185.905625 461.456719 
L 191.485625 461.456719 
L 197.065625 461.456719 
L 202.645625 51.200719 
L 208.225625 51.200719 
L 213.805625 51.200719 
L 219.385625 51.200719 
L 224.965625 51.200719 
L 230.545625 51.200719 
L 236.125625 51.200719 
L 241.705625 51.200719 
L 247.285625 51.200719 
L 252.865625 51.200719 
L 258.445625 99.113785 
L 264.025625 139.68036 
L 269.605625 172.63076 
L 275.185625 194.715224 
L 280.765625 213.165695 
L 286.345625 227.024719 
L 291.925625 227.024719 
L 297.505625 227.024719 
L 303.085625 227.024719 
L 308.665625 227.024719 
L 314.245625 227.024719 
L 319.825625 227.024719 
L 325.405625 227.024719 
L 330.985625 227.024719 
L 336.565625 227.024719 
L 342.145625 227.024719 
L 347.725625 227.024719 
L 353.305625 227.024719 
L 358.885625 227.024719 
L 364.465625 227.024719 
L 370.045625 227.024719 
L 375.625625 227.024719 
L 381.205625 227.024719 
L 386.785625 227.024719 
L 392.365625 227.024719 
L 397.945625 227.024719 
L 403.525625 227.024719 
L 409.105625 227.024719 
L 414.685625 227.024719 
L 420.265625 460.216406 
L 425.845625 461.456719 
L 431.425625 461.456719 
L 437.005625 461.456719 
L 442.585625 461.456719 
L 448.165625 461.456719 
L 453.745625 461.456719 
L 459.325625 461.456719 
L 464.905625 461.456719 
L 470.485625 461.456719 
L 476.065625 461.456719 
L 481.645625 461.456719 
L 487.225625 461.456719 
L 492.805625 461.456719 
L 498.385625 461.456719 
L 503.965625 461.456719 
L 509.545625 461.456719 
L 515.125625 461.456719 
L 520.705625 461.456719 
L 526.285625 461.456719 
L 531.865625 461.456719 
L 537.445625 461.456719 
L 543.025625 461.456719 
L 548.407031 461.456719 
" clip-path="url(#p747ee6290f)" style="fill: none; stroke: #2ca02c; stroke-width: 4.5; stroke-linecap: square"/>
   </g>
   <g id="line2d_36">
    <path d="M 85.465625 461.456719 
L 91.045625 461.456719 
L 96.625625 461.456719 
L 102.205625 461.456719 
L 107.785625 461.456719 
L 113.365625 461.456719 
L 118.945625 461.456719 
L 124.525625 461.456719 
L 130.105625 461.456719 
L 135.685625 461.456719 
L 141.265625 461.456719 
L 146.845625 461.456719 
L 152.425625 461.456719 
L 158.005625 461.456719 
L 163.585625 461.456719 
L 169.165625 461.456719 
L 174.745625 461.456719 
L 180.325625 461.456719 
L 185.905625 461.456719 
L 191.485625 461.456719 
L 197.065625 461.456719 
L 202.645625 51.200719 
L 208.225625 51.200719 
L 213.805625 51.200719 
L 219.385625 51.200719 
L 224.965625 51.200719 
L 230.545625 51.200719 
L 236.125625 51.200719 
L 241.705625 51.200719 
L 247.285625 51.200719 
L 252.865625 51.85377 
L 258.445625 102.435027 
L 264.025625 142.60652 
L 269.605625 175.140142 
L 275.185625 196.838162 
L 280.765625 214.90795 
L 286.345625 227.024719 
L 291.925625 227.024719 
L 297.505625 227.024719 
L 303.085625 227.024719 
L 308.665625 227.024719 
L 314.245625 227.024719 
L 319.825625 227.024719 
L 325.405625 227.024719 
L 330.985625 227.024719 
L 336.565625 227.024719 
L 342.145625 227.024719 
L 347.725625 227.024719 
L 353.305625 227.024719 
L 358.885625 227.024719 
L 364.465625 227.024719 
L 370.045625 227.024719 
L 375.625625 227.024719 
L 381.205625 227.024719 
L 386.785625 227.024719 
L 392.365625 227.024719 
L 397.945625 227.024719 
L 403.525625 227.024719 
L 409.105625 227.024719 
L 414.685625 227.024719 
L 420.265625 460.216406 
L 425.845625 461.456719 
L 431.425625 461.456719 
L 437.005625 461.456719 
L 442.585625 461.456719 
L 448.165625 461.456719 
L 453.745625 461.456719 
L 459.325625 461.456719 
L 464.905625 461.456719 
L 470.485625 461.456719 
L 476.065625 461.456719 
L 481.645625 461.456719 
L 487.225625 461.456719 
L 492.805625 461.456719 
L 498.385625 461.456719 
L 503.965625 461.456719 
L 509.545625 461.456719 
L 515.125625 461.456719 
L 520.705625 461.456719 
L 526.285625 461.456719 
L 531.865625 461.456719 
L 537.445625 461.456719 
L 543.025625 461.456719 
L 548.407031 461.456719 
" clip-path="url(#p747ee6290f)" style="fill: none; stroke: #d62728; stroke-width: 4.5; stroke-linecap: square"/>
   </g>
   <g id="line2d_37">
    <path d="M 85.465625 461.456719 
L 91.045625 461.456719 
L 96.625625 461.456719 
L 102.205625 461.456719 
L 107.785625 461.456719 
L 113.365625 461.456719 
L 118.945625 461.456719 
L 124.525625 461.456719 
L 130.105625 461.456719 
L 135.685625 461.456719 
L 141.265625 461.456719 
L 146.845625 461.456719 
L 152.425625 461.456719 
L 158.005625 461.456719 
L 163.585625 461.456719 
L 169.165625 461.456719 
L 174.745625 461.456719 
L 180.325625 461.456719 
L 185.905625 461.456719 
L 191.485625 461.456719 
L 197.065625 461.456719 
L 202.645625 51.200719 
L 208.225625 51.200719 
L 213.805625 51.200719 
L 219.385625 51.200719 
L 224.965625 51.200719 
L 230.545625 51.200719 
L 236.125625 51.200719 
L 241.705625 51.200719 
L 247.285625 51.200719 
L 252.865625 51.200719 
L 258.445625 97.758612 
L 264.025625 138.761685 
L 269.605625 171.765554 
L 275.185625 193.705238 
L 280.765625 212.125654 
L 286.345625 227.024719 
L 291.925625 227.024719 
L 297.505625 227.024719 
L 303.085625 227.024719 
L 308.665625 227.024719 
L 314.245625 227.024719 
L 319.825625 227.024719 
L 325.405625 227.024719 
L 330.985625 227.024719 
L 336.565625 227.024719 
L 342.145625 227.024719 
L 347.725625 227.024719 
L 353.305625 227.024719 
L 358.885625 227.024719 
L 364.465625 227.024719 
L 370.045625 227.024719 
L 375.625625 227.024719 
L 381.205625 227.024719 
L 386.785625 227.024719 
L 392.365625 227.024719 
L 397.945625 227.024719 
L 403.525625 227.024719 
L 409.105625 227.024719 
L 414.685625 227.024719 
L 420.265625 460.216406 
L 425.845625 461.456719 
L 431.425625 461.456719 
L 437.005625 461.456719 
L 442.585625 461.456719 
L 448.165625 461.456719 
L 453.745625 461.456719 
L 459.325625 461.456719 
L 464.905625 461.456719 
L 470.485625 461.456719 
L 476.065625 461.456719 
L 481.645625 461.456719 
L 487.225625 461.456719 
L 492.805625 461.456719 
L 498.385625 461.456719 
L 503.965625 461.456719 
L 509.545625 461.456719 
L 515.125625 461.456719 
L 520.705625 461.456719 
L 526.285625 461.456719 
L 531.865625 461.456719 
L 537.445625 461.456719 
L 543.025625 461.456719 
L 548.407031 461.456719 
" clip-path="url(#p747ee6290f)" style="fill: none; stroke: #9467bd; stroke-width: 4.5; stroke-linecap: square"/>
   </g>
   <g id="line2d_38">
    <path d="M 85.465625 461.456719 
L 91.045625 461.456719 
L 96.625625 461.456719 
L 102.205625 461.456719 
L 107.785625 461.456719 
L 113.365625 461.456719 
L 118.945625 461.456719 
L 124.525625 461.456719 
L 130.105625 461.456719 
L 135.685625 461.456719 
L 141.265625 461.456719 
L 146.845625 461.456719 
L 152.425625 461.456719 
L 158.005625 461.456719 
L 163.585625 461.456719 
L 169.165625 461.456719 
L 174.745625 461.456719 
L 180.325625 461.456719 
L 185.905625 461.456719 
L 191.485625 461.456719 
L 197.065625 461.456719 
L 202.645625 51.200719 
L 208.225625 51.200719 
L 213.805625 51.200719 
L 219.385625 51.200719 
L 224.965625 51.200719 
L 230.545625 51.200719 
L 236.125625 51.200719 
L 241.705625 51.200719 
L 247.285625 51.200719 
L 252.865625 51.200719 
L 258.445625 95.192978 
L 264.025625 136.492892 
L 269.605625 169.939418 
L 275.185625 192.153162 
L 280.765625 210.592718 
L 286.345625 226.488713 
L 291.925625 227.024719 
L 297.505625 227.024719 
L 303.085625 227.024719 
L 308.665625 227.024719 
L 314.245625 227.024719 
L 319.825625 227.024719 
L 325.405625 227.024719 
L 330.985625 227.024719 
L 336.565625 227.024719 
L 342.145625 227.024719 
L 347.725625 227.024719 
L 353.305625 227.024719 
L 358.885625 227.024719 
L 364.465625 227.024719 
L 370.045625 227.024719 
L 375.625625 227.024719 
L 381.205625 227.024719 
L 386.785625 227.024719 
L 392.365625 227.024719 
L 397.945625 227.024719 
L 403.525625 227.024719 
L 409.105625 227.024719 
L 414.685625 227.024719 
L 420.265625 460.216406 
L 425.845625 461.456719 
L 431.425625 461.456719 
L 437.005625 461.456719 
L 442.585625 461.456719 
L 448.165625 461.456719 
L 453.745625 461.456719 
L 459.325625 461.456719 
L 464.905625 461.456719 
L 470.485625 461.456719 
L 476.065625 461.456719 
L 481.645625 461.456719 
L 487.225625 461.456719 
L 492.805625 461.456719 
L 498.385625 461.456719 
L 503.965625 461.456719 
L 509.545625 461.456719 
L 515.125625 461.456719 
L 520.705625 461.456719 
L 526.285625 461.456719 
L 531.865625 461.456719 
L 537.445625 461.456719 
L 543.025625 461.456719 
L 548.407031 461.456719 
" clip-path="url(#p747ee6290f)" style="fill: none; stroke: #8c564b; stroke-width: 4.5; stroke-linecap: square"/>
   </g>
   <g id="line2d_39">
    <path d="M 85.465625 461.456719 
L 91.045625 461.456719 
L 96.625625 461.456719 
L 102.205625 461.456719 
L 107.785625 461.456719 
L 113.365625 461.456719 
L 118.945625 461.456719 
L 124.525625 461.456719 
L 130.105625 461.456719 
L 135.685625 461.456719 
L 141.265625 461.456719 
L 146.845625 461.456719 
L 152.425625 461.456719 
L 158.005625 461.456719 
L 163.585625 461.456719 
L 169.165625 461.456719 
L 174.745625 461.456719 
L 180.325625 461.456719 
L 185.905625 461.456719 
L 191.485625 461.456719 
L 197.065625 461.456719 
L 202.645625 51.200719 
L 208.225625 51.200719 
L 213.805625 51.200719 
L 219.385625 51.200719 
L 224.965625 51.200719 
L 230.545625 51.200719 
L 236.125625 51.200719 
L 241.705625 51.200719 
L 247.285625 51.200719 
L 252.865625 51.200719 
L 258.445625 93.94599 
L 264.025625 135.399613 
L 269.605625 169.008443 
L 275.185625 191.362175 
L 280.765625 209.990561 
L 286.345625 226.035639 
L 291.925625 227.024719 
L 297.505625 227.024719 
L 303.085625 227.024719 
L 308.665625 227.024719 
L 314.245625 227.024719 
L 319.825625 227.024719 
L 325.405625 227.024719 
L 330.985625 227.024719 
L 336.565625 227.024719 
L 342.145625 227.024719 
L 347.725625 227.024719 
L 353.305625 227.024719 
L 358.885625 227.024719 
L 364.465625 227.024719 
L 370.045625 227.024719 
L 375.625625 227.024719 
L 381.205625 227.024719 
L 386.785625 227.024719 
L 392.365625 227.024719 
L 397.945625 227.024719 
L 403.525625 227.024719 
L 409.105625 227.024719 
L 414.685625 227.024719 
L 420.265625 460.216406 
L 425.845625 461.456719 
L 431.425625 461.456719 
L 437.005625 461.456719 
L 442.585625 461.456719 
L 448.165625 461.456719 
L 453.745625 461.456719 
L 459.325625 461.456719 
L 464.905625 461.456719 
L 470.485625 461.456719 
L 476.065625 461.456719 
L 481.645625 461.456719 
L 487.225625 461.456719 
L 492.805625 461.456719 
L 498.385625 461.456719 
L 503.965625 461.456719 
L 509.545625 461.456719 
L 515.125625 461.456719 
L 520.705625 461.456719 
L 526.285625 461.456719 
L 531.865625 461.456719 
L 537.445625 461.456719 
L 543.025625 461.456719 
L 548.407031 461.456719 
" clip-path="url(#p747ee6290f)" style="fill: none; stroke: #e377c2; stroke-width: 4.5; stroke-linecap: square"/>
   </g>
   <g id="line2d_40">
    <path d="M 85.465625 461.456719 
L 91.045625 461.456719 
L 96.625625 461.456719 
L 102.205625 461.456719 
L 107.785625 461.456719 
L 113.365625 461.456719 
L 118.945625 461.456719 
L 124.525625 461.456719 
L 130.105625 461.456719 
L 135.685625 461.456719 
L 141.265625 461.456719 
L 146.845625 461.456719 
L 152.425625 461.456719 
L 158.005625 461.456719 
L 163.585625 461.456719 
L 169.165625 461.456719 
L 174.745625 461.456719 
L 180.325625 461.456719 
L 185.905625 461.456719 
L 191.485625 461.456719 
L 197.065625 461.456719 
L 202.645625 51.200719 
L 208.225625 51.200719 
L 213.805625 51.200719 
L 219.385625 51.200719 
L 224.965625 51.200719 
L 230.545625 51.200719 
L 236.125625 51.200719 
L 241.705625 51.200719 
L 247.285625 51.200719 
L 252.865625 51.200719 
L 258.445625 99.207522 
L 264.025625 139.954991 
L 269.605625 172.948941 
L 275.185625 194.804431 
L 280.765625 212.969709 
L 286.345625 227.024719 
L 291.925625 227.024719 
L 297.505625 227.024719 
L 303.085625 227.024719 
L 308.665625 227.024719 
L 314.245625 227.024719 
L 319.825625 227.024719 
L 325.405625 227.024719 
L 330.985625 227.024719 
L 336.565625 227.024719 
L 342.145625 227.024719 
L 347.725625 227.024719 
L 353.305625 227.024719 
L 358.885625 227.024719 
L 364.465625 227.024719 
L 370.045625 227.024719 
L 375.625625 227.024719 
L 381.205625 227.024719 
L 386.785625 227.024719 
L 392.365625 227.024719 
L 397.945625 227.024719 
L 403.525625 227.024719 
L 409.105625 227.024719 
L 414.685625 227.024719 
L 420.265625 460.216406 
L 425.845625 461.456719 
L 431.425625 461.456719 
L 437.005625 461.456719 
L 442.585625 461.456719 
L 448.165625 461.456719 
L 453.745625 461.456719 
L 459.325625 461.456719 
L 464.905625 461.456719 
L 470.485625 461.456719 
L 476.065625 461.456719 
L 481.645625 461.456719 
L 487.225625 461.456719 
L 492.805625 461.456719 
L 498.385625 461.456719 
L 503.965625 461.456719 
L 509.545625 461.456719 
L 515.125625 461.456719 
L 520.705625 461.456719 
L 526.285625 461.456719 
L 531.865625 461.456719 
L 537.445625 461.456719 
L 543.025625 461.456719 
L 548.407031 461.456719 
" clip-path="url(#p747ee6290f)" style="fill: none; stroke: #7f7f7f; stroke-width: 4.5; stroke-linecap: square"/>
   </g>
   <g id="line2d_41">
    <path d="M 85.465625 461.456719 
L 91.045625 461.456719 
L 96.625625 461.456719 
L 102.205625 461.456719 
L 107.785625 461.456719 
L 113.365625 461.456719 
L 118.945625 461.456719 
L 124.525625 461.456719 
L 130.105625 461.456719 
L 135.685625 461.456719 
L 141.265625 461.456719 
L 146.845625 461.456719 
L 152.425625 461.456719 
L 158.005625 461.456719 
L 163.585625 461.456719 
L 169.165625 461.456719 
L 174.745625 461.456719 
L 180.325625 461.456719 
L 185.905625 461.456719 
L 191.485625 461.456719 
L 197.065625 461.456719 
L 202.645625 51.200719 
L 208.225625 51.200719 
L 213.805625 51.200719 
L 219.385625 51.200719 
L 224.965625 51.200719 
L 230.545625 51.200719 
L 236.125625 51.200719 
L 241.705625 51.200719 
L 247.285625 51.200719 
L 252.865625 51.200719 
L 258.445625 99.180155 
L 264.025625 139.868306 
L 269.605625 172.81703 
L 275.185625 194.744531 
L 280.765625 212.970562 
L 286.345625 227.024719 
L 291.925625 227.024719 
L 297.505625 227.024719 
L 303.085625 227.024719 
L 308.665625 227.024719 
L 314.245625 227.024719 
L 319.825625 227.024719 
L 325.405625 227.024719 
L 330.985625 227.024719 
L 336.565625 227.024719 
L 342.145625 227.024719 
L 347.725625 227.024719 
L 353.305625 227.024719 
L 358.885625 227.024719 
L 364.465625 227.024719 
L 370.045625 227.024719 
L 375.625625 227.024719 
L 381.205625 227.024719 
L 386.785625 227.024719 
L 392.365625 227.024719 
L 397.945625 227.024719 
L 403.525625 227.024719 
L 409.105625 227.024719 
L 414.685625 227.024719 
L 420.265625 460.216406 
L 425.845625 461.456719 
L 431.425625 461.456719 
L 437.005625 461.456719 
L 442.585625 461.456719 
L 448.165625 461.456719 
L 453.745625 461.456719 
L 459.325625 461.456719 
L 464.905625 461.456719 
L 470.485625 461.456719 
L 476.065625 461.456719 
L 481.645625 461.456719 
L 487.225625 461.456719 
L 492.805625 461.456719 
L 498.385625 461.456719 
L 503.965625 461.456719 
L 509.545625 461.456719 
L 515.125625 461.456719 
L 520.705625 461.456719 
L 526.285625 461.456719 
L 531.865625 461.456719 
L 537.445625 461.456719 
L 543.025625 461.456719 
L 548.407031 461.456719 
" clip-path="url(#p747ee6290f)" style="fill: none; stroke: #bcbd22; stroke-width: 4.5; stroke-linecap: square"/>
   </g>
   <g id="line2d_42">
    <path d="M 85.465625 461.456719 
L 91.045625 461.456719 
L 96.625625 461.456719 
L 102.205625 461.456719 
L 107.785625 461.456719 
L 113.365625 461.456719 
L 118.945625 461.456719 
L 124.525625 461.456719 
L 130.105625 461.456719 
L 135.685625 461.456719 
L 141.265625 461.456719 
L 146.845625 461.456719 
L 152.425625 461.456719 
L 158.005625 461.456719 
L 163.585625 461.456719 
L 169.165625 461.456719 
L 174.745625 461.456719 
L 180.325625 461.456719 
L 185.905625 461.456719 
L 191.485625 461.456719 
L 197.065625 461.456719 
L 202.645625 51.200719 
L 208.225625 51.200719 
L 213.805625 51.200719 
L 219.385625 51.200719 
L 224.965625 51.200719 
L 230.545625 51.200719 
L 236.125625 51.200719 
L 241.705625 51.200719 
L 247.285625 51.200719 
L 252.865625 51.200719 
L 258.445625 95.912931 
L 264.025625 136.972553 
L 269.605625 170.279601 
L 275.185625 192.473337 
L 280.765625 211.035041 
L 286.345625 227.024719 
L 291.925625 227.024719 
L 297.505625 227.024719 
L 303.085625 227.024719 
L 308.665625 227.024719 
L 314.245625 227.024719 
L 319.825625 227.024719 
L 325.405625 227.024719 
L 330.985625 227.024719 
L 336.565625 227.024719 
L 342.145625 227.024719 
L 347.725625 227.024719 
L 353.305625 227.024719 
L 358.885625 227.024719 
L 364.465625 227.024719 
L 370.045625 227.024719 
L 375.625625 227.024719 
L 381.205625 227.024719 
L 386.785625 227.024719 
L 392.365625 227.024719 
L 397.945625 227.024719 
L 403.525625 227.024719 
L 409.105625 227.024719 
L 414.685625 227.024719 
L 420.265625 460.216406 
L 425.845625 461.456719 
L 431.425625 461.456719 
L 437.005625 461.456719 
L 442.585625 461.456719 
L 448.165625 461.456719 
L 453.745625 461.456719 
L 459.325625 461.456719 
L 464.905625 461.456719 
L 470.485625 461.456719 
L 476.065625 461.456719 
L 481.645625 461.456719 
L 487.225625 461.456719 
L 492.805625 461.456719 
L 498.385625 461.456719 
L 503.965625 461.456719 
L 509.545625 461.456719 
L 515.125625 461.456719 
L 520.705625 461.456719 
L 526.285625 461.456719 
L 531.865625 461.456719 
L 537.445625 461.456719 
L 543.025625 461.456719 
L 548.407031 461.456719 
" clip-path="url(#p747ee6290f)" style="fill: none; stroke: #17becf; stroke-width: 4.5; stroke-linecap: square"/>
   </g>
   <g id="line2d_43">
    <path d="M 85.465625 461.456719 
L 91.045625 461.456719 
L 96.625625 461.456719 
L 102.205625 461.456719 
L 107.785625 461.456719 
L 113.365625 461.456719 
L 118.945625 461.456719 
L 124.525625 461.456719 
L 130.105625 461.456719 
L 135.685625 461.456719 
L 141.265625 461.456719 
L 146.845625 461.456719 
L 152.425625 461.456719 
L 158.005625 461.456719 
L 163.585625 461.456719 
L 169.165625 461.456719 
L 174.745625 461.456719 
L 180.325625 461.456719 
L 185.905625 461.456719 
L 191.485625 461.456719 
L 197.065625 461.456719 
L 202.645625 51.200719 
L 208.225625 51.200719 
L 213.805625 51.200719 
L 219.385625 51.200719 
L 224.965625 51.200719 
L 230.545625 51.200719 
L 236.125625 51.200719 
L 241.705625 51.200719 
L 247.285625 51.200719 
L 252.865625 51.200719 
L 258.445625 93.440989 
L 264.025625 135.079093 
L 269.605625 168.866132 
L 275.185625 191.37937 
L 280.765625 210.154951 
L 286.345625 226.315026 
L 291.925625 227.024719 
L 297.505625 227.024719 
L 303.085625 227.024719 
L 308.665625 227.024719 
L 314.245625 227.024719 
L 319.825625 227.024719 
L 325.405625 227.024719 
L 330.985625 227.024719 
L 336.565625 227.024719 
L 342.145625 227.024719 
L 347.725625 227.024719 
L 353.305625 227.024719 
L 358.885625 227.024719 
L 364.465625 227.024719 
L 370.045625 227.024719 
L 375.625625 227.024719 
L 381.205625 227.024719 
L 386.785625 227.024719 
L 392.365625 227.024719 
L 397.945625 227.024719 
L 403.525625 227.024719 
L 409.105625 227.024719 
L 414.685625 227.024719 
L 420.265625 460.216406 
L 425.845625 461.456719 
L 431.425625 461.456719 
L 437.005625 461.456719 
L 442.585625 461.456719 
L 448.165625 461.456719 
L 453.745625 461.456719 
L 459.325625 461.456719 
L 464.905625 461.456719 
L 470.485625 461.456719 
L 476.065625 461.456719 
L 481.645625 461.456719 
L 487.225625 461.456719 
L 492.805625 461.456719 
L 498.385625 461.456719 
L 503.965625 461.456719 
L 509.545625 461.456719 
L 515.125625 461.456719 
L 520.705625 461.456719 
L 526.285625 461.456719 
L 531.865625 461.456719 
L 537.445625 461.456719 
L 543.025625 461.456719 
L 548.407031 461.456719 
" clip-path="url(#p747ee6290f)" style="fill: none; stroke: #1f77b4; stroke-width: 4.5; stroke-linecap: square"/>
   </g>
   <g id="line2d_44">
    <path d="M 85.465625 461.456719 
L 91.045625 461.456719 
L 96.625625 461.456719 
L 102.205625 461.456719 
L 107.785625 461.456719 
L 113.365625 461.456719 
L 118.945625 461.456719 
L 124.525625 461.456719 
L 130.105625 461.456719 
L 135.685625 461.456719 
L 141.265625 461.456719 
L 146.845625 461.456719 
L 152.425625 461.456719 
L 158.005625 461.456719 
L 163.585625 461.456719 
L 169.165625 461.456719 
L 174.745625 461.456719 
L 180.325625 461.456719 
L 185.905625 461.456719 
L 191.485625 461.456719 
L 197.065625 461.456719 
L 202.645625 51.200719 
L 208.225625 51.200719 
L 213.805625 51.200719 
L 219.385625 51.200719 
L 224.965625 51.200719 
L 230.545625 51.200719 
L 236.125625 51.200719 
L 241.705625 51.200719 
L 247.285625 51.200719 
L 252.865625 51.200719 
L 258.445625 92.515455 
L 264.025625 134.162338 
L 269.605625 167.927347 
L 275.185625 190.447351 
L 280.765625 209.255013 
L 286.345625 225.430804 
L 291.925625 227.024719 
L 297.505625 227.024719 
L 303.085625 227.024719 
L 308.665625 227.024719 
L 314.245625 227.024719 
L 319.825625 227.024719 
L 325.405625 227.024719 
L 330.985625 227.024719 
L 336.565625 227.024719 
L 342.145625 227.024719 
L 347.725625 227.024719 
L 353.305625 227.024719 
L 358.885625 227.024719 
L 364.465625 227.024719 
L 370.045625 227.024719 
L 375.625625 227.024719 
L 381.205625 227.024719 
L 386.785625 227.024719 
L 392.365625 227.024719 
L 397.945625 227.024719 
L 403.525625 227.024719 
L 409.105625 227.024719 
L 414.685625 227.024719 
L 420.265625 460.216406 
L 425.845625 461.456719 
L 431.425625 461.456719 
L 437.005625 461.456719 
L 442.585625 461.456719 
L 448.165625 461.456719 
L 453.745625 461.456719 
L 459.325625 461.456719 
L 464.905625 461.456719 
L 470.485625 461.456719 
L 476.065625 461.456719 
L 481.645625 461.456719 
L 487.225625 461.456719 
L 492.805625 461.456719 
L 498.385625 461.456719 
L 503.965625 461.456719 
L 509.545625 461.456719 
L 515.125625 461.456719 
L 520.705625 461.456719 
L 526.285625 461.456719 
L 531.865625 461.456719 
L 537.445625 461.456719 
L 543.025625 461.456719 
L 548.407031 461.456719 
" clip-path="url(#p747ee6290f)" style="fill: none; stroke: #ff7f0e; stroke-width: 4.5; stroke-linecap: square"/>
   </g>
   <g id="line2d_45">
    <path d="M 85.465625 461.456719 
L 91.045625 461.456719 
L 96.625625 461.456719 
L 102.205625 461.456719 
L 107.785625 461.456719 
L 113.365625 461.456719 
L 118.945625 461.456719 
L 124.525625 461.456719 
L 130.105625 461.456719 
L 135.685625 461.456719 
L 141.265625 461.456719 
L 146.845625 461.456719 
L 152.425625 461.456719 
L 158.005625 461.456719 
L 163.585625 461.456719 
L 169.165625 461.456719 
L 174.745625 461.456719 
L 180.325625 461.456719 
L 185.905625 461.456719 
L 191.485625 461.456719 
L 197.065625 461.456719 
L 202.645625 51.200719 
L 208.225625 51.200719 
L 213.805625 51.200719 
L 219.385625 51.200719 
L 224.965625 51.200719 
L 230.545625 51.200719 
L 236.125625 51.200719 
L 241.705625 51.200719 
L 247.285625 51.200719 
L 252.865625 51.200719 
L 258.445625 91.686551 
L 264.025625 133.539926 
L 269.605625 167.458014 
L 275.185625 189.98495 
L 280.765625 208.811473 
L 286.345625 224.985328 
L 291.925625 227.024719 
L 297.505625 227.024719 
L 303.085625 227.024719 
L 308.665625 227.024719 
L 314.245625 227.024719 
L 319.825625 227.024719 
L 325.405625 227.024719 
L 330.985625 227.024719 
L 336.565625 227.024719 
L 342.145625 227.024719 
L 347.725625 227.024719 
L 353.305625 227.024719 
L 358.885625 227.024719 
L 364.465625 227.024719 
L 370.045625 227.024719 
L 375.625625 227.024719 
L 381.205625 227.024719 
L 386.785625 227.024719 
L 392.365625 227.024719 
L 397.945625 227.024719 
L 403.525625 227.024719 
L 409.105625 227.024719 
L 414.685625 227.024719 
L 420.265625 460.216406 
L 425.845625 461.456719 
L 431.425625 461.456719 
L 437.005625 461.456719 
L 442.585625 461.456719 
L 448.165625 461.456719 
L 453.745625 461.456719 
L 459.325625 461.456719 
L 464.905625 461.456719 
L 470.485625 461.456719 
L 476.065625 461.456719 
L 481.645625 461.456719 
L 487.225625 461.456719 
L 492.805625 461.456719 
L 498.385625 461.456719 
L 503.965625 461.456719 
L 509.545625 461.456719 
L 515.125625 461.456719 
L 520.705625 461.456719 
L 526.285625 461.456719 
L 531.865625 461.456719 
L 537.445625 461.456719 
L 543.025625 461.456719 
L 548.407031 461.456719 
" clip-path="url(#p747ee6290f)" style="fill: none; stroke: #2ca02c; stroke-width: 4.5; stroke-linecap: square"/>
   </g>
   <g id="line2d_46">
    <path d="M 85.465625 461.456719 
L 91.045625 461.456719 
L 96.625625 461.456719 
L 102.205625 461.456719 
L 107.785625 461.456719 
L 113.365625 461.456719 
L 118.945625 461.456719 
L 124.525625 461.456719 
L 130.105625 461.456719 
L 135.685625 461.456719 
L 141.265625 461.456719 
L 146.845625 461.456719 
L 152.425625 461.456719 
L 158.005625 461.456719 
L 163.585625 461.456719 
L 169.165625 461.456719 
L 174.745625 461.456719 
L 180.325625 461.456719 
L 185.905625 461.456719 
L 191.485625 461.456719 
L 197.065625 461.456719 
L 202.645625 51.200719 
L 208.225625 51.200719 
L 213.805625 51.200719 
L 219.385625 51.200719 
L 224.965625 51.200719 
L 230.545625 51.200719 
L 236.125625 51.200719 
L 241.705625 51.200719 
L 247.285625 51.200719 
L 252.865625 51.200719 
L 258.445625 98.220634 
L 264.025625 138.92297 
L 269.605625 171.915496 
L 275.185625 193.884919 
L 280.765625 212.252992 
L 286.345625 227.024719 
L 291.925625 227.024719 
L 297.505625 227.024719 
L 303.085625 227.024719 
L 308.665625 227.024719 
L 314.245625 227.024719 
L 319.825625 227.024719 
L 325.405625 227.024719 
L 330.985625 227.024719 
L 336.565625 227.024719 
L 342.145625 227.024719 
L 347.725625 227.024719 
L 353.305625 227.024719 
L 358.885625 227.024719 
L 364.465625 227.024719 
L 370.045625 227.024719 
L 375.625625 227.024719 
L 381.205625 227.024719 
L 386.785625 227.024719 
L 392.365625 227.024719 
L 397.945625 227.024719 
L 403.525625 227.024719 
L 409.105625 227.024719 
L 414.685625 227.024719 
L 420.265625 460.216406 
L 425.845625 461.456719 
L 431.425625 461.456719 
L 437.005625 461.456719 
L 442.585625 461.456719 
L 448.165625 461.456719 
L 453.745625 461.456719 
L 459.325625 461.456719 
L 464.905625 461.456719 
L 470.485625 461.456719 
L 476.065625 461.456719 
L 481.645625 461.456719 
L 487.225625 461.456719 
L 492.805625 461.456719 
L 498.385625 461.456719 
L 503.965625 461.456719 
L 509.545625 461.456719 
L 515.125625 461.456719 
L 520.705625 461.456719 
L 526.285625 461.456719 
L 531.865625 461.456719 
L 537.445625 461.456719 
L 543.025625 461.456719 
L 548.407031 461.456719 
" clip-path="url(#p747ee6290f)" style="fill: none; stroke: #d62728; stroke-width: 4.5; stroke-linecap: square"/>
   </g>
   <g id="line2d_47">
    <path d="M 85.465625 461.456719 
L 91.045625 461.456719 
L 96.625625 461.456719 
L 102.205625 461.456719 
L 107.785625 461.456719 
L 113.365625 461.456719 
L 118.945625 461.456719 
L 124.525625 461.456719 
L 130.105625 461.456719 
L 135.685625 461.456719 
L 141.265625 461.456719 
L 146.845625 461.456719 
L 152.425625 461.456719 
L 158.005625 461.456719 
L 163.585625 461.456719 
L 169.165625 461.456719 
L 174.745625 461.456719 
L 180.325625 461.456719 
L 185.905625 461.456719 
L 191.485625 461.456719 
L 197.065625 461.456719 
L 202.645625 51.200719 
L 208.225625 51.200719 
L 213.805625 51.200719 
L 219.385625 51.200719 
L 224.965625 51.200719 
L 230.545625 51.200719 
L 236.125625 51.200719 
L 241.705625 51.200719 
L 247.285625 51.200719 
L 252.865625 51.200719 
L 258.445625 96.394368 
L 264.025625 137.374154 
L 269.605625 170.576027 
L 275.185625 192.780307 
L 280.765625 211.457924 
L 286.345625 227.024719 
L 291.925625 227.024719 
L 297.505625 227.024719 
L 303.085625 227.024719 
L 308.665625 227.024719 
L 314.245625 227.024719 
L 319.825625 227.024719 
L 325.405625 227.024719 
L 330.985625 227.024719 
L 336.565625 227.024719 
L 342.145625 227.024719 
L 347.725625 227.024719 
L 353.305625 227.024719 
L 358.885625 227.024719 
L 364.465625 227.024719 
L 370.045625 227.024719 
L 375.625625 227.024719 
L 381.205625 227.024719 
L 386.785625 227.024719 
L 392.365625 227.024719 
L 397.945625 227.024719 
L 403.525625 227.024719 
L 409.105625 227.024719 
L 414.685625 227.024719 
L 420.265625 460.216406 
L 425.845625 461.456719 
L 431.425625 461.456719 
L 437.005625 461.456719 
L 442.585625 461.456719 
L 448.165625 461.456719 
L 453.745625 461.456719 
L 459.325625 461.456719 
L 464.905625 461.456719 
L 470.485625 461.456719 
L 476.065625 461.456719 
L 481.645625 461.456719 
L 487.225625 461.456719 
L 492.805625 461.456719 
L 498.385625 461.456719 
L 503.965625 461.456719 
L 509.545625 461.456719 
L 515.125625 461.456719 
L 520.705625 461.456719 
L 526.285625 461.456719 
L 531.865625 461.456719 
L 537.445625 461.456719 
L 543.025625 461.456719 
L 548.407031 461.456719 
" clip-path="url(#p747ee6290f)" style="fill: none; stroke: #9467bd; stroke-width: 4.5; stroke-linecap: square"/>
   </g>
   <g id="line2d_48">
    <path d="M 85.465625 461.456719 
L 91.045625 461.456719 
L 96.625625 461.456719 
L 102.205625 461.456719 
L 107.785625 461.456719 
L 113.365625 461.456719 
L 118.945625 461.456719 
L 124.525625 461.456719 
L 130.105625 461.456719 
L 135.685625 461.456719 
L 141.265625 461.456719 
L 146.845625 461.456719 
L 152.425625 461.456719 
L 158.005625 461.456719 
L 163.585625 461.456719 
L 169.165625 461.456719 
L 174.745625 461.456719 
L 180.325625 461.456719 
L 185.905625 461.456719 
L 191.485625 461.456719 
L 197.065625 461.456719 
L 202.645625 51.200719 
L 208.225625 51.200719 
L 213.805625 51.200719 
L 219.385625 51.200719 
L 224.965625 51.200719 
L 230.545625 51.200719 
L 236.125625 51.200719 
L 241.705625 51.200719 
L 247.285625 51.200719 
L 252.865625 51.200719 
L 258.445625 97.274043 
L 264.025625 138.355335 
L 269.605625 171.646807 
L 275.185625 194.03312 
L 280.765625 212.957103 
L 286.345625 227.024719 
L 291.925625 227.024719 
L 297.505625 227.024719 
L 303.085625 227.024719 
L 308.665625 227.024719 
L 314.245625 227.024719 
L 319.825625 227.024719 
L 325.405625 227.024719 
L 330.985625 227.024719 
L 336.565625 227.024719 
L 342.145625 227.024719 
L 347.725625 227.024719 
L 353.305625 227.024719 
L 358.885625 227.024719 
L 364.465625 227.024719 
L 370.045625 227.024719 
L 375.625625 227.024719 
L 381.205625 227.024719 
L 386.785625 227.024719 
L 392.365625 227.024719 
L 397.945625 227.024719 
L 403.525625 227.024719 
L 409.105625 227.024719 
L 414.685625 227.024719 
L 420.265625 460.216406 
L 425.845625 461.456719 
L 431.425625 461.456719 
L 437.005625 461.456719 
L 442.585625 461.456719 
L 448.165625 461.456719 
L 453.745625 461.456719 
L 459.325625 461.456719 
L 464.905625 461.456719 
L 470.485625 461.456719 
L 476.065625 461.456719 
L 481.645625 461.456719 
L 487.225625 461.456719 
L 492.805625 461.456719 
L 498.385625 461.456719 
L 503.965625 461.456719 
L 509.545625 461.456719 
L 515.125625 461.456719 
L 520.705625 461.456719 
L 526.285625 461.456719 
L 531.865625 461.456719 
L 537.445625 461.456719 
L 543.025625 461.456719 
L 548.407031 461.456719 
" clip-path="url(#p747ee6290f)" style="fill: none; stroke: #8c564b; stroke-width: 4.5; stroke-linecap: square"/>
   </g>
   <g id="line2d_49">
    <path d="M 85.465625 461.456719 
L 91.045625 461.456719 
L 96.625625 461.456719 
L 102.205625 461.456719 
L 107.785625 461.456719 
L 113.365625 461.456719 
L 118.945625 461.456719 
L 124.525625 461.456719 
L 130.105625 461.456719 
L 135.685625 461.456719 
L 141.265625 461.456719 
L 146.845625 461.456719 
L 152.425625 461.456719 
L 158.005625 461.456719 
L 163.585625 461.456719 
L 169.165625 461.456719 
L 174.745625 461.456719 
L 180.325625 461.456719 
L 185.905625 461.456719 
L 191.485625 461.456719 
L 197.065625 461.456719 
L 202.645625 51.200719 
L 208.225625 51.200719 
L 213.805625 51.200719 
L 219.385625 51.200719 
L 224.965625 51.200719 
L 230.545625 51.200719 
L 236.125625 51.200719 
L 241.705625 51.200719 
L 247.285625 51.200719 
L 252.865625 51.200719 
L 258.445625 99.370059 
L 264.025625 140.021152 
L 269.605625 172.997024 
L 275.185625 195.170086 
L 280.765625 213.812364 
L 286.345625 227.024719 
L 291.925625 227.024719 
L 297.505625 227.024719 
L 303.085625 227.024719 
L 308.665625 227.024719 
L 314.245625 227.024719 
L 319.825625 227.024719 
L 325.405625 227.024719 
L 330.985625 227.024719 
L 336.565625 227.024719 
L 342.145625 227.024719 
L 347.725625 227.024719 
L 353.305625 227.024719 
L 358.885625 227.024719 
L 364.465625 227.024719 
L 370.045625 227.024719 
L 375.625625 227.024719 
L 381.205625 227.024719 
L 386.785625 227.024719 
L 392.365625 227.024719 
L 397.945625 227.024719 
L 403.525625 227.024719 
L 409.105625 227.024719 
L 414.685625 227.024719 
L 420.265625 460.216406 
L 425.845625 461.456719 
L 431.425625 461.456719 
L 437.005625 461.456719 
L 442.585625 461.456719 
L 448.165625 461.456719 
L 453.745625 461.456719 
L 459.325625 461.456719 
L 464.905625 461.456719 
L 470.485625 461.456719 
L 476.065625 461.456719 
L 481.645625 461.456719 
L 487.225625 461.456719 
L 492.805625 461.456719 
L 498.385625 461.456719 
L 503.965625 461.456719 
L 509.545625 461.456719 
L 515.125625 461.456719 
L 520.705625 461.456719 
L 526.285625 461.456719 
L 531.865625 461.456719 
L 537.445625 461.456719 
L 543.025625 461.456719 
L 548.407031 461.456719 
" clip-path="url(#p747ee6290f)" style="fill: none; stroke: #e377c2; stroke-width: 4.5; stroke-linecap: square"/>
   </g>
   <g id="line2d_50">
    <path d="M 85.465625 461.456719 
L 91.045625 461.456719 
L 96.625625 461.456719 
L 102.205625 461.456719 
L 107.785625 461.456719 
L 113.365625 461.456719 
L 118.945625 461.456719 
L 124.525625 461.456719 
L 130.105625 461.456719 
L 135.685625 461.456719 
L 141.265625 461.456719 
L 146.845625 461.456719 
L 152.425625 461.456719 
L 158.005625 461.456719 
L 163.585625 461.456719 
L 169.165625 461.456719 
L 174.745625 461.456719 
L 180.325625 461.456719 
L 185.905625 461.456719 
L 191.485625 461.456719 
L 197.065625 461.456719 
L 202.645625 51.200719 
L 208.225625 51.200719 
L 213.805625 51.200719 
L 219.385625 51.200719 
L 224.965625 51.200719 
L 230.545625 51.200719 
L 236.125625 51.200719 
L 241.705625 51.200719 
L 247.285625 51.200719 
L 252.865625 51.200719 
L 258.445625 100.034706 
L 264.025625 140.989184 
L 269.605625 173.857549 
L 275.185625 195.786479 
L 280.765625 214.289145 
L 286.345625 227.024719 
L 291.925625 227.024719 
L 297.505625 227.024719 
L 303.085625 227.024719 
L 308.665625 227.024719 
L 314.245625 227.024719 
L 319.825625 227.024719 
L 325.405625 227.024719 
L 330.985625 227.024719 
L 336.565625 227.024719 
L 342.145625 227.024719 
L 347.725625 227.024719 
L 353.305625 227.024719 
L 358.885625 227.024719 
L 364.465625 227.024719 
L 370.045625 227.024719 
L 375.625625 227.024719 
L 381.205625 227.024719 
L 386.785625 227.024719 
L 392.365625 227.024719 
L 397.945625 227.024719 
L 403.525625 227.024719 
L 409.105625 227.024719 
L 414.685625 227.024719 
L 420.265625 460.216406 
L 425.845625 461.456719 
L 431.425625 461.456719 
L 437.005625 461.456719 
L 442.585625 461.456719 
L 448.165625 461.456719 
L 453.745625 461.456719 
L 459.325625 461.456719 
L 464.905625 461.456719 
L 470.485625 461.456719 
L 476.065625 461.456719 
L 481.645625 461.456719 
L 487.225625 461.456719 
L 492.805625 461.456719 
L 498.385625 461.456719 
L 503.965625 461.456719 
L 509.545625 461.456719 
L 515.125625 461.456719 
L 520.705625 461.456719 
L 526.285625 461.456719 
L 531.865625 461.456719 
L 537.445625 461.456719 
L 543.025625 461.456719 
L 548.407031 461.456719 
" clip-path="url(#p747ee6290f)" style="fill: none; stroke: #7f7f7f; stroke-width: 4.5; stroke-linecap: square"/>
   </g>
   <g id="line2d_51">
    <path d="M 85.465625 461.456719 
L 91.045625 461.456719 
L 96.625625 461.456719 
L 102.205625 461.456719 
L 107.785625 461.456719 
L 113.365625 461.456719 
L 118.945625 461.456719 
L 124.525625 461.456719 
L 130.105625 461.456719 
L 135.685625 461.456719 
L 141.265625 461.456719 
L 146.845625 461.456719 
L 152.425625 461.456719 
L 158.005625 461.456719 
L 163.585625 461.456719 
L 169.165625 461.456719 
L 174.745625 461.456719 
L 180.325625 461.456719 
L 185.905625 461.456719 
L 191.485625 461.456719 
L 197.065625 461.456719 
L 202.645625 51.200719 
L 208.225625 51.200719 
L 213.805625 51.200719 
L 219.385625 51.200719 
L 224.965625 51.200719 
L 230.545625 51.200719 
L 236.125625 51.200719 
L 241.705625 51.200719 
L 247.285625 51.200719 
L 252.865625 51.200719 
L 258.445625 98.656779 
L 264.025625 139.592974 
L 269.605625 172.647999 
L 275.185625 194.818039 
L 280.765625 213.466428 
L 286.345625 227.024719 
L 291.925625 227.024719 
L 297.505625 227.024719 
L 303.085625 227.024719 
L 308.665625 227.024719 
L 314.245625 227.024719 
L 319.825625 227.024719 
L 325.405625 227.024719 
L 330.985625 227.024719 
L 336.565625 227.024719 
L 342.145625 227.024719 
L 347.725625 227.024719 
L 353.305625 227.024719 
L 358.885625 227.024719 
L 364.465625 227.024719 
L 370.045625 227.024719 
L 375.625625 227.024719 
L 381.205625 227.024719 
L 386.785625 227.024719 
L 392.365625 227.024719 
L 397.945625 227.024719 
L 403.525625 227.024719 
L 409.105625 227.024719 
L 414.685625 227.024719 
L 420.265625 460.216406 
L 425.845625 461.456719 
L 431.425625 461.456719 
L 437.005625 461.456719 
L 442.585625 461.456719 
L 448.165625 461.456719 
L 453.745625 461.456719 
L 459.325625 461.456719 
L 464.905625 461.456719 
L 470.485625 461.456719 
L 476.065625 461.456719 
L 481.645625 461.456719 
L 487.225625 461.456719 
L 492.805625 461.456719 
L 498.385625 461.456719 
L 503.965625 461.456719 
L 509.545625 461.456719 
L 515.125625 461.456719 
L 520.705625 461.456719 
L 526.285625 461.456719 
L 531.865625 461.456719 
L 537.445625 461.456719 
L 543.025625 461.456719 
L 548.407031 461.456719 
" clip-path="url(#p747ee6290f)" style="fill: none; stroke: #bcbd22; stroke-width: 4.5; stroke-linecap: square"/>
   </g>
   <g id="line2d_52">
    <path d="M 85.465625 461.456719 
L 91.045625 461.456719 
L 96.625625 461.456719 
L 102.205625 461.456719 
L 107.785625 461.456719 
L 113.365625 461.456719 
L 118.945625 461.456719 
L 124.525625 461.456719 
L 130.105625 461.456719 
L 135.685625 461.456719 
L 141.265625 461.456719 
L 146.845625 461.456719 
L 152.425625 461.456719 
L 158.005625 461.456719 
L 163.585625 461.456719 
L 169.165625 461.456719 
L 174.745625 461.456719 
L 180.325625 461.456719 
L 185.905625 461.456719 
L 191.485625 461.456719 
L 197.065625 461.456719 
L 202.645625 51.200719 
L 208.225625 51.200719 
L 213.805625 51.200719 
L 219.385625 51.200719 
L 224.965625 51.200719 
L 230.545625 51.200719 
L 236.125625 51.200719 
L 241.705625 51.200719 
L 247.285625 51.200719 
L 252.865625 52.211005 
L 258.445625 102.897507 
L 264.025625 142.91185 
L 269.605625 175.43552 
L 275.185625 197.149836 
L 280.765625 215.205618 
L 286.345625 227.024719 
L 291.925625 227.024719 
L 297.505625 227.024719 
L 303.085625 227.024719 
L 308.665625 227.024719 
L 314.245625 227.024719 
L 319.825625 227.024719 
L 325.405625 227.024719 
L 330.985625 227.024719 
L 336.565625 227.024719 
L 342.145625 227.024719 
L 347.725625 227.024719 
L 353.305625 227.024719 
L 358.885625 227.024719 
L 364.465625 227.024719 
L 370.045625 227.024719 
L 375.625625 227.024719 
L 381.205625 227.024719 
L 386.785625 227.024719 
L 392.365625 227.024719 
L 397.945625 227.024719 
L 403.525625 227.024719 
L 409.105625 227.024719 
L 414.685625 227.024719 
L 420.265625 460.216406 
L 425.845625 461.456719 
L 431.425625 461.456719 
L 437.005625 461.456719 
L 442.585625 461.456719 
L 448.165625 461.456719 
L 453.745625 461.456719 
L 459.325625 461.456719 
L 464.905625 461.456719 
L 470.485625 461.456719 
L 476.065625 461.456719 
L 481.645625 461.456719 
L 487.225625 461.456719 
L 492.805625 461.456719 
L 498.385625 461.456719 
L 503.965625 461.456719 
L 509.545625 461.456719 
L 515.125625 461.456719 
L 520.705625 461.456719 
L 526.285625 461.456719 
L 531.865625 461.456719 
L 537.445625 461.456719 
L 543.025625 461.456719 
L 548.407031 461.456719 
" clip-path="url(#p747ee6290f)" style="fill: none; stroke: #17becf; stroke-width: 4.5; stroke-linecap: square"/>
   </g>
   <g id="line2d_53">
    <path d="M 85.465625 461.456719 
L 91.045625 461.456719 
L 96.625625 461.456719 
L 102.205625 461.456719 
L 107.785625 461.456719 
L 113.365625 461.456719 
L 118.945625 461.456719 
L 124.525625 461.456719 
L 130.105625 461.456719 
L 135.685625 461.456719 
L 141.265625 461.456719 
L 146.845625 461.456719 
L 152.425625 461.456719 
L 158.005625 461.456719 
L 163.585625 461.456719 
L 169.165625 461.456719 
L 174.745625 461.456719 
L 180.325625 461.456719 
L 185.905625 461.456719 
L 191.485625 461.456719 
L 197.065625 461.456719 
L 202.645625 51.200719 
L 208.225625 51.200719 
L 213.805625 51.200719 
L 219.385625 51.200719 
L 224.965625 51.200719 
L 230.545625 51.200719 
L 236.125625 51.200719 
L 241.705625 51.200719 
L 247.285625 51.200719 
L 252.865625 53.117091 
L 258.445625 103.353397 
L 264.025625 143.372773 
L 269.605625 175.870134 
L 275.185625 197.490425 
L 280.765625 215.493109 
L 286.345625 227.024719 
L 291.925625 227.024719 
L 297.505625 227.024719 
L 303.085625 227.024719 
L 308.665625 227.024719 
L 314.245625 227.024719 
L 319.825625 227.024719 
L 325.405625 227.024719 
L 330.985625 227.024719 
L 336.565625 227.024719 
L 342.145625 227.024719 
L 347.725625 227.024719 
L 353.305625 227.024719 
L 358.885625 227.024719 
L 364.465625 227.024719 
L 370.045625 227.024719 
L 375.625625 227.024719 
L 381.205625 227.024719 
L 386.785625 227.024719 
L 392.365625 227.024719 
L 397.945625 227.024719 
L 403.525625 227.024719 
L 409.105625 227.024719 
L 414.685625 227.024719 
L 420.265625 460.216406 
L 425.845625 461.456719 
L 431.425625 461.456719 
L 437.005625 461.456719 
L 442.585625 461.456719 
L 448.165625 461.456719 
L 453.745625 461.456719 
L 459.325625 461.456719 
L 464.905625 461.456719 
L 470.485625 461.456719 
L 476.065625 461.456719 
L 481.645625 461.456719 
L 487.225625 461.456719 
L 492.805625 461.456719 
L 498.385625 461.456719 
L 503.965625 461.456719 
L 509.545625 461.456719 
L 515.125625 461.456719 
L 520.705625 461.456719 
L 526.285625 461.456719 
L 531.865625 461.456719 
L 537.445625 461.456719 
L 543.025625 461.456719 
L 548.407031 461.456719 
" clip-path="url(#p747ee6290f)" style="fill: none; stroke: #1f77b4; stroke-width: 4.5; stroke-linecap: square"/>
   </g>
   <g id="line2d_54">
    <path d="M 85.465625 461.456719 
L 91.045625 461.456719 
L 96.625625 461.456719 
L 102.205625 461.456719 
L 107.785625 461.456719 
L 113.365625 461.456719 
L 118.945625 461.456719 
L 124.525625 461.456719 
L 130.105625 461.456719 
L 135.685625 461.456719 
L 141.265625 461.456719 
L 146.845625 461.456719 
L 152.425625 461.456719 
L 158.005625 461.456719 
L 163.585625 461.456719 
L 169.165625 461.456719 
L 174.745625 461.456719 
L 180.325625 461.456719 
L 185.905625 461.456719 
L 191.485625 461.456719 
L 197.065625 461.456719 
L 202.645625 51.200719 
L 208.225625 51.200719 
L 213.805625 51.200719 
L 219.385625 51.200719 
L 224.965625 51.200719 
L 230.545625 51.200719 
L 236.125625 51.200719 
L 241.705625 51.200719 
L 247.285625 51.200719 
L 252.865625 51.200719 
L 258.445625 102.311143 
L 264.025625 142.663228 
L 269.605625 175.370658 
L 275.185625 197.100679 
L 280.765625 215.028099 
L 286.345625 227.024719 
L 291.925625 227.024719 
L 297.505625 227.024719 
L 303.085625 227.024719 
L 308.665625 227.024719 
L 314.245625 227.024719 
L 319.825625 227.024719 
L 325.405625 227.024719 
L 330.985625 227.024719 
L 336.565625 227.024719 
L 342.145625 227.024719 
L 347.725625 227.024719 
L 353.305625 227.024719 
L 358.885625 227.024719 
L 364.465625 227.024719 
L 370.045625 227.024719 
L 375.625625 227.024719 
L 381.205625 227.024719 
L 386.785625 227.024719 
L 392.365625 227.024719 
L 397.945625 227.024719 
L 403.525625 227.024719 
L 409.105625 227.024719 
L 414.685625 227.024719 
L 420.265625 460.216406 
L 425.845625 461.456719 
L 431.425625 461.456719 
L 437.005625 461.456719 
L 442.585625 461.456719 
L 448.165625 461.456719 
L 453.745625 461.456719 
L 459.325625 461.456719 
L 464.905625 461.456719 
L 470.485625 461.456719 
L 476.065625 461.456719 
L 481.645625 461.456719 
L 487.225625 461.456719 
L 492.805625 461.456719 
L 498.385625 461.456719 
L 503.965625 461.456719 
L 509.545625 461.456719 
L 515.125625 461.456719 
L 520.705625 461.456719 
L 526.285625 461.456719 
L 531.865625 461.456719 
L 537.445625 461.456719 
L 543.025625 461.456719 
L 548.407031 461.456719 
" clip-path="url(#p747ee6290f)" style="fill: none; stroke: #ff7f0e; stroke-width: 4.5; stroke-linecap: square"/>
   </g>
   <g id="line2d_55">
    <path d="M 85.465625 461.456719 
L 91.045625 461.456719 
L 96.625625 461.456719 
L 102.205625 461.456719 
L 107.785625 461.456719 
L 113.365625 461.456719 
L 118.945625 461.456719 
L 124.525625 461.456719 
L 130.105625 461.456719 
L 135.685625 461.456719 
L 141.265625 461.456719 
L 146.845625 461.456719 
L 152.425625 461.456719 
L 158.005625 461.456719 
L 163.585625 461.456719 
L 169.165625 461.456719 
L 174.745625 461.456719 
L 180.325625 461.456719 
L 185.905625 461.456719 
L 191.485625 461.456719 
L 197.065625 461.456719 
L 202.645625 51.200719 
L 208.225625 51.200719 
L 213.805625 51.200719 
L 219.385625 51.200719 
L 224.965625 51.200719 
L 230.545625 51.200719 
L 236.125625 51.200719 
L 241.705625 51.200719 
L 247.285625 51.200719 
L 252.865625 51.200719 
L 258.445625 95.64689 
L 264.025625 137.15701 
L 269.605625 170.879612 
L 275.185625 193.360631 
L 280.765625 211.916335 
L 286.345625 227.024719 
L 291.925625 227.024719 
L 297.505625 227.024719 
L 303.085625 227.024719 
L 308.665625 227.024719 
L 314.245625 227.024719 
L 319.825625 227.024719 
L 325.405625 227.024719 
L 330.985625 227.024719 
L 336.565625 227.024719 
L 342.145625 227.024719 
L 347.725625 227.024719 
L 353.305625 227.024719 
L 358.885625 227.024719 
L 364.465625 227.024719 
L 370.045625 227.024719 
L 375.625625 227.024719 
L 381.205625 227.024719 
L 386.785625 227.024719 
L 392.365625 227.024719 
L 397.945625 227.024719 
L 403.525625 227.024719 
L 409.105625 227.024719 
L 414.685625 227.024719 
L 420.265625 460.216406 
L 425.845625 461.456719 
L 431.425625 461.456719 
L 437.005625 461.456719 
L 442.585625 461.456719 
L 448.165625 461.456719 
L 453.745625 461.456719 
L 459.325625 461.456719 
L 464.905625 461.456719 
L 470.485625 461.456719 
L 476.065625 461.456719 
L 481.645625 461.456719 
L 487.225625 461.456719 
L 492.805625 461.456719 
L 498.385625 461.456719 
L 503.965625 461.456719 
L 509.545625 461.456719 
L 515.125625 461.456719 
L 520.705625 461.456719 
L 526.285625 461.456719 
L 531.865625 461.456719 
L 537.445625 461.456719 
L 543.025625 461.456719 
L 548.407031 461.456719 
" clip-path="url(#p747ee6290f)" style="fill: none; stroke: #2ca02c; stroke-width: 4.5; stroke-linecap: square"/>
   </g>
   <g id="line2d_56">
    <path d="M 85.465625 461.456719 
L 91.045625 461.456719 
L 96.625625 461.456719 
L 102.205625 461.456719 
L 107.785625 461.456719 
L 113.365625 461.456719 
L 118.945625 461.456719 
L 124.525625 461.456719 
L 130.105625 461.456719 
L 135.685625 461.456719 
L 141.265625 461.456719 
L 146.845625 461.456719 
L 152.425625 461.456719 
L 158.005625 461.456719 
L 163.585625 461.456719 
L 169.165625 461.456719 
L 174.745625 461.456719 
L 180.325625 461.456719 
L 185.905625 461.456719 
L 191.485625 461.456719 
L 197.065625 461.456719 
L 202.645625 51.200719 
L 208.225625 51.200719 
L 213.805625 51.200719 
L 219.385625 51.200719 
L 224.965625 51.200719 
L 230.545625 51.200719 
L 236.125625 51.200719 
L 241.705625 51.200719 
L 247.285625 51.200719 
L 252.865625 51.200719 
L 258.445625 92.36988 
L 264.025625 134.737249 
L 269.605625 169.190893 
L 275.185625 191.9412 
L 280.765625 210.44686 
L 286.345625 226.301882 
L 291.925625 227.024719 
L 297.505625 227.024719 
L 303.085625 227.024719 
L 308.665625 227.024719 
L 314.245625 227.024719 
L 319.825625 227.024719 
L 325.405625 227.024719 
L 330.985625 227.024719 
L 336.565625 227.024719 
L 342.145625 227.024719 
L 347.725625 227.024719 
L 353.305625 227.024719 
L 358.885625 227.024719 
L 364.465625 227.024719 
L 370.045625 227.024719 
L 375.625625 227.024719 
L 381.205625 227.024719 
L 386.785625 227.024719 
L 392.365625 227.024719 
L 397.945625 227.024719 
L 403.525625 227.024719 
L 409.105625 227.024719 
L 414.685625 227.024719 
L 420.265625 460.216406 
L 425.845625 461.456719 
L 431.425625 461.456719 
L 437.005625 461.456719 
L 442.585625 461.456719 
L 448.165625 461.456719 
L 453.745625 461.456719 
L 459.325625 461.456719 
L 464.905625 461.456719 
L 470.485625 461.456719 
L 476.065625 461.456719 
L 481.645625 461.456719 
L 487.225625 461.456719 
L 492.805625 461.456719 
L 498.385625 461.456719 
L 503.965625 461.456719 
L 509.545625 461.456719 
L 515.125625 461.456719 
L 520.705625 461.456719 
L 526.285625 461.456719 
L 531.865625 461.456719 
L 537.445625 461.456719 
L 543.025625 461.456719 
L 548.407031 461.456719 
" clip-path="url(#p747ee6290f)" style="fill: none; stroke: #d62728; stroke-width: 4.5; stroke-linecap: square"/>
   </g>
   <g id="line2d_57">
    <path d="M 85.465625 461.456719 
L 91.045625 461.456719 
L 96.625625 461.456719 
L 102.205625 461.456719 
L 107.785625 461.456719 
L 113.365625 461.456719 
L 118.945625 461.456719 
L 124.525625 461.456719 
L 130.105625 461.456719 
L 135.685625 461.456719 
L 141.265625 461.456719 
L 146.845625 461.456719 
L 152.425625 461.456719 
L 158.005625 461.456719 
L 163.585625 461.456719 
L 169.165625 461.456719 
L 174.745625 461.456719 
L 180.325625 461.456719 
L 185.905625 461.456719 
L 191.485625 461.456719 
L 197.065625 461.456719 
L 202.645625 51.200719 
L 208.225625 51.200719 
L 213.805625 51.200719 
L 219.385625 51.200719 
L 224.965625 51.200719 
L 230.545625 51.200719 
L 236.125625 51.200719 
L 241.705625 51.200719 
L 247.285625 51.200719 
L 252.865625 51.200719 
L 258.445625 91.882093 
L 264.025625 134.051148 
L 269.605625 168.268825 
L 275.185625 191.043232 
L 280.765625 209.847904 
L 286.345625 225.953172 
L 291.925625 227.024719 
L 297.505625 227.024719 
L 303.085625 227.024719 
L 308.665625 227.024719 
L 314.245625 227.024719 
L 319.825625 227.024719 
L 325.405625 227.024719 
L 330.985625 227.024719 
L 336.565625 227.024719 
L 342.145625 227.024719 
L 347.725625 227.024719 
L 353.305625 227.024719 
L 358.885625 227.024719 
L 364.465625 227.024719 
L 370.045625 227.024719 
L 375.625625 227.024719 
L 381.205625 227.024719 
L 386.785625 227.024719 
L 392.365625 227.024719 
L 397.945625 227.024719 
L 403.525625 227.024719 
L 409.105625 227.024719 
L 414.685625 227.024719 
L 420.265625 460.216406 
L 425.845625 461.456719 
L 431.425625 461.456719 
L 437.005625 461.456719 
L 442.585625 461.456719 
L 448.165625 461.456719 
L 453.745625 461.456719 
L 459.325625 461.456719 
L 464.905625 461.456719 
L 470.485625 461.456719 
L 476.065625 461.456719 
L 481.645625 461.456719 
L 487.225625 461.456719 
L 492.805625 461.456719 
L 498.385625 461.456719 
L 503.965625 461.456719 
L 509.545625 461.456719 
L 515.125625 461.456719 
L 520.705625 461.456719 
L 526.285625 461.456719 
L 531.865625 461.456719 
L 537.445625 461.456719 
L 543.025625 461.456719 
L 548.407031 461.456719 
" clip-path="url(#p747ee6290f)" style="fill: none; stroke: #9467bd; stroke-width: 4.5; stroke-linecap: square"/>
   </g>
   <g id="patch_3">
    <path d="M 85.465625 461.456719 
L 85.465625 17.936719 
" style="fill: none; stroke: #000000; stroke-width: 4; stroke-linejoin: miter; stroke-linecap: square"/>
   </g>
   <g id="patch_4">
    <path d="M 531.865625 461.456719 
L 531.865625 17.936719 
" style="fill: none; stroke: #000000; stroke-width: 4; stroke-linejoin: miter; stroke-linecap: square"/>
   </g>
   <g id="patch_5">
    <path d="M 85.465625 461.456719 
L 531.865625 461.456719 
" style="fill: none; stroke: #000000; stroke-width: 4; stroke-linejoin: miter; stroke-linecap: square"/>
   </g>
   <g id="patch_6">
    <path d="M 85.465625 17.936719 
L 531.865625 17.936719 
" style="fill: none; stroke: #000000; stroke-width: 4; stroke-linejoin: miter; stroke-linecap: square"/>
   </g>
  </g>
 </g>
 <defs>
  <clipPath id="p747ee6290f">
   <rect x="85.465625" y="17.936719" width="446.4" height="443.52"/>
  </clipPath>
 </defs>
</svg>
