<?xml version="1.0" encoding="utf-8" standalone="no"?>
<!DOCTYPE svg PUBLIC "-//W3C//DTD SVG 1.1//EN"
  "http://www.w3.org/Graphics/SVG/1.1/DTD/svg11.dtd">
<svg xmlns:xlink="http://www.w3.org/1999/xlink" width="558.342969pt" height="524.509062pt" viewBox="0 0 558.342969 524.509062" xmlns="http://www.w3.org/2000/svg" version="1.1">
 <metadata>
  <rdf:RDF xmlns:dc="http://purl.org/dc/elements/1.1/" xmlns:cc="http://creativecommons.org/ns#" xmlns:rdf="http://www.w3.org/1999/02/22-rdf-syntax-ns#">
   <cc:Work>
    <dc:type rdf:resource="http://purl.org/dc/dcmitype/StillImage"/>
    <dc:date>2022-11-21T09:35:55.728145</dc:date>
    <dc:format>image/svg+xml</dc:format>
    <dc:creator>
     <cc:Agent>
      <dc:title>Matplotlib v3.5.3, https://matplotlib.org/</dc:title>
     </cc:Agent>
    </dc:creator>
   </cc:Work>
  </rdf:RDF>
 </metadata>
 <defs>
  <style type="text/css">*{stroke-linejoin: round; stroke-linecap: butt}</style>
 </defs>
 <g id="figure_1">
  <g id="patch_1">
   <path d="M 0 524.509062 
L 558.342969 524.509062 
L 558.342969 0 
L 0 0 
z
" style="fill: #ffffff"/>
  </g>
  <g id="axes_1">
   <g id="patch_2">
    <path d="M 96.401563 450.72 
L 542.801562 450.72 
L 542.801562 7.2 
L 96.401563 7.2 
z
" style="fill: #ffffff"/>
   </g>
   <g id="matplotlib.axis_1">
    <g id="xtick_1">
     <g id="line2d_1">
      <path d="M 96.401563 450.72 
L 96.401563 7.2 
" clip-path="url(#p207a484176)" style="fill: none; stroke: #e2e2e2; stroke-width: 0.8; stroke-linecap: square"/>
     </g>
     <g id="line2d_2">
      <defs>
       <path id="m8ae0d2ca0e" d="M 0 0 
L 0 3.5 
" style="stroke: #000000; stroke-width: 0.8"/>
      </defs>
      <g>
       <use xlink:href="#m8ae0d2ca0e" x="96.401563" y="450.72" style="stroke: #000000; stroke-width: 0.8"/>
      </g>
     </g>
     <g id="text_1">
      <!-- 0 -->
      <g transform="translate(88.060156 479.193437)scale(0.3 -0.3)">
       <defs>
        <path id="ArialMT-30" d="M 266 2259 
Q 266 3072 433 3567 
Q 600 4063 929 4331 
Q 1259 4600 1759 4600 
Q 2128 4600 2406 4451 
Q 2684 4303 2865 4023 
Q 3047 3744 3150 3342 
Q 3253 2941 3253 2259 
Q 3253 1453 3087 958 
Q 2922 463 2592 192 
Q 2263 -78 1759 -78 
Q 1097 -78 719 397 
Q 266 969 266 2259 
z
M 844 2259 
Q 844 1131 1108 757 
Q 1372 384 1759 384 
Q 2147 384 2411 759 
Q 2675 1134 2675 2259 
Q 2675 3391 2411 3762 
Q 2147 4134 1753 4134 
Q 1366 4134 1134 3806 
Q 844 3388 844 2259 
z
" transform="scale(0.015625)"/>
       </defs>
       <use xlink:href="#ArialMT-30"/>
      </g>
     </g>
    </g>
    <g id="xtick_2">
     <g id="line2d_3">
      <path d="M 170.801562 450.72 
L 170.801562 7.2 
" clip-path="url(#p207a484176)" style="fill: none; stroke: #e2e2e2; stroke-width: 0.8; stroke-linecap: square"/>
     </g>
     <g id="line2d_4">
      <g>
       <use xlink:href="#m8ae0d2ca0e" x="170.801562" y="450.72" style="stroke: #000000; stroke-width: 0.8"/>
      </g>
     </g>
    </g>
    <g id="xtick_3">
     <g id="line2d_5">
      <path d="M 245.201562 450.72 
L 245.201562 7.2 
" clip-path="url(#p207a484176)" style="fill: none; stroke: #e2e2e2; stroke-width: 0.8; stroke-linecap: square"/>
     </g>
     <g id="line2d_6">
      <g>
       <use xlink:href="#m8ae0d2ca0e" x="245.201562" y="450.72" style="stroke: #000000; stroke-width: 0.8"/>
      </g>
     </g>
     <g id="text_2">
      <!-- 2 -->
      <g transform="translate(236.860156 479.193437)scale(0.3 -0.3)">
       <defs>
        <path id="ArialMT-32" d="M 3222 541 
L 3222 0 
L 194 0 
Q 188 203 259 391 
Q 375 700 629 1000 
Q 884 1300 1366 1694 
Q 2113 2306 2375 2664 
Q 2638 3022 2638 3341 
Q 2638 3675 2398 3904 
Q 2159 4134 1775 4134 
Q 1369 4134 1125 3890 
Q 881 3647 878 3216 
L 300 3275 
Q 359 3922 746 4261 
Q 1134 4600 1788 4600 
Q 2447 4600 2831 4234 
Q 3216 3869 3216 3328 
Q 3216 3053 3103 2787 
Q 2991 2522 2730 2228 
Q 2469 1934 1863 1422 
Q 1356 997 1212 845 
Q 1069 694 975 541 
L 3222 541 
z
" transform="scale(0.015625)"/>
       </defs>
       <use xlink:href="#ArialMT-32"/>
      </g>
     </g>
    </g>
    <g id="xtick_4">
     <g id="line2d_7">
      <path d="M 319.601562 450.72 
L 319.601562 7.2 
" clip-path="url(#p207a484176)" style="fill: none; stroke: #e2e2e2; stroke-width: 0.8; stroke-linecap: square"/>
     </g>
     <g id="line2d_8">
      <g>
       <use xlink:href="#m8ae0d2ca0e" x="319.601562" y="450.72" style="stroke: #000000; stroke-width: 0.8"/>
      </g>
     </g>
    </g>
    <g id="xtick_5">
     <g id="line2d_9">
      <path d="M 394.001562 450.72 
L 394.001562 7.2 
" clip-path="url(#p207a484176)" style="fill: none; stroke: #e2e2e2; stroke-width: 0.8; stroke-linecap: square"/>
     </g>
     <g id="line2d_10">
      <g>
       <use xlink:href="#m8ae0d2ca0e" x="394.001562" y="450.72" style="stroke: #000000; stroke-width: 0.8"/>
      </g>
     </g>
     <g id="text_3">
      <!-- 4 -->
      <g transform="translate(385.660156 479.193437)scale(0.3 -0.3)">
       <defs>
        <path id="ArialMT-34" d="M 2069 0 
L 2069 1097 
L 81 1097 
L 81 1613 
L 2172 4581 
L 2631 4581 
L 2631 1613 
L 3250 1613 
L 3250 1097 
L 2631 1097 
L 2631 0 
L 2069 0 
z
M 2069 1613 
L 2069 3678 
L 634 1613 
L 2069 1613 
z
" transform="scale(0.015625)"/>
       </defs>
       <use xlink:href="#ArialMT-34"/>
      </g>
     </g>
    </g>
    <g id="xtick_6">
     <g id="line2d_11">
      <path d="M 468.401562 450.72 
L 468.401562 7.2 
" clip-path="url(#p207a484176)" style="fill: none; stroke: #e2e2e2; stroke-width: 0.8; stroke-linecap: square"/>
     </g>
     <g id="line2d_12">
      <g>
       <use xlink:href="#m8ae0d2ca0e" x="468.401562" y="450.72" style="stroke: #000000; stroke-width: 0.8"/>
      </g>
     </g>
    </g>
    <g id="xtick_7">
     <g id="line2d_13">
      <path d="M 542.801562 450.72 
L 542.801562 7.2 
" clip-path="url(#p207a484176)" style="fill: none; stroke: #e2e2e2; stroke-width: 0.8; stroke-linecap: square"/>
     </g>
     <g id="line2d_14">
      <g>
       <use xlink:href="#m8ae0d2ca0e" x="542.801562" y="450.72" style="stroke: #000000; stroke-width: 0.8"/>
      </g>
     </g>
     <g id="text_4">
      <!-- 6 -->
      <g transform="translate(534.460156 479.193437)scale(0.3 -0.3)">
       <defs>
        <path id="ArialMT-36" d="M 3184 3459 
L 2625 3416 
Q 2550 3747 2413 3897 
Q 2184 4138 1850 4138 
Q 1581 4138 1378 3988 
Q 1113 3794 959 3422 
Q 806 3050 800 2363 
Q 1003 2672 1297 2822 
Q 1591 2972 1913 2972 
Q 2475 2972 2870 2558 
Q 3266 2144 3266 1488 
Q 3266 1056 3080 686 
Q 2894 316 2569 119 
Q 2244 -78 1831 -78 
Q 1128 -78 684 439 
Q 241 956 241 2144 
Q 241 3472 731 4075 
Q 1159 4600 1884 4600 
Q 2425 4600 2770 4297 
Q 3116 3994 3184 3459 
z
M 888 1484 
Q 888 1194 1011 928 
Q 1134 663 1356 523 
Q 1578 384 1822 384 
Q 2178 384 2434 671 
Q 2691 959 2691 1453 
Q 2691 1928 2437 2201 
Q 2184 2475 1800 2475 
Q 1419 2475 1153 2201 
Q 888 1928 888 1484 
z
" transform="scale(0.015625)"/>
       </defs>
       <use xlink:href="#ArialMT-36"/>
      </g>
     </g>
    </g>
    <g id="text_5">
     <!-- Time (ns) -->
     <g transform="translate(256.835938 510.995)scale(0.3 -0.3)">
      <defs>
       <path id="ArialMT-54" d="M 1659 0 
L 1659 4041 
L 150 4041 
L 150 4581 
L 3781 4581 
L 3781 4041 
L 2266 4041 
L 2266 0 
L 1659 0 
z
" transform="scale(0.015625)"/>
       <path id="ArialMT-69" d="M 425 3934 
L 425 4581 
L 988 4581 
L 988 3934 
L 425 3934 
z
M 425 0 
L 425 3319 
L 988 3319 
L 988 0 
L 425 0 
z
" transform="scale(0.015625)"/>
       <path id="ArialMT-6d" d="M 422 0 
L 422 3319 
L 925 3319 
L 925 2853 
Q 1081 3097 1340 3245 
Q 1600 3394 1931 3394 
Q 2300 3394 2536 3241 
Q 2772 3088 2869 2813 
Q 3263 3394 3894 3394 
Q 4388 3394 4653 3120 
Q 4919 2847 4919 2278 
L 4919 0 
L 4359 0 
L 4359 2091 
Q 4359 2428 4304 2576 
Q 4250 2725 4106 2815 
Q 3963 2906 3769 2906 
Q 3419 2906 3187 2673 
Q 2956 2441 2956 1928 
L 2956 0 
L 2394 0 
L 2394 2156 
Q 2394 2531 2256 2718 
Q 2119 2906 1806 2906 
Q 1569 2906 1367 2781 
Q 1166 2656 1075 2415 
Q 984 2175 984 1722 
L 984 0 
L 422 0 
z
" transform="scale(0.015625)"/>
       <path id="ArialMT-65" d="M 2694 1069 
L 3275 997 
Q 3138 488 2766 206 
Q 2394 -75 1816 -75 
Q 1088 -75 661 373 
Q 234 822 234 1631 
Q 234 2469 665 2931 
Q 1097 3394 1784 3394 
Q 2450 3394 2872 2941 
Q 3294 2488 3294 1666 
Q 3294 1616 3291 1516 
L 816 1516 
Q 847 969 1125 678 
Q 1403 388 1819 388 
Q 2128 388 2347 550 
Q 2566 713 2694 1069 
z
M 847 1978 
L 2700 1978 
Q 2663 2397 2488 2606 
Q 2219 2931 1791 2931 
Q 1403 2931 1139 2672 
Q 875 2413 847 1978 
z
" transform="scale(0.015625)"/>
       <path id="ArialMT-20" transform="scale(0.015625)"/>
       <path id="ArialMT-28" d="M 1497 -1347 
Q 1031 -759 709 28 
Q 388 816 388 1659 
Q 388 2403 628 3084 
Q 909 3875 1497 4659 
L 1900 4659 
Q 1522 4009 1400 3731 
Q 1209 3300 1100 2831 
Q 966 2247 966 1656 
Q 966 153 1900 -1347 
L 1497 -1347 
z
" transform="scale(0.015625)"/>
       <path id="ArialMT-6e" d="M 422 0 
L 422 3319 
L 928 3319 
L 928 2847 
Q 1294 3394 1984 3394 
Q 2284 3394 2536 3286 
Q 2788 3178 2913 3003 
Q 3038 2828 3088 2588 
Q 3119 2431 3119 2041 
L 3119 0 
L 2556 0 
L 2556 2019 
Q 2556 2363 2490 2533 
Q 2425 2703 2258 2804 
Q 2091 2906 1866 2906 
Q 1506 2906 1245 2678 
Q 984 2450 984 1813 
L 984 0 
L 422 0 
z
" transform="scale(0.015625)"/>
       <path id="ArialMT-73" d="M 197 991 
L 753 1078 
Q 800 744 1014 566 
Q 1228 388 1613 388 
Q 2000 388 2187 545 
Q 2375 703 2375 916 
Q 2375 1106 2209 1216 
Q 2094 1291 1634 1406 
Q 1016 1563 777 1677 
Q 538 1791 414 1992 
Q 291 2194 291 2438 
Q 291 2659 392 2848 
Q 494 3038 669 3163 
Q 800 3259 1026 3326 
Q 1253 3394 1513 3394 
Q 1903 3394 2198 3281 
Q 2494 3169 2634 2976 
Q 2775 2784 2828 2463 
L 2278 2388 
Q 2241 2644 2061 2787 
Q 1881 2931 1553 2931 
Q 1166 2931 1000 2803 
Q 834 2675 834 2503 
Q 834 2394 903 2306 
Q 972 2216 1119 2156 
Q 1203 2125 1616 2013 
Q 2213 1853 2448 1751 
Q 2684 1650 2818 1456 
Q 2953 1263 2953 975 
Q 2953 694 2789 445 
Q 2625 197 2315 61 
Q 2006 -75 1616 -75 
Q 969 -75 630 194 
Q 291 463 197 991 
z
" transform="scale(0.015625)"/>
       <path id="ArialMT-29" d="M 791 -1347 
L 388 -1347 
Q 1322 153 1322 1656 
Q 1322 2244 1188 2822 
Q 1081 3291 891 3722 
Q 769 4003 388 4659 
L 791 4659 
Q 1378 3875 1659 3084 
Q 1900 2403 1900 1659 
Q 1900 816 1576 28 
Q 1253 -759 791 -1347 
z
" transform="scale(0.015625)"/>
      </defs>
      <use xlink:href="#ArialMT-54"/>
      <use xlink:href="#ArialMT-69" x="57.333984"/>
      <use xlink:href="#ArialMT-6d" x="79.550781"/>
      <use xlink:href="#ArialMT-65" x="162.851562"/>
      <use xlink:href="#ArialMT-20" x="218.466797"/>
      <use xlink:href="#ArialMT-28" x="246.25"/>
      <use xlink:href="#ArialMT-6e" x="279.550781"/>
      <use xlink:href="#ArialMT-73" x="335.166016"/>
      <use xlink:href="#ArialMT-29" x="385.166016"/>
     </g>
    </g>
   </g>
   <g id="matplotlib.axis_2">
    <g id="ytick_1">
     <g id="line2d_15">
      <path d="M 96.401563 450.72 
L 542.801562 450.72 
" clip-path="url(#p207a484176)" style="fill: none; stroke: #e2e2e2; stroke-width: 0.8; stroke-linecap: square"/>
     </g>
     <g id="line2d_16">
      <defs>
       <path id="md686ea8392" d="M 0 0 
L -3.5 0 
" style="stroke: #000000; stroke-width: 0.8"/>
      </defs>
      <g>
       <use xlink:href="#md686ea8392" x="96.401563" y="450.72" style="stroke: #000000; stroke-width: 0.8"/>
      </g>
     </g>
     <g id="text_6">
      <!-- 0 -->
      <g transform="translate(72.71875 461.456719)scale(0.3 -0.3)">
       <use xlink:href="#ArialMT-30"/>
      </g>
     </g>
    </g>
    <g id="ytick_2">
     <g id="line2d_17">
      <path d="M 96.401563 398.541176 
L 542.801562 398.541176 
" clip-path="url(#p207a484176)" style="fill: none; stroke: #e2e2e2; stroke-width: 0.8; stroke-linecap: square"/>
     </g>
     <g id="line2d_18">
      <g>
       <use xlink:href="#md686ea8392" x="96.401563" y="398.541176" style="stroke: #000000; stroke-width: 0.8"/>
      </g>
     </g>
     <g id="text_7">
      <!-- 30 -->
      <g transform="translate(56.035938 409.277895)scale(0.3 -0.3)">
       <defs>
        <path id="ArialMT-33" d="M 269 1209 
L 831 1284 
Q 928 806 1161 595 
Q 1394 384 1728 384 
Q 2125 384 2398 659 
Q 2672 934 2672 1341 
Q 2672 1728 2419 1979 
Q 2166 2231 1775 2231 
Q 1616 2231 1378 2169 
L 1441 2663 
Q 1497 2656 1531 2656 
Q 1891 2656 2178 2843 
Q 2466 3031 2466 3422 
Q 2466 3731 2256 3934 
Q 2047 4138 1716 4138 
Q 1388 4138 1169 3931 
Q 950 3725 888 3313 
L 325 3413 
Q 428 3978 793 4289 
Q 1159 4600 1703 4600 
Q 2078 4600 2393 4439 
Q 2709 4278 2876 4000 
Q 3044 3722 3044 3409 
Q 3044 3113 2884 2869 
Q 2725 2625 2413 2481 
Q 2819 2388 3044 2092 
Q 3269 1797 3269 1353 
Q 3269 753 2831 336 
Q 2394 -81 1725 -81 
Q 1122 -81 723 278 
Q 325 638 269 1209 
z
" transform="scale(0.015625)"/>
       </defs>
       <use xlink:href="#ArialMT-33"/>
       <use xlink:href="#ArialMT-30" x="55.615234"/>
      </g>
     </g>
    </g>
    <g id="ytick_3">
     <g id="line2d_19">
      <path d="M 96.401563 372.451765 
L 542.801562 372.451765 
" clip-path="url(#p207a484176)" style="fill: none; stroke: #e2e2e2; stroke-width: 0.8; stroke-linecap: square"/>
     </g>
     <g id="line2d_20">
      <g>
       <use xlink:href="#md686ea8392" x="96.401563" y="372.451765" style="stroke: #000000; stroke-width: 0.8"/>
      </g>
     </g>
     <g id="text_8">
      <!-- 45 -->
      <g transform="translate(56.035938 383.188483)scale(0.3 -0.3)">
       <defs>
        <path id="ArialMT-35" d="M 266 1200 
L 856 1250 
Q 922 819 1161 601 
Q 1400 384 1738 384 
Q 2144 384 2425 690 
Q 2706 997 2706 1503 
Q 2706 1984 2436 2262 
Q 2166 2541 1728 2541 
Q 1456 2541 1237 2417 
Q 1019 2294 894 2097 
L 366 2166 
L 809 4519 
L 3088 4519 
L 3088 3981 
L 1259 3981 
L 1013 2750 
Q 1425 3038 1878 3038 
Q 2478 3038 2890 2622 
Q 3303 2206 3303 1553 
Q 3303 931 2941 478 
Q 2500 -78 1738 -78 
Q 1113 -78 717 272 
Q 322 622 266 1200 
z
" transform="scale(0.015625)"/>
       </defs>
       <use xlink:href="#ArialMT-34"/>
       <use xlink:href="#ArialMT-35" x="55.615234"/>
      </g>
     </g>
    </g>
    <g id="ytick_4">
     <g id="line2d_21">
      <path d="M 96.401563 268.094118 
L 542.801562 268.094118 
" clip-path="url(#p207a484176)" style="fill: none; stroke: #e2e2e2; stroke-width: 0.8; stroke-linecap: square"/>
     </g>
     <g id="line2d_22">
      <g>
       <use xlink:href="#md686ea8392" x="96.401563" y="268.094118" style="stroke: #000000; stroke-width: 0.8"/>
      </g>
     </g>
     <g id="text_9">
      <!-- 105 -->
      <g transform="translate(39.353125 278.830836)scale(0.3 -0.3)">
       <defs>
        <path id="ArialMT-31" d="M 2384 0 
L 1822 0 
L 1822 3584 
Q 1619 3391 1289 3197 
Q 959 3003 697 2906 
L 697 3450 
Q 1169 3672 1522 3987 
Q 1875 4303 2022 4600 
L 2384 4600 
L 2384 0 
z
" transform="scale(0.015625)"/>
       </defs>
       <use xlink:href="#ArialMT-31"/>
       <use xlink:href="#ArialMT-30" x="55.615234"/>
       <use xlink:href="#ArialMT-35" x="111.230469"/>
      </g>
     </g>
    </g>
    <g id="ytick_5">
     <g id="line2d_23">
      <path d="M 96.401563 189.825882 
L 542.801562 189.825882 
" clip-path="url(#p207a484176)" style="fill: none; stroke: #e2e2e2; stroke-width: 0.8; stroke-linecap: square"/>
     </g>
     <g id="line2d_24">
      <g>
       <use xlink:href="#md686ea8392" x="96.401563" y="189.825882" style="stroke: #000000; stroke-width: 0.8"/>
      </g>
     </g>
     <g id="text_10">
      <!-- 150 -->
      <g transform="translate(39.353125 200.562601)scale(0.3 -0.3)">
       <use xlink:href="#ArialMT-31"/>
       <use xlink:href="#ArialMT-35" x="55.615234"/>
       <use xlink:href="#ArialMT-30" x="111.230469"/>
      </g>
     </g>
    </g>
    <g id="ytick_6">
     <g id="line2d_25">
      <path d="M 96.401563 85.468235 
L 542.801562 85.468235 
" clip-path="url(#p207a484176)" style="fill: none; stroke: #e2e2e2; stroke-width: 0.8; stroke-linecap: square"/>
     </g>
     <g id="line2d_26">
      <g>
       <use xlink:href="#md686ea8392" x="96.401563" y="85.468235" style="stroke: #000000; stroke-width: 0.8"/>
      </g>
     </g>
     <g id="text_11">
      <!-- 210 -->
      <g transform="translate(39.353125 96.204954)scale(0.3 -0.3)">
       <use xlink:href="#ArialMT-32"/>
       <use xlink:href="#ArialMT-31" x="55.615234"/>
       <use xlink:href="#ArialMT-30" x="111.230469"/>
      </g>
     </g>
    </g>
    <g id="ytick_7">
     <g id="line2d_27">
      <path d="M 96.401563 59.378824 
L 542.801562 59.378824 
" clip-path="url(#p207a484176)" style="fill: none; stroke: #e2e2e2; stroke-width: 0.8; stroke-linecap: square"/>
     </g>
     <g id="line2d_28">
      <g>
       <use xlink:href="#md686ea8392" x="96.401563" y="59.378824" style="stroke: #000000; stroke-width: 0.8"/>
      </g>
     </g>
     <g id="text_12">
      <!-- 225 -->
      <g transform="translate(39.353125 70.115542)scale(0.3 -0.3)">
       <use xlink:href="#ArialMT-32"/>
       <use xlink:href="#ArialMT-32" x="55.615234"/>
       <use xlink:href="#ArialMT-35" x="111.230469"/>
      </g>
     </g>
    </g>
    <g id="text_13">
     <!-- DW position (nm) -->
     <g transform="translate(29.039063 344.809219)rotate(-90)scale(0.3 -0.3)">
      <defs>
       <path id="ArialMT-44" d="M 494 0 
L 494 4581 
L 2072 4581 
Q 2606 4581 2888 4516 
Q 3281 4425 3559 4188 
Q 3922 3881 4101 3404 
Q 4281 2928 4281 2316 
Q 4281 1794 4159 1391 
Q 4038 988 3847 723 
Q 3656 459 3429 307 
Q 3203 156 2883 78 
Q 2563 0 2147 0 
L 494 0 
z
M 1100 541 
L 2078 541 
Q 2531 541 2789 625 
Q 3047 709 3200 863 
Q 3416 1078 3536 1442 
Q 3656 1806 3656 2325 
Q 3656 3044 3420 3430 
Q 3184 3816 2847 3947 
Q 2603 4041 2063 4041 
L 1100 4041 
L 1100 541 
z
" transform="scale(0.015625)"/>
       <path id="ArialMT-57" d="M 1294 0 
L 78 4581 
L 700 4581 
L 1397 1578 
Q 1509 1106 1591 641 
Q 1766 1375 1797 1488 
L 2669 4581 
L 3400 4581 
L 4056 2263 
Q 4303 1400 4413 641 
Q 4500 1075 4641 1638 
L 5359 4581 
L 5969 4581 
L 4713 0 
L 4128 0 
L 3163 3491 
Q 3041 3928 3019 4028 
Q 2947 3713 2884 3491 
L 1913 0 
L 1294 0 
z
" transform="scale(0.015625)"/>
       <path id="ArialMT-70" d="M 422 -1272 
L 422 3319 
L 934 3319 
L 934 2888 
Q 1116 3141 1344 3267 
Q 1572 3394 1897 3394 
Q 2322 3394 2647 3175 
Q 2972 2956 3137 2557 
Q 3303 2159 3303 1684 
Q 3303 1175 3120 767 
Q 2938 359 2589 142 
Q 2241 -75 1856 -75 
Q 1575 -75 1351 44 
Q 1128 163 984 344 
L 984 -1272 
L 422 -1272 
z
M 931 1641 
Q 931 1000 1190 694 
Q 1450 388 1819 388 
Q 2194 388 2461 705 
Q 2728 1022 2728 1688 
Q 2728 2322 2467 2637 
Q 2206 2953 1844 2953 
Q 1484 2953 1207 2617 
Q 931 2281 931 1641 
z
" transform="scale(0.015625)"/>
       <path id="ArialMT-6f" d="M 213 1659 
Q 213 2581 725 3025 
Q 1153 3394 1769 3394 
Q 2453 3394 2887 2945 
Q 3322 2497 3322 1706 
Q 3322 1066 3130 698 
Q 2938 331 2570 128 
Q 2203 -75 1769 -75 
Q 1072 -75 642 372 
Q 213 819 213 1659 
z
M 791 1659 
Q 791 1022 1069 705 
Q 1347 388 1769 388 
Q 2188 388 2466 706 
Q 2744 1025 2744 1678 
Q 2744 2294 2464 2611 
Q 2184 2928 1769 2928 
Q 1347 2928 1069 2612 
Q 791 2297 791 1659 
z
" transform="scale(0.015625)"/>
       <path id="ArialMT-74" d="M 1650 503 
L 1731 6 
Q 1494 -44 1306 -44 
Q 1000 -44 831 53 
Q 663 150 594 308 
Q 525 466 525 972 
L 525 2881 
L 113 2881 
L 113 3319 
L 525 3319 
L 525 4141 
L 1084 4478 
L 1084 3319 
L 1650 3319 
L 1650 2881 
L 1084 2881 
L 1084 941 
Q 1084 700 1114 631 
Q 1144 563 1211 522 
Q 1278 481 1403 481 
Q 1497 481 1650 503 
z
" transform="scale(0.015625)"/>
      </defs>
      <use xlink:href="#ArialMT-44"/>
      <use xlink:href="#ArialMT-57" x="72.216797"/>
      <use xlink:href="#ArialMT-20" x="166.601562"/>
      <use xlink:href="#ArialMT-70" x="194.384766"/>
      <use xlink:href="#ArialMT-6f" x="250"/>
      <use xlink:href="#ArialMT-73" x="305.615234"/>
      <use xlink:href="#ArialMT-69" x="355.615234"/>
      <use xlink:href="#ArialMT-74" x="377.832031"/>
      <use xlink:href="#ArialMT-69" x="405.615234"/>
      <use xlink:href="#ArialMT-6f" x="427.832031"/>
      <use xlink:href="#ArialMT-6e" x="483.447266"/>
      <use xlink:href="#ArialMT-20" x="539.0625"/>
      <use xlink:href="#ArialMT-28" x="566.845703"/>
      <use xlink:href="#ArialMT-6e" x="600.146484"/>
      <use xlink:href="#ArialMT-6d" x="655.761719"/>
      <use xlink:href="#ArialMT-29" x="739.0625"/>
     </g>
    </g>
   </g>
   <g id="line2d_29">
    <path d="M 245.201562 450.72 
L 245.201562 7.2 
" clip-path="url(#p207a484176)" style="fill: none; stroke-dasharray: 16.65,7.2; stroke-dashoffset: 0; stroke: #000000; stroke-width: 4.5"/>
   </g>
   <g id="line2d_30">
    <path d="M 394.001562 450.72 
L 394.001562 7.2 
" clip-path="url(#p207a484176)" style="fill: none; stroke-dasharray: 16.65,7.2; stroke-dashoffset: 0; stroke: #000000; stroke-width: 4.5"/>
   </g>
   <g id="line2d_31">
    <path clip-path="url(#p207a484176)" style="fill: none; stroke-dasharray: 16.65,7.2; stroke-dashoffset: 0; stroke: #000000; stroke-width: 4.5"/>
   </g>
   <g id="line2d_32">
    <path clip-path="url(#p207a484176)" style="fill: none; stroke-dasharray: 16.65,7.2; stroke-dashoffset: 0; stroke: #000000; stroke-width: 4.5"/>
   </g>
   <g id="line2d_33">
    <path d="M 22.001563 268.094118 
L 559.342969 268.094118 
" clip-path="url(#p207a484176)" style="fill: none; stroke-dasharray: 4.5,7.425; stroke-dashoffset: 0; stroke: #ff0000; stroke-width: 4.5"/>
   </g>
   <g id="line2d_34">
    <path d="M 22.001563 189.825882 
L 559.342969 189.825882 
" clip-path="url(#p207a484176)" style="fill: none; stroke-dasharray: 4.5,7.425; stroke-dashoffset: 0; stroke: #ff0000; stroke-width: 4.5"/>
   </g>
   <g id="line2d_35">
    <path d="M 22.001563 398.541176 
L 559.342969 398.541176 
" clip-path="url(#p207a484176)" style="fill: none; stroke-dasharray: 4.5,7.425; stroke-dashoffset: 0; stroke: #008000; stroke-width: 4.5"/>
   </g>
   <g id="line2d_36">
    <path d="M 22.001563 372.451765 
L 559.342969 372.451765 
" clip-path="url(#p207a484176)" style="fill: none; stroke-dasharray: 4.5,7.425; stroke-dashoffset: 0; stroke: #008000; stroke-width: 4.5"/>
   </g>
   <g id="line2d_37">
    <path d="M 22.001563 85.468235 
L 559.342969 85.468235 
" clip-path="url(#p207a484176)" style="fill: none; stroke-dasharray: 4.5,7.425; stroke-dashoffset: 0; stroke: #008000; stroke-width: 4.5"/>
   </g>
   <g id="line2d_38">
    <path d="M 22.001563 59.378824 
L 559.342969 59.378824 
" clip-path="url(#p207a484176)" style="fill: none; stroke-dasharray: 4.5,7.425; stroke-dashoffset: 0; stroke: #008000; stroke-width: 4.5"/>
   </g>
   <g id="line2d_39">
    <path d="M 22.001563 381.446202 
L 28.70022 381.327171 
L 50.274288 380.715494 
L 59.2041 380.867549 
L 75.570735 381.201734 
L 85.241804 381.12596 
L 106.07726 380.878726 
L 122.443589 381.044367 
L 136.579475 381.083302 
L 173.036265 381.001352 
L 196.841562 381.025561 
L 231.066709 381.012045 
L 248.921563 381.020134 
L 254.131485 375.19531 
L 261.571545 365.207649 
L 266.036307 359.634649 
L 269.756273 355.169624 
L 272.731434 351.236931 
L 274.22102 348.998784 
L 276.451402 345.225013 
L 278.681563 340.994998 
L 282.401563 333.09098 
L 289.841563 316.846797 
L 299.515967 297.288938 
L 304.721563 286.742351 
L 308.441562 279.79881 
L 310.676172 276.052865 
L 312.90667 272.767093 
L 315.141217 269.945496 
L 317.371648 267.549245 
L 319.605539 265.448304 
L 322.581452 262.952606 
L 332.251603 255.095468 
L 335.226761 252.342509 
L 338.205527 249.321903 
L 341.181256 246.03042 
L 344.901257 241.559824 
L 349.365529 235.78566 
L 354.571664 228.643228 
L 360.525538 220.06819 
L 375.405541 198.373246 
L 379.86685 192.320074 
L 385.076641 185.633034 
L 391.026879 178.011389 
L 394.746887 173.18245 
L 397.725557 170.213435 
L 399.957418 167.667497 
L 402.931933 163.807806 
L 411.85849 151.349237 
L 420.786936 139.990321 
L 423.018584 136.659833 
L 425.25205 132.861624 
L 427.48498 128.5016 
L 429.717344 123.563775 
L 433.437265 114.603181 
L 447.571172 79.686269 
L 452.036484 68.311751 
L 454.266772 63.269947 
L 455.75639 60.329546 
L 457.245519 57.758458 
L 458.731462 55.544555 
L 460.221056 53.650288 
L 461.706649 52.055446 
L 463.196268 50.72164 
L 464.685513 49.6285 
L 466.171493 48.758395 
L 467.661139 48.092093 
L 469.146717 47.620496 
L 470.636373 47.331909 
L 472.125523 47.220184 
L 473.611567 47.277129 
L 475.101222 47.496501 
L 476.586738 47.871592 
L 478.821198 48.719142 
L 481.051535 49.896613 
L 483.285519 51.410583 
L 485.516328 53.2723 
L 487.746694 55.512482 
L 489.981138 58.169055 
L 492.211516 61.250152 
L 494.445518 64.732917 
L 501.141147 75.702138 
L 503.371512 78.688148 
L 504.861141 80.362297 
L 506.346698 81.765417 
L 507.836324 82.905193 
L 509.325518 83.781457 
L 510.811518 84.400201 
L 512.301152 84.772259 
L 513.786705 84.904656 
L 515.276343 84.807565 
L 516.765519 84.490309 
L 518.251531 83.96444 
L 519.741174 83.237988 
L 521.226713 82.325825 
L 523.461179 80.627499 
L 525.691545 78.585056 
L 528.666723 75.44298 
L 534.621184 68.901821 
L 536.851544 66.918243 
L 538.34118 65.861577 
L 539.82672 65.050403 
L 541.316358 64.491569 
L 542.805521 64.19003 
L 544.291535 64.141019 
L 545.781172 64.334803 
L 547.266886 64.756117 
L 548.756521 65.388233 
L 550.987052 66.672175 
L 553.217584 68.261078 
L 559.342969 72.998305 
L 559.342969 72.998305 
" clip-path="url(#p207a484176)" style="fill: none; stroke: #1f77b4; stroke-width: 4.5; stroke-linecap: square"/>
   </g>
   <g id="line2d_40">
    <path d="M 22.001563 381.470815 
L 28.70022 381.345078 
L 49.53345 380.69761 
L 57.714333 380.819337 
L 76.315551 381.21457 
L 85.986644 381.119313 
L 105.332446 380.869683 
L 119.468238 381.010985 
L 134.348937 381.096703 
L 182.706704 381.044493 
L 208.001563 380.987202 
L 239.996348 381.025727 
L 248.921563 381.020802 
L 254.131485 375.137733 
L 261.571545 364.993661 
L 266.036307 359.32917 
L 269.756273 354.739233 
L 272.731434 350.621552 
L 274.22102 348.259088 
L 276.451402 344.275956 
L 278.681563 339.867372 
L 283.146566 330.182317 
L 286.866541 322.005832 
L 291.33127 313.049333 
L 295.796002 304.285357 
L 306.211224 283.663872 
L 309.186521 278.36023 
L 311.421003 274.787882 
L 313.651518 271.681767 
L 315.885526 269.035011 
L 318.116516 266.788819 
L 320.346833 264.839125 
L 323.325544 262.551967 
L 328.531642 258.931212 
L 332.996435 255.7594 
L 336.71642 252.821417 
L 339.691592 250.186882 
L 342.666757 247.262331 
L 345.645528 244.033646 
L 348.621278 240.517073 
L 352.341324 235.756923 
L 356.805539 229.615584 
L 361.266793 223.110264 
L 366.476467 215.109566 
L 379.125545 195.392489 
L 382.845547 190.098102 
L 387.306872 184.170043 
L 394.005554 175.401919 
L 397.725557 172.079644 
L 399.957418 169.794143 
L 402.186864 167.20897 
L 404.418154 164.288252 
L 408.885224 157.897189 
L 411.85849 153.749019 
L 415.578518 148.983838 
L 420.786936 142.474764 
L 423.018584 139.417208 
L 425.25205 136.000343 
L 427.48498 132.110691 
L 429.717344 127.6346 
L 431.946682 122.619457 
L 436.412009 111.781112 
L 446.081918 88.185273 
L 451.291636 74.756459 
L 454.266772 67.333157 
L 456.501184 62.414603 
L 457.986674 59.582929 
L 459.476256 57.10914 
L 460.965511 54.983087 
L 462.451458 53.177599 
L 463.94108 51.65329 
L 465.426672 50.390677 
L 466.916312 49.359373 
L 468.405519 48.54441 
L 469.891545 47.932626 
L 471.381201 47.51066 
L 472.866737 47.271161 
L 474.356395 47.204812 
L 475.845524 47.305983 
L 477.331561 47.567419 
L 479.565522 48.24908 
L 481.79635 49.264989 
L 484.026702 50.610913 
L 486.26114 52.299799 
L 488.491508 54.348755 
L 490.725518 56.79701 
L 492.956331 59.66614 
L 495.186703 62.955821 
L 498.165518 67.855417 
L 501.885519 74.027802 
L 504.116327 77.273805 
L 505.605518 79.141723 
L 507.091511 80.74403 
L 508.58114 82.082452 
L 510.066702 83.15138 
L 511.556333 83.961859 
L 513.045519 84.517605 
L 514.531524 84.826739 
L 516.02116 84.899623 
L 517.506711 84.745625 
L 518.996351 84.373708 
L 520.485521 83.79457 
L 521.971535 83.020605 
L 523.461179 82.05951 
L 525.691545 80.301012 
L 527.925522 78.201747 
L 530.901185 75.011937 
L 536.106725 69.262976 
L 538.34118 67.206636 
L 539.82672 66.096781 
L 541.316358 65.22259 
L 542.805521 64.601718 
L 544.291535 64.238518 
L 545.781172 64.128521 
L 547.266886 64.263822 
L 548.756521 64.632009 
L 550.242236 65.213453 
L 551.73187 65.988137 
L 553.962398 67.441573 
L 556.937742 69.724097 
L 559.342969 71.627346 
L 559.342969 71.627346 
" clip-path="url(#p207a484176)" style="fill: none; stroke: #ff7f0e; stroke-width: 4.5; stroke-linecap: square"/>
   </g>
   <g id="line2d_41">
    <path d="M 22.001563 381.419202 
L 28.70022 381.307569 
L 50.274288 380.733469 
L 59.2041 380.876221 
L 75.570735 381.189796 
L 85.986644 381.106855 
L 106.07726 380.886654 
L 123.933226 381.055647 
L 138.81001 381.066456 
L 168.571345 380.978583 
L 198.331529 381.019304 
L 231.066709 381.011729 
L 248.921563 381.019397 
L 254.131485 375.162014 
L 263.061166 362.903375 
L 271.241563 352.157604 
L 273.476228 348.794876 
L 275.706608 344.861917 
L 277.940981 340.507608 
L 280.916166 334.028315 
L 289.100884 315.937167 
L 293.561563 306.861109 
L 304.721563 284.058671 
L 307.700834 278.609233 
L 309.931342 274.926343 
L 312.161562 271.69806 
L 314.396366 268.887542 
L 316.626783 266.42556 
L 319.605539 263.467137 
L 332.996435 250.707202 
L 337.461253 245.892086 
L 341.181256 241.563258 
L 344.901257 236.918444 
L 349.365529 230.960309 
L 355.316527 222.593098 
L 374.66142 195.099125 
L 381.356611 186.204485 
L 389.537639 175.420639 
L 392.516685 171.120113 
L 394.005554 168.804892 
L 397.725557 164.53883 
L 400.698582 160.719511 
L 405.907025 153.956794 
L 409.626955 149.608177 
L 416.325168 141.935546 
L 418.557277 139.022242 
L 420.786936 135.727567 
L 423.018584 131.936849 
L 425.25205 127.542477 
L 427.48498 122.593991 
L 431.946682 111.90035 
L 443.106738 84.811766 
L 450.546789 66.113275 
L 452.78133 61.41591 
L 454.266772 58.742237 
L 455.75639 56.422702 
L 457.245519 54.440283 
L 458.731462 52.767317 
L 460.221056 51.367218 
L 461.706649 50.220427 
L 463.196268 49.298394 
L 464.685513 48.587998 
L 466.171493 48.076871 
L 467.661139 47.751755 
L 469.146717 47.605184 
L 470.636373 47.629274 
L 472.125523 47.818094 
L 473.611567 48.164249 
L 475.845524 48.971803 
L 478.076381 50.115925 
L 480.30672 51.598893 
L 482.541165 53.442013 
L 484.771517 55.66578 
L 487.005518 58.31015 
L 489.236323 61.382126 
L 491.4667 64.848145 
L 498.165518 75.757378 
L 500.396333 78.714803 
L 501.885519 80.369388 
L 503.371512 81.754443 
L 504.861141 82.876257 
L 506.346698 83.733605 
L 507.836324 84.337934 
L 509.325518 84.694404 
L 510.811518 84.81222 
L 512.301152 84.701371 
L 513.786705 84.372256 
L 515.276343 83.833287 
L 516.765519 83.096022 
L 518.251531 82.173563 
L 520.485521 80.462769 
L 522.716359 78.410771 
L 525.691545 75.265768 
L 530.901185 69.514554 
L 533.131542 67.428543 
L 534.621184 66.284949 
L 536.106725 65.378448 
L 537.596362 64.719873 
L 539.085521 64.317749 
L 540.571538 64.170059 
L 542.061177 64.26857 
L 543.546717 64.600335 
L 545.036354 65.150112 
L 546.522069 65.892862 
L 548.756521 67.31184 
L 551.73187 69.56542 
L 556.196845 72.991591 
L 558.427373 74.416213 
L 559.342969 74.908512 
L 559.342969 74.908512 
" clip-path="url(#p207a484176)" style="fill: none; stroke: #2ca02c; stroke-width: 4.5; stroke-linecap: square"/>
   </g>
   <g id="line2d_42">
    <path d="M 22.001563 381.468132 
L 28.70022 381.343165 
L 49.53345 380.699385 
L 57.714333 380.820513 
L 76.315551 381.213365 
L 85.986644 381.118666 
L 105.332446 380.870499 
L 119.468238 381.010962 
L 134.348937 381.096185 
L 182.706704 381.044272 
L 208.001563 380.987294 
L 240.741163 381.025905 
L 248.921563 381.02071 
L 254.131485 375.173511 
L 260.826721 366.129134 
L 265.2915 360.45459 
L 271.986641 352.046225 
L 274.22102 348.75188 
L 276.451402 344.971926 
L 278.681563 340.778417 
L 282.401563 333.01374 
L 288.356104 320.346499 
L 291.33127 314.602365 
L 295.796002 306.133581 
L 307.700834 282.891409 
L 310.676172 277.872674 
L 312.90667 274.532991 
L 315.141217 271.607597 
L 317.371648 269.106773 
L 319.605539 266.926505 
L 322.581452 264.384997 
L 327.045543 260.929567 
L 332.996435 256.283484 
L 336.71642 253.083056 
L 339.691592 250.271046 
L 342.666757 247.196878 
L 345.645528 243.837565 
L 349.365529 239.255499 
L 353.085533 234.298859 
L 357.546833 227.984559 
L 370.941373 208.361335 
L 391.771779 178.037149 
L 394.005554 174.809042 
L 398.467091 170.446526 
L 400.698582 167.919465 
L 402.931933 165.096811 
L 405.907025 160.900051 
L 411.117258 153.525329 
L 414.837287 148.778248 
L 420.045121 142.250453 
L 422.277311 139.164699 
L 424.506838 135.723908 
L 426.738563 131.789412 
L 428.972107 127.268769 
L 431.204684 122.204566 
L 436.412009 109.550386 
L 445.339654 87.749549 
L 454.266772 65.220032 
L 456.501184 60.62715 
L 457.986674 58.017 
L 459.476256 55.766846 
L 460.965511 53.839078 
L 462.451458 52.213357 
L 463.94108 50.852016 
L 465.426672 49.736008 
L 466.916312 48.840223 
L 468.405519 48.151504 
L 469.891545 47.658203 
L 471.381201 47.348778 
L 472.866737 47.216404 
L 474.356395 47.252763 
L 475.845524 47.452131 
L 477.331561 47.807626 
L 479.565522 48.625092 
L 481.79635 49.772888 
L 484.026702 51.252423 
L 486.26114 53.082782 
L 488.491508 55.285423 
L 490.725518 57.900903 
L 492.956331 60.941993 
L 495.186703 64.384798 
L 502.626701 76.461676 
L 504.116327 78.431088 
L 505.605518 80.14255 
L 507.091511 81.584456 
L 508.58114 82.76237 
L 510.066702 83.674065 
L 511.556333 84.331066 
L 513.045519 84.73829 
L 514.531524 84.904665 
L 516.02116 84.840244 
L 517.506711 84.555261 
L 518.996351 84.058213 
L 520.485521 83.360344 
L 521.971535 82.474663 
L 524.205521 80.813466 
L 526.436368 78.8021 
L 528.666723 76.504274 
L 536.106725 68.403143 
L 537.596362 67.096282 
L 539.085521 66.005751 
L 540.571538 65.157556 
L 542.061177 64.560869 
L 543.546717 64.222147 
L 545.036354 64.135988 
L 546.522069 64.294058 
L 548.011705 64.68359 
L 549.501337 65.286219 
L 550.987052 66.07598 
L 553.217584 67.54862 
L 556.196845 69.845501 
L 559.342969 72.304239 
L 559.342969 72.304239 
" clip-path="url(#p207a484176)" style="fill: none; stroke: #d62728; stroke-width: 4.5; stroke-linecap: square"/>
   </g>
   <g id="line2d_43">
    <path d="M 22.001563 381.419202 
L 28.70022 381.307569 
L 50.274288 380.733469 
L 59.2041 380.876221 
L 75.570735 381.189796 
L 85.986644 381.106855 
L 106.07726 380.886654 
L 123.933226 381.055647 
L 138.81001 381.066456 
L 168.571345 380.978583 
L 198.331529 381.019304 
L 231.066709 381.011729 
L 248.921563 381.019397 
L 254.131485 375.250297 
L 263.061166 363.366645 
L 269.011466 355.582372 
L 271.986641 351.198544 
L 273.476228 348.769226 
L 275.706608 344.625791 
L 277.940981 340.101583 
L 281.660956 331.830807 
L 287.611324 318.607827 
L 303.235963 286.4972 
L 306.211224 280.842285 
L 308.441562 276.967268 
L 310.676172 273.492491 
L 312.90667 270.485931 
L 315.141217 267.878774 
L 317.371648 265.596064 
L 320.346833 262.85471 
L 326.301451 257.807223 
L 332.251603 252.687773 
L 336.71642 248.535977 
L 340.436423 244.779197 
L 344.156423 240.731578 
L 348.621278 235.53886 
L 353.826804 229.148389 
L 359.78142 221.485014 
L 364.245531 215.413017 
L 370.196511 206.878889 
L 380.611731 191.450066 
L 389.537639 177.933633 
L 393.257667 171.896429 
L 394.005554 170.620064 
L 397.725557 165.908124 
L 399.957418 162.785508 
L 406.652149 153.137337 
L 410.372109 148.323608 
L 415.578518 141.638575 
L 417.812107 138.447859 
L 420.045121 134.866789 
L 422.277311 130.776556 
L 424.506838 126.100479 
L 427.48498 119.119763 
L 441.618503 84.37297 
L 448.316526 67.280336 
L 450.546789 62.367719 
L 452.036484 59.527513 
L 453.525533 57.054015 
L 455.011586 54.93105 
L 456.501184 53.118894 
L 457.986674 51.596345 
L 459.476256 50.326921 
L 460.965511 49.292033 
L 462.451458 48.47459 
L 463.94108 47.85682 
L 465.426672 47.430821 
L 466.916312 47.185615 
L 468.405519 47.114612 
L 469.891545 47.210262 
L 471.381201 47.466979 
L 473.611567 48.139604 
L 475.845524 49.147445 
L 478.076381 50.483148 
L 480.30672 52.155317 
L 482.541165 54.191492 
L 484.771517 56.616101 
L 487.005518 59.467622 
L 489.236323 62.738201 
L 492.211516 67.618455 
L 495.931518 73.816151 
L 498.165518 77.100478 
L 499.651515 78.990083 
L 501.141147 80.622835 
L 502.626701 81.98415 
L 504.116327 83.082252 
L 505.605518 83.917726 
L 507.091511 84.496956 
L 508.58114 84.83068 
L 510.066702 84.926218 
L 511.556333 84.793691 
L 513.045519 84.442568 
L 514.531524 83.884448 
L 516.02116 83.12733 
L 517.506711 82.186353 
L 519.741174 80.448356 
L 521.971535 78.372022 
L 524.946722 75.198613 
L 530.156365 69.422107 
L 532.386722 67.338135 
L 533.876364 66.199578 
L 535.365522 65.298424 
L 536.851544 64.650505 
L 538.34118 64.25819 
L 539.82672 64.121101 
L 541.316358 64.230568 
L 542.805521 64.574538 
L 544.291535 65.134316 
L 545.781172 65.890177 
L 548.011705 67.322383 
L 550.987052 69.593197 
L 555.452032 73.033857 
L 557.682556 74.460185 
L 559.342969 75.312059 
L 559.342969 75.312059 
" clip-path="url(#p207a484176)" style="fill: none; stroke: #9467bd; stroke-width: 4.5; stroke-linecap: square"/>
   </g>
   <g id="line2d_44">
    <path d="M 22.001563 381.470815 
L 28.70022 381.345069 
L 49.53345 380.69761 
L 57.714333 380.819314 
L 76.315551 381.21457 
L 85.986644 381.119313 
L 105.332446 380.869692 
L 119.468238 381.010985 
L 134.348937 381.096703 
L 182.706704 381.044493 
L 208.001563 380.987179 
L 240.741163 381.026002 
L 248.921563 381.020802 
L 254.131485 375.165434 
L 261.571545 365.118488 
L 266.781112 358.553002 
L 269.011466 355.810962 
L 271.986641 351.793022 
L 273.476228 349.581839 
L 275.706608 345.787695 
L 277.940981 341.58734 
L 280.916166 335.345768 
L 289.841563 316.333065 
L 295.796002 304.655387 
L 304.721563 286.670011 
L 308.441562 279.893148 
L 310.676172 276.216706 
L 312.90667 272.978552 
L 315.141217 270.182129 
L 317.371648 267.792754 
L 319.605539 265.685815 
L 322.581452 263.177444 
L 335.97159 252.302463 
L 339.691592 248.858404 
L 343.411589 245.148373 
L 347.1316 241.156674 
L 351.59647 236.016181 
L 357.546833 228.786583 
L 363.501297 221.224035 
L 367.965533 215.147367 
L 372.426821 208.663989 
L 378.381472 199.594335 
L 392.516685 177.483457 
L 394.005554 175.087403 
L 398.467091 169.990821 
L 400.698582 167.097851 
L 403.677001 162.822404 
L 409.626955 153.847461 
L 412.605244 149.764003 
L 419.298527 140.780683 
L 421.532113 137.394869 
L 423.764939 133.595992 
L 425.997261 129.247094 
L 428.226879 124.335758 
L 431.946682 115.328257 
L 446.081918 80.145306 
L 451.291636 66.903678 
L 453.525533 62.014544 
L 455.011586 59.20651 
L 456.501184 56.757694 
L 457.986674 54.656783 
L 459.476256 52.862025 
L 460.965511 51.350586 
L 462.451458 50.096131 
L 463.94108 49.069329 
L 465.426672 48.258697 
L 466.916312 47.646782 
L 468.405519 47.224816 
L 469.891545 46.984288 
L 471.381201 46.917516 
L 472.866737 47.017428 
L 474.356395 47.277597 
L 476.586738 47.954902 
L 478.821198 48.966156 
L 481.051535 50.301341 
L 483.285519 51.973187 
L 485.516328 53.99777 
L 487.746694 56.410235 
L 489.981138 59.246907 
L 492.211516 62.502474 
L 495.186703 67.376275 
L 498.906701 73.607749 
L 501.141147 76.931461 
L 502.626701 78.8497 
L 504.116327 80.512386 
L 505.605518 81.906464 
L 507.091511 83.030769 
L 508.58114 83.894925 
L 510.066702 84.501265 
L 511.556333 84.861376 
L 513.045519 84.98226 
L 514.531524 84.87389 
L 516.02116 84.545582 
L 517.506711 84.009388 
L 518.996351 83.272782 
L 520.485521 82.348398 
L 522.716359 80.638575 
L 524.946722 78.583074 
L 527.925522 75.42128 
L 533.876364 68.864817 
L 536.106725 66.87995 
L 537.596362 65.824036 
L 539.085521 65.01293 
L 540.571538 64.458341 
L 542.061177 64.159921 
L 543.546717 64.11459 
L 545.036354 64.312333 
L 546.522069 64.737964 
L 548.011705 65.3746 
L 550.242236 66.665594 
L 552.476689 68.264616 
L 559.342969 73.524599 
L 559.342969 73.524599 
" clip-path="url(#p207a484176)" style="fill: none; stroke: #8c564b; stroke-width: 4.5; stroke-linecap: square"/>
   </g>
   <g id="line2d_45">
    <path d="M 22.001563 381.470815 
L 28.70022 381.345078 
L 49.53345 380.69761 
L 57.714333 380.819337 
L 76.315551 381.21457 
L 85.986644 381.119313 
L 105.332446 380.869683 
L 119.468238 381.010985 
L 134.348937 381.096703 
L 182.706704 381.044493 
L 208.001563 380.987202 
L 239.996348 381.025727 
L 248.921563 381.020802 
L 254.131485 375.134944 
L 262.316361 363.975873 
L 268.266664 356.112134 
L 271.241563 351.744066 
L 273.476228 348.113278 
L 275.706608 343.920007 
L 278.681563 337.776683 
L 284.63614 324.372901 
L 287.611324 317.90237 
L 293.561563 305.733407 
L 303.980756 284.757231 
L 306.956028 279.270676 
L 309.186521 275.504358 
L 311.421003 272.154401 
L 313.651518 269.251345 
L 315.885526 266.729472 
L 318.861385 263.806281 
L 322.581452 260.548108 
L 330.021312 254.104665 
L 333.741263 250.516153 
L 337.461253 246.582815 
L 341.181256 242.331915 
L 346.386763 236.024024 
L 362.011624 216.584414 
L 366.476467 210.577331 
L 370.941373 204.141231 
L 376.891714 195.078198 
L 394.746887 167.7427 
L 399.212224 162.391169 
L 406.652149 152.93327 
L 411.117258 147.919222 
L 415.578518 142.907374 
L 417.812107 140.13136 
L 420.045121 137.016464 
L 422.277311 133.449028 
L 424.506838 129.316614 
L 426.738563 124.583269 
L 429.717344 117.617906 
L 437.157417 99.843605 
L 442.364453 87.090421 
L 450.546789 66.48539 
L 452.78133 61.737973 
L 454.266772 59.02802 
L 455.75639 56.673884 
L 457.245519 54.660079 
L 458.731462 52.959241 
L 460.221056 51.534582 
L 461.706649 50.366329 
L 463.196268 49.425191 
L 464.685513 48.697626 
L 466.171493 48.171001 
L 467.661139 47.8317 
L 469.146717 47.672109 
L 470.636373 47.684116 
L 472.125523 47.861774 
L 473.611567 48.197722 
L 475.845524 48.991403 
L 478.076381 50.123301 
L 480.30672 51.595294 
L 482.541165 53.428243 
L 484.771517 55.642331 
L 487.005518 58.277232 
L 489.236323 61.340113 
L 491.4667 64.798327 
L 498.165518 75.705525 
L 500.396333 78.668688 
L 501.885519 80.327641 
L 503.371512 81.717245 
L 504.861141 82.843569 
L 506.346698 83.705338 
L 507.836324 84.313964 
L 509.325518 84.674582 
L 510.811518 84.796411 
L 512.301152 84.68941 
L 513.786705 84.36395 
L 515.276343 83.828482 
L 516.765519 83.094513 
L 518.251531 82.175176 
L 520.485521 80.468715 
L 522.716359 78.420533 
L 525.691545 75.279628 
L 530.901185 69.530543 
L 533.131542 67.443085 
L 534.621184 66.297923 
L 536.106725 65.389496 
L 537.596362 64.728722 
L 539.085521 64.324331 
L 540.571538 64.174302 
L 542.061177 64.270471 
L 543.546717 64.599943 
L 545.036354 65.147517 
L 546.522069 65.888165 
L 548.756521 67.304442 
L 551.73187 69.555462 
L 556.196845 72.980739 
L 558.427373 74.40605 
L 559.342969 74.898809 
L 559.342969 74.898809 
" clip-path="url(#p207a484176)" style="fill: none; stroke: #e377c2; stroke-width: 4.5; stroke-linecap: square"/>
   </g>
   <g id="line2d_46">
    <path d="M 22.001563 381.470815 
L 28.70022 381.345069 
L 49.53345 380.69761 
L 57.714333 380.819314 
L 76.315551 381.21457 
L 85.986644 381.119313 
L 105.332446 380.869692 
L 119.468238 381.010985 
L 134.348937 381.096703 
L 182.706704 381.044493 
L 208.001563 380.987202 
L 239.996348 381.025727 
L 248.921563 381.020802 
L 253.386616 376.042975 
L 258.596337 368.816058 
L 261.571545 364.604243 
L 266.781112 357.867094 
L 269.011466 355.023699 
L 271.986641 350.824483 
L 274.22102 347.249273 
L 276.451402 343.159911 
L 278.681563 338.697488 
L 283.891354 327.384347 
L 286.866541 320.942884 
L 291.33127 312.041037 
L 297.281563 300.396044 
L 305.466424 284.609939 
L 309.186521 278.035722 
L 311.421003 274.502386 
L 313.651518 271.407273 
L 315.885526 268.739937 
L 318.116516 266.435091 
L 321.091703 263.740827 
L 325.556581 260.091058 
L 331.506772 255.203477 
L 335.226761 251.856774 
L 338.946758 248.191344 
L 342.666757 244.197036 
L 347.1316 239.02364 
L 351.59647 233.517445 
L 356.805539 226.757602 
L 363.501297 217.68953 
L 367.965533 211.312609 
L 372.426821 204.565624 
L 393.257667 172.108343 
L 394.005554 170.865662 
L 398.467091 165.498603 
L 401.445206 161.443085 
L 407.397287 153.221417 
L 411.117258 148.601156 
L 416.325168 142.216092 
L 418.557277 139.183064 
L 420.786936 135.785055 
L 423.018584 131.90169 
L 425.25205 127.422094 
L 427.48498 122.399334 
L 432.691957 109.794015 
L 442.364453 86.177006 
L 449.805534 67.249363 
L 452.036484 62.360644 
L 453.525533 59.53693 
L 455.011586 57.085133 
L 456.501184 54.972963 
L 457.986674 53.180954 
L 459.476256 51.669676 
L 460.965511 50.416776 
L 462.451458 49.400127 
L 463.94108 48.596378 
L 465.426672 47.996015 
L 466.916312 47.584628 
L 468.405519 47.354577 
L 469.891545 47.297956 
L 471.381201 47.408135 
L 472.866737 47.677695 
L 475.101222 48.371348 
L 477.331561 49.39911 
L 479.565522 50.760375 
L 481.79635 52.462176 
L 484.026702 54.529281 
L 486.26114 56.999558 
L 488.491508 59.89136 
L 490.725518 63.207894 
L 493.701144 68.115096 
L 497.421147 74.256668 
L 499.651515 77.463816 
L 501.141147 79.30352 
L 502.626701 80.875897 
L 504.116327 82.184809 
L 505.605518 83.22715 
L 507.091511 84.007351 
L 508.58114 84.53608 
L 510.066702 84.818995 
L 511.556333 84.866884 
L 513.045519 84.68835 
L 514.531524 84.294407 
L 516.02116 83.693524 
L 517.506711 82.899609 
L 518.996351 81.919577 
L 521.226713 80.135751 
L 523.461179 78.015367 
L 526.436368 74.810571 
L 531.645522 69.08715 
L 533.876364 67.070114 
L 535.365522 65.986337 
L 536.851544 65.145033 
L 538.34118 64.555142 
L 539.82672 64.222939 
L 541.316358 64.142902 
L 542.805521 64.30716 
L 544.291535 64.700938 
L 545.781172 65.307751 
L 547.266886 66.10083 
L 549.501337 67.57936 
L 552.476689 69.87334 
L 556.196845 72.747663 
L 558.427373 74.220279 
L 559.342969 74.73552 
L 559.342969 74.73552 
" clip-path="url(#p207a484176)" style="fill: none; stroke: #7f7f7f; stroke-width: 4.5; stroke-linecap: square"/>
   </g>
   <g id="line2d_47">
    <path d="M 22.001563 381.470815 
L 28.70022 381.345069 
L 49.53345 380.69761 
L 57.714333 380.819337 
L 76.315551 381.214593 
L 85.986644 381.119313 
L 105.332446 380.869683 
L 119.468238 381.010985 
L 134.348937 381.096703 
L 182.706704 381.044493 
L 208.001563 380.987202 
L 239.996348 381.025727 
L 248.921563 381.020802 
L 254.131485 375.161262 
L 257.106691 371.245404 
L 263.061166 363.716264 
L 267.521563 358.762902 
L 270.501076 355.445873 
L 272.731434 352.797199 
L 274.22102 350.79026 
L 276.451402 347.364488 
L 277.940981 344.812715 
L 280.171379 340.470594 
L 283.891354 332.629592 
L 286.866541 326.317746 
L 290.586494 319.12886 
L 298.771189 304.626925 
L 302.491177 297.215358 
L 309.186521 283.59432 
L 312.161562 278.050501 
L 314.396366 274.294583 
L 316.626783 270.980322 
L 318.861385 268.053177 
L 321.091703 265.455538 
L 324.066841 262.3405 
L 327.786806 258.831961 
L 332.251603 254.968637 
L 344.901257 244.315855 
L 348.621278 240.734852 
L 351.59647 237.598478 
L 355.316527 233.313914 
L 359.036574 228.655121 
L 363.501297 222.676492 
L 370.196511 213.255585 
L 377.636595 202.433086 
L 391.026879 182.742856 
L 394.005554 178.465662 
L 399.957418 172.764628 
L 402.931933 169.403024 
L 405.165593 166.501187 
L 408.138508 162.235224 
L 414.092127 153.39318 
L 417.812107 148.420451 
L 423.018584 141.540394 
L 425.25205 138.262178 
L 427.48498 134.604991 
L 429.717344 130.423669 
L 431.946682 125.668781 
L 434.924546 118.605882 
L 449.061353 83.676024 
L 455.011586 68.382886 
L 457.245519 63.30056 
L 458.731462 60.343043 
L 460.221056 57.746728 
L 461.706649 55.511316 
L 463.196268 53.594564 
L 464.685513 51.97298 
L 466.171493 50.620477 
L 467.661139 49.505127 
L 469.146717 48.612602 
L 470.636373 47.923882 
L 472.125523 47.430176 
L 473.611567 47.12164 
L 475.101222 46.989301 
L 476.586738 47.027255 
L 478.076381 47.22848 
L 479.565522 47.586416 
L 481.79635 48.405868 
L 484.026702 49.55433 
L 486.26114 51.034607 
L 488.491508 52.855467 
L 490.725518 55.049926 
L 492.956331 57.646034 
L 495.186703 60.668102 
L 497.421147 64.1033 
L 504.861141 76.251868 
L 507.091511 79.155505 
L 508.58114 80.769599 
L 510.066702 82.111731 
L 511.556333 83.190728 
L 513.045519 84.00742 
L 514.531524 84.568291 
L 516.02116 84.884122 
L 517.506711 84.962466 
L 518.996351 84.813292 
L 520.485521 84.446105 
L 521.971535 83.872695 
L 523.461179 83.100954 
L 524.946722 82.146076 
L 527.18119 80.388723 
L 529.411542 78.295372 
L 532.386722 75.10491 
L 537.596362 69.326859 
L 539.82672 67.25524 
L 541.316358 66.128123 
L 542.805521 65.240036 
L 544.291535 64.606096 
L 545.781172 64.228217 
L 547.266886 64.10551 
L 548.756521 64.229153 
L 550.242236 64.585662 
L 551.73187 65.159344 
L 553.217584 65.924552 
L 555.452032 67.373427 
L 558.427373 69.655806 
L 559.342969 70.389021 
L 559.342969 70.389021 
" clip-path="url(#p207a484176)" style="fill: none; stroke: #bcbd22; stroke-width: 4.5; stroke-linecap: square"/>
   </g>
   <g id="line2d_48">
    <path d="M 22.001563 381.419202 
L 28.70022 381.307569 
L 50.274288 380.733492 
L 59.2041 380.876221 
L 75.570735 381.189796 
L 85.986644 381.106855 
L 106.07726 380.886654 
L 123.933226 381.055647 
L 138.81001 381.066456 
L 168.571345 380.978583 
L 198.331529 381.019304 
L 231.066709 381.011729 
L 248.921563 381.019397 
L 253.386616 375.930296 
L 259.341153 367.44658 
L 261.571545 364.343926 
L 265.2915 359.703056 
L 272.731434 350.854189 
L 274.22102 348.71841 
L 276.451402 345.08236 
L 278.681563 340.974723 
L 282.401563 333.311467 
L 287.611324 322.499246 
L 290.586494 316.892349 
L 296.540782 306.307294 
L 301.001563 297.623275 
L 308.441562 283.084852 
L 311.421003 277.860125 
L 313.651518 274.358434 
L 315.885526 271.26179 
L 318.116516 268.549688 
L 321.091703 265.361455 
L 325.556581 261.045005 
L 331.506772 255.338483 
L 335.97159 250.729139 
L 340.436423 245.77564 
L 345.645528 239.630403 
L 350.851624 233.157636 
L 359.036574 222.545611 
L 366.476467 213.063021 
L 376.146837 200.832638 
L 379.86685 195.751741 
L 383.58686 190.323447 
L 388.051767 183.393077 
L 393.257667 174.874127 
L 394.005554 173.606886 
L 399.212224 167.201768 
L 402.186864 162.980197 
L 409.626955 152.006469 
L 414.092127 146.142706 
L 417.812107 141.141451 
L 420.045121 137.817462 
L 422.277311 134.095629 
L 424.506838 129.84347 
L 426.738563 125.006525 
L 429.717344 117.89523 
L 437.157417 99.743923 
L 442.364453 86.747605 
L 450.546789 65.926289 
L 452.78133 61.18636 
L 454.266772 58.486901 
L 455.75639 56.140753 
L 457.245519 54.132495 
L 458.731462 52.425953 
L 460.221056 50.992051 
L 461.706649 49.80712 
L 463.196268 48.84929 
L 464.685513 48.098492 
L 466.171493 47.547077 
L 467.661139 47.182034 
L 469.146717 46.996341 
L 470.636373 46.982283 
L 472.125523 47.133325 
L 474.356395 47.655378 
L 476.586738 48.517667 
L 478.821198 49.706913 
L 481.051535 51.225379 
L 483.285519 53.091961 
L 485.516328 55.3302 
L 487.746694 57.976578 
L 489.981138 61.055223 
L 492.211516 64.529578 
L 499.651515 76.623696 
L 501.141147 78.582461 
L 502.626701 80.277943 
L 504.116327 81.710705 
L 505.605518 82.874911 
L 507.091511 83.773645 
L 508.58114 84.417411 
L 510.066702 84.810883 
L 511.556333 84.965197 
L 513.045519 84.888374 
L 514.531524 84.591212 
L 516.02116 84.082364 
L 517.506711 83.375117 
L 518.996351 82.476452 
L 521.226713 80.802485 
L 523.461179 78.773454 
L 525.691545 76.462542 
L 533.131542 68.343178 
L 534.621184 67.038979 
L 536.106725 65.955059 
L 537.596362 65.110003 
L 539.085521 64.519813 
L 540.571538 64.187772 
L 542.061177 64.108794 
L 543.546717 64.274041 
L 545.036354 64.670841 
L 546.522069 65.2787 
L 548.011705 66.077135 
L 550.242236 67.559154 
L 553.217584 69.862647 
L 556.937742 72.749898 
L 559.342969 74.330123 
L 559.342969 74.330123 
" clip-path="url(#p207a484176)" style="fill: none; stroke: #17becf; stroke-width: 4.5; stroke-linecap: square"/>
   </g>
   <g id="line2d_49">
    <path d="M 22.001563 381.419216 
L 28.70022 381.307569 
L 50.274288 380.733492 
L 59.2041 380.876214 
L 75.570735 381.189796 
L 85.986644 381.106855 
L 106.07726 380.886654 
L 123.933226 381.055659 
L 138.81001 381.066456 
L 168.571345 380.978583 
L 198.331529 381.019304 
L 231.066709 381.011729 
L 248.921563 381.019397 
L 253.386616 375.944897 
L 262.316361 363.578474 
L 266.036307 359.29498 
L 271.986641 353.109191 
L 273.476228 351.380805 
L 275.706608 348.338249 
L 277.940981 344.795488 
L 280.171379 340.579948 
L 283.146566 334.401655 
L 287.611324 324.912971 
L 290.586494 319.105883 
L 298.771189 304.309402 
L 303.235963 295.330136 
L 307.700834 286.437791 
L 310.676172 280.907066 
L 312.90667 277.115212 
L 315.141217 273.706431 
L 317.371648 270.739569 
L 319.605539 268.12758 
L 322.581452 265.056828 
L 327.045543 260.851684 
L 334.485528 253.834212 
L 340.436423 247.850575 
L 346.386763 241.563069 
L 352.341324 234.928778 
L 358.291698 227.941559 
L 363.501297 221.510865 
L 369.45165 213.824822 
L 376.146837 204.826094 
L 381.356611 197.472562 
L 393.257667 180.010612 
L 394.005554 178.90055 
L 401.445206 171.595831 
L 403.677001 168.980477 
L 406.652149 164.993707 
L 409.626955 160.573563 
L 414.092127 153.945509 
L 417.066943 149.898935 
L 423.764939 141.030285 
L 425.997261 137.697309 
L 428.226879 133.970245 
L 430.458669 129.692949 
L 432.691957 124.840476 
L 435.666629 117.717809 
L 449.805534 82.733881 
L 455.75639 67.497986 
L 457.986674 62.538381 
L 459.476256 59.662911 
L 460.965511 57.156605 
L 462.451458 55.002454 
L 463.94108 53.159883 
L 465.426672 51.609158 
L 466.916312 50.31367 
L 468.405519 49.253464 
L 469.891545 48.411609 
L 471.381201 47.771274 
L 472.866737 47.324143 
L 474.356395 47.05838 
L 475.845524 46.968629 
L 477.331561 47.047447 
L 478.821198 47.287961 
L 481.051535 47.938009 
L 483.285519 48.924524 
L 485.516328 50.237011 
L 487.746694 51.88347 
L 489.981138 53.888223 
L 492.211516 56.276455 
L 494.445518 59.08747 
L 496.676334 62.319438 
L 499.651515 67.171777 
L 504.116327 74.578708 
L 506.346698 77.755873 
L 507.836324 79.570188 
L 509.325518 81.118694 
L 510.811518 82.396114 
L 512.301152 83.410745 
L 513.786705 84.163047 
L 515.276343 84.664555 
L 516.765519 84.921422 
L 518.251531 84.943258 
L 519.741174 84.739742 
L 521.226713 84.321924 
L 522.716359 83.697933 
L 524.205521 82.879658 
L 526.436368 81.315228 
L 528.666723 79.385062 
L 530.901185 77.143422 
L 534.621184 72.991854 
L 537.596362 69.711191 
L 539.82672 67.572219 
L 541.316358 66.388239 
L 542.805521 65.437745 
L 544.291535 64.738908 
L 545.781172 64.295579 
L 547.266886 64.108863 
L 548.756521 64.170833 
L 550.242236 64.469468 
L 551.73187 64.990074 
L 553.217584 65.708658 
L 555.452032 67.102908 
L 558.427373 69.349812 
L 559.342969 70.08211 
L 559.342969 70.08211 
" clip-path="url(#p207a484176)" style="fill: none; stroke: #1f77b4; stroke-width: 4.5; stroke-linecap: square"/>
   </g>
   <g id="line2d_50">
    <path d="M 22.001563 381.419202 
L 28.70022 381.307569 
L 50.274288 380.733492 
L 59.2041 380.876221 
L 75.570735 381.189796 
L 85.986644 381.106855 
L 105.332446 380.885054 
L 120.953952 381.026963 
L 135.834654 381.081839 
L 176.011493 381.016758 
L 199.076347 381.016677 
L 231.066709 381.011729 
L 248.921563 381.019397 
L 253.386616 375.962997 
L 263.061166 362.786672 
L 266.781112 358.54943 
L 269.756273 355.392805 
L 273.476228 351.116748 
L 275.706608 348.008733 
L 277.940981 344.461004 
L 280.171379 340.316308 
L 283.146566 334.296159 
L 287.611324 325.001796 
L 290.586494 319.329299 
L 295.051225 311.817732 
L 298.026413 306.736973 
L 301.001563 301.218912 
L 312.161562 280.137468 
L 315.141217 275.290107 
L 317.371648 272.094902 
L 319.605539 269.25678 
L 322.581452 265.944422 
L 326.301451 262.243436 
L 343.411589 245.784131 
L 347.876437 241.031501 
L 352.341324 235.954688 
L 356.061389 231.423103 
L 359.78142 226.581197 
L 364.245531 220.412136 
L 376.146837 203.760922 
L 385.076641 191.360999 
L 394.746887 177.842766 
L 399.957418 172.849489 
L 402.931933 169.511829 
L 405.165593 166.627113 
L 408.138508 162.381287 
L 414.092127 153.538847 
L 417.066943 149.528582 
L 423.018584 141.701103 
L 425.25205 138.44187 
L 427.48498 134.811097 
L 429.717344 130.662056 
L 431.946682 125.938601 
L 434.924546 118.901763 
L 449.061353 83.994293 
L 455.75639 66.901097 
L 457.986674 62.026943 
L 459.476256 59.215466 
L 460.965511 56.771268 
L 462.451458 54.674307 
L 463.94108 52.883866 
L 465.426672 51.380084 
L 466.916312 50.127162 
L 468.405519 49.105882 
L 469.891545 48.300181 
L 471.381201 47.693806 
L 472.866737 47.278641 
L 474.356395 47.043354 
L 475.845524 46.982537 
L 477.331561 47.088823 
L 478.821198 47.355554 
L 481.051535 48.042791 
L 483.285519 49.064896 
L 485.516328 50.41272 
L 487.746694 52.096136 
L 489.981138 54.141052 
L 492.211516 56.573389 
L 494.445518 59.431265 
L 496.676334 62.70778 
L 499.651515 67.596695 
L 503.371512 73.807532 
L 505.605518 77.099948 
L 507.091511 78.994865 
L 508.58114 80.632708 
L 510.066702 81.998715 
L 511.556333 83.101311 
L 513.045519 83.941037 
L 514.531524 84.524184 
L 516.02116 84.861561 
L 517.506711 84.96053 
L 518.996351 84.831147 
L 520.485521 84.482898 
L 521.971535 83.927382 
L 523.461179 83.172603 
L 524.946722 82.233666 
L 527.18119 80.498006 
L 529.411542 78.42293 
L 532.386722 75.248438 
L 537.596362 69.45762 
L 539.82672 67.362741 
L 541.316358 66.216077 
L 542.805521 65.306624 
L 544.291535 64.650505 
L 545.781172 64.250265 
L 547.266886 64.105683 
L 548.756521 64.208273 
L 550.242236 64.545016 
L 551.73187 65.100594 
L 553.217584 65.849939 
L 555.452032 67.280253 
L 558.427373 69.550833 
L 559.342969 70.283824 
L 559.342969 70.283824 
" clip-path="url(#p207a484176)" style="fill: none; stroke: #ff7f0e; stroke-width: 4.5; stroke-linecap: square"/>
   </g>
   <g id="line2d_51">
    <path d="M 22.001563 381.419202 
L 28.70022 381.307569 
L 50.274288 380.733492 
L 59.2041 380.876221 
L 75.570735 381.189796 
L 85.986644 381.106855 
L 106.07726 380.886654 
L 123.933226 381.055659 
L 138.81001 381.066456 
L 168.571345 380.978583 
L 198.331529 381.019304 
L 231.066709 381.011729 
L 248.921563 381.019397 
L 254.131485 375.162014 
L 262.316361 364.004888 
L 271.986641 351.474001 
L 273.476228 349.236716 
L 275.706608 345.372113 
L 277.940981 341.052566 
L 280.916166 334.560808 
L 287.611324 319.681098 
L 290.586494 313.768465 
L 295.051225 305.202919 
L 301.001563 293.261573 
L 306.211224 283.101452 
L 309.186521 277.813432 
L 311.421003 274.281846 
L 313.651518 271.20637 
L 315.885526 268.550136 
L 318.116516 266.229121 
L 321.091703 263.458739 
L 330.765531 254.821542 
L 334.485528 251.083737 
L 338.205527 247.016375 
L 341.925527 242.643697 
L 346.386763 237.015584 
L 350.851624 230.975402 
L 356.805539 222.483212 
L 364.245531 211.51624 
L 370.196511 202.324012 
L 392.516685 166.907747 
L 394.005554 164.323989 
L 398.467091 158.891263 
L 402.186864 154.593375 
L 405.907025 150.686451 
L 414.092127 142.426269 
L 416.325168 139.789796 
L 418.557277 136.801435 
L 420.786936 133.333355 
L 423.018584 129.286102 
L 425.25205 124.627378 
L 428.226879 117.75547 
L 442.364453 83.785942 
L 449.061353 67.013343 
L 451.291636 62.232994 
L 452.78133 59.481298 
L 454.266772 57.100807 
L 455.75639 55.05787 
L 457.245519 53.330345 
L 458.731462 51.891052 
L 460.221056 50.706008 
L 461.706649 49.758039 
L 463.196268 49.023529 
L 464.685513 48.491197 
L 466.171493 48.14988 
L 467.661139 47.988532 
L 469.146717 47.999887 
L 470.636373 48.17753 
L 472.125523 48.515856 
L 474.356395 49.31348 
L 476.586738 50.454442 
L 478.821198 51.945569 
L 481.051535 53.798854 
L 483.285519 56.04898 
L 485.516328 58.718325 
L 487.746694 61.81967 
L 489.981138 65.312572 
L 495.931518 75.026771 
L 498.165518 78.087968 
L 499.651515 79.813412 
L 501.141147 81.278576 
L 502.626701 82.473917 
L 504.116327 83.409132 
L 505.605518 84.086513 
L 507.091511 84.513509 
L 508.58114 84.700541 
L 510.066702 84.656086 
L 511.556333 84.389595 
L 513.045519 83.911244 
L 514.531524 83.233125 
L 516.02116 82.363014 
L 518.251531 80.730329 
L 520.485521 78.741294 
L 522.716359 76.467414 
L 530.156365 68.440062 
L 531.645522 67.144252 
L 533.131542 66.06431 
L 534.621184 65.220401 
L 536.106725 64.629833 
L 537.596362 64.292984 
L 539.085521 64.208421 
L 540.571538 64.366528 
L 542.061177 64.754602 
L 543.546717 65.352314 
L 545.036354 66.139231 
L 547.266886 67.601754 
L 550.242236 69.876574 
L 553.962398 72.729076 
L 556.196845 74.193708 
L 558.427373 75.348179 
L 559.342969 75.71603 
L 559.342969 75.71603 
" clip-path="url(#p207a484176)" style="fill: none; stroke: #2ca02c; stroke-width: 4.5; stroke-linecap: square"/>
   </g>
   <g id="line2d_52">
    <path d="M 22.001563 381.419202 
L 28.70022 381.307569 
L 50.274288 380.733469 
L 59.2041 380.876221 
L 75.570735 381.189796 
L 85.986644 381.106855 
L 106.07726 380.886654 
L 123.933226 381.055659 
L 138.81001 381.066456 
L 168.571345 380.978583 
L 198.331529 381.019304 
L 231.066709 381.011729 
L 248.921563 381.019397 
L 253.386616 376.016717 
L 258.596337 368.759827 
L 261.571545 364.563295 
L 266.036307 358.891024 
L 269.756273 354.378951 
L 272.731434 350.366414 
L 274.22102 348.062347 
L 276.451402 344.145297 
L 278.681563 339.737314 
L 282.401563 331.505368 
L 286.866541 321.433682 
L 290.586494 313.918209 
L 295.051225 305.294018 
L 301.746393 291.849617 
L 306.211224 283.186237 
L 309.186521 277.906134 
L 311.421003 274.353866 
L 313.651518 271.240676 
L 315.885526 268.536746 
L 318.116516 266.171852 
L 321.091703 263.37103 
L 325.556581 259.553246 
L 332.251603 253.85943 
L 335.97159 250.421224 
L 339.691592 246.663725 
L 343.411589 242.536461 
L 347.1316 238.022219 
L 350.851624 233.124506 
L 355.316527 226.799969 
L 364.245531 213.565307 
L 369.45165 205.625725 
L 374.66142 197.244839 
L 383.58686 182.798859 
L 391.026879 171.385023 
L 394.005554 166.634327 
L 401.445206 157.973563 
L 405.907025 152.907424 
L 409.626955 149.10802 
L 414.837287 143.851448 
L 417.812107 140.469486 
L 420.045121 137.556279 
L 422.277311 134.19951 
L 424.506838 130.288564 
L 426.738563 125.759283 
L 429.717344 118.974852 
L 444.594025 83.167054 
L 450.546789 68.174814 
L 452.78133 63.220431 
L 454.266772 60.351524 
L 455.75639 57.841899 
L 457.245519 55.685472 
L 458.731462 53.857146 
L 460.221056 52.319416 
L 461.706649 51.0519 
L 463.196268 50.022166 
L 464.685513 49.214508 
L 466.171493 48.614687 
L 467.661139 48.207413 
L 469.146717 47.984246 
L 470.636373 47.93612 
L 472.125523 48.056948 
L 473.611567 48.339188 
L 475.101222 48.779275 
L 477.331561 49.726352 
L 479.565522 51.018291 
L 481.79635 52.661353 
L 484.026702 54.678976 
L 486.26114 57.106522 
L 488.491508 59.960384 
L 490.725518 63.241425 
L 493.701144 68.103879 
L 497.421147 74.196888 
L 499.651515 77.380868 
L 501.141147 79.207127 
L 502.626701 80.767409 
L 504.116327 82.065202 
L 505.605518 83.097177 
L 507.091511 83.867823 
L 508.58114 84.387618 
L 510.066702 84.662246 
L 511.556333 84.702431 
L 513.045519 84.516835 
L 514.531524 84.116472 
L 516.02116 83.509828 
L 517.506711 82.710895 
L 519.741174 81.169786 
L 521.971535 79.265248 
L 524.205521 77.050746 
L 527.925522 72.947593 
L 530.901185 69.707734 
L 533.131542 67.598366 
L 534.621184 66.432279 
L 536.106725 65.49976 
L 537.596362 64.81277 
L 539.085521 64.381254 
L 540.571538 64.203973 
L 542.061177 64.273287 
L 543.546717 64.576955 
L 545.036354 65.100149 
L 546.522069 65.818632 
L 548.756521 67.207028 
L 551.73187 69.43509 
L 556.196845 72.861796 
L 558.427373 74.301561 
L 559.342969 74.802071 
L 559.342969 74.802071 
" clip-path="url(#p207a484176)" style="fill: none; stroke: #d62728; stroke-width: 4.5; stroke-linecap: square"/>
   </g>
   <g id="line2d_53">
    <path d="M 22.001563 381.470815 
L 28.70022 381.345078 
L 49.53345 380.69761 
L 57.714333 380.819337 
L 76.315551 381.21457 
L 85.986644 381.119313 
L 105.332446 380.869683 
L 119.468238 381.010985 
L 134.348937 381.096703 
L 182.706704 381.044505 
L 208.001563 380.987202 
L 239.996348 381.025727 
L 248.921563 381.020802 
L 254.131485 375.249032 
L 257.106691 371.405997 
L 264.546691 362.156051 
L 266.781112 359.617192 
L 269.011466 357.154431 
L 272.731434 352.604218 
L 274.22102 350.49145 
L 276.451402 346.873567 
L 278.681563 342.734239 
L 281.660956 336.465584 
L 289.841563 318.875643 
L 294.30645 310.52197 
L 298.771189 302.100678 
L 307.700834 284.908542 
L 310.676172 279.61109 
L 312.90667 275.970101 
L 315.141217 272.688366 
L 317.371648 269.811767 
L 319.605539 267.2448 
L 322.581452 264.170633 
L 327.786806 259.176422 
L 334.485528 252.696892 
L 338.946758 248.088837 
L 343.411589 243.120343 
L 347.876437 237.757079 
L 352.341324 232.003284 
L 356.805539 225.828787 
L 362.011624 218.139633 
L 374.66142 199.224485 
L 385.076641 183.626705 
L 391.771779 173.290963 
L 394.005554 169.670671 
L 399.212224 163.534062 
L 408.885224 151.120728 
L 417.812107 140.693114 
L 420.045121 137.604156 
L 422.277311 134.088245 
L 424.506838 130.025798 
L 426.738563 125.359068 
L 429.717344 118.431611 
L 445.339654 80.252256 
L 449.805534 68.909733 
L 452.036484 63.829158 
L 453.525533 60.851453 
L 455.011586 58.246482 
L 456.501184 55.992601 
L 457.986674 54.073881 
L 459.476256 52.449978 
L 460.965511 51.098236 
L 462.451458 49.993935 
L 463.94108 49.110941 
L 465.426672 48.43834 
L 466.916312 47.959857 
L 468.405519 47.666924 
L 469.891545 47.550951 
L 471.381201 47.604783 
L 472.866737 47.821168 
L 474.356395 48.195167 
L 476.586738 49.040896 
L 478.821198 50.225004 
L 481.051535 51.746879 
L 483.285519 53.630022 
L 485.516328 55.896985 
L 487.746694 58.581826 
L 489.981138 61.702446 
L 492.211516 65.204131 
L 498.165518 74.986264 
L 500.396333 78.071391 
L 501.885519 79.819288 
L 503.371512 81.298957 
L 504.861141 82.514855 
L 506.346698 83.464017 
L 507.836324 84.157781 
L 509.325518 84.600626 
L 510.811518 84.801354 
L 512.301152 84.770116 
L 513.786705 84.516844 
L 515.276343 84.050227 
L 516.765519 83.381422 
L 518.251531 82.52322 
L 520.485521 80.900376 
L 522.716359 78.923135 
L 524.946722 76.6536 
L 533.131542 67.879339 
L 534.621184 66.658302 
L 536.106725 65.666187 
L 537.596362 64.917512 
L 539.085521 64.424404 
L 540.571538 64.187297 
L 542.061177 64.199537 
L 543.546717 64.450156 
L 545.036354 64.925232 
L 546.522069 65.602014 
L 548.756521 66.942863 
L 550.987052 68.563716 
L 557.682556 73.634943 
L 559.342969 74.627371 
L 559.342969 74.627371 
" clip-path="url(#p207a484176)" style="fill: none; stroke: #9467bd; stroke-width: 4.5; stroke-linecap: square"/>
   </g>
   <g id="line2d_54">
    <path d="M 22.001563 381.46669 
L 28.70022 381.342059 
L 49.53345 380.700341 
L 57.714333 380.821057 
L 76.315551 381.21275 
L 85.986644 381.118322 
L 105.332446 380.870907 
L 119.468238 381.010962 
L 134.348937 381.095908 
L 182.706704 381.044171 
L 208.001563 380.987363 
L 240.741163 381.025838 
L 248.921563 381.020671 
L 253.386616 376.015311 
L 258.596337 368.770243 
L 261.571545 364.570437 
L 266.036307 358.834265 
L 269.011466 355.160648 
L 271.986641 351.028506 
L 273.476228 348.724944 
L 275.706608 344.747023 
L 277.940981 340.363246 
L 282.401563 330.75455 
L 286.866541 321.14434 
L 291.33127 312.494052 
L 295.796002 303.996433 
L 307.700834 281.055925 
L 310.676172 275.959919 
L 312.90667 272.575076 
L 315.141217 269.597201 
L 317.371648 266.999288 
L 320.346833 263.924365 
L 324.81171 259.737671 
L 331.506772 253.496399 
L 335.97159 249.014009 
L 340.436423 244.171554 
L 344.156423 239.832808 
L 347.876437 235.195106 
L 351.59647 230.242913 
L 356.061389 223.886545 
L 361.266793 216.014108 
L 392.516685 167.538387 
L 394.005554 165.004919 
L 398.467091 159.724039 
L 402.931933 154.640462 
L 405.907025 151.535376 
L 415.578518 141.898431 
L 417.812107 139.232442 
L 420.045121 136.178741 
L 422.277311 132.627716 
L 424.506838 128.485254 
L 426.738563 123.742948 
L 429.717344 116.817365 
L 436.412009 101.004308 
L 440.876906 90.297568 
L 446.82944 75.254891 
L 449.805534 67.901654 
L 452.036484 62.997365 
L 453.525533 60.15824 
L 455.011586 57.683484 
L 456.501184 55.565566 
L 457.986674 53.767233 
L 459.476256 52.258354 
L 460.965511 51.017148 
L 462.451458 50.012477 
L 463.94108 49.230478 
L 465.426672 48.651825 
L 466.916312 48.266101 
L 468.405519 48.063272 
L 469.891545 48.034847 
L 471.381201 48.17425 
L 472.866737 48.474466 
L 474.356395 48.932106 
L 476.586738 49.905333 
L 478.821198 51.225494 
L 481.051535 52.898838 
L 483.285519 54.955248 
L 485.516328 57.418472 
L 487.746694 60.31396 
L 489.981138 63.633259 
L 492.956331 68.517809 
L 496.676334 74.564436 
L 498.906701 77.69011 
L 500.396333 79.472352 
L 501.885519 80.990952 
L 503.371512 82.240395 
L 504.861141 83.228579 
L 506.346698 83.956243 
L 507.836324 84.434746 
L 509.325518 84.670144 
L 510.811518 84.672109 
L 512.301152 84.450265 
L 513.786705 84.015818 
L 515.276343 83.376753 
L 516.765519 82.545243 
L 518.996351 80.964865 
L 521.226713 79.024963 
L 523.461179 76.783048 
L 527.925522 71.836315 
L 530.901185 68.726381 
L 533.131542 66.804292 
L 534.621184 65.791763 
L 536.106725 65.024882 
L 537.596362 64.50942 
L 539.085521 64.249234 
L 540.571538 64.238657 
L 542.061177 64.4675 
L 543.546717 64.919609 
L 545.036354 65.577586 
L 547.266886 66.888675 
L 549.501337 68.490809 
L 556.196845 73.546042 
L 558.427373 74.851592 
L 559.342969 75.288271 
L 559.342969 75.288271 
" clip-path="url(#p207a484176)" style="fill: none; stroke: #8c564b; stroke-width: 4.5; stroke-linecap: square"/>
   </g>
   <g id="line2d_55">
    <path d="M 22.001563 381.470815 
L 28.70022 381.345078 
L 49.53345 380.69761 
L 57.714333 380.819337 
L 76.315551 381.21457 
L 85.986644 381.119313 
L 105.332446 380.869692 
L 119.468238 381.010985 
L 134.348937 381.096703 
L 182.706704 381.044493 
L 208.001563 380.987202 
L 239.996348 381.025727 
L 248.921563 381.020802 
L 254.131485 375.087608 
L 257.106691 371.112142 
L 262.316361 364.410399 
L 266.781112 359.474436 
L 269.756273 356.380904 
L 272.731434 353.042857 
L 274.22102 351.129769 
L 276.451402 347.847631 
L 277.940981 345.38813 
L 280.171379 341.159655 
L 283.146566 335.000309 
L 288.356104 323.959342 
L 290.586494 319.545755 
L 295.051225 311.559793 
L 298.771189 304.926318 
L 303.980756 295.062475 
L 309.186521 285.221449 
L 312.161562 279.928984 
L 314.396366 276.264915 
L 316.626783 272.997913 
L 318.861385 270.137045 
L 321.091703 267.661362 
L 324.066841 264.792536 
L 327.786806 261.632457 
L 337.461253 253.672357 
L 341.181256 250.237499 
L 344.901257 246.458788 
L 348.621278 242.302475 
L 352.341324 237.760252 
L 356.061389 232.859832 
L 360.525538 226.574183 
L 364.986777 219.881169 
L 371.685538 209.302075 
L 384.331749 189.366486 
L 390.285552 180.452962 
L 394.005554 174.942372 
L 399.212224 169.6897 
L 401.445206 167.046694 
L 403.677001 164.109077 
L 413.346973 150.623624 
L 421.532113 140.166101 
L 423.764939 136.843184 
L 425.997261 133.063444 
L 428.226879 128.734227 
L 430.458669 123.815832 
L 434.178659 114.861209 
L 448.316526 79.935291 
L 452.78133 68.541134 
L 455.011586 63.463447 
L 456.501184 60.499685 
L 457.986674 57.910276 
L 459.476256 55.668003 
L 460.965511 53.754385 
L 462.451458 52.14039 
L 463.94108 50.789125 
L 465.426672 49.6826 
L 466.916312 48.794948 
L 468.405519 48.113779 
L 469.891545 47.6274 
L 471.381201 47.324548 
L 472.866737 47.198382 
L 474.356395 47.240671 
L 475.845524 47.445685 
L 477.331561 47.806557 
L 479.565522 48.631693 
L 481.79635 49.786708 
L 484.026702 51.273371 
L 486.26114 53.110951 
L 488.491508 55.321097 
L 490.725518 57.944452 
L 492.956331 60.99338 
L 495.186703 64.442901 
L 502.626701 76.514404 
L 504.116327 78.478147 
L 505.605518 80.183571 
L 507.091511 81.619338 
L 508.58114 82.791094 
L 510.066702 83.696778 
L 511.556333 84.347896 
L 513.045519 84.749444 
L 514.531524 84.910371 
L 516.02116 84.840695 
L 517.506711 84.550675 
L 518.996351 84.048833 
L 520.485521 83.346448 
L 521.971535 82.456494 
L 524.205521 80.789395 
L 526.436368 78.772915 
L 528.666723 76.471141 
L 536.106725 68.372947 
L 537.596362 67.070091 
L 539.085521 65.984249 
L 540.571538 65.141193 
L 542.061177 64.549865 
L 543.546717 64.2165 
L 545.036354 64.135619 
L 546.522069 64.298697 
L 548.011705 64.693013 
L 549.501337 65.299992 
L 550.987052 66.093555 
L 553.217584 67.570596 
L 556.196845 69.870275 
L 559.342969 72.327726 
L 559.342969 72.327726 
" clip-path="url(#p207a484176)" style="fill: none; stroke: #e377c2; stroke-width: 4.5; stroke-linecap: square"/>
   </g>
   <g id="line2d_56">
    <path d="M 22.001563 381.419202 
L 28.70022 381.307569 
L 50.274288 380.733492 
L 59.2041 380.876221 
L 75.570735 381.189796 
L 85.986644 381.106855 
L 105.332446 380.885054 
L 120.953952 381.026963 
L 135.834654 381.081839 
L 176.011493 381.016746 
L 199.076347 381.016677 
L 231.066709 381.011729 
L 248.921563 381.019397 
L 253.386616 376.044602 
L 259.341153 367.891732 
L 261.571545 364.868281 
L 266.036307 359.361535 
L 269.756273 354.979751 
L 272.731434 351.076741 
L 274.22102 348.832463 
L 276.451402 345.023663 
L 278.681563 340.762991 
L 283.146566 331.341884 
L 286.866541 323.430952 
L 290.586494 316.190086 
L 295.796002 306.573347 
L 299.515967 299.236548 
L 306.211224 285.895917 
L 309.186521 280.39956 
L 311.421003 276.645009 
L 313.651518 273.337138 
L 315.885526 270.499525 
L 318.116516 268.091292 
L 320.346833 266.005693 
L 323.325544 263.565652 
L 327.786806 260.268256 
L 333.741263 255.865408 
L 337.461253 252.85167 
L 341.181256 249.529897 
L 344.901257 245.877448 
L 348.621278 241.921501 
L 353.085533 236.833897 
L 357.546833 231.377904 
L 361.266793 226.458388 
L 364.986777 221.104264 
L 368.706799 215.302049 
L 374.66142 205.458383 
L 382.09757 193.264927 
L 388.051767 184.05744 
L 394.005554 175.085421 
L 399.957418 169.009439 
L 402.186864 166.310137 
L 404.418154 163.2897 
L 412.605244 151.800851 
L 417.812107 145.312109 
L 420.786936 141.465765 
L 423.018584 138.299738 
L 425.25205 134.729414 
L 427.48498 130.644836 
L 429.717344 125.963265 
L 432.691957 119.003226 
L 446.82944 84.32462 
L 453.525533 67.26311 
L 455.75639 62.361358 
L 457.245519 59.530846 
L 458.731462 57.070573 
L 460.221056 54.950009 
L 461.706649 53.150928 
L 463.196268 51.632217 
L 464.685513 50.371284 
L 466.171493 49.346638 
L 467.661139 48.535224 
L 469.146717 47.926694 
L 470.636373 47.506924 
L 472.125523 47.269054 
L 473.611567 47.204674 
L 475.101222 47.306637 
L 476.586738 47.56838 
L 478.821198 48.250324 
L 481.051535 49.264962 
L 483.285519 50.612051 
L 485.516328 52.296573 
L 487.746694 54.343538 
L 489.981138 56.790234 
L 492.211516 59.656721 
L 494.445518 62.950451 
L 497.421147 67.843975 
L 501.141147 74.017962 
L 503.371512 77.265646 
L 504.861141 79.13595 
L 506.346698 80.739743 
L 507.836324 82.080251 
L 509.325518 83.153671 
L 510.811518 83.964048 
L 512.301152 84.522145 
L 513.786705 84.833376 
L 515.276343 84.908528 
L 516.765519 84.756065 
L 518.251531 84.387051 
L 519.741174 83.809896 
L 521.226713 83.038357 
L 522.716359 82.079375 
L 524.946722 80.323933 
L 527.18119 78.22688 
L 530.156365 75.040068 
L 535.365522 69.285169 
L 537.596362 67.228599 
L 539.085521 66.113051 
L 540.571538 65.237794 
L 542.061177 64.613125 
L 543.546717 64.246501 
L 545.036354 64.133052 
L 546.522069 64.26509 
L 548.011705 64.630248 
L 549.501337 65.210759 
L 550.987052 65.981311 
L 553.217584 67.432053 
L 556.196845 69.716123 
L 559.342969 72.183526 
L 559.342969 72.183526 
" clip-path="url(#p207a484176)" style="fill: none; stroke: #7f7f7f; stroke-width: 4.5; stroke-linecap: square"/>
   </g>
   <g id="line2d_57">
    <path d="M 22.001563 381.470815 
L 28.70022 381.345069 
L 49.53345 380.69761 
L 57.714333 380.819337 
L 76.315551 381.214593 
L 85.986644 381.119313 
L 105.332446 380.869692 
L 119.468238 381.010985 
L 134.348937 381.096703 
L 182.706704 381.044493 
L 208.001563 380.987202 
L 239.996348 381.025727 
L 248.921563 381.020802 
L 253.386616 375.949391 
L 259.341153 367.523297 
L 261.571545 364.413533 
L 265.2915 359.732524 
L 273.476228 349.779432 
L 275.706608 346.315464 
L 277.940981 342.411808 
L 280.171379 337.97459 
L 283.891354 330.059917 
L 287.611324 322.063826 
L 291.33127 314.576745 
L 295.051225 307.175958 
L 299.515967 297.778619 
L 304.721563 286.878982 
L 308.441562 279.72358 
L 310.676172 275.835759 
L 312.90667 272.401192 
L 315.141217 269.403974 
L 317.371648 266.786088 
L 320.346833 263.642044 
L 332.996435 250.78599 
L 348.621278 233.973985 
L 353.085533 228.862086 
L 356.805539 224.276138 
L 361.266793 218.353261 
L 366.476467 211.032532 
L 372.426821 202.310979 
L 379.125545 192.045902 
L 393.257667 169.982262 
L 394.005554 168.710509 
L 398.467091 163.11751 
L 406.652149 152.231834 
L 411.117258 146.983552 
L 414.837287 142.552621 
L 417.066943 139.632475 
L 419.298527 136.363447 
L 421.532113 132.61293 
L 423.764939 128.286773 
L 425.997261 123.383236 
L 429.717344 114.489287 
L 435.666629 100.212852 
L 440.131409 89.289644 
L 449.805534 65.036283 
L 451.291636 61.920633 
L 452.78133 59.165768 
L 454.266772 56.781576 
L 455.75639 54.732258 
L 457.245519 52.995077 
L 458.731462 51.54221 
L 460.221056 50.339841 
L 461.706649 49.371333 
L 463.196268 48.613477 
L 464.685513 48.055621 
L 466.171493 47.687181 
L 467.661139 47.497538 
L 469.146717 47.479632 
L 470.636373 47.626815 
L 472.125523 47.933271 
L 474.356395 48.678959 
L 476.586738 49.759895 
L 478.821198 51.178741 
L 481.051535 52.94384 
L 483.285519 55.087921 
L 485.516328 57.636655 
L 487.746694 60.615028 
L 489.981138 64.009687 
L 493.701144 70.220707 
L 496.676334 75.004868 
L 498.906701 78.092478 
L 500.396333 79.842599 
L 501.885519 81.326843 
L 503.371512 82.541242 
L 504.861141 83.494389 
L 506.346698 84.187637 
L 507.836324 84.632383 
L 509.325518 84.835035 
L 510.811518 84.805399 
L 512.301152 84.55298 
L 513.786705 84.089163 
L 515.276343 83.421888 
L 516.765519 82.563357 
L 518.996351 80.944923 
L 521.226713 78.970072 
L 523.461179 76.697281 
L 531.645522 67.90916 
L 533.131542 66.685229 
L 534.621184 65.684209 
L 536.106725 64.931351 
L 537.596362 64.431652 
L 539.085521 64.188256 
L 540.571538 64.195054 
L 542.061177 64.441504 
L 543.546717 64.911013 
L 545.036354 65.585974 
L 547.266886 66.920686 
L 549.501337 68.542837 
L 556.196845 73.622867 
L 558.427373 74.925096 
L 559.342969 75.359141 
L 559.342969 75.359141 
" clip-path="url(#p207a484176)" style="fill: none; stroke: #bcbd22; stroke-width: 4.5; stroke-linecap: square"/>
   </g>
   <g id="line2d_58">
    <path d="M 22.001563 381.419202 
L 28.70022 381.307569 
L 50.274288 380.733469 
L 59.2041 380.876221 
L 75.570735 381.189796 
L 85.986644 381.106855 
L 105.332446 380.885054 
L 120.953952 381.026963 
L 135.834654 381.08185 
L 176.011493 381.016758 
L 199.076347 381.016677 
L 231.066709 381.011729 
L 248.921563 381.019397 
L 253.386616 375.928521 
L 259.341153 367.45147 
L 261.571545 364.332442 
L 265.2915 359.601832 
L 271.986641 351.247394 
L 273.476228 349.083868 
L 275.706608 345.333703 
L 277.940981 341.141785 
L 280.916166 334.864257 
L 286.866541 322.133222 
L 290.586494 315.228822 
L 295.051225 307.454343 
L 298.026413 301.929571 
L 309.931342 279.192913 
L 312.161562 275.515251 
L 314.396366 272.211575 
L 316.626783 269.317085 
L 319.605539 265.928018 
L 323.325544 262.147949 
L 334.485528 251.090113 
L 339.691592 245.513437 
L 344.156423 240.420274 
L 348.621278 235.003419 
L 353.085533 229.263086 
L 359.036574 221.198275 
L 364.986777 212.7567 
L 370.196511 204.934489 
L 376.146837 195.541346 
L 393.257667 167.888229 
L 394.005554 166.603125 
L 404.418154 153.946264 
L 407.397287 150.685552 
L 415.578518 141.958135 
L 417.812107 139.180958 
L 420.045121 136.020685 
L 422.277311 132.36494 
L 424.506838 128.118982 
L 426.738563 123.287315 
L 430.458669 114.490556 
L 443.106738 83.968842 
L 449.805534 67.126654 
L 452.036484 62.311649 
L 453.525533 59.537483 
L 455.011586 57.133661 
L 456.501184 55.068787 
L 457.986674 53.323985 
L 459.476256 51.860309 
L 460.965511 50.655704 
L 462.451458 49.687842 
L 463.94108 48.933959 
L 465.426672 48.383862 
L 466.916312 48.023025 
L 468.405519 47.843476 
L 469.891545 47.837076 
L 471.381201 47.997502 
L 472.866737 48.317525 
L 475.101222 49.0896 
L 477.331561 50.202406 
L 479.565522 51.660919 
L 481.79635 53.477273 
L 484.026702 55.679612 
L 486.26114 58.304333 
L 488.491508 61.356937 
L 490.725518 64.811341 
L 497.421147 75.686566 
L 499.651515 78.642048 
L 501.141147 80.297117 
L 502.626701 81.682276 
L 504.116327 82.804829 
L 505.605518 83.664731 
L 507.091511 84.268112 
L 508.58114 84.62555 
L 510.066702 84.744166 
L 511.556333 84.634169 
L 513.045519 84.304884 
L 514.531524 83.76786 
L 516.02116 83.031216 
L 517.506711 82.110003 
L 519.741174 80.400477 
L 521.971535 78.351166 
L 524.946722 75.211311 
L 530.156365 69.479638 
L 532.386722 67.405843 
L 533.876364 66.270868 
L 535.365522 65.370993 
L 536.851544 64.722523 
L 538.34118 64.328005 
L 539.82672 64.187426 
L 541.316358 64.292201 
L 542.805521 64.630409 
L 544.291535 65.183482 
L 545.781172 65.931627 
L 548.011705 67.350718 
L 550.987052 69.602024 
L 555.452032 73.014324 
L 557.682556 74.429133 
L 559.342969 75.274017 
L 559.342969 75.274017 
" clip-path="url(#p207a484176)" style="fill: none; stroke: #17becf; stroke-width: 4.5; stroke-linecap: square"/>
   </g>
   <g id="line2d_59">
    <path d="M 22.001563 381.480685 
L 28.70022 381.352268 
L 49.53345 380.69095 
L 57.714333 380.815327 
L 76.315551 381.218995 
L 85.986644 381.121662 
L 104.587632 380.865906 
L 117.978606 380.99129 
L 133.604117 381.10054 
L 219.906708 380.984644 
L 248.921563 381.021042 
L 253.386616 375.970095 
L 259.341153 367.556752 
L 261.571545 364.474818 
L 265.2915 359.889603 
L 268.266664 356.598478 
L 271.986641 352.228101 
L 273.476228 350.3075 
L 275.706608 346.96979 
L 277.940981 343.188723 
L 280.171379 338.858273 
L 284.63614 329.560453 
L 286.866541 324.967474 
L 290.586494 317.887119 
L 295.796002 308.53042 
L 298.771189 302.700272 
L 306.956028 286.265294 
L 309.931342 280.806919 
L 312.161562 277.057286 
L 314.396366 273.697017 
L 316.626783 270.80704 
L 318.861385 268.323205 
L 321.091703 266.170562 
L 324.066841 263.623326 
L 337.461253 252.686213 
L 341.181256 249.135646 
L 344.901257 245.269545 
L 348.621278 241.08246 
L 352.341324 236.558788 
L 356.061389 231.673881 
L 359.78142 226.422491 
L 364.245531 219.707244 
L 373.171684 205.676635 
L 378.381472 197.73596 
L 383.58686 190.221703 
L 394.005554 175.518394 
L 399.212224 170.464087 
L 401.445206 167.917183 
L 403.677001 165.068103 
L 407.397287 159.771125 
L 411.85849 153.450984 
L 415.578518 148.678767 
L 420.786936 142.106695 
L 423.018584 138.998613 
L 425.25205 135.514621 
L 427.48498 131.542646 
L 429.717344 126.978218 
L 431.946682 121.894609 
L 440.131409 102.056725 
L 445.339654 89.26911 
L 455.011586 64.891424 
L 456.501184 61.76746 
L 457.986674 59.014208 
L 459.476256 56.616309 
L 460.965511 54.560146 
L 462.451458 52.817556 
L 463.94108 51.35001 
L 465.426672 50.138233 
L 466.916312 49.153276 
L 468.405519 48.381212 
L 469.891545 47.809316 
L 471.381201 47.424974 
L 472.866737 47.221073 
L 474.356395 47.188641 
L 475.845524 47.322068 
L 477.331561 47.614149 
L 479.565522 48.339603 
L 481.79635 49.39726 
L 484.026702 50.784562 
L 486.26114 52.516442 
L 488.491508 54.611384 
L 490.725518 57.109463 
L 492.956331 60.030245 
L 495.186703 63.367448 
L 498.165518 68.302319 
L 501.885519 74.437139 
L 504.116327 77.62555 
L 505.605518 79.44883 
L 507.091511 81.004964 
L 508.58114 82.296949 
L 510.066702 83.320282 
L 511.556333 84.08619 
L 513.045519 84.598794 
L 514.531524 84.8664 
L 516.02116 84.89939 
L 517.506711 84.707247 
L 518.996351 84.298947 
L 520.485521 83.685242 
L 521.971535 82.878736 
L 524.205521 81.326598 
L 526.436368 79.409376 
L 528.666723 77.184258 
L 532.386722 73.048431 
L 535.365522 69.768321 
L 537.596362 67.627058 
L 539.085521 66.440092 
L 540.571538 65.486694 
L 542.061177 64.780402 
L 543.546717 64.331913 
L 545.036354 64.137984 
L 546.522069 64.192934 
L 548.011705 64.485512 
L 549.501337 64.999647 
L 550.987052 65.711997 
L 553.217584 67.094796 
L 556.196845 69.334994 
L 559.342969 71.821577 
L 559.342969 71.821577 
" clip-path="url(#p207a484176)" style="fill: none; stroke: #1f77b4; stroke-width: 4.5; stroke-linecap: square"/>
   </g>
   <g id="line2d_60">
    <path d="M 22.001563 381.46669 
L 28.70022 381.342059 
L 49.53345 380.700341 
L 57.714333 380.821057 
L 76.315551 381.212727 
L 85.986644 381.118322 
L 105.332446 380.870907 
L 119.468238 381.010962 
L 134.348937 381.095908 
L 182.706704 381.044171 
L 208.001563 380.987363 
L 241.481563 381.025974 
L 248.921563 381.020671 
L 253.386616 376.03505 
L 263.801563 362.130193 
L 266.781112 358.691138 
L 269.756273 355.409467 
L 272.731434 351.848908 
L 274.22102 349.804298 
L 276.451402 346.306974 
L 278.681563 342.310068 
L 281.660956 336.248641 
L 289.841563 319.325093 
L 297.281563 305.49228 
L 301.746393 296.336984 
L 306.211224 287.408939 
L 309.186521 281.925601 
L 311.421003 278.132751 
L 313.651518 274.705347 
L 315.885526 271.683823 
L 318.116516 269.061687 
L 320.346833 266.746443 
L 323.325544 263.972731 
L 335.226761 253.287208 
L 338.946758 249.497688 
L 342.666757 245.396628 
L 346.386763 240.966851 
L 350.10678 236.196506 
L 353.826804 231.077399 
L 357.546833 225.611303 
L 362.756458 217.496119 
L 372.426821 202.264727 
L 377.636595 194.482355 
L 382.845547 187.105577 
L 391.026879 175.652388 
L 394.746887 170.264336 
L 398.467091 165.969195 
L 401.445206 162.0091 
L 408.138508 152.863078 
L 411.85849 148.313141 
L 416.325168 142.910773 
L 418.557277 139.96777 
L 420.786936 136.689838 
L 423.018584 132.958437 
L 425.25205 128.646023 
L 427.48498 123.760866 
L 431.204684 114.848937 
L 444.594025 81.997909 
L 450.546789 66.942856 
L 452.78133 62.095605 
L 454.266772 59.315184 
L 455.75639 56.892633 
L 457.245519 54.814139 
L 458.731462 53.052184 
L 460.221056 51.569335 
L 461.706649 50.345657 
L 463.196268 49.350708 
L 464.685513 48.570649 
L 466.171493 47.992812 
L 467.661139 47.603341 
L 469.146717 47.394685 
L 470.636373 47.358573 
L 472.125523 47.489027 
L 473.611567 47.77828 
L 475.845524 48.501245 
L 478.076381 49.558971 
L 480.30672 50.9492 
L 482.541165 52.688432 
L 484.771517 54.794458 
L 487.005518 57.308001 
L 489.236323 60.245952 
L 491.4667 63.598402 
L 495.186703 69.795262 
L 498.165518 74.636438 
L 500.396333 77.786416 
L 501.885519 79.581748 
L 503.371512 81.109511 
L 504.861141 82.373161 
L 506.346698 83.368986 
L 507.836324 84.108166 
L 509.325518 84.594854 
L 510.811518 84.837639 
L 512.301152 84.846858 
L 513.786705 84.632049 
L 515.276343 84.202156 
L 516.765519 83.568043 
L 518.251531 82.74241 
L 520.485521 81.164126 
L 522.716359 79.224674 
L 524.946722 76.983061 
L 528.666723 72.841839 
L 531.645522 69.586468 
L 533.876364 67.480363 
L 535.365522 66.322243 
L 536.851544 65.400042 
L 538.34118 64.726033 
L 539.82672 64.30966 
L 541.316358 64.147036 
L 542.805521 64.232243 
L 544.291535 64.552077 
L 545.781172 65.091378 
L 547.266886 65.825488 
L 549.501337 67.235775 
L 552.476689 69.487487 
L 556.937742 72.929023 
L 559.342969 74.466779 
L 559.342969 74.466779 
" clip-path="url(#p207a484176)" style="fill: none; stroke: #ff7f0e; stroke-width: 4.5; stroke-linecap: square"/>
   </g>
   <g id="line2d_61">
    <path d="M 22.001563 381.470815 
L 28.70022 381.345069 
L 49.53345 380.69761 
L 57.714333 380.819337 
L 76.315551 381.21457 
L 85.986644 381.119313 
L 105.332446 380.869692 
L 119.468238 381.010985 
L 134.348937 381.096703 
L 182.706704 381.044493 
L 208.001563 380.987202 
L 239.996348 381.025727 
L 248.921563 381.020802 
L 253.386616 375.913726 
L 258.596337 368.395784 
L 261.571545 364.073803 
L 265.2915 359.219413 
L 271.986641 350.773448 
L 273.476228 348.620697 
L 275.706608 344.918812 
L 277.940981 340.823801 
L 280.916166 334.739691 
L 289.841563 316.2533 
L 295.051225 306.233661 
L 299.515967 297.090068 
L 304.721563 286.364688 
L 307.700834 280.733 
L 309.931342 276.88679 
L 312.161562 273.472983 
L 314.396366 270.506287 
L 316.626783 267.970247 
L 318.861385 265.753316 
L 321.836576 263.159176 
L 326.301451 259.64488 
L 332.996435 254.379652 
L 336.71642 251.139847 
L 339.691592 248.288681 
L 342.666757 245.172126 
L 345.645528 241.768066 
L 348.621278 238.075292 
L 352.341324 233.062589 
L 356.061389 227.672286 
L 362.011624 218.567057 
L 373.171684 200.962975 
L 380.611731 189.393896 
L 385.817611 181.758772 
L 394.005554 170.071795 
L 397.725557 166.251154 
L 399.957418 163.670629 
L 403.677001 158.93201 
L 407.397287 154.228421 
L 411.117258 149.948391 
L 417.812107 142.500476 
L 420.045121 139.688964 
L 422.277311 136.529106 
L 424.506838 132.89788 
L 426.738563 128.679835 
L 428.972107 123.871683 
L 431.946682 116.868512 
L 446.081918 82.529802 
L 452.036484 67.514676 
L 454.266772 62.62795 
L 455.75639 59.802911 
L 457.245519 57.344996 
L 458.731462 55.238456 
L 460.221056 53.44562 
L 461.706649 51.946284 
L 463.196268 50.702957 
L 464.685513 49.696554 
L 466.171493 48.909605 
L 467.661139 48.324024 
L 469.146717 47.930381 
L 470.636373 47.71737 
L 472.125523 47.678654 
L 473.611567 47.806142 
L 475.101222 48.094305 
L 477.331561 48.81621 
L 479.565522 49.878835 
L 481.79635 51.27926 
L 484.026702 53.031821 
L 486.26114 55.166576 
L 488.491508 57.708087 
L 490.725518 60.685439 
L 492.956331 64.069027 
L 496.676334 70.264158 
L 499.651515 75.029765 
L 501.885519 78.106361 
L 503.371512 79.841652 
L 504.861141 81.316103 
L 506.346698 82.520215 
L 507.836324 83.463921 
L 509.325518 84.149381 
L 510.811518 84.583907 
L 512.301152 84.778136 
L 513.786705 84.740456 
L 515.276343 84.48034 
L 516.765519 84.007904 
L 518.251531 83.335241 
L 519.741174 82.470061 
L 521.971535 80.843552 
L 524.205521 78.858739 
L 526.436368 76.585846 
L 534.621184 67.835789 
L 536.106725 66.628006 
L 537.596362 65.64381 
L 539.085521 64.906565 
L 540.571538 64.425257 
L 542.061177 64.198073 
L 543.546717 64.220128 
L 545.036354 64.480636 
L 546.522069 64.962659 
L 548.011705 65.648301 
L 550.242236 66.994639 
L 553.217584 69.198817 
L 558.427373 73.182057 
L 559.342969 73.783921 
L 559.342969 73.783921 
" clip-path="url(#p207a484176)" style="fill: none; stroke: #2ca02c; stroke-width: 4.5; stroke-linecap: square"/>
   </g>
   <g id="line2d_62">
    <path d="M 22.001563 381.470815 
L 28.70022 381.345078 
L 49.53345 380.69761 
L 57.714333 380.819337 
L 76.315551 381.21457 
L 85.986644 381.119313 
L 105.332446 380.869692 
L 119.468238 381.010985 
L 134.348937 381.096703 
L 182.706704 381.044493 
L 208.001563 380.987202 
L 239.996348 381.025727 
L 248.921563 381.020802 
L 253.386616 376.006793 
L 263.801563 361.969323 
L 266.781112 358.455761 
L 269.756273 355.071865 
L 272.731434 351.379007 
L 274.22102 349.259845 
L 276.451402 345.647013 
L 278.681563 341.555397 
L 282.401563 333.875596 
L 288.356104 321.431212 
L 291.33127 315.754624 
L 296.540782 306.09349 
L 302.491177 294.255444 
L 306.956028 285.425391 
L 309.931342 279.939322 
L 312.161562 276.199458 
L 314.396366 272.86892 
L 316.626783 270.002403 
L 318.861385 267.509371 
L 321.836576 264.61608 
L 326.301451 260.700595 
L 331.506772 256.122823 
L 335.226761 252.552974 
L 338.946758 248.624755 
L 342.666757 244.324162 
L 346.386763 239.679547 
L 350.10678 234.713617 
L 354.571664 228.339016 
L 359.78142 220.452094 
L 379.86685 189.639395 
L 386.56555 179.919022 
L 393.257667 170.228807 
L 394.005554 169.076753 
L 397.725557 165.045809 
L 399.957418 162.36141 
L 407.397287 153.047404 
L 411.117258 148.901658 
L 416.325168 143.179043 
L 418.557277 140.465552 
L 420.786936 137.424003 
L 423.018584 133.945793 
L 425.25205 129.899293 
L 427.48498 125.253106 
L 430.458669 118.357538 
L 443.852335 86.035723 
L 452.036484 65.56598 
L 454.266772 60.974909 
L 455.75639 58.36221 
L 457.245519 56.108244 
L 458.731462 54.189197 
L 460.221056 52.56705 
L 461.706649 51.221406 
L 463.196268 50.117851 
L 464.685513 49.239743 
L 466.171493 48.572145 
L 467.661139 48.09896 
L 469.146717 47.811636 
L 470.636373 47.700441 
L 472.125523 47.759314 
L 473.611567 47.9804 
L 475.101222 48.359261 
L 477.331561 49.213102 
L 479.565522 50.406544 
L 481.79635 51.941522 
L 484.026702 53.837797 
L 486.26114 56.129331 
L 488.491508 58.838501 
L 490.725518 61.982879 
L 492.956331 65.502826 
L 498.906701 75.232361 
L 501.141147 78.275154 
L 502.626701 79.984871 
L 504.116327 81.433809 
L 505.605518 82.61517 
L 507.091511 83.531421 
L 508.58114 84.192905 
L 510.066702 84.603991 
L 511.556333 84.775778 
L 513.045519 84.716235 
L 514.531524 84.435977 
L 516.02116 83.943798 
L 517.506711 83.25285 
L 518.996351 82.370294 
L 521.226713 80.720018 
L 523.461179 78.714494 
L 525.691545 76.427061 
L 533.131542 68.381089 
L 534.621184 67.087891 
L 536.106725 66.013033 
L 537.596362 65.175162 
L 539.085521 64.590425 
L 540.571538 64.2622 
L 542.061177 64.185467 
L 543.546717 64.3515 
L 545.036354 64.747551 
L 546.522069 65.353109 
L 548.011705 66.147504 
L 550.242236 67.620131 
L 553.962398 70.496725 
L 556.937742 72.763693 
L 559.342969 74.325084 
L 559.342969 74.325084 
" clip-path="url(#p207a484176)" style="fill: none; stroke: #d62728; stroke-width: 4.5; stroke-linecap: square"/>
   </g>
   <g id="line2d_63">
    <path d="M 22.001563 381.470815 
L 28.70022 381.345078 
L 49.53345 380.69761 
L 57.714333 380.819314 
L 76.315551 381.21457 
L 85.986644 381.119313 
L 105.332446 380.869692 
L 119.468238 381.010985 
L 134.348937 381.096703 
L 182.706704 381.044493 
L 208.001563 380.987202 
L 239.996348 381.025727 
L 248.921563 381.020802 
L 253.386616 375.972893 
L 258.596337 368.623436 
L 261.571545 364.348199 
L 266.781112 357.461228 
L 269.011466 354.53209 
L 271.986641 350.188501 
L 274.22102 346.503654 
L 277.196193 340.871865 
L 280.171379 334.650449 
L 288.356104 317.223204 
L 306.956028 279.541828 
L 309.186521 275.692751 
L 311.421003 272.285275 
L 313.651518 269.317834 
L 315.885526 266.697019 
L 318.861385 263.567899 
L 324.066841 258.533119 
L 330.021312 252.745357 
L 333.741263 248.876067 
L 337.461253 244.71866 
L 341.181256 240.239821 
L 345.645528 234.457542 
L 350.10678 228.268776 
L 355.316527 220.610276 
L 370.941373 197.345048 
L 380.611731 182.912191 
L 389.537639 169.415978 
L 393.257667 163.222605 
L 394.005554 161.936368 
L 396.977694 158.514085 
L 400.698582 154.759013 
L 404.418154 151.377843 
L 414.092127 142.984462 
L 416.325168 140.646163 
L 418.557277 137.978173 
L 420.786936 134.861517 
L 423.018584 131.195853 
L 425.25205 126.901838 
L 427.48498 122.049354 
L 431.946682 111.594581 
L 442.364453 86.912289 
L 451.291636 64.933835 
L 452.78133 61.891642 
L 454.266772 59.219229 
L 455.75639 56.902084 
L 457.245519 54.926026 
L 458.731462 53.264815 
L 460.221056 51.882081 
L 461.706649 50.757829 
L 463.196268 49.863105 
L 464.685513 49.183788 
L 466.171493 48.706501 
L 467.661139 48.417474 
L 469.146717 48.308547 
L 470.636373 48.37189 
L 472.125523 48.601563 
L 473.611567 48.990896 
L 475.845524 49.870226 
L 478.076381 51.098582 
L 480.30672 52.684018 
L 482.541165 54.652681 
L 484.771517 57.025616 
L 487.005518 59.836062 
L 489.236323 63.06856 
L 492.211516 67.886243 
L 495.931518 73.968413 
L 498.165518 77.171678 
L 499.651515 79.007252 
L 501.141147 80.587202 
L 502.626701 81.897752 
L 504.116327 82.946984 
L 505.605518 83.73579 
L 507.091511 84.270707 
L 508.58114 84.56229 
L 510.066702 84.618072 
L 511.556333 84.448044 
L 513.045519 84.061854 
L 514.531524 83.471201 
L 516.02116 82.684116 
L 517.506711 81.716215 
L 519.741174 79.94444 
L 521.971535 77.845745 
L 524.946722 74.671928 
L 529.411542 69.77459 
L 531.645522 67.662733 
L 533.131542 66.497314 
L 534.621184 65.558356 
L 536.106725 64.868204 
L 537.596362 64.430223 
L 539.085521 64.24595 
L 540.571538 64.30807 
L 542.061177 64.605244 
L 543.546717 65.119593 
L 545.036354 65.832447 
L 547.266886 67.207466 
L 550.242236 69.422176 
L 554.707215 72.835812 
L 556.937742 74.272745 
L 559.172188 75.400246 
L 559.342969 75.468305 
L 559.342969 75.468305 
" clip-path="url(#p207a484176)" style="fill: none; stroke: #9467bd; stroke-width: 4.5; stroke-linecap: square"/>
   </g>
   <g id="patch_3">
    <path d="M 96.401563 450.72 
L 96.401563 7.2 
" style="fill: none; stroke: #000000; stroke-width: 4; stroke-linejoin: miter; stroke-linecap: square"/>
   </g>
   <g id="patch_4">
    <path d="M 542.801562 450.72 
L 542.801562 7.2 
" style="fill: none; stroke: #000000; stroke-width: 4; stroke-linejoin: miter; stroke-linecap: square"/>
   </g>
   <g id="patch_5">
    <path d="M 96.401563 450.72 
L 542.801562 450.72 
" style="fill: none; stroke: #000000; stroke-width: 4; stroke-linejoin: miter; stroke-linecap: square"/>
   </g>
   <g id="patch_6">
    <path d="M 96.401563 7.2 
L 542.801562 7.2 
" style="fill: none; stroke: #000000; stroke-width: 4; stroke-linejoin: miter; stroke-linecap: square"/>
   </g>
  </g>
 </g>
 <defs>
  <clipPath id="p207a484176">
   <rect x="96.401563" y="7.2" width="446.4" height="443.52"/>
  </clipPath>
 </defs>
</svg>
