<?xml version="1.0" encoding="utf-8" standalone="no"?>
<!DOCTYPE svg PUBLIC "-//W3C//DTD SVG 1.1//EN"
  "http://www.w3.org/Graphics/SVG/1.1/DTD/svg11.dtd">
<svg xmlns:xlink="http://www.w3.org/1999/xlink" width="558.342969pt" height="524.509062pt" viewBox="0 0 558.342969 524.509062" xmlns="http://www.w3.org/2000/svg" version="1.1">
 <metadata>
  <rdf:RDF xmlns:dc="http://purl.org/dc/elements/1.1/" xmlns:cc="http://creativecommons.org/ns#" xmlns:rdf="http://www.w3.org/1999/02/22-rdf-syntax-ns#">
   <cc:Work>
    <dc:type rdf:resource="http://purl.org/dc/dcmitype/StillImage"/>
    <dc:date>2022-11-21T09:36:07.568141</dc:date>
    <dc:format>image/svg+xml</dc:format>
    <dc:creator>
     <cc:Agent>
      <dc:title>Matplotlib v3.5.3, https://matplotlib.org/</dc:title>
     </cc:Agent>
    </dc:creator>
   </cc:Work>
  </rdf:RDF>
 </metadata>
 <defs>
  <style type="text/css">*{stroke-linejoin: round; stroke-linecap: butt}</style>
 </defs>
 <g id="figure_1">
  <g id="patch_1">
   <path d="M 0 524.509062 
L 558.342969 524.509062 
L 558.342969 0 
L 0 0 
z
" style="fill: #ffffff"/>
  </g>
  <g id="axes_1">
   <g id="patch_2">
    <path d="M 96.401563 450.72 
L 542.801562 450.72 
L 542.801562 7.2 
L 96.401563 7.2 
z
" style="fill: #ffffff"/>
   </g>
   <g id="matplotlib.axis_1">
    <g id="xtick_1">
     <g id="line2d_1">
      <path d="M 96.401563 450.72 
L 96.401563 7.2 
" clip-path="url(#p6c543588ae)" style="fill: none; stroke: #e2e2e2; stroke-width: 0.8; stroke-linecap: square"/>
     </g>
     <g id="line2d_2">
      <defs>
       <path id="mdafb34e28a" d="M 0 0 
L 0 3.5 
" style="stroke: #000000; stroke-width: 0.8"/>
      </defs>
      <g>
       <use xlink:href="#mdafb34e28a" x="96.401563" y="450.72" style="stroke: #000000; stroke-width: 0.8"/>
      </g>
     </g>
     <g id="text_1">
      <!-- 0 -->
      <g transform="translate(88.060156 479.193437)scale(0.3 -0.3)">
       <defs>
        <path id="ArialMT-30" d="M 266 2259 
Q 266 3072 433 3567 
Q 600 4063 929 4331 
Q 1259 4600 1759 4600 
Q 2128 4600 2406 4451 
Q 2684 4303 2865 4023 
Q 3047 3744 3150 3342 
Q 3253 2941 3253 2259 
Q 3253 1453 3087 958 
Q 2922 463 2592 192 
Q 2263 -78 1759 -78 
Q 1097 -78 719 397 
Q 266 969 266 2259 
z
M 844 2259 
Q 844 1131 1108 757 
Q 1372 384 1759 384 
Q 2147 384 2411 759 
Q 2675 1134 2675 2259 
Q 2675 3391 2411 3762 
Q 2147 4134 1753 4134 
Q 1366 4134 1134 3806 
Q 844 3388 844 2259 
z
" transform="scale(0.015625)"/>
       </defs>
       <use xlink:href="#ArialMT-30"/>
      </g>
     </g>
    </g>
    <g id="xtick_2">
     <g id="line2d_3">
      <path d="M 170.801562 450.72 
L 170.801562 7.2 
" clip-path="url(#p6c543588ae)" style="fill: none; stroke: #e2e2e2; stroke-width: 0.8; stroke-linecap: square"/>
     </g>
     <g id="line2d_4">
      <g>
       <use xlink:href="#mdafb34e28a" x="170.801562" y="450.72" style="stroke: #000000; stroke-width: 0.8"/>
      </g>
     </g>
    </g>
    <g id="xtick_3">
     <g id="line2d_5">
      <path d="M 245.201562 450.72 
L 245.201562 7.2 
" clip-path="url(#p6c543588ae)" style="fill: none; stroke: #e2e2e2; stroke-width: 0.8; stroke-linecap: square"/>
     </g>
     <g id="line2d_6">
      <g>
       <use xlink:href="#mdafb34e28a" x="245.201562" y="450.72" style="stroke: #000000; stroke-width: 0.8"/>
      </g>
     </g>
     <g id="text_2">
      <!-- 2 -->
      <g transform="translate(236.860156 479.193437)scale(0.3 -0.3)">
       <defs>
        <path id="ArialMT-32" d="M 3222 541 
L 3222 0 
L 194 0 
Q 188 203 259 391 
Q 375 700 629 1000 
Q 884 1300 1366 1694 
Q 2113 2306 2375 2664 
Q 2638 3022 2638 3341 
Q 2638 3675 2398 3904 
Q 2159 4134 1775 4134 
Q 1369 4134 1125 3890 
Q 881 3647 878 3216 
L 300 3275 
Q 359 3922 746 4261 
Q 1134 4600 1788 4600 
Q 2447 4600 2831 4234 
Q 3216 3869 3216 3328 
Q 3216 3053 3103 2787 
Q 2991 2522 2730 2228 
Q 2469 1934 1863 1422 
Q 1356 997 1212 845 
Q 1069 694 975 541 
L 3222 541 
z
" transform="scale(0.015625)"/>
       </defs>
       <use xlink:href="#ArialMT-32"/>
      </g>
     </g>
    </g>
    <g id="xtick_4">
     <g id="line2d_7">
      <path d="M 319.601562 450.72 
L 319.601562 7.2 
" clip-path="url(#p6c543588ae)" style="fill: none; stroke: #e2e2e2; stroke-width: 0.8; stroke-linecap: square"/>
     </g>
     <g id="line2d_8">
      <g>
       <use xlink:href="#mdafb34e28a" x="319.601562" y="450.72" style="stroke: #000000; stroke-width: 0.8"/>
      </g>
     </g>
    </g>
    <g id="xtick_5">
     <g id="line2d_9">
      <path d="M 394.001562 450.72 
L 394.001562 7.2 
" clip-path="url(#p6c543588ae)" style="fill: none; stroke: #e2e2e2; stroke-width: 0.8; stroke-linecap: square"/>
     </g>
     <g id="line2d_10">
      <g>
       <use xlink:href="#mdafb34e28a" x="394.001562" y="450.72" style="stroke: #000000; stroke-width: 0.8"/>
      </g>
     </g>
     <g id="text_3">
      <!-- 4 -->
      <g transform="translate(385.660156 479.193437)scale(0.3 -0.3)">
       <defs>
        <path id="ArialMT-34" d="M 2069 0 
L 2069 1097 
L 81 1097 
L 81 1613 
L 2172 4581 
L 2631 4581 
L 2631 1613 
L 3250 1613 
L 3250 1097 
L 2631 1097 
L 2631 0 
L 2069 0 
z
M 2069 1613 
L 2069 3678 
L 634 1613 
L 2069 1613 
z
" transform="scale(0.015625)"/>
       </defs>
       <use xlink:href="#ArialMT-34"/>
      </g>
     </g>
    </g>
    <g id="xtick_6">
     <g id="line2d_11">
      <path d="M 468.401562 450.72 
L 468.401562 7.2 
" clip-path="url(#p6c543588ae)" style="fill: none; stroke: #e2e2e2; stroke-width: 0.8; stroke-linecap: square"/>
     </g>
     <g id="line2d_12">
      <g>
       <use xlink:href="#mdafb34e28a" x="468.401562" y="450.72" style="stroke: #000000; stroke-width: 0.8"/>
      </g>
     </g>
    </g>
    <g id="xtick_7">
     <g id="line2d_13">
      <path d="M 542.801562 450.72 
L 542.801562 7.2 
" clip-path="url(#p6c543588ae)" style="fill: none; stroke: #e2e2e2; stroke-width: 0.8; stroke-linecap: square"/>
     </g>
     <g id="line2d_14">
      <g>
       <use xlink:href="#mdafb34e28a" x="542.801562" y="450.72" style="stroke: #000000; stroke-width: 0.8"/>
      </g>
     </g>
     <g id="text_4">
      <!-- 6 -->
      <g transform="translate(534.460156 479.193437)scale(0.3 -0.3)">
       <defs>
        <path id="ArialMT-36" d="M 3184 3459 
L 2625 3416 
Q 2550 3747 2413 3897 
Q 2184 4138 1850 4138 
Q 1581 4138 1378 3988 
Q 1113 3794 959 3422 
Q 806 3050 800 2363 
Q 1003 2672 1297 2822 
Q 1591 2972 1913 2972 
Q 2475 2972 2870 2558 
Q 3266 2144 3266 1488 
Q 3266 1056 3080 686 
Q 2894 316 2569 119 
Q 2244 -78 1831 -78 
Q 1128 -78 684 439 
Q 241 956 241 2144 
Q 241 3472 731 4075 
Q 1159 4600 1884 4600 
Q 2425 4600 2770 4297 
Q 3116 3994 3184 3459 
z
M 888 1484 
Q 888 1194 1011 928 
Q 1134 663 1356 523 
Q 1578 384 1822 384 
Q 2178 384 2434 671 
Q 2691 959 2691 1453 
Q 2691 1928 2437 2201 
Q 2184 2475 1800 2475 
Q 1419 2475 1153 2201 
Q 888 1928 888 1484 
z
" transform="scale(0.015625)"/>
       </defs>
       <use xlink:href="#ArialMT-36"/>
      </g>
     </g>
    </g>
    <g id="text_5">
     <!-- Time (ns) -->
     <g transform="translate(256.835938 510.995)scale(0.3 -0.3)">
      <defs>
       <path id="ArialMT-54" d="M 1659 0 
L 1659 4041 
L 150 4041 
L 150 4581 
L 3781 4581 
L 3781 4041 
L 2266 4041 
L 2266 0 
L 1659 0 
z
" transform="scale(0.015625)"/>
       <path id="ArialMT-69" d="M 425 3934 
L 425 4581 
L 988 4581 
L 988 3934 
L 425 3934 
z
M 425 0 
L 425 3319 
L 988 3319 
L 988 0 
L 425 0 
z
" transform="scale(0.015625)"/>
       <path id="ArialMT-6d" d="M 422 0 
L 422 3319 
L 925 3319 
L 925 2853 
Q 1081 3097 1340 3245 
Q 1600 3394 1931 3394 
Q 2300 3394 2536 3241 
Q 2772 3088 2869 2813 
Q 3263 3394 3894 3394 
Q 4388 3394 4653 3120 
Q 4919 2847 4919 2278 
L 4919 0 
L 4359 0 
L 4359 2091 
Q 4359 2428 4304 2576 
Q 4250 2725 4106 2815 
Q 3963 2906 3769 2906 
Q 3419 2906 3187 2673 
Q 2956 2441 2956 1928 
L 2956 0 
L 2394 0 
L 2394 2156 
Q 2394 2531 2256 2718 
Q 2119 2906 1806 2906 
Q 1569 2906 1367 2781 
Q 1166 2656 1075 2415 
Q 984 2175 984 1722 
L 984 0 
L 422 0 
z
" transform="scale(0.015625)"/>
       <path id="ArialMT-65" d="M 2694 1069 
L 3275 997 
Q 3138 488 2766 206 
Q 2394 -75 1816 -75 
Q 1088 -75 661 373 
Q 234 822 234 1631 
Q 234 2469 665 2931 
Q 1097 3394 1784 3394 
Q 2450 3394 2872 2941 
Q 3294 2488 3294 1666 
Q 3294 1616 3291 1516 
L 816 1516 
Q 847 969 1125 678 
Q 1403 388 1819 388 
Q 2128 388 2347 550 
Q 2566 713 2694 1069 
z
M 847 1978 
L 2700 1978 
Q 2663 2397 2488 2606 
Q 2219 2931 1791 2931 
Q 1403 2931 1139 2672 
Q 875 2413 847 1978 
z
" transform="scale(0.015625)"/>
       <path id="ArialMT-20" transform="scale(0.015625)"/>
       <path id="ArialMT-28" d="M 1497 -1347 
Q 1031 -759 709 28 
Q 388 816 388 1659 
Q 388 2403 628 3084 
Q 909 3875 1497 4659 
L 1900 4659 
Q 1522 4009 1400 3731 
Q 1209 3300 1100 2831 
Q 966 2247 966 1656 
Q 966 153 1900 -1347 
L 1497 -1347 
z
" transform="scale(0.015625)"/>
       <path id="ArialMT-6e" d="M 422 0 
L 422 3319 
L 928 3319 
L 928 2847 
Q 1294 3394 1984 3394 
Q 2284 3394 2536 3286 
Q 2788 3178 2913 3003 
Q 3038 2828 3088 2588 
Q 3119 2431 3119 2041 
L 3119 0 
L 2556 0 
L 2556 2019 
Q 2556 2363 2490 2533 
Q 2425 2703 2258 2804 
Q 2091 2906 1866 2906 
Q 1506 2906 1245 2678 
Q 984 2450 984 1813 
L 984 0 
L 422 0 
z
" transform="scale(0.015625)"/>
       <path id="ArialMT-73" d="M 197 991 
L 753 1078 
Q 800 744 1014 566 
Q 1228 388 1613 388 
Q 2000 388 2187 545 
Q 2375 703 2375 916 
Q 2375 1106 2209 1216 
Q 2094 1291 1634 1406 
Q 1016 1563 777 1677 
Q 538 1791 414 1992 
Q 291 2194 291 2438 
Q 291 2659 392 2848 
Q 494 3038 669 3163 
Q 800 3259 1026 3326 
Q 1253 3394 1513 3394 
Q 1903 3394 2198 3281 
Q 2494 3169 2634 2976 
Q 2775 2784 2828 2463 
L 2278 2388 
Q 2241 2644 2061 2787 
Q 1881 2931 1553 2931 
Q 1166 2931 1000 2803 
Q 834 2675 834 2503 
Q 834 2394 903 2306 
Q 972 2216 1119 2156 
Q 1203 2125 1616 2013 
Q 2213 1853 2448 1751 
Q 2684 1650 2818 1456 
Q 2953 1263 2953 975 
Q 2953 694 2789 445 
Q 2625 197 2315 61 
Q 2006 -75 1616 -75 
Q 969 -75 630 194 
Q 291 463 197 991 
z
" transform="scale(0.015625)"/>
       <path id="ArialMT-29" d="M 791 -1347 
L 388 -1347 
Q 1322 153 1322 1656 
Q 1322 2244 1188 2822 
Q 1081 3291 891 3722 
Q 769 4003 388 4659 
L 791 4659 
Q 1378 3875 1659 3084 
Q 1900 2403 1900 1659 
Q 1900 816 1576 28 
Q 1253 -759 791 -1347 
z
" transform="scale(0.015625)"/>
      </defs>
      <use xlink:href="#ArialMT-54"/>
      <use xlink:href="#ArialMT-69" x="57.333984"/>
      <use xlink:href="#ArialMT-6d" x="79.550781"/>
      <use xlink:href="#ArialMT-65" x="162.851562"/>
      <use xlink:href="#ArialMT-20" x="218.466797"/>
      <use xlink:href="#ArialMT-28" x="246.25"/>
      <use xlink:href="#ArialMT-6e" x="279.550781"/>
      <use xlink:href="#ArialMT-73" x="335.166016"/>
      <use xlink:href="#ArialMT-29" x="385.166016"/>
     </g>
    </g>
   </g>
   <g id="matplotlib.axis_2">
    <g id="ytick_1">
     <g id="line2d_15">
      <path d="M 96.401563 450.72 
L 542.801562 450.72 
" clip-path="url(#p6c543588ae)" style="fill: none; stroke: #e2e2e2; stroke-width: 0.8; stroke-linecap: square"/>
     </g>
     <g id="line2d_16">
      <defs>
       <path id="m8186ba9a14" d="M 0 0 
L -3.5 0 
" style="stroke: #000000; stroke-width: 0.8"/>
      </defs>
      <g>
       <use xlink:href="#m8186ba9a14" x="96.401563" y="450.72" style="stroke: #000000; stroke-width: 0.8"/>
      </g>
     </g>
     <g id="text_6">
      <!-- 0 -->
      <g transform="translate(72.71875 461.456719)scale(0.3 -0.3)">
       <use xlink:href="#ArialMT-30"/>
      </g>
     </g>
    </g>
    <g id="ytick_2">
     <g id="line2d_17">
      <path d="M 96.401563 398.541176 
L 542.801562 398.541176 
" clip-path="url(#p6c543588ae)" style="fill: none; stroke: #e2e2e2; stroke-width: 0.8; stroke-linecap: square"/>
     </g>
     <g id="line2d_18">
      <g>
       <use xlink:href="#m8186ba9a14" x="96.401563" y="398.541176" style="stroke: #000000; stroke-width: 0.8"/>
      </g>
     </g>
     <g id="text_7">
      <!-- 30 -->
      <g transform="translate(56.035938 409.277895)scale(0.3 -0.3)">
       <defs>
        <path id="ArialMT-33" d="M 269 1209 
L 831 1284 
Q 928 806 1161 595 
Q 1394 384 1728 384 
Q 2125 384 2398 659 
Q 2672 934 2672 1341 
Q 2672 1728 2419 1979 
Q 2166 2231 1775 2231 
Q 1616 2231 1378 2169 
L 1441 2663 
Q 1497 2656 1531 2656 
Q 1891 2656 2178 2843 
Q 2466 3031 2466 3422 
Q 2466 3731 2256 3934 
Q 2047 4138 1716 4138 
Q 1388 4138 1169 3931 
Q 950 3725 888 3313 
L 325 3413 
Q 428 3978 793 4289 
Q 1159 4600 1703 4600 
Q 2078 4600 2393 4439 
Q 2709 4278 2876 4000 
Q 3044 3722 3044 3409 
Q 3044 3113 2884 2869 
Q 2725 2625 2413 2481 
Q 2819 2388 3044 2092 
Q 3269 1797 3269 1353 
Q 3269 753 2831 336 
Q 2394 -81 1725 -81 
Q 1122 -81 723 278 
Q 325 638 269 1209 
z
" transform="scale(0.015625)"/>
       </defs>
       <use xlink:href="#ArialMT-33"/>
       <use xlink:href="#ArialMT-30" x="55.615234"/>
      </g>
     </g>
    </g>
    <g id="ytick_3">
     <g id="line2d_19">
      <path d="M 96.401563 372.451765 
L 542.801562 372.451765 
" clip-path="url(#p6c543588ae)" style="fill: none; stroke: #e2e2e2; stroke-width: 0.8; stroke-linecap: square"/>
     </g>
     <g id="line2d_20">
      <g>
       <use xlink:href="#m8186ba9a14" x="96.401563" y="372.451765" style="stroke: #000000; stroke-width: 0.8"/>
      </g>
     </g>
     <g id="text_8">
      <!-- 45 -->
      <g transform="translate(56.035938 383.188483)scale(0.3 -0.3)">
       <defs>
        <path id="ArialMT-35" d="M 266 1200 
L 856 1250 
Q 922 819 1161 601 
Q 1400 384 1738 384 
Q 2144 384 2425 690 
Q 2706 997 2706 1503 
Q 2706 1984 2436 2262 
Q 2166 2541 1728 2541 
Q 1456 2541 1237 2417 
Q 1019 2294 894 2097 
L 366 2166 
L 809 4519 
L 3088 4519 
L 3088 3981 
L 1259 3981 
L 1013 2750 
Q 1425 3038 1878 3038 
Q 2478 3038 2890 2622 
Q 3303 2206 3303 1553 
Q 3303 931 2941 478 
Q 2500 -78 1738 -78 
Q 1113 -78 717 272 
Q 322 622 266 1200 
z
" transform="scale(0.015625)"/>
       </defs>
       <use xlink:href="#ArialMT-34"/>
       <use xlink:href="#ArialMT-35" x="55.615234"/>
      </g>
     </g>
    </g>
    <g id="ytick_4">
     <g id="line2d_21">
      <path d="M 96.401563 268.094118 
L 542.801562 268.094118 
" clip-path="url(#p6c543588ae)" style="fill: none; stroke: #e2e2e2; stroke-width: 0.8; stroke-linecap: square"/>
     </g>
     <g id="line2d_22">
      <g>
       <use xlink:href="#m8186ba9a14" x="96.401563" y="268.094118" style="stroke: #000000; stroke-width: 0.8"/>
      </g>
     </g>
     <g id="text_9">
      <!-- 105 -->
      <g transform="translate(39.353125 278.830836)scale(0.3 -0.3)">
       <defs>
        <path id="ArialMT-31" d="M 2384 0 
L 1822 0 
L 1822 3584 
Q 1619 3391 1289 3197 
Q 959 3003 697 2906 
L 697 3450 
Q 1169 3672 1522 3987 
Q 1875 4303 2022 4600 
L 2384 4600 
L 2384 0 
z
" transform="scale(0.015625)"/>
       </defs>
       <use xlink:href="#ArialMT-31"/>
       <use xlink:href="#ArialMT-30" x="55.615234"/>
       <use xlink:href="#ArialMT-35" x="111.230469"/>
      </g>
     </g>
    </g>
    <g id="ytick_5">
     <g id="line2d_23">
      <path d="M 96.401563 189.825882 
L 542.801562 189.825882 
" clip-path="url(#p6c543588ae)" style="fill: none; stroke: #e2e2e2; stroke-width: 0.8; stroke-linecap: square"/>
     </g>
     <g id="line2d_24">
      <g>
       <use xlink:href="#m8186ba9a14" x="96.401563" y="189.825882" style="stroke: #000000; stroke-width: 0.8"/>
      </g>
     </g>
     <g id="text_10">
      <!-- 150 -->
      <g transform="translate(39.353125 200.562601)scale(0.3 -0.3)">
       <use xlink:href="#ArialMT-31"/>
       <use xlink:href="#ArialMT-35" x="55.615234"/>
       <use xlink:href="#ArialMT-30" x="111.230469"/>
      </g>
     </g>
    </g>
    <g id="ytick_6">
     <g id="line2d_25">
      <path d="M 96.401563 85.468235 
L 542.801562 85.468235 
" clip-path="url(#p6c543588ae)" style="fill: none; stroke: #e2e2e2; stroke-width: 0.8; stroke-linecap: square"/>
     </g>
     <g id="line2d_26">
      <g>
       <use xlink:href="#m8186ba9a14" x="96.401563" y="85.468235" style="stroke: #000000; stroke-width: 0.8"/>
      </g>
     </g>
     <g id="text_11">
      <!-- 210 -->
      <g transform="translate(39.353125 96.204954)scale(0.3 -0.3)">
       <use xlink:href="#ArialMT-32"/>
       <use xlink:href="#ArialMT-31" x="55.615234"/>
       <use xlink:href="#ArialMT-30" x="111.230469"/>
      </g>
     </g>
    </g>
    <g id="ytick_7">
     <g id="line2d_27">
      <path d="M 96.401563 59.378824 
L 542.801562 59.378824 
" clip-path="url(#p6c543588ae)" style="fill: none; stroke: #e2e2e2; stroke-width: 0.8; stroke-linecap: square"/>
     </g>
     <g id="line2d_28">
      <g>
       <use xlink:href="#m8186ba9a14" x="96.401563" y="59.378824" style="stroke: #000000; stroke-width: 0.8"/>
      </g>
     </g>
     <g id="text_12">
      <!-- 225 -->
      <g transform="translate(39.353125 70.115542)scale(0.3 -0.3)">
       <use xlink:href="#ArialMT-32"/>
       <use xlink:href="#ArialMT-32" x="55.615234"/>
       <use xlink:href="#ArialMT-35" x="111.230469"/>
      </g>
     </g>
    </g>
    <g id="text_13">
     <!-- DW position (nm) -->
     <g transform="translate(29.039063 344.809219)rotate(-90)scale(0.3 -0.3)">
      <defs>
       <path id="ArialMT-44" d="M 494 0 
L 494 4581 
L 2072 4581 
Q 2606 4581 2888 4516 
Q 3281 4425 3559 4188 
Q 3922 3881 4101 3404 
Q 4281 2928 4281 2316 
Q 4281 1794 4159 1391 
Q 4038 988 3847 723 
Q 3656 459 3429 307 
Q 3203 156 2883 78 
Q 2563 0 2147 0 
L 494 0 
z
M 1100 541 
L 2078 541 
Q 2531 541 2789 625 
Q 3047 709 3200 863 
Q 3416 1078 3536 1442 
Q 3656 1806 3656 2325 
Q 3656 3044 3420 3430 
Q 3184 3816 2847 3947 
Q 2603 4041 2063 4041 
L 1100 4041 
L 1100 541 
z
" transform="scale(0.015625)"/>
       <path id="ArialMT-57" d="M 1294 0 
L 78 4581 
L 700 4581 
L 1397 1578 
Q 1509 1106 1591 641 
Q 1766 1375 1797 1488 
L 2669 4581 
L 3400 4581 
L 4056 2263 
Q 4303 1400 4413 641 
Q 4500 1075 4641 1638 
L 5359 4581 
L 5969 4581 
L 4713 0 
L 4128 0 
L 3163 3491 
Q 3041 3928 3019 4028 
Q 2947 3713 2884 3491 
L 1913 0 
L 1294 0 
z
" transform="scale(0.015625)"/>
       <path id="ArialMT-70" d="M 422 -1272 
L 422 3319 
L 934 3319 
L 934 2888 
Q 1116 3141 1344 3267 
Q 1572 3394 1897 3394 
Q 2322 3394 2647 3175 
Q 2972 2956 3137 2557 
Q 3303 2159 3303 1684 
Q 3303 1175 3120 767 
Q 2938 359 2589 142 
Q 2241 -75 1856 -75 
Q 1575 -75 1351 44 
Q 1128 163 984 344 
L 984 -1272 
L 422 -1272 
z
M 931 1641 
Q 931 1000 1190 694 
Q 1450 388 1819 388 
Q 2194 388 2461 705 
Q 2728 1022 2728 1688 
Q 2728 2322 2467 2637 
Q 2206 2953 1844 2953 
Q 1484 2953 1207 2617 
Q 931 2281 931 1641 
z
" transform="scale(0.015625)"/>
       <path id="ArialMT-6f" d="M 213 1659 
Q 213 2581 725 3025 
Q 1153 3394 1769 3394 
Q 2453 3394 2887 2945 
Q 3322 2497 3322 1706 
Q 3322 1066 3130 698 
Q 2938 331 2570 128 
Q 2203 -75 1769 -75 
Q 1072 -75 642 372 
Q 213 819 213 1659 
z
M 791 1659 
Q 791 1022 1069 705 
Q 1347 388 1769 388 
Q 2188 388 2466 706 
Q 2744 1025 2744 1678 
Q 2744 2294 2464 2611 
Q 2184 2928 1769 2928 
Q 1347 2928 1069 2612 
Q 791 2297 791 1659 
z
" transform="scale(0.015625)"/>
       <path id="ArialMT-74" d="M 1650 503 
L 1731 6 
Q 1494 -44 1306 -44 
Q 1000 -44 831 53 
Q 663 150 594 308 
Q 525 466 525 972 
L 525 2881 
L 113 2881 
L 113 3319 
L 525 3319 
L 525 4141 
L 1084 4478 
L 1084 3319 
L 1650 3319 
L 1650 2881 
L 1084 2881 
L 1084 941 
Q 1084 700 1114 631 
Q 1144 563 1211 522 
Q 1278 481 1403 481 
Q 1497 481 1650 503 
z
" transform="scale(0.015625)"/>
      </defs>
      <use xlink:href="#ArialMT-44"/>
      <use xlink:href="#ArialMT-57" x="72.216797"/>
      <use xlink:href="#ArialMT-20" x="166.601562"/>
      <use xlink:href="#ArialMT-70" x="194.384766"/>
      <use xlink:href="#ArialMT-6f" x="250"/>
      <use xlink:href="#ArialMT-73" x="305.615234"/>
      <use xlink:href="#ArialMT-69" x="355.615234"/>
      <use xlink:href="#ArialMT-74" x="377.832031"/>
      <use xlink:href="#ArialMT-69" x="405.615234"/>
      <use xlink:href="#ArialMT-6f" x="427.832031"/>
      <use xlink:href="#ArialMT-6e" x="483.447266"/>
      <use xlink:href="#ArialMT-20" x="539.0625"/>
      <use xlink:href="#ArialMT-28" x="566.845703"/>
      <use xlink:href="#ArialMT-6e" x="600.146484"/>
      <use xlink:href="#ArialMT-6d" x="655.761719"/>
      <use xlink:href="#ArialMT-29" x="739.0625"/>
     </g>
    </g>
   </g>
   <g id="line2d_29">
    <path d="M 245.201562 450.72 
L 245.201562 7.2 
" clip-path="url(#p6c543588ae)" style="fill: none; stroke-dasharray: 16.65,7.2; stroke-dashoffset: 0; stroke: #000000; stroke-width: 4.5"/>
   </g>
   <g id="line2d_30">
    <path d="M 394.001562 450.72 
L 394.001562 7.2 
" clip-path="url(#p6c543588ae)" style="fill: none; stroke-dasharray: 16.65,7.2; stroke-dashoffset: 0; stroke: #000000; stroke-width: 4.5"/>
   </g>
   <g id="line2d_31">
    <path clip-path="url(#p6c543588ae)" style="fill: none; stroke-dasharray: 16.65,7.2; stroke-dashoffset: 0; stroke: #000000; stroke-width: 4.5"/>
   </g>
   <g id="line2d_32">
    <path clip-path="url(#p6c543588ae)" style="fill: none; stroke-dasharray: 16.65,7.2; stroke-dashoffset: 0; stroke: #000000; stroke-width: 4.5"/>
   </g>
   <g id="line2d_33">
    <path d="M 22.001563 268.094118 
L 559.342969 268.094118 
" clip-path="url(#p6c543588ae)" style="fill: none; stroke-dasharray: 4.5,7.425; stroke-dashoffset: 0; stroke: #ff0000; stroke-width: 4.5"/>
   </g>
   <g id="line2d_34">
    <path d="M 22.001563 189.825882 
L 559.342969 189.825882 
" clip-path="url(#p6c543588ae)" style="fill: none; stroke-dasharray: 4.5,7.425; stroke-dashoffset: 0; stroke: #ff0000; stroke-width: 4.5"/>
   </g>
   <g id="line2d_35">
    <path d="M 22.001563 398.541176 
L 559.342969 398.541176 
" clip-path="url(#p6c543588ae)" style="fill: none; stroke-dasharray: 4.5,7.425; stroke-dashoffset: 0; stroke: #008000; stroke-width: 4.5"/>
   </g>
   <g id="line2d_36">
    <path d="M 22.001563 372.451765 
L 559.342969 372.451765 
" clip-path="url(#p6c543588ae)" style="fill: none; stroke-dasharray: 4.5,7.425; stroke-dashoffset: 0; stroke: #008000; stroke-width: 4.5"/>
   </g>
   <g id="line2d_37">
    <path d="M 22.001563 85.468235 
L 559.342969 85.468235 
" clip-path="url(#p6c543588ae)" style="fill: none; stroke-dasharray: 4.5,7.425; stroke-dashoffset: 0; stroke: #008000; stroke-width: 4.5"/>
   </g>
   <g id="line2d_38">
    <path d="M 22.001563 59.378824 
L 559.342969 59.378824 
" clip-path="url(#p6c543588ae)" style="fill: none; stroke-dasharray: 4.5,7.425; stroke-dashoffset: 0; stroke: #008000; stroke-width: 4.5"/>
   </g>
   <g id="line2d_39">
    <path d="M 22.001563 70.745381 
L 30.932541 70.858827 
L 45.068386 71.059145 
L 56.228096 70.944779 
L 70.365006 70.841672 
L 107.562642 70.901121 
L 124.673872 70.919859 
L 147.739709 70.935307 
L 176.011441 70.937427 
L 231.069177 70.936904 
L 245.201562 70.926287 
L 247.435565 76.014406 
L 249.667039 79.928025 
L 251.156732 83.489561 
L 252.641562 87.045021 
L 254.876405 91.93798 
L 259.341041 104.17721 
L 260.826605 108.865215 
L 271.986664 147.523588 
L 274.961562 158.257031 
L 289.841562 216.173706 
L 293.561562 231.304819 
L 300.26142 252.911346 
L 311.418231 288.750417 
L 315.88555 303.222717 
L 318.857976 312.265728 
L 330.018167 345.220763 
L 332.997207 352.801799 
L 338.205132 365.762939 
L 346.386101 387.104936 
L 348.618812 392.149914 
L 350.851376 396.645544 
L 353.826696 402.037027 
L 361.266709 414.815262 
L 363.501175 418.237863 
L 364.986716 420.168621 
L 366.476349 421.738405 
L 367.96552 422.899461 
L 369.451521 423.629554 
L 370.941138 423.928225 
L 372.426683 423.808925 
L 373.916285 423.293168 
L 375.405512 422.409333 
L 376.891431 421.204444 
L 378.381012 419.731422 
L 380.611391 417.182096 
L 385.820962 410.984338 
L 388.051365 408.726796 
L 390.285502 406.844404 
L 392.516148 405.33933 
L 400.700826 400.5747 
L 404.420838 398.022913 
L 408.140961 395.079661 
L 411.116349 392.410722 
L 414.8366 388.808894 
L 419.297738 384.457819 
L 421.532206 382.51923 
L 423.762738 380.887668 
L 425.252367 380.012401 
L 426.738077 379.330335 
L 428.22771 378.854765 
L 429.71735 378.591953 
L 431.203071 378.541529 
L 432.692714 378.700396 
L 434.178436 379.049455 
L 435.66808 379.574504 
L 437.898628 380.643891 
L 440.133089 381.961042 
L 444.594157 384.952643 
L 448.314317 387.345358 
L 450.548768 388.568344 
L 452.779299 389.571129 
L 455.009832 390.324584 
L 457.244283 390.825896 
L 459.474819 391.070186 
L 461.709274 391.072138 
L 463.939812 390.843618 
L 466.170355 390.405773 
L 469.145712 389.537575 
L 472.124988 388.414007 
L 478.075698 385.823617 
L 481.795871 384.328904 
L 484.771224 383.392349 
L 487.001758 382.898723 
L 489.23621 382.60708 
L 491.466748 382.525038 
L 493.701201 382.645198 
L 496.676551 383.084135 
L 499.651904 383.771883 
L 504.857795 385.281472 
L 510.067605 386.722148 
L 513.042958 387.345335 
L 516.018315 387.761332 
L 518.993666 387.950214 
L 521.972942 387.914085 
L 524.948297 387.67418 
L 528.668471 387.144992 
L 534.619176 386.011291 
L 540.569883 384.942888 
L 544.290052 384.495418 
L 548.010227 384.290795 
L 551.7304 384.339343 
L 555.450572 384.608148 
L 559.342969 385.053015 
L 559.342969 385.053015 
" clip-path="url(#p6c543588ae)" style="fill: none; stroke: #1f77b4; stroke-width: 4.5; stroke-linecap: square"/>
   </g>
   <g id="line2d_40">
    <path d="M 22.001563 70.748416 
L 30.932541 70.860086 
L 45.068386 71.056965 
L 56.972923 70.933403 
L 70.365006 70.843147 
L 107.562642 70.901545 
L 124.673872 70.920051 
L 147.739709 70.935201 
L 176.011441 70.937266 
L 231.069177 70.936768 
L 245.201562 70.926342 
L 247.435565 76.026897 
L 249.667039 80.016776 
L 251.156732 83.667773 
L 252.641562 87.366316 
L 254.876405 92.509443 
L 259.341041 105.368753 
L 260.826605 110.294483 
L 274.961562 161.344334 
L 278.681562 175.632778 
L 284.636839 198.734629 
L 294.306907 237.400643 
L 300.26142 256.641028 
L 309.186991 285.426184 
L 314.396534 302.474215 
L 318.116936 313.876519 
L 324.066959 331.948314 
L 327.045583 340.831314 
L 330.018167 348.984034 
L 345.64399 389.450637 
L 347.877139 394.293528 
L 350.851376 400.119825 
L 358.291563 413.821879 
L 360.52552 417.568329 
L 362.011529 419.711863 
L 363.501175 421.483819 
L 364.986716 422.818031 
L 366.476349 423.695833 
L 367.96552 424.115171 
L 369.451521 424.088197 
L 370.941138 423.632204 
L 372.426683 422.780598 
L 373.916285 421.569033 
L 375.405512 420.052109 
L 377.636223 417.370347 
L 383.586579 409.828483 
L 385.820962 407.494305 
L 388.051365 405.576193 
L 390.285502 404.040625 
L 392.516148 402.83867 
L 399.21129 399.737117 
L 402.931253 397.53771 
L 405.161715 396.012618 
L 408.881861 393.155534 
L 412.602095 389.86904 
L 419.297738 383.777832 
L 421.532206 382.063351 
L 423.762738 380.67188 
L 425.252367 379.958364 
L 426.738077 379.434571 
L 428.22771 379.108212 
L 429.71735 378.981548 
L 431.203071 379.050814 
L 432.692714 379.309433 
L 434.178436 379.735639 
L 436.412902 380.656359 
L 438.64345 381.836676 
L 442.363624 384.133518 
L 446.828607 386.89629 
L 449.803951 388.446571 
L 452.03448 389.372637 
L 454.268933 390.061287 
L 456.499465 390.507082 
L 458.73 390.7094 
L 460.964455 390.679026 
L 463.19499 390.431031 
L 465.429452 389.983324 
L 468.404811 389.124636 
L 472.124988 387.740994 
L 480.30623 384.47944 
L 483.281586 383.58205 
L 485.516043 383.101375 
L 487.746577 382.810769 
L 489.98103 382.716132 
L 492.211566 382.81244 
L 495.186914 383.205797 
L 498.162268 383.83834 
L 503.372077 385.249586 
L 508.577968 386.613197 
L 512.298141 387.331576 
L 515.277416 387.684244 
L 518.252771 387.820997 
L 521.228123 387.748011 
L 524.948297 387.398317 
L 529.41329 386.70396 
L 540.569883 384.81195 
L 544.290052 384.471012 
L 548.010227 384.366685 
L 551.7304 384.49312 
L 556.19539 384.886005 
L 559.342969 385.258488 
L 559.342969 385.258488 
" clip-path="url(#p6c543588ae)" style="fill: none; stroke: #ff7f0e; stroke-width: 4.5; stroke-linecap: square"/>
   </g>
   <g id="line2d_41">
    <path d="M 22.001563 70.754735 
L 31.674052 70.877564 
L 45.068386 71.052482 
L 56.972923 70.933154 
L 70.365006 70.846166 
L 108.307462 70.898825 
L 126.16351 70.927978 
L 148.484527 70.932276 
L 176.756259 70.938395 
L 237.764698 70.932716 
L 245.201562 70.926434 
L 247.435565 76.045587 
L 249.667039 80.07179 
L 251.156732 83.74069 
L 252.641562 87.438387 
L 254.876405 92.565866 
L 259.341041 105.298395 
L 260.826605 110.130965 
L 274.221159 157.547324 
L 286.121562 203.625227 
L 292.077376 227.623658 
L 293.561562 233.700586 
L 301.001562 257.900369 
L 309.186991 284.321802 
L 315.141454 303.805809 
L 318.116936 312.930035 
L 324.066959 330.931877 
L 327.786969 342.002038 
L 330.765593 350.014629 
L 338.946941 370.878837 
L 343.412066 382.652388 
L 345.64399 388.034999 
L 347.877139 392.909937 
L 350.105909 397.321818 
L 354.571549 405.381111 
L 360.52552 415.814567 
L 362.756353 419.172532 
L 364.245521 421.005115 
L 365.731533 422.424543 
L 367.221167 423.405792 
L 368.70671 423.937305 
L 370.196328 424.025904 
L 371.685517 423.68779 
L 373.171485 422.954616 
L 374.661082 421.858334 
L 376.146639 420.454993 
L 378.381012 417.91746 
L 385.076166 409.798778 
L 387.306574 407.634123 
L 389.540951 405.867559 
L 391.771355 404.476362 
L 394.005502 403.405556 
L 398.466528 401.2719 
L 401.441692 399.55779 
L 404.420838 397.687267 
L 408.140961 394.950246 
L 411.116349 392.429006 
L 414.8366 388.993893 
L 420.042563 384.134232 
L 422.277024 382.320231 
L 424.507551 380.821504 
L 425.997184 380.030946 
L 427.482895 379.432911 
L 428.972529 379.034475 
L 430.458251 378.840094 
L 431.947892 378.849949 
L 433.433615 379.055009 
L 434.923259 379.438638 
L 437.153805 380.316481 
L 439.388271 381.47653 
L 442.363624 383.310964 
L 448.314317 387.090565 
L 451.289663 388.648912 
L 453.524115 389.568124 
L 455.754648 390.2442 
L 457.989102 390.673345 
L 460.219638 390.854555 
L 462.450172 390.802573 
L 464.684632 390.528768 
L 466.915175 390.057657 
L 469.890531 389.163784 
L 473.610706 387.738032 
L 481.795871 384.40713 
L 484.771224 383.500551 
L 487.001758 383.020344 
L 489.23621 382.733878 
L 491.466748 382.648915 
L 493.701201 382.758571 
L 496.676551 383.173865 
L 499.651904 383.830194 
L 504.857795 385.278693 
L 510.067605 386.667977 
L 513.787777 387.39282 
L 516.763132 387.743978 
L 519.738487 387.874924 
L 522.713843 387.792273 
L 526.434017 387.426723 
L 530.89901 386.710897 
L 541.314701 384.875556 
L 545.034871 384.48749 
L 548.755048 384.338246 
L 552.475218 384.429219 
L 556.94021 384.798848 
L 559.342969 385.076714 
L 559.342969 385.076714 
" clip-path="url(#p6c543588ae)" style="fill: none; stroke: #2ca02c; stroke-width: 4.5; stroke-linecap: square"/>
   </g>
   <g id="line2d_42">
    <path d="M 22.001563 70.745381 
L 30.932541 70.858827 
L 45.068386 71.059145 
L 56.228096 70.944779 
L 70.365006 70.841672 
L 107.562642 70.901121 
L 124.673872 70.919859 
L 147.739709 70.935284 
L 176.011441 70.937427 
L 230.324355 70.937001 
L 245.201562 70.926287 
L 247.435565 76.028819 
L 249.667039 80.040642 
L 251.156732 83.737219 
L 252.641562 87.473762 
L 254.876405 92.698417 
L 259.341041 105.693475 
L 260.826605 110.644916 
L 263.801562 121.026786 
L 266.036165 129.13684 
L 268.266595 136.948311 
L 270.501033 144.804704 
L 278.681562 175.613551 
L 284.636839 198.737429 
L 294.306907 237.466179 
L 299.516593 254.388585 
L 308.445588 283.091584 
L 315.141454 304.948458 
L 318.116936 313.891621 
L 322.577818 327.196929 
L 328.531994 344.961889 
L 331.507006 352.807538 
L 335.972153 364.332988 
L 339.692133 374.720468 
L 342.666766 382.799419 
L 344.898864 388.326549 
L 347.131599 393.22512 
L 349.363645 397.601002 
L 353.085512 404.27091 
L 359.781174 415.995347 
L 361.266709 418.247151 
L 362.756353 420.176186 
L 364.245521 421.701656 
L 365.731533 422.774433 
L 367.221167 423.385738 
L 368.70671 423.539323 
L 370.196328 423.249715 
L 371.685517 422.543442 
L 373.171485 421.465129 
L 374.661082 420.061788 
L 376.891431 417.513907 
L 383.586579 409.346346 
L 385.820962 407.188904 
L 388.051365 405.456978 
L 390.285502 404.113163 
L 392.516148 403.109179 
L 399.21129 400.635736 
L 403.676043 398.377585 
L 406.65133 396.514753 
L 408.881861 394.981717 
L 412.602095 392.014751 
L 416.322342 388.689827 
L 421.532206 384.034943 
L 423.762738 382.316553 
L 425.997184 380.90267 
L 427.482895 380.169312 
L 428.972529 379.618857 
L 430.458251 379.261166 
L 431.947892 379.100662 
L 433.433615 379.135069 
L 434.923259 379.352099 
L 436.412902 379.744339 
L 438.64345 380.611512 
L 440.873987 381.74303 
L 444.594157 383.980868 
L 449.803951 387.134697 
L 452.779299 388.612493 
L 455.009832 389.472724 
L 457.244283 390.102177 
L 459.474819 390.486456 
L 461.709274 390.634732 
L 463.939812 390.55395 
L 466.170355 390.262245 
L 468.404811 389.779093 
L 471.380169 388.886305 
L 475.100341 387.487987 
L 482.54069 384.563425 
L 485.516043 383.664184 
L 487.746577 383.177446 
L 489.98103 382.874836 
L 492.211566 382.76598 
L 494.442097 382.845359 
L 497.42137 383.215771 
L 500.396724 383.825909 
L 504.857795 384.999288 
L 510.812425 386.558694 
L 514.532597 387.279387 
L 517.507951 387.639044 
L 520.483305 387.786866 
L 523.45866 387.727155 
L 527.178835 387.395228 
L 531.643829 386.72065 
L 542.804339 384.848807 
L 546.52451 384.503216 
L 550.244684 384.3897 
L 553.964856 384.504429 
L 558.425925 384.882529 
L 559.342969 384.983345 
L 559.342969 384.983345 
" clip-path="url(#p6c543588ae)" style="fill: none; stroke: #d62728; stroke-width: 4.5; stroke-linecap: square"/>
   </g>
   <g id="line2d_43">
    <path d="M 22.001563 70.74843 
L 30.932541 70.860086 
L 45.068386 71.056965 
L 56.972923 70.933403 
L 70.365006 70.843147 
L 107.562642 70.901545 
L 124.673872 70.920051 
L 147.739709 70.935201 
L 176.011441 70.937266 
L 231.810075 70.93656 
L 245.201562 70.926342 
L 247.435565 76.0418 
L 249.667039 80.070463 
L 251.156732 83.758428 
L 252.641562 87.486183 
L 254.876405 92.65676 
L 259.341041 105.371588 
L 260.826605 110.183841 
L 268.266595 135.873755 
L 270.501033 143.578007 
L 276.451574 165.736694 
L 285.377911 200.201047 
L 294.306907 235.690105 
L 301.001562 257.181098 
L 309.186991 283.445602 
L 315.141454 302.965546 
L 318.116936 311.982252 
L 324.066959 329.650172 
L 327.786969 340.821658 
L 330.765593 349.014386 
L 338.946941 370.282324 
L 343.412066 382.467677 
L 345.64399 387.983999 
L 347.877139 392.902285 
L 350.105909 397.289623 
L 353.826696 403.986997 
L 360.52552 415.54249 
L 362.011529 417.748673 
L 363.501175 419.644869 
L 364.986716 421.149612 
L 366.476349 422.218699 
L 367.96552 422.842683 
L 369.451521 423.017576 
L 370.941138 422.758313 
L 372.426683 422.095543 
L 373.916285 421.064665 
L 375.405512 419.717246 
L 377.636223 417.259207 
L 385.076166 408.443025 
L 387.306574 406.375531 
L 389.540951 404.685617 
L 391.771355 403.343162 
L 394.005502 402.290598 
L 397.721771 400.532805 
L 399.956052 399.313746 
L 404.420838 396.485077 
L 408.140961 393.653343 
L 411.116349 391.061408 
L 416.322342 386.223272 
L 419.297738 383.607227 
L 421.532206 381.908461 
L 423.762738 380.541384 
L 425.252367 379.848493 
L 426.738077 379.347705 
L 428.22771 379.046288 
L 429.71735 378.945611 
L 431.203071 379.040974 
L 432.692714 379.325196 
L 434.178436 379.775508 
L 436.412902 380.728501 
L 438.64345 381.934678 
L 442.363624 384.25761 
L 446.828607 387.022477 
L 449.803951 388.559771 
L 452.03448 389.471319 
L 454.268933 390.143085 
L 456.499465 390.570872 
L 458.73 390.754938 
L 460.964455 390.706588 
L 463.19499 390.441367 
L 465.429452 389.977548 
L 468.404811 389.099855 
L 472.124988 387.698014 
L 480.30623 384.427825 
L 483.281586 383.538701 
L 485.516043 383.067337 
L 487.746577 382.787989 
L 489.98103 382.705624 
L 492.211566 382.814507 
L 495.186914 383.223517 
L 498.162268 383.86906 
L 503.372077 385.293396 
L 508.577968 386.656546 
L 512.298141 387.367919 
L 515.277416 387.712383 
L 518.252771 387.839744 
L 521.228123 387.757149 
L 524.948297 387.396312 
L 529.41329 386.691721 
L 539.828985 384.890028 
L 543.549157 384.510455 
L 547.269328 384.365579 
L 550.98558 384.456263 
L 555.450572 384.820361 
L 559.342969 385.277166 
L 559.342969 385.277166 
" clip-path="url(#p6c543588ae)" style="fill: none; stroke: #9467bd; stroke-width: 4.5; stroke-linecap: square"/>
   </g>
   <g id="line2d_44">
    <path d="M 22.001563 70.754735 
L 31.674052 70.877531 
L 45.068386 71.052482 
L 56.972923 70.933154 
L 70.365006 70.846166 
L 108.307462 70.898825 
L 126.16351 70.927978 
L 148.484527 70.932276 
L 176.756259 70.938395 
L 237.01988 70.933325 
L 245.201562 70.926434 
L 247.435565 75.980494 
L 249.667039 79.81408 
L 251.156732 83.31771 
L 252.641562 86.835409 
L 254.876405 91.706567 
L 259.341041 104.023602 
L 260.826605 108.772779 
L 271.241562 145.416944 
L 275.706732 161.975126 
L 282.401562 187.727715 
L 286.121562 202.360371 
L 292.077376 226.286148 
L 293.561562 232.332078 
L 299.516593 251.475371 
L 308.445588 279.690406 
L 316.626951 306.284354 
L 321.091836 319.329511 
L 325.556963 332.612628 
L 329.277031 343.593049 
L 331.507006 349.644776 
L 338.205132 367.10508 
L 344.157404 383.47551 
L 346.386101 388.940623 
L 348.618812 393.779668 
L 350.851376 398.055269 
L 354.571549 404.560249 
L 361.266709 415.887345 
L 362.756353 418.080431 
L 364.245521 419.974525 
L 365.731533 421.493637 
L 367.221167 422.603515 
L 368.70671 423.281988 
L 370.196328 423.529535 
L 371.685517 423.357269 
L 373.171485 422.792674 
L 374.661082 421.864474 
L 376.146639 420.622039 
L 377.636223 419.12065 
L 379.866599 416.551337 
L 385.076166 410.394185 
L 387.306574 408.181082 
L 389.540951 406.352287 
L 391.771355 404.90621 
L 394.005502 403.796064 
L 398.466528 401.615072 
L 401.441692 399.879756 
L 404.420838 397.997079 
L 408.140961 395.255292 
L 411.116349 392.734098 
L 414.091763 390.006655 
L 420.042563 384.362859 
L 422.277024 382.499757 
L 424.507551 380.943392 
L 425.997184 380.111329 
L 427.482895 379.470752 
L 428.972529 379.030177 
L 430.458251 378.795204 
L 431.947892 378.76703 
L 433.433615 378.938061 
L 434.923259 379.292379 
L 436.412902 379.818073 
L 438.64345 380.869369 
L 440.873987 382.156699 
L 450.548768 388.172305 
L 452.779299 389.204819 
L 455.009832 389.999306 
L 457.244283 390.54891 
L 459.474819 390.845369 
L 461.709274 390.901462 
L 463.939812 390.727481 
L 466.170355 390.343573 
L 468.404811 389.771119 
L 471.380169 388.768482 
L 475.100341 387.257715 
L 481.795871 384.5058 
L 484.771224 383.561631 
L 487.001758 383.050193 
L 489.23621 382.732089 
L 491.466748 382.617211 
L 493.701201 382.700415 
L 495.931733 382.964449 
L 498.907086 383.549316 
L 502.627259 384.530318 
L 510.812425 386.769608 
L 513.787777 387.35208 
L 516.763132 387.729782 
L 519.738487 387.885856 
L 522.713843 387.824891 
L 526.434017 387.479253 
L 530.89901 386.77418 
L 542.059522 384.80794 
L 545.779692 384.442205 
L 549.499867 384.31981 
L 553.220038 384.437343 
L 557.685028 384.832241 
L 559.342969 385.026703 
L 559.342969 385.026703 
" clip-path="url(#p6c543588ae)" style="fill: none; stroke: #8c564b; stroke-width: 4.5; stroke-linecap: square"/>
   </g>
   <g id="line2d_45">
    <path d="M 22.001563 70.745381 
L 30.932541 70.858827 
L 45.068386 71.059145 
L 56.228096 70.944779 
L 70.365006 70.841672 
L 107.562642 70.901121 
L 124.673872 70.919859 
L 147.739709 70.935298 
L 176.011441 70.937427 
L 231.069177 70.936904 
L 245.201562 70.926287 
L 247.435565 75.993105 
L 249.667039 79.880498 
L 251.156732 83.436533 
L 252.641562 87.001925 
L 254.876405 91.938957 
L 259.341041 104.317341 
L 260.826605 109.070497 
L 274.221159 156.091521 
L 285.377911 199.017395 
L 294.306907 234.300187 
L 300.26142 253.384588 
L 309.932052 284.29747 
L 315.141454 301.494778 
L 318.116936 310.612401 
L 324.811953 330.505689 
L 328.531994 341.651947 
L 331.507006 349.805137 
L 338.946941 369.075022 
L 344.157404 383.085125 
L 346.386101 388.473728 
L 348.618812 393.279082 
L 350.851376 397.559039 
L 355.3164 405.416602 
L 361.266709 415.636528 
L 362.756353 417.869442 
L 364.245521 419.790633 
L 365.731533 421.319965 
L 367.221167 422.422137 
L 368.70671 423.075813 
L 370.196328 423.282763 
L 371.685517 423.05597 
L 373.171485 422.425349 
L 374.661082 421.422403 
L 376.146639 420.101297 
L 378.381012 417.661607 
L 385.820962 408.85227 
L 388.051365 406.808467 
L 390.285502 405.166985 
L 392.516148 403.903508 
L 399.956052 400.381266 
L 404.420838 397.686262 
L 408.140961 394.993724 
L 411.116349 392.504587 
L 414.091763 389.811104 
L 420.042563 384.261182 
L 422.277024 382.442198 
L 424.507551 380.930878 
L 425.997184 380.128281 
L 427.482895 379.51576 
L 428.972529 379.1008 
L 430.458251 378.888435 
L 431.947892 378.879401 
L 433.433615 379.065402 
L 434.923259 379.430203 
L 437.153805 380.281798 
L 439.388271 381.419216 
L 442.363624 383.231032 
L 448.314317 386.995926 
L 451.289663 388.560308 
L 453.524115 389.487946 
L 455.754648 390.174402 
L 457.989102 390.615063 
L 460.219638 390.808289 
L 462.450172 390.768374 
L 464.684632 390.50646 
L 466.915175 390.04678 
L 469.890531 389.167047 
L 473.610706 387.756215 
L 481.795871 384.439659 
L 484.771224 383.530727 
L 487.001758 383.046388 
L 489.23621 382.754089 
L 491.466748 382.66209 
L 493.701201 382.764067 
L 496.676551 383.168979 
L 499.651904 383.815813 
L 504.857795 385.252582 
L 510.067605 386.638232 
L 513.787777 387.365142 
L 516.763132 387.72002 
L 519.738487 387.855934 
L 522.713843 387.778938 
L 526.434017 387.420567 
L 530.89901 386.712478 
L 541.314701 384.884474 
L 545.034871 384.494726 
L 548.755048 384.342003 
L 552.475218 384.428477 
L 556.94021 384.792545 
L 559.342969 385.067782 
L 559.342969 385.067782 
" clip-path="url(#p6c543588ae)" style="fill: none; stroke: #e377c2; stroke-width: 4.5; stroke-linecap: square"/>
   </g>
   <g id="line2d_46">
    <path d="M 22.001563 70.754735 
L 31.674052 70.877564 
L 45.068386 71.052482 
L 56.972923 70.933154 
L 70.365006 70.846166 
L 108.307462 70.898814 
L 126.16351 70.927978 
L 148.484527 70.932276 
L 176.756259 70.938395 
L 237.764698 70.932703 
L 245.201562 70.926434 
L 247.435565 76.027703 
L 249.667039 79.996775 
L 251.156732 83.621532 
L 252.641562 87.267743 
L 254.876405 92.364071 
L 259.341041 105.149105 
L 260.826605 109.994878 
L 263.801562 120.138667 
L 266.036165 128.116613 
L 268.266595 135.829471 
L 270.501033 143.604945 
L 275.706732 163.063217 
L 281.6576 186.108131 
L 286.121562 203.655801 
L 291.33229 224.744524 
L 293.561562 233.864064 
L 299.516593 253.083868 
L 306.956991 276.732276 
L 315.88555 306.114384 
L 318.857976 314.800334 
L 324.066959 330.128402 
L 328.531994 343.335763 
L 331.507006 351.317014 
L 336.717294 364.816426 
L 344.898864 386.899977 
L 347.131599 391.977625 
L 349.363645 396.454841 
L 352.341033 401.79408 
L 359.781174 414.553141 
L 362.011529 417.947811 
L 363.501175 419.858097 
L 364.986716 421.390819 
L 366.476349 422.509604 
L 367.96552 423.195915 
L 369.451521 423.450143 
L 370.941138 423.283952 
L 372.426683 422.723445 
L 373.916285 421.798471 
L 375.405512 420.552176 
L 376.891431 419.047862 
L 379.125507 416.458509 
L 383.586579 411.090555 
L 385.820962 408.750477 
L 388.051365 406.800159 
L 390.285502 405.239418 
L 392.516148 404.036467 
L 399.956052 400.619219 
L 404.420838 397.989059 
L 408.140961 395.357209 
L 411.116349 392.916804 
L 414.091763 390.26057 
L 420.787386 384.043769 
L 423.017921 382.259322 
L 425.252367 380.788652 
L 426.738077 380.02069 
L 428.22771 379.441798 
L 429.71735 379.062268 
L 431.203071 378.885577 
L 432.692714 378.912278 
L 434.178436 379.128582 
L 435.66808 379.523474 
L 437.898628 380.411913 
L 440.133089 381.574161 
L 443.108441 383.402858 
L 449.059133 387.143439 
L 452.03448 388.677587 
L 454.268933 389.575692 
L 456.499465 390.234014 
L 458.73 390.643835 
L 460.964455 390.810409 
L 463.19499 390.74383 
L 465.429452 390.458401 
L 467.659993 389.977885 
L 470.63535 389.076325 
L 474.355523 387.649745 
L 482.54069 384.355968 
L 485.516043 383.472131 
L 487.746577 383.010011 
L 489.98103 382.741031 
L 492.211566 382.672035 
L 494.442097 382.794741 
L 497.42137 383.223229 
L 500.396724 383.885768 
L 505.602613 385.329209 
L 510.812425 386.698098 
L 513.787777 387.286695 
L 516.763132 387.676201 
L 519.738487 387.848052 
L 522.713843 387.805072 
L 525.693117 387.56778 
L 529.41329 387.054706 
L 536.108812 385.828401 
L 541.314701 384.956331 
L 545.034871 384.538368 
L 548.755048 384.353394 
L 552.475218 384.409342 
L 556.94021 384.745832 
L 559.342969 385.012238 
L 559.342969 385.012238 
" clip-path="url(#p6c543588ae)" style="fill: none; stroke: #7f7f7f; stroke-width: 4.5; stroke-linecap: square"/>
   </g>
   <g id="line2d_47">
    <path d="M 22.001563 70.748416 
L 30.932541 70.860086 
L 45.068386 71.056974 
L 56.972923 70.933403 
L 70.365006 70.843147 
L 107.562642 70.901545 
L 124.673872 70.920051 
L 147.739709 70.935192 
L 176.011441 70.937289 
L 231.810075 70.93656 
L 245.201562 70.926342 
L 247.435565 76.045439 
L 249.667039 80.061143 
L 251.156732 83.725779 
L 252.641562 87.406206 
L 254.876405 92.544634 
L 259.341041 105.373247 
L 260.826605 110.246848 
L 263.801562 120.444823 
L 266.036165 128.419908 
L 268.266595 136.110019 
L 270.501033 143.852087 
L 276.451574 166.047423 
L 284.636839 197.688656 
L 294.306907 236.249013 
L 299.516593 253.07184 
L 307.698108 279.175131 
L 315.88555 305.983929 
L 319.605575 316.956139 
L 330.018167 347.50432 
L 333.738394 356.986935 
L 337.458528 366.740429 
L 344.157404 384.805981 
L 346.386101 390.033448 
L 348.618812 394.66589 
L 350.851376 398.809253 
L 356.805527 409.090493 
L 360.52552 415.330954 
L 362.756353 418.55752 
L 364.245521 420.322665 
L 365.731533 421.696588 
L 367.221167 422.653031 
L 368.70671 423.177813 
L 370.196328 423.27525 
L 371.685517 422.960271 
L 373.171485 422.264638 
L 374.661082 421.220892 
L 376.146639 419.884071 
L 378.381012 417.464613 
L 385.076166 409.620566 
L 387.306574 407.493554 
L 389.540951 405.755709 
L 391.771355 404.396037 
L 394.005502 403.365389 
L 398.466528 401.308923 
L 401.441692 399.643321 
L 404.420838 397.819374 
L 408.140961 395.140218 
L 411.116349 392.66268 
L 414.091763 389.977009 
L 420.042563 384.409089 
L 422.277024 382.568449 
L 424.507551 381.028832 
L 425.997184 380.204696 
L 427.482895 379.569076 
L 428.972529 379.130299 
L 430.458251 378.894187 
L 431.947892 378.861978 
L 433.433615 379.026294 
L 434.923259 379.371439 
L 436.412902 379.886035 
L 438.64345 380.918065 
L 440.873987 382.184094 
L 450.548768 388.118908 
L 452.779299 389.140337 
L 455.009832 389.926807 
L 457.244283 390.471246 
L 459.474819 390.764917 
L 461.709274 390.820457 
L 463.939812 390.647891 
L 466.170355 390.267361 
L 468.404811 389.700346 
L 471.380169 388.708153 
L 475.100341 387.215403 
L 481.051051 384.774224 
L 484.026405 383.783849 
L 486.260861 383.222775 
L 488.491395 382.84876 
L 490.721929 382.673083 
L 492.956385 382.695576 
L 495.186914 382.902816 
L 498.162268 383.423903 
L 501.88244 384.352143 
L 510.812425 386.765921 
L 513.787777 387.33743 
L 516.763132 387.706414 
L 519.738487 387.856572 
L 522.713843 387.792616 
L 526.434017 387.447519 
L 530.89901 386.748706 
L 542.059522 384.812457 
L 545.779692 384.455537 
L 549.499867 384.338961 
L 553.220038 384.458533 
L 557.685028 384.851104 
L 559.342969 385.043553 
L 559.342969 385.043553 
" clip-path="url(#p6c543588ae)" style="fill: none; stroke: #bcbd22; stroke-width: 4.5; stroke-linecap: square"/>
   </g>
   <g id="line2d_48">
    <path d="M 22.001563 70.745381 
L 30.932541 70.858827 
L 45.068386 71.059145 
L 56.228096 70.944779 
L 70.365006 70.841672 
L 107.562642 70.901121 
L 124.673872 70.919859 
L 147.739709 70.935284 
L 176.011441 70.937427 
L 231.069177 70.936904 
L 245.201562 70.926287 
L 247.435565 76.043545 
L 249.667039 80.045511 
L 251.156732 83.67282 
L 252.641562 87.282264 
L 254.876405 92.196068 
L 259.341041 104.335877 
L 260.826605 109.017593 
L 270.501033 142.690342 
L 276.451574 164.946482 
L 286.121562 202.590594 
L 292.077376 226.463551 
L 293.561562 232.503659 
L 300.26142 254.080598 
L 309.932052 285.142379 
L 314.396534 299.921299 
L 317.37195 309.117243 
L 330.765593 347.991067 
L 339.692133 371.207275 
L 344.157404 383.439927 
L 346.386101 388.926736 
L 348.618812 393.815216 
L 350.851376 398.187858 
L 356.061249 407.6285 
L 359.781174 414.225017 
L 362.011529 417.747844 
L 363.501175 419.729112 
L 364.986716 421.315517 
L 366.476349 422.467468 
L 367.96552 423.164227 
L 369.451521 423.405757 
L 370.941138 423.205007 
L 372.426683 422.590601 
L 373.916285 421.595489 
L 375.405512 420.268461 
L 376.891431 418.679187 
L 379.125507 415.966138 
L 383.586579 410.403035 
L 385.820962 407.990531 
L 388.051365 405.974099 
L 390.285502 404.344484 
L 392.516148 403.06401 
L 399.21129 399.763505 
L 403.676043 396.965901 
L 406.65133 394.739076 
L 409.626689 392.283648 
L 414.8366 387.459332 
L 418.556831 384.071622 
L 420.787386 382.290537 
L 423.017921 380.820522 
L 424.507551 380.052321 
L 425.997184 379.470706 
L 427.482895 379.089785 
L 428.972529 378.910536 
L 430.458251 378.930747 
L 431.947892 379.14497 
L 433.433615 379.536432 
L 435.66808 380.413418 
L 437.898628 381.573091 
L 440.873987 383.387383 
L 446.828607 387.123027 
L 449.059133 388.301558 
L 451.289663 389.276283 
L 453.524115 390.016694 
L 455.754648 390.509788 
L 457.989102 390.759017 
L 460.219638 390.769074 
L 462.450172 390.558237 
L 464.684632 390.141071 
L 467.659993 389.312891 
L 470.63535 388.240474 
L 481.795871 383.884879 
L 484.771224 383.150743 
L 487.001758 382.817349 
L 489.23621 382.681896 
L 491.466748 382.741909 
L 494.442097 383.097363 
L 497.42137 383.707787 
L 501.88244 384.903372 
L 507.837071 386.519517 
L 511.557243 387.279631 
L 514.532597 387.667789 
L 517.507951 387.83903 
L 520.483305 387.796061 
L 524.203481 387.474321 
L 528.668471 386.79565 
L 540.569883 384.76481 
L 544.290052 384.43755 
L 548.010227 384.350945 
L 551.7304 384.495786 
L 556.19539 384.907266 
L 559.342969 385.288561 
L 559.342969 385.288561 
" clip-path="url(#p6c543588ae)" style="fill: none; stroke: #17becf; stroke-width: 4.5; stroke-linecap: square"/>
   </g>
   <g id="line2d_49">
    <path d="M 22.001563 70.745381 
L 30.932541 70.858827 
L 45.068386 71.059145 
L 56.228096 70.944779 
L 70.365006 70.841672 
L 107.562642 70.901121 
L 124.673872 70.919859 
L 147.739709 70.935284 
L 176.011441 70.937427 
L 230.324355 70.937001 
L 245.201562 70.926287 
L 247.435565 76.014014 
L 249.667039 79.937305 
L 251.156732 83.50113 
L 252.641562 87.053294 
L 254.876405 91.936183 
L 259.341041 104.188816 
L 260.826605 108.918601 
L 274.221159 155.796583 
L 285.377911 198.846119 
L 294.306907 234.244743 
L 300.26142 253.474929 
L 309.932052 284.600878 
L 315.141454 301.77997 
L 318.116936 310.907182 
L 325.556963 333.059598 
L 328.531994 341.769544 
L 330.765593 347.80389 
L 339.692133 370.708866 
L 344.157404 382.885852 
L 346.386101 388.362408 
L 348.618812 393.26772 
L 350.851376 397.650138 
L 354.571549 404.333963 
L 360.52552 414.63675 
L 362.756353 418.020543 
L 364.245521 419.903856 
L 365.731533 421.392522 
L 367.221167 422.453018 
L 368.70671 423.065765 
L 370.196328 423.233376 
L 371.685517 422.969757 
L 373.171485 422.305927 
L 374.661082 421.274623 
L 376.146639 419.931847 
L 378.381012 417.475663 
L 385.076166 409.485034 
L 387.306574 407.31156 
L 389.540951 405.50884 
L 391.771355 404.054904 
L 394.005502 402.893795 
L 397.721771 400.948986 
L 399.956052 399.63308 
L 404.420838 396.634422 
L 408.140961 393.679186 
L 411.116349 390.997275 
L 420.042563 382.761141 
L 422.277024 381.153117 
L 423.762738 380.286061 
L 425.252367 379.602504 
L 426.738077 379.117601 
L 428.22771 378.838184 
L 429.71735 378.764795 
L 431.203071 378.891604 
L 432.692714 379.210438 
L 434.178436 379.697153 
L 436.412902 380.705768 
L 439.388271 382.423393 
L 448.314317 388.00344 
L 450.548768 389.066337 
L 452.779299 389.898483 
L 455.009832 390.480338 
L 457.244283 390.815709 
L 459.474819 390.904444 
L 461.709274 390.763811 
L 463.939812 390.408792 
L 466.170355 389.863555 
L 469.145712 388.888508 
L 472.865888 387.397487 
L 479.565333 384.626225 
L 482.54069 383.654712 
L 484.771224 383.117196 
L 487.001758 382.771085 
L 489.23621 382.626607 
L 491.466748 382.681702 
L 493.701201 382.921146 
L 496.676551 383.479842 
L 500.396724 384.442274 
L 508.577968 386.696162 
L 511.557243 387.299174 
L 514.532597 387.699869 
L 517.507951 387.879948 
L 520.483305 387.841784 
L 523.45866 387.606103 
L 527.178835 387.08992 
L 533.133461 385.989151 
L 539.084167 384.956321 
L 542.804339 384.52676 
L 546.52451 384.333176 
L 550.244684 384.384577 
L 553.964856 384.648418 
L 559.342969 385.269806 
L 559.342969 385.269806 
" clip-path="url(#p6c543588ae)" style="fill: none; stroke: #1f77b4; stroke-width: 4.5; stroke-linecap: square"/>
   </g>
   <g id="line2d_50">
    <path d="M 22.001563 70.745381 
L 30.932541 70.858827 
L 45.068386 71.059145 
L 56.228096 70.944779 
L 70.365006 70.841672 
L 107.562642 70.901121 
L 124.673872 70.919859 
L 147.739709 70.935284 
L 176.011441 70.937427 
L 231.069177 70.936874 
L 245.201562 70.926287 
L 247.435565 75.987466 
L 249.667039 79.873547 
L 251.156732 83.414986 
L 252.641562 86.950142 
L 254.876405 91.777513 
L 259.341041 103.751386 
L 260.826605 108.361507 
L 269.756208 139.110984 
L 275.706732 161.099988 
L 282.401562 186.891388 
L 286.121562 201.512048 
L 292.818501 228.294308 
L 293.561562 231.325362 
L 300.26142 252.878832 
L 311.418231 288.624242 
L 315.88555 303.110761 
L 318.857976 312.207196 
L 330.018167 345.322772 
L 332.997207 353.041175 
L 338.205132 366.235782 
L 345.64399 385.911227 
L 347.877139 391.083442 
L 350.105909 395.728373 
L 353.085512 401.327866 
L 359.781174 413.211292 
L 362.011529 416.897667 
L 363.501175 419.073383 
L 364.986716 420.907234 
L 366.476349 422.343964 
L 367.96552 423.347675 
L 369.451521 423.907194 
L 370.941138 424.029073 
L 372.426683 423.732482 
L 373.916285 423.041336 
L 375.405512 421.988786 
L 376.891431 420.627812 
L 379.125507 418.143791 
L 386.565503 409.263925 
L 388.796157 407.185159 
L 391.026565 405.484633 
L 393.260939 404.123494 
L 396.98091 402.064744 
L 399.21129 400.770484 
L 403.676043 397.752196 
L 406.65133 395.4138 
L 409.626689 392.861273 
L 414.091763 388.590802 
L 418.556831 384.288436 
L 420.787386 382.392996 
L 423.017921 380.807665 
L 424.507551 379.966464 
L 425.997184 379.316522 
L 427.482895 378.874227 
L 428.972529 378.642653 
L 430.458251 378.620492 
L 431.947892 378.80312 
L 433.433615 379.174763 
L 434.923259 379.71529 
L 437.153805 380.799587 
L 440.133089 382.600178 
L 448.314317 387.865966 
L 450.548768 388.989296 
L 452.779299 389.881174 
L 455.009832 390.519942 
L 457.244283 390.907869 
L 459.474819 391.043838 
L 461.709274 390.944489 
L 463.939812 390.623937 
L 466.170355 390.105267 
L 469.145712 389.151238 
L 472.865888 387.658426 
L 480.30623 384.518602 
L 483.281586 383.545891 
L 485.516043 383.014735 
L 487.746577 382.682232 
L 489.98103 382.556251 
L 492.211566 382.633352 
L 494.442097 382.89599 
L 497.42137 383.487217 
L 501.137623 384.483572 
L 509.322786 386.776255 
L 512.298141 387.377022 
L 515.277416 387.770073 
L 518.252771 387.936654 
L 521.228123 387.881503 
L 524.203481 387.627045 
L 527.923652 387.087394 
L 534.619176 385.811462 
L 539.828985 384.91124 
L 543.549157 384.484494 
L 547.269328 384.300797 
L 550.98558 384.366622 
L 554.705755 384.646747 
L 559.342969 385.191879 
L 559.342969 385.191879 
" clip-path="url(#p6c543588ae)" style="fill: none; stroke: #ff7f0e; stroke-width: 4.5; stroke-linecap: square"/>
   </g>
   <g id="line2d_51">
    <path d="M 22.001563 70.745381 
L 30.932541 70.858827 
L 45.068386 71.059177 
L 56.972923 70.933555 
L 70.365006 70.841672 
L 107.562642 70.901121 
L 124.673872 70.919859 
L 147.739709 70.935284 
L 176.011441 70.937427 
L 230.324355 70.937001 
L 245.201562 70.926287 
L 247.435565 75.986336 
L 249.667039 79.868007 
L 251.156732 83.401889 
L 252.641562 86.952112 
L 254.876405 91.815262 
L 259.341041 103.920136 
L 260.826605 108.560298 
L 269.756208 139.280902 
L 275.706732 161.021101 
L 290.587077 219.052201 
L 293.561562 231.092519 
L 300.26142 252.585091 
L 310.677114 285.798929 
L 315.141454 300.470989 
L 318.116936 309.761212 
L 330.018167 345.140182 
L 332.252108 350.968186 
L 338.946941 367.818942 
L 344.898864 383.522569 
L 347.131599 388.857429 
L 349.363645 393.669775 
L 351.5962 397.99141 
L 355.3164 404.632174 
L 362.011529 416.268972 
L 363.501175 418.519771 
L 364.986716 420.444691 
L 366.476349 421.979923 
L 367.96552 423.080779 
L 369.451521 423.729281 
L 370.941138 423.928778 
L 372.426683 423.69663 
L 373.916285 423.056878 
L 375.405512 422.042792 
L 376.891431 420.708034 
L 379.125507 418.242357 
L 386.565503 409.324902 
L 388.796157 407.258202 
L 391.026565 405.60347 
L 393.260939 404.325874 
L 396.98091 402.455536 
L 399.21129 401.271254 
L 403.676043 398.477765 
L 406.65133 396.29654 
L 409.626689 393.900024 
L 413.346927 390.526832 
L 420.787386 383.491549 
L 423.017921 381.737787 
L 425.252367 380.328834 
L 426.738077 379.61655 
L 428.22771 379.103335 
L 429.71735 378.797059 
L 431.203071 378.698815 
L 432.692714 378.806807 
L 434.178436 379.104096 
L 435.66808 379.577785 
L 437.898628 380.5746 
L 440.133089 381.828253 
L 443.853258 384.239888 
L 448.314317 387.100083 
L 451.289663 388.689389 
L 453.524115 389.62849 
L 455.754648 390.321189 
L 457.989102 390.763811 
L 460.219638 390.955447 
L 462.450172 390.910957 
L 464.684632 390.641657 
L 466.915175 390.171814 
L 469.890531 389.274186 
L 473.610706 387.833902 
L 481.795871 384.437043 
L 484.771224 383.501528 
L 487.001758 383.000884 
L 489.23621 382.696359 
L 491.466748 382.596802 
L 493.701201 382.69606 
L 496.676551 383.10467 
L 499.651904 383.76252 
L 504.116897 385.012631 
L 510.067605 386.651338 
L 513.787777 387.399826 
L 516.763132 387.767724 
L 519.738487 387.912119 
L 522.713843 387.838756 
L 526.434017 387.478285 
L 530.89901 386.758809 
L 542.059522 384.785689 
L 545.779692 384.426995 
L 549.499867 384.314325 
L 553.220038 384.442367 
L 557.685028 384.848424 
L 559.342969 385.046113 
L 559.342969 385.046113 
" clip-path="url(#p6c543588ae)" style="fill: none; stroke: #2ca02c; stroke-width: 4.5; stroke-linecap: square"/>
   </g>
   <g id="line2d_52">
    <path d="M 22.001563 70.74843 
L 30.932541 70.860086 
L 45.068386 71.056965 
L 56.972923 70.933403 
L 70.365006 70.843147 
L 107.562642 70.901545 
L 124.673872 70.920051 
L 147.739709 70.935201 
L 176.011441 70.937266 
L 231.069177 70.936768 
L 245.201562 70.926342 
L 247.435565 76.007939 
L 249.667039 79.947434 
L 251.156732 83.556209 
L 252.641562 87.186164 
L 254.876405 92.220949 
L 259.341041 104.768199 
L 260.826605 109.525139 
L 270.501033 143.394271 
L 280.171704 180.125179 
L 290.587077 221.248496 
L 293.561562 233.334403 
L 300.26142 254.918248 
L 311.418231 290.686512 
L 315.88555 305.010566 
L 320.346899 318.609097 
L 327.786969 341.114633 
L 330.765593 349.287638 
L 340.437342 374.570188 
L 344.157404 384.35666 
L 346.386101 389.740844 
L 348.618812 394.636171 
L 351.5962 400.490825 
L 356.805527 410.006866 
L 359.781174 415.191678 
L 362.011529 418.602192 
L 363.501175 420.495915 
L 364.986716 421.998383 
L 366.476349 423.078578 
L 367.96552 423.721768 
L 369.451521 423.930587 
L 370.941138 423.718095 
L 372.426683 423.111441 
L 373.916285 422.140791 
L 375.405512 420.850226 
L 376.891431 419.303356 
L 379.125507 416.650156 
L 384.331371 410.253676 
L 386.565503 407.893209 
L 388.796157 405.88989 
L 391.026565 404.221655 
L 393.260939 402.836282 
L 396.236137 401.085719 
L 399.21129 399.260084 
L 403.676043 396.012618 
L 406.65133 393.493959 
L 409.626689 390.775587 
L 416.322342 384.322543 
L 418.556831 382.434616 
L 420.787386 380.853445 
L 422.277024 380.01144 
L 423.762738 379.363046 
L 425.252367 378.918101 
L 426.738077 378.683352 
L 428.22771 378.658001 
L 429.71735 378.834347 
L 431.203071 379.199076 
L 433.433615 380.060712 
L 435.66808 381.22283 
L 438.64345 383.083803 
L 445.338974 387.416145 
L 447.573423 388.610172 
L 449.803951 389.57649 
L 452.03448 390.302974 
L 454.268933 390.773455 
L 456.499465 390.994995 
L 458.73 390.974678 
L 460.964455 390.728634 
L 463.19499 390.277467 
L 466.170355 389.398619 
L 469.145712 388.275526 
L 480.30623 383.776854 
L 482.54069 383.186925 
L 484.771224 382.788012 
L 487.001758 382.593214 
L 489.23621 382.602831 
L 491.466748 382.804273 
L 494.442097 383.328063 
L 498.162268 384.274802 
L 507.837071 386.936274 
L 510.812425 387.485789 
L 513.787777 387.82178 
L 516.763132 387.932284 
L 519.738487 387.82609 
L 523.45866 387.430143 
L 527.923652 386.681758 
L 537.594529 384.918918 
L 541.314701 384.49356 
L 545.034871 384.309716 
L 548.755048 384.374274 
L 552.475218 384.652158 
L 558.425925 385.365944 
L 559.342969 385.487042 
L 559.342969 385.487042 
" clip-path="url(#p6c543588ae)" style="fill: none; stroke: #d62728; stroke-width: 4.5; stroke-linecap: square"/>
   </g>
   <g id="line2d_53">
    <path d="M 22.001563 70.751356 
L 31.674052 70.876517 
L 45.068386 71.054891 
L 56.972923 70.933279 
L 70.365006 70.844553 
L 108.307462 70.898249 
L 126.16351 70.927962 
L 148.484527 70.932334 
L 176.756259 70.938579 
L 237.01988 70.933394 
L 245.201562 70.926411 
L 247.435565 76.003448 
L 249.667039 79.929954 
L 251.156732 83.533936 
L 252.641562 87.164651 
L 254.876405 92.211532 
L 259.341041 104.762869 
L 260.826605 109.517453 
L 271.241562 145.90464 
L 275.706732 162.527659 
L 281.6576 185.346454 
L 286.121562 202.745053 
L 292.077376 226.622121 
L 293.561562 232.653498 
L 301.746843 259.104354 
L 308.445588 280.594445 
L 317.37195 309.595099 
L 328.531994 343.094574 
L 331.507006 350.938236 
L 338.205132 367.739942 
L 344.898864 385.366117 
L 347.131599 390.602353 
L 349.363645 395.286404 
L 351.5962 399.501499 
L 356.805527 408.682963 
L 360.52552 415.088848 
L 362.756353 418.479483 
L 364.245521 420.371268 
L 365.731533 421.876033 
L 367.221167 422.965065 
L 368.70671 423.621372 
L 370.196328 423.848533 
L 371.685517 423.658856 
L 373.171485 423.079385 
L 374.661082 422.136712 
L 376.146639 420.877419 
L 377.636223 419.354517 
L 379.866599 416.743376 
L 385.076166 410.479724 
L 387.306574 408.228493 
L 389.540951 406.360611 
L 391.771355 404.867645 
L 394.005502 403.697558 
L 398.466528 401.359946 
L 401.441692 399.524544 
L 404.420838 397.539623 
L 408.140961 394.665669 
L 411.116349 392.043155 
L 414.8366 388.507619 
L 419.297738 384.270354 
L 421.532206 382.401767 
L 423.762738 380.843667 
L 425.252367 380.017095 
L 426.738077 379.382165 
L 428.22771 378.950382 
L 429.71735 378.726961 
L 431.203071 378.710522 
L 432.692714 378.896948 
L 434.178436 379.266453 
L 435.66808 379.804833 
L 437.898628 380.880494 
L 440.873987 382.659671 
L 448.314317 387.441723 
L 450.548768 388.616585 
L 452.779299 389.572067 
L 455.009832 390.280912 
L 457.244283 390.741394 
L 459.474819 390.949397 
L 461.709274 390.919922 
L 463.939812 390.665314 
L 466.170355 390.207373 
L 469.145712 389.32325 
L 472.124988 388.198632 
L 482.54069 383.975978 
L 485.516043 383.17216 
L 487.746577 382.788242 
L 489.98103 382.606951 
L 492.211566 382.628806 
L 494.442097 382.839643 
L 497.42137 383.372403 
L 501.137623 384.320236 
L 510.067605 386.789785 
L 513.042958 387.375133 
L 516.018315 387.753611 
L 518.993666 387.908632 
L 521.972942 387.844771 
L 524.948297 387.585184 
L 528.668471 387.044552 
L 536.108812 385.64074 
L 540.569883 384.899576 
L 544.290052 384.486407 
L 548.010227 384.314302 
L 551.7304 384.388272 
L 556.19539 384.748275 
L 559.342969 385.119375 
L 559.342969 385.119375 
" clip-path="url(#p6c543588ae)" style="fill: none; stroke: #9467bd; stroke-width: 4.5; stroke-linecap: square"/>
   </g>
   <g id="line2d_54">
    <path d="M 22.001563 70.745381 
L 30.932541 70.858827 
L 45.068386 71.059145 
L 56.228096 70.944779 
L 70.365006 70.841672 
L 107.562642 70.901121 
L 124.673872 70.919859 
L 147.739709 70.935284 
L 176.011441 70.937427 
L 231.069177 70.936904 
L 245.201562 70.926287 
L 247.435565 75.979884 
L 249.667039 79.860471 
L 251.156732 83.409415 
L 252.641562 87.001672 
L 254.876405 91.987789 
L 259.341041 104.485383 
L 260.826605 109.259734 
L 273.476326 153.734095 
L 275.706732 162.261574 
L 290.587077 221.027887 
L 293.561562 233.197313 
L 303.977681 267.392442 
L 316.626951 307.943664 
L 327.786969 340.799096 
L 330.765593 348.796005 
L 338.946941 369.58357 
L 343.412066 381.574327 
L 345.64399 387.090265 
L 347.877139 392.065959 
L 350.105909 396.539465 
L 355.3164 406.192779 
L 360.52552 415.727902 
L 362.011529 418.114062 
L 363.501175 420.170794 
L 364.986716 421.805283 
L 366.476349 422.97924 
L 367.96552 423.676359 
L 368.70671 423.84669 
L 369.451521 423.9011 
L 370.196328 423.84056 
L 371.685517 423.388404 
L 373.171485 422.524976 
L 374.661082 421.286065 
L 376.146639 419.734966 
L 378.381012 416.983313 
L 383.586579 410.199334 
L 385.820962 407.741885 
L 388.051365 405.739195 
L 389.540951 404.65356 
L 391.026565 403.758852 
L 393.260939 402.734019 
L 396.98091 401.300458 
L 399.21129 400.344577 
L 403.676043 397.948061 
L 406.65133 395.989019 
L 408.881861 394.383844 
L 412.602095 391.30354 
L 417.067174 387.226696 
L 420.787386 383.933189 
L 423.017921 382.218393 
L 425.252367 380.815466 
L 426.738077 380.090272 
L 428.22771 379.550467 
L 429.71735 379.205163 
L 431.203071 379.057336 
L 432.692714 379.106654 
L 434.178436 379.338625 
L 435.66808 379.742299 
L 437.898628 380.63117 
L 440.133089 381.77941 
L 443.853258 384.039022 
L 449.059133 387.197093 
L 452.03448 388.66969 
L 454.268933 389.524577 
L 456.499465 390.143975 
L 458.73 390.519651 
L 460.964455 390.657155 
L 463.19499 390.566955 
L 465.429452 390.264458 
L 467.659993 389.771889 
L 470.63535 388.866532 
L 474.355523 387.455885 
L 481.795871 384.521828 
L 484.771224 383.625758 
L 487.001758 383.143572 
L 489.23621 382.84717 
L 491.466748 382.745446 
L 493.701201 382.832928 
L 496.676551 383.213296 
L 499.651904 383.83257 
L 504.116897 385.016816 
L 510.067605 386.578548 
L 513.787777 387.296178 
L 516.763132 387.651254 
L 519.738487 387.793261 
L 522.713843 387.727162 
L 526.434017 387.387255 
L 530.89901 386.704596 
L 542.059522 384.827888 
L 545.779692 384.485946 
L 549.499867 384.377735 
L 553.220038 384.498354 
L 557.685028 384.883322 
L 559.342969 385.071013 
L 559.342969 385.071013 
" clip-path="url(#p6c543588ae)" style="fill: none; stroke: #8c564b; stroke-width: 4.5; stroke-linecap: square"/>
   </g>
   <g id="line2d_55">
    <path d="M 22.001563 70.748416 
L 30.932541 70.860086 
L 45.068386 71.056965 
L 56.972923 70.933403 
L 70.365006 70.843147 
L 107.562642 70.901545 
L 124.673872 70.920051 
L 147.739709 70.935201 
L 176.011441 70.937266 
L 231.069177 70.936768 
L 245.201562 70.926342 
L 247.435565 75.989713 
L 249.667039 79.8933 
L 251.156732 83.48516 
L 252.641562 87.111807 
L 254.876405 92.181773 
L 259.341041 104.899737 
L 260.826605 109.742667 
L 274.221159 157.216419 
L 285.377911 200.719952 
L 294.306907 236.363008 
L 301.746843 260.773267 
L 309.932052 287.399627 
L 314.396534 301.820258 
L 318.116936 313.034784 
L 323.325568 328.404444 
L 327.786969 341.530196 
L 330.765593 349.446768 
L 338.205132 368.262709 
L 343.412066 382.337539 
L 345.64399 387.809785 
L 347.877139 392.717736 
L 350.105909 397.135234 
L 354.571549 405.30725 
L 360.52552 415.87238 
L 362.011529 418.141371 
L 363.501175 420.087438 
L 364.986716 421.627316 
L 366.476349 422.726326 
L 367.96552 423.369006 
L 369.451521 423.558979 
L 370.941138 423.310348 
L 372.426683 422.652372 
L 373.916285 421.617798 
L 375.405512 420.255026 
L 377.636223 417.74815 
L 385.076166 408.623251 
L 387.306574 406.47531 
L 389.540951 404.732754 
L 391.771355 403.370817 
L 394.005502 402.334949 
L 397.721771 400.630675 
L 399.956052 399.440812 
L 404.420838 396.673763 
L 408.140961 393.89225 
L 411.116349 391.334398 
L 415.581431 387.204249 
L 419.297738 383.874328 
L 421.532206 382.137212 
L 423.762738 380.719697 
L 425.252367 379.98739 
L 426.738077 379.444618 
L 428.22771 379.099503 
L 429.71735 378.954859 
L 431.203071 379.007466 
L 432.692714 379.251265 
L 434.178436 379.664889 
L 436.412902 380.571182 
L 438.64345 381.743339 
L 441.618808 383.561631 
L 446.828607 386.821161 
L 449.803951 388.391169 
L 452.03448 389.33369 
L 454.268933 390.038956 
L 456.499465 390.500768 
L 458.73 390.71803 
L 460.964455 390.70123 
L 463.19499 390.465139 
L 465.429452 390.028332 
L 468.404811 389.178441 
L 472.124988 387.79991 
L 481.051051 384.265825 
L 484.026405 383.420578 
L 486.260861 382.988117 
L 488.491395 382.749572 
L 490.721929 382.707467 
L 492.956385 382.853554 
L 495.931733 383.303543 
L 499.651904 384.169691 
L 510.812425 387.05224 
L 513.787777 387.518947 
L 516.763132 387.775044 
L 519.738487 387.815157 
L 522.713843 387.653247 
L 526.434017 387.213882 
L 531.643829 386.318411 
L 539.084167 385.018992 
L 542.804339 384.582173 
L 546.52451 384.372064 
L 550.244684 384.401299 
L 553.964856 384.641541 
L 559.342969 385.234373 
L 559.342969 385.234373 
" clip-path="url(#p6c543588ae)" style="fill: none; stroke: #e377c2; stroke-width: 4.5; stroke-linecap: square"/>
   </g>
   <g id="line2d_56">
    <path d="M 22.001563 70.754735 
L 31.674052 70.877531 
L 45.068386 71.052482 
L 56.972923 70.933154 
L 70.365006 70.846166 
L 108.307462 70.898842 
L 126.16351 70.927978 
L 148.484527 70.932242 
L 177.501078 70.939662 
L 242.225769 70.928808 
L 245.201562 70.926434 
L 247.435565 75.982472 
L 249.667039 79.873478 
L 251.156732 83.450692 
L 252.641562 87.063005 
L 254.876405 92.111445 
L 259.341041 104.801222 
L 260.826605 109.626897 
L 268.266595 135.518308 
L 270.501033 143.329404 
L 276.451574 165.764222 
L 284.636839 197.873259 
L 293.561562 234.332889 
L 302.491736 263.508771 
L 309.186991 285.342169 
L 314.396534 302.150355 
L 318.116936 313.28824 
L 323.325568 328.559774 
L 327.786969 341.643823 
L 330.765593 349.617928 
L 337.458528 366.761827 
L 344.157404 384.889438 
L 346.386101 390.196772 
L 348.618812 394.9328 
L 351.5962 400.576267 
L 360.52552 416.638587 
L 362.011529 418.888356 
L 363.501175 420.787818 
L 364.986716 422.260241 
L 366.476349 423.279075 
L 367.96552 423.835374 
L 369.451521 423.937386 
L 370.941138 423.600986 
L 372.426683 422.857017 
L 373.916285 421.738785 
L 375.405512 420.296577 
L 377.636223 417.683154 
L 384.331371 409.254232 
L 386.565503 407.033945 
L 388.051365 405.809853 
L 389.540951 404.777534 
L 391.771355 403.563248 
L 394.005502 402.692238 
L 397.721771 401.274893 
L 399.956052 400.250897 
L 404.420838 397.828776 
L 408.140961 395.346092 
L 411.116349 393.013239 
L 414.091763 390.454377 
L 421.532206 383.752633 
L 423.762738 382.062267 
L 425.997184 380.690097 
L 427.482895 379.990876 
L 428.972529 379.478184 
L 430.458251 379.160781 
L 431.947892 379.042057 
L 433.433615 379.118062 
L 434.923259 379.375412 
L 436.412902 379.805536 
L 438.64345 380.722569 
L 440.873987 381.893255 
L 444.594157 384.168545 
L 449.059133 386.902605 
L 452.03448 388.43673 
L 454.268933 389.346711 
L 456.499465 390.024197 
L 458.73 390.458064 
L 460.964455 390.651959 
L 463.19499 390.614761 
L 465.429452 390.360035 
L 467.659993 389.910831 
L 470.63535 389.050816 
L 474.355523 387.672889 
L 482.54069 384.44769 
L 485.516043 383.568706 
L 487.746577 383.102666 
L 489.98103 382.823871 
L 492.211566 382.740169 
L 494.442097 382.844451 
L 497.42137 383.244984 
L 500.396724 383.878877 
L 505.602613 385.279949 
L 510.812425 386.625746 
L 514.532597 387.328742 
L 517.507951 387.669587 
L 520.483305 387.796799 
L 523.45866 387.716623 
L 527.178835 387.361983 
L 531.643829 386.667954 
L 542.059522 384.892255 
L 545.779692 384.518148 
L 549.499867 384.375304 
L 553.220038 384.464882 
L 557.685028 384.823933 
L 559.342969 385.006154 
L 559.342969 385.006154 
" clip-path="url(#p6c543588ae)" style="fill: none; stroke: #7f7f7f; stroke-width: 4.5; stroke-linecap: square"/>
   </g>
   <g id="line2d_57">
    <path d="M 22.001563 70.748416 
L 30.932541 70.860086 
L 45.068386 71.056965 
L 56.972923 70.933403 
L 70.365006 70.843147 
L 107.562642 70.901545 
L 124.673872 70.920051 
L 147.739709 70.935201 
L 176.011441 70.937266 
L 231.069177 70.936768 
L 245.201562 70.926342 
L 247.435565 75.99022 
L 249.667039 79.902691 
L 251.156732 83.503896 
L 252.641562 87.13937 
L 254.876405 92.211094 
L 259.341041 104.895863 
L 260.826605 109.719471 
L 268.266595 135.594518 
L 270.501033 143.374532 
L 276.451574 165.5846 
L 284.636839 197.463874 
L 293.561562 233.709434 
L 302.491736 262.919669 
L 307.698108 279.892871 
L 315.141454 304.125037 
L 318.116936 313.033894 
L 324.066959 330.52457 
L 327.786969 341.388844 
L 330.765593 349.290945 
L 337.458528 366.096626 
L 344.898864 385.851253 
L 347.131599 390.980103 
L 349.363645 395.579353 
L 352.341033 401.133269 
L 360.52552 415.684673 
L 362.756353 419.043147 
L 364.245521 420.864606 
L 365.731533 422.264883 
L 367.221167 423.219065 
L 368.70671 423.71615 
L 370.196328 423.763426 
L 371.685517 423.378388 
L 373.171485 422.594942 
L 374.661082 421.448085 
L 376.146639 419.997961 
L 378.381012 417.403519 
L 384.331371 410.028898 
L 386.565503 407.723897 
L 388.796157 405.829266 
L 391.026565 404.327478 
L 393.260939 403.1735 
L 396.98091 401.48194 
L 399.21129 400.386336 
L 403.676043 397.730083 
L 406.65133 395.608305 
L 409.626689 393.257564 
L 414.091763 389.243051 
L 419.297738 384.409096 
L 421.532206 382.581292 
L 423.762738 381.050658 
L 425.252367 380.234116 
L 426.738077 379.602896 
L 428.22771 379.167932 
L 429.71735 378.934803 
L 431.203071 378.902884 
L 432.692714 379.068458 
L 434.178436 379.412746 
L 435.66808 379.922378 
L 437.898628 380.950997 
L 440.873987 382.664994 
L 449.059133 387.720034 
L 451.289663 388.804758 
L 453.524115 389.66716 
L 455.754648 390.286065 
L 457.989102 390.659875 
L 460.219638 390.789184 
L 462.450172 390.689788 
L 464.684632 390.373832 
L 466.915175 389.867231 
L 469.890531 388.938496 
L 473.610706 387.494555 
L 481.051051 384.492364 
L 484.026405 383.575703 
L 486.260861 383.081659 
L 488.491395 382.77937 
L 490.721929 382.67548 
L 492.956385 382.765404 
L 495.931733 383.155028 
L 498.907086 383.789218 
L 503.372077 385.001445 
L 509.322786 386.599324 
L 513.042958 387.333275 
L 516.018315 387.696447 
L 518.993666 387.841876 
L 521.972942 387.774525 
L 525.693117 387.427354 
L 530.15419 386.730338 
L 541.314701 384.808917 
L 545.034871 384.457669 
L 548.755048 384.345566 
L 552.475218 384.467818 
L 556.94021 384.8608 
L 559.342969 385.143518 
L 559.342969 385.143518 
" clip-path="url(#p6c543588ae)" style="fill: none; stroke: #bcbd22; stroke-width: 4.5; stroke-linecap: square"/>
   </g>
   <g id="line2d_58">
    <path d="M 22.001563 70.748867 
L 30.932541 70.860293 
L 45.068386 71.056665 
L 56.972923 70.933394 
L 70.365006 70.843332 
L 107.562642 70.901614 
L 124.673872 70.920074 
L 147.739709 70.935145 
L 176.011441 70.937266 
L 231.810075 70.93656 
L 245.201562 70.926342 
L 247.435565 76.057239 
L 249.667039 80.12197 
L 251.156732 83.849419 
L 252.641562 87.610641 
L 254.876405 92.864853 
L 259.341041 105.867507 
L 260.826605 110.791103 
L 263.801562 121.036059 
L 266.036165 128.992767 
L 268.266595 136.684245 
L 270.501033 144.491675 
L 276.451574 166.950287 
L 285.377911 201.882275 
L 294.306907 237.630322 
L 299.516593 254.588246 
L 306.956991 278.592269 
L 313.651645 300.672716 
L 317.37195 311.955227 
L 323.325568 329.372933 
L 327.786969 342.409826 
L 330.765593 350.312754 
L 337.458528 367.345239 
L 344.157404 385.119724 
L 346.386101 390.370942 
L 348.618812 395.131894 
L 351.5962 400.896106 
L 359.781174 415.953039 
L 362.011529 419.51556 
L 363.501175 421.491602 
L 364.986716 423.059589 
L 366.476349 424.190669 
L 367.96552 424.874558 
L 369.451521 425.117657 
L 370.941138 424.933898 
L 372.426683 424.348324 
L 373.916285 423.386712 
L 375.405512 422.087371 
L 376.891431 420.510199 
L 379.125507 417.772519 
L 384.331371 411.10916 
L 386.565503 408.671094 
L 388.796157 406.648675 
L 391.026565 405.036487 
L 393.260939 403.79425 
L 396.98091 401.981786 
L 399.21129 400.824734 
L 403.676043 398.069246 
L 406.65133 395.898358 
L 409.626689 393.505551 
L 414.091763 389.428166 
L 419.297738 384.500119 
L 421.532206 382.625757 
L 423.762738 381.048365 
L 425.252367 380.202129 
L 426.738077 379.542977 
L 428.22771 379.082894 
L 429.71735 378.828286 
L 431.203071 378.77883 
L 432.692714 378.931208 
L 434.178436 379.267144 
L 435.66808 379.773134 
L 437.898628 380.804634 
L 440.133089 382.075798 
L 444.594157 384.965526 
L 448.314317 387.278836 
L 451.289663 388.809471 
L 453.524115 389.701061 
L 455.754648 390.346327 
L 457.989102 390.743392 
L 460.219638 390.892521 
L 462.450172 390.809303 
L 464.684632 390.505745 
L 466.915175 390.007222 
L 469.890531 389.081656 
L 473.610706 387.627552 
L 481.051051 384.558978 
L 484.026405 383.605153 
L 486.260861 383.082904 
L 488.491395 382.754149 
L 490.721929 382.627015 
L 492.956385 382.698272 
L 495.186914 382.951083 
L 498.162268 383.523629 
L 501.88244 384.494673 
L 510.067605 386.735994 
L 513.042958 387.325654 
L 516.018315 387.712406 
L 518.993666 387.878413 
L 521.972942 387.827092 
L 524.948297 387.580361 
L 528.668471 387.054637 
L 535.363994 385.808987 
L 540.569883 384.929535 
L 544.290052 384.511513 
L 548.010227 384.330572 
L 551.7304 384.393579 
L 556.19539 384.740393 
L 559.342969 385.103878 
L 559.342969 385.103878 
" clip-path="url(#p6c543588ae)" style="fill: none; stroke: #17becf; stroke-width: 4.5; stroke-linecap: square"/>
   </g>
   <g id="line2d_59">
    <path d="M 22.001563 70.745381 
L 30.932541 70.858827 
L 45.068386 71.059145 
L 56.228096 70.944779 
L 70.365006 70.841672 
L 107.562642 70.901121 
L 124.673872 70.919859 
L 147.739709 70.935284 
L 176.011441 70.937427 
L 230.324355 70.937001 
L 245.201562 70.926287 
L 247.435565 76.084188 
L 249.667039 80.214853 
L 251.156732 84.003364 
L 252.641562 87.819447 
L 254.876405 93.149453 
L 259.341041 106.226731 
L 260.826605 111.168974 
L 263.801562 121.441449 
L 266.036165 129.425516 
L 268.266595 137.151857 
L 270.501033 145.006017 
L 278.681562 175.883579 
L 284.636839 199.055588 
L 294.306907 237.855855 
L 299.516593 254.792534 
L 307.698108 281.201495 
L 314.396534 303.015067 
L 318.116936 314.135481 
L 323.325568 329.471181 
L 327.786969 342.555497 
L 330.765593 350.46981 
L 338.946941 371.171508 
L 343.412066 382.944699 
L 345.64399 388.392794 
L 347.877139 393.32651 
L 350.105909 397.780311 
L 355.3164 407.307866 
L 360.52552 416.612491 
L 362.011529 418.940142 
L 363.501175 420.95825 
L 364.986716 422.580516 
L 366.476349 423.771791 
L 367.96552 424.516083 
L 369.451521 424.81652 
L 370.941138 424.686028 
L 372.426683 424.149118 
L 373.916285 423.231961 
L 375.405512 421.972917 
L 376.891431 420.432108 
L 379.125507 417.742313 
L 384.331371 411.175686 
L 386.565503 408.785092 
L 388.796157 406.817708 
L 391.026565 405.266353 
L 393.260939 404.087744 
L 396.98091 402.388535 
L 399.21129 401.299105 
L 403.676043 398.688333 
L 406.65133 396.623189 
L 409.626689 394.339089 
L 413.346927 391.091451 
L 422.277024 382.868833 
L 424.507551 381.256552 
L 425.997184 380.377499 
L 427.482895 379.684178 
L 428.972529 379.186323 
L 430.458251 378.891684 
L 431.947892 378.802982 
L 433.433615 378.91497 
L 434.923259 379.213102 
L 436.412902 379.687197 
L 438.64345 380.672938 
L 440.873987 381.911208 
L 445.338974 384.775017 
L 449.059133 387.100486 
L 452.03448 388.661119 
L 454.268933 389.578504 
L 456.499465 390.254848 
L 458.73 390.680938 
L 460.964455 390.861755 
L 463.19499 390.807275 
L 465.429452 390.532271 
L 467.659993 390.058199 
L 470.63535 389.161338 
L 474.355523 387.731695 
L 482.54069 384.395455 
L 485.516043 383.488408 
L 487.746577 383.008536 
L 489.98103 382.722735 
L 492.211566 382.638943 
L 494.442097 382.749618 
L 497.42137 383.167481 
L 500.396724 383.826057 
L 505.602613 385.27791 
L 510.812425 386.66906 
L 514.532597 387.394122 
L 517.507951 387.74484 
L 520.483305 387.874937 
L 523.45866 387.791083 
L 527.178835 387.423796 
L 531.643829 386.705818 
L 542.059522 384.867605 
L 545.779692 384.479714 
L 549.499867 384.331183 
L 553.220038 384.423308 
L 557.685028 384.794467 
L 559.342969 384.982998 
L 559.342969 384.982998 
" clip-path="url(#p6c543588ae)" style="fill: none; stroke: #1f77b4; stroke-width: 4.5; stroke-linecap: square"/>
   </g>
   <g id="line2d_60">
    <path d="M 22.001563 70.745381 
L 30.932541 70.858841 
L 45.068386 71.059145 
L 56.228096 70.944779 
L 70.365006 70.841672 
L 107.562642 70.901121 
L 124.673872 70.919859 
L 147.739709 70.935284 
L 176.011441 70.937427 
L 231.069177 70.936904 
L 245.201562 70.926287 
L 247.435565 76.041784 
L 249.667039 80.059148 
L 251.156732 83.736726 
L 252.641562 87.44545 
L 254.876405 92.61959 
L 259.341041 105.475261 
L 260.826605 110.362514 
L 263.801562 120.625603 
L 266.036165 128.680934 
L 268.266595 136.459474 
L 270.501033 144.285439 
L 277.196434 169.511944 
L 280.916601 183.97463 
L 288.357171 213.662866 
L 294.306907 237.604532 
L 298.771804 252.171868 
L 306.956991 278.246642 
L 313.651645 300.379898 
L 317.37195 311.610143 
L 323.325568 328.947651 
L 327.786969 342.067635 
L 330.765593 350.029731 
L 338.205132 368.978922 
L 343.412066 382.970303 
L 345.64399 388.432038 
L 347.877139 393.35156 
L 350.105909 397.791143 
L 355.3164 407.306697 
L 360.52552 416.66615 
L 362.011529 419.012796 
L 363.501175 421.040375 
L 364.986716 422.662005 
L 366.476349 423.838785 
L 367.96552 424.55744 
L 369.451521 424.823514 
L 370.941138 424.650453 
L 372.426683 424.063925 
L 373.916285 423.091392 
L 375.405512 421.774241 
L 376.891431 420.176601 
L 379.125507 417.415618 
L 383.586579 411.694201 
L 385.820962 409.221452 
L 388.051365 407.184088 
L 389.540951 406.068333 
L 391.771355 404.736479 
L 394.005502 403.761394 
L 398.466528 401.862792 
L 401.441692 400.303188 
L 404.420838 398.592163 
L 408.140961 396.069195 
L 411.116349 393.718362 
L 414.091763 391.136189 
L 423.017921 382.986804 
L 425.252367 381.371633 
L 426.738077 380.490534 
L 428.22771 379.78899 
L 429.71735 379.280856 
L 431.203071 378.973842 
L 432.692714 378.872257 
L 434.178436 378.96679 
L 435.66808 379.249076 
L 437.153805 379.706509 
L 439.388271 380.665563 
L 441.618808 381.884115 
L 445.338974 384.226858 
L 449.803951 387.021283 
L 452.779299 388.579452 
L 455.009832 389.497671 
L 457.244283 390.180571 
L 459.474819 390.612516 
L 461.709274 390.802083 
L 463.939812 390.755629 
L 466.170355 390.490743 
L 468.404811 390.026143 
L 471.380169 389.143441 
L 475.100341 387.730789 
L 483.281586 384.424974 
L 486.260861 383.521223 
L 488.491395 383.042251 
L 490.721929 382.75561 
L 492.956385 382.668313 
L 495.186914 382.774254 
L 498.162268 383.183152 
L 501.137623 383.832233 
L 506.347433 385.269406 
L 511.557243 386.649688 
L 515.277416 387.371226 
L 518.252771 387.72164 
L 521.228123 387.85348 
L 524.203481 387.772993 
L 527.923652 387.411598 
L 532.388645 386.702108 
L 542.804339 384.879879 
L 546.52451 384.493897 
L 550.244684 384.344814 
L 553.964856 384.43422 
L 558.425925 384.799865 
L 559.342969 384.900699 
L 559.342969 384.900699 
" clip-path="url(#p6c543588ae)" style="fill: none; stroke: #ff7f0e; stroke-width: 4.5; stroke-linecap: square"/>
   </g>
   <g id="line2d_61">
    <path d="M 22.001563 70.754735 
L 31.674052 70.877564 
L 45.068386 71.052482 
L 56.972923 70.93314 
L 70.365006 70.846166 
L 108.307462 70.898842 
L 126.16351 70.927978 
L 148.484527 70.932276 
L 176.756259 70.938395 
L 237.764698 70.932703 
L 245.201562 70.926434 
L 247.435565 76.038682 
L 249.667039 80.028713 
L 251.156732 83.645914 
L 252.641562 87.279501 
L 254.876405 92.292929 
L 259.341041 104.753886 
L 260.826605 109.50882 
L 274.221159 156.220264 
L 283.146915 190.662748 
L 288.357171 211.411606 
L 294.306907 235.295567 
L 299.516593 252.309913 
L 308.445588 281.01138 
L 314.396534 300.56652 
L 317.37195 309.572901 
L 324.811953 331.17139 
L 328.531994 342.020665 
L 331.507006 349.943625 
L 339.692133 370.591103 
L 344.157404 382.331616 
L 346.386101 387.703925 
L 348.618812 392.561048 
L 350.851376 396.916284 
L 355.3164 404.937699 
L 362.756353 418.142431 
L 364.245521 420.268392 
L 365.731533 421.990432 
L 367.221167 423.267576 
L 368.70671 424.076247 
L 370.196328 424.419328 
L 371.685517 424.308746 
L 373.171485 423.771123 
L 374.661082 422.832128 
L 376.146639 421.537988 
L 377.636223 419.943564 
L 379.866599 417.172587 
L 384.331371 411.386968 
L 386.565503 408.910161 
L 388.051365 407.520683 
L 389.540951 406.344528 
L 391.026565 405.381665 
L 392.516148 404.61465 
L 396.236137 403.141904 
L 399.21129 401.910644 
L 403.676043 399.589256 
L 406.65133 397.724887 
L 408.881861 396.207538 
L 412.602095 393.277999 
L 415.581431 390.632497 
L 423.762738 383.163379 
L 425.997184 381.518127 
L 428.22771 380.22847 
L 429.71735 379.59512 
L 431.203071 379.158129 
L 432.692714 378.925683 
L 434.178436 378.893136 
L 435.66808 379.0549 
L 437.153805 379.402698 
L 439.388271 380.222951 
L 441.618808 381.339697 
L 444.594157 383.126322 
L 451.289663 387.315774 
L 453.524115 388.470331 
L 455.754648 389.410086 
L 457.989102 390.114592 
L 460.219638 390.569444 
L 462.450172 390.781381 
L 464.684632 390.755998 
L 466.915175 390.511449 
L 469.145712 390.06532 
L 472.124988 389.201961 
L 475.845162 387.805911 
L 484.771224 384.239302 
L 487.746577 383.389287 
L 489.98103 382.955853 
L 492.211566 382.718518 
L 494.442097 382.679617 
L 496.676551 382.830531 
L 499.651904 383.288847 
L 503.372077 384.166879 
L 513.787777 386.927586 
L 516.763132 387.446113 
L 519.738487 387.756377 
L 522.713843 387.847983 
L 525.693117 387.730473 
L 529.41329 387.332051 
L 533.874359 386.597941 
L 543.549157 384.904271 
L 547.269328 384.507655 
L 550.98558 384.346428 
L 554.705755 384.423953 
L 559.170744 384.779225 
L 559.342969 384.797687 
L 559.342969 384.797687 
" clip-path="url(#p6c543588ae)" style="fill: none; stroke: #2ca02c; stroke-width: 4.5; stroke-linecap: square"/>
   </g>
   <g id="line2d_62">
    <path d="M 22.001563 70.745381 
L 30.932541 70.858827 
L 45.068386 71.059145 
L 56.228096 70.944779 
L 70.365006 70.841672 
L 107.562642 70.901121 
L 124.673872 70.919859 
L 147.739709 70.935284 
L 176.011441 70.937427 
L 231.069177 70.936874 
L 245.201562 70.926287 
L 247.435565 76.003791 
L 249.667039 79.91903 
L 251.156732 83.490276 
L 252.641562 87.063941 
L 254.876405 91.984025 
L 259.341041 104.188392 
L 260.826605 108.826183 
L 270.501033 142.075726 
L 276.451574 164.110711 
L 285.377911 198.492627 
L 291.33229 222.691468 
L 293.561562 231.955943 
L 298.027003 246.709711 
L 310.677114 286.966677 
L 314.396534 299.055716 
L 317.37195 308.126877 
L 331.507006 348.629724 
L 341.178638 373.277327 
L 344.898864 383.114163 
L 347.131599 388.526378 
L 349.363645 393.419997 
L 351.5962 397.83546 
L 356.805527 407.417817 
L 362.011529 416.842726 
L 363.501175 419.179801 
L 364.986716 421.163324 
L 366.476349 422.730151 
L 367.96552 423.840629 
L 369.451521 424.483741 
L 370.941138 424.667714 
L 372.426683 424.411769 
L 373.916285 423.738836 
L 375.405512 422.679151 
L 376.891431 421.283564 
L 378.381012 419.611119 
L 381.356181 415.782672 
L 385.076166 411.012891 
L 387.306574 408.579202 
L 389.540951 406.58898 
L 391.026565 405.514361 
L 392.516148 404.62329 
L 400.700826 400.382269 
L 404.420838 398.029974 
L 408.140961 395.268105 
L 411.116349 392.732126 
L 414.091763 389.991051 
L 420.042563 384.327161 
L 422.277024 382.460418 
L 424.507551 380.903085 
L 425.997184 380.071644 
L 427.482895 379.433026 
L 428.972529 378.995258 
L 430.458251 378.764034 
L 431.947892 378.740413 
L 433.433615 378.91662 
L 434.923259 379.2765 
L 436.412902 379.808002 
L 438.64345 380.868049 
L 440.873987 382.163613 
L 450.548768 388.199798 
L 452.779299 389.232918 
L 455.009832 390.026958 
L 457.244283 390.575113 
L 459.474819 390.869514 
L 461.709274 390.923003 
L 463.939812 390.745983 
L 466.170355 390.358675 
L 468.404811 389.782534 
L 471.380169 388.774704 
L 475.100341 387.257243 
L 481.051051 384.770882 
L 484.026405 383.759801 
L 486.260861 383.185803 
L 488.491395 382.801885 
L 490.721929 382.619732 
L 492.956385 382.639506 
L 495.186914 382.847654 
L 498.162268 383.375123 
L 501.88244 384.31786 
L 510.812425 386.776487 
L 513.787777 387.36028 
L 516.763132 387.738378 
L 519.738487 387.893959 
L 522.713843 387.831782 
L 525.693117 387.574139 
L 529.41329 387.03679 
L 536.84971 385.640662 
L 541.314701 384.901805 
L 545.034871 384.489933 
L 548.755048 384.317927 
L 552.475218 384.390866 
L 556.94021 384.748519 
L 559.342969 385.024925 
L 559.342969 385.024925 
" clip-path="url(#p6c543588ae)" style="fill: none; stroke: #d62728; stroke-width: 4.5; stroke-linecap: square"/>
   </g>
   <g id="line2d_63">
    <path d="M 22.001563 70.745381 
L 30.932541 70.858827 
L 45.068386 71.059145 
L 56.228096 70.944779 
L 70.365006 70.841672 
L 107.562642 70.901121 
L 124.673872 70.919859 
L 147.739709 70.935298 
L 176.011441 70.937427 
L 231.069177 70.936904 
L 245.201562 70.926287 
L 247.435565 76.009474 
L 249.667039 79.932037 
L 251.156732 83.503043 
L 252.641562 87.062697 
L 254.876405 91.950771 
L 259.341041 104.033834 
L 260.826605 108.628299 
L 266.780967 129.068405 
L 273.476326 152.532453 
L 275.706732 161.005024 
L 282.401562 186.701785 
L 286.121562 201.313177 
L 291.33229 222.339343 
L 293.561562 231.495243 
L 299.516593 250.919208 
L 309.932052 284.197595 
L 314.396534 298.795462 
L 317.37195 307.937886 
L 330.765593 346.509172 
L 333.738394 353.933258 
L 338.946941 366.881457 
L 345.64399 384.438541 
L 347.877139 389.669442 
L 350.105909 394.364509 
L 353.085512 399.976124 
L 362.756353 417.246679 
L 364.245521 419.518111 
L 365.731533 421.427796 
L 367.221167 422.919227 
L 368.70671 423.95293 
L 370.196328 424.523114 
L 371.685517 424.635876 
L 373.171485 424.313719 
L 374.661082 423.5783 
L 376.146639 422.467707 
L 377.636223 421.028599 
L 379.866599 418.416407 
L 386.565503 410.027745 
L 388.796157 407.846452 
L 390.285502 406.648369 
L 391.771355 405.654993 
L 393.260939 404.848702 
L 397.721771 402.712465 
L 399.956052 401.496791 
L 404.420838 398.759878 
L 408.140961 396.079503 
L 411.116349 393.614649 
L 414.091763 390.92891 
L 422.277024 383.217145 
L 424.507551 381.507872 
L 426.738077 380.150451 
L 428.22771 379.478104 
L 429.71735 379.006843 
L 431.203071 378.743224 
L 432.692714 378.690288 
L 434.178436 378.836727 
L 435.66808 379.172622 
L 437.153805 379.683533 
L 439.388271 380.719354 
L 441.618808 382.00575 
L 446.083792 384.930358 
L 449.803951 387.271473 
L 452.03448 388.472889 
L 454.268933 389.456696 
L 456.499465 390.199252 
L 458.73 390.688949 
L 460.964455 390.929163 
L 463.19499 390.928456 
L 465.429452 390.700145 
L 467.659993 390.266416 
L 470.63535 389.408173 
L 473.610706 388.302858 
L 484.771224 383.820526 
L 487.001758 383.224542 
L 489.23621 382.815399 
L 491.466748 382.6093 
L 493.701201 382.606705 
L 495.931733 382.795709 
L 498.907086 383.304096 
L 502.627259 384.235497 
L 512.298141 386.886832 
L 515.277416 387.442357 
L 518.252771 387.785852 
L 521.228123 387.905182 
L 524.203481 387.808252 
L 527.923652 387.423275 
L 532.388645 386.685515 
L 542.804339 384.825922 
L 546.52451 384.441721 
L 550.244684 384.301857 
L 553.964856 384.405655 
L 558.425925 384.791266 
L 559.342969 384.896107 
L 559.342969 384.896107 
" clip-path="url(#p6c543588ae)" style="fill: none; stroke: #9467bd; stroke-width: 4.5; stroke-linecap: square"/>
   </g>
   <g id="patch_3">
    <path d="M 96.401563 450.72 
L 96.401563 7.2 
" style="fill: none; stroke: #000000; stroke-width: 4; stroke-linejoin: miter; stroke-linecap: square"/>
   </g>
   <g id="patch_4">
    <path d="M 542.801562 450.72 
L 542.801562 7.2 
" style="fill: none; stroke: #000000; stroke-width: 4; stroke-linejoin: miter; stroke-linecap: square"/>
   </g>
   <g id="patch_5">
    <path d="M 96.401563 450.72 
L 542.801562 450.72 
" style="fill: none; stroke: #000000; stroke-width: 4; stroke-linejoin: miter; stroke-linecap: square"/>
   </g>
   <g id="patch_6">
    <path d="M 96.401563 7.2 
L 542.801562 7.2 
" style="fill: none; stroke: #000000; stroke-width: 4; stroke-linejoin: miter; stroke-linecap: square"/>
   </g>
  </g>
 </g>
 <defs>
  <clipPath id="p6c543588ae">
   <rect x="96.401563" y="7.2" width="446.4" height="443.52"/>
  </clipPath>
 </defs>
</svg>
