<?xml version="1.0" encoding="utf-8" standalone="no"?>
<!DOCTYPE svg PUBLIC "-//W3C//DTD SVG 1.1//EN"
  "http://www.w3.org/Graphics/SVG/1.1/DTD/svg11.dtd">
<svg xmlns:xlink="http://www.w3.org/1999/xlink" width="659.007031pt" height="535.245781pt" viewBox="0 0 659.007031 535.245781" xmlns="http://www.w3.org/2000/svg" version="1.1">
 <metadata>
  <rdf:RDF xmlns:dc="http://purl.org/dc/elements/1.1/" xmlns:cc="http://creativecommons.org/ns#" xmlns:rdf="http://www.w3.org/1999/02/22-rdf-syntax-ns#">
   <cc:Work>
    <dc:type rdf:resource="http://purl.org/dc/dcmitype/StillImage"/>
    <dc:date>2022-11-17T20:14:19.236664</dc:date>
    <dc:format>image/svg+xml</dc:format>
    <dc:creator>
     <cc:Agent>
      <dc:title>Matplotlib v3.5.3, https://matplotlib.org/</dc:title>
     </cc:Agent>
    </dc:creator>
   </cc:Work>
  </rdf:RDF>
 </metadata>
 <defs>
  <style type="text/css">*{stroke-linejoin: round; stroke-linecap: butt}</style>
 </defs>
 <g id="figure_1">
  <g id="patch_1">
   <path d="M 0 535.245781 
L 659.007031 535.245781 
L 659.007031 0 
L 0 0 
z
" style="fill: #ffffff"/>
  </g>
  <g id="axes_1">
   <g id="patch_2">
    <path d="M 85.465625 461.456719 
L 643.465625 461.456719 
L 643.465625 17.936719 
L 85.465625 17.936719 
z
" style="fill: #ffffff"/>
   </g>
   <g id="matplotlib.axis_1">
    <g id="xtick_1">
     <g id="line2d_1">
      <path d="M 85.465625 461.456719 
L 85.465625 17.936719 
" clip-path="url(#p4b6821e970)" style="fill: none; stroke: #e2e2e2; stroke-width: 0.8; stroke-linecap: square"/>
     </g>
     <g id="line2d_2">
      <defs>
       <path id="mbae6f8e7ca" d="M 0 0 
L 0 3.5 
" style="stroke: #000000; stroke-width: 0.8"/>
      </defs>
      <g>
       <use xlink:href="#mbae6f8e7ca" x="85.465625" y="461.456719" style="stroke: #000000; stroke-width: 0.8"/>
      </g>
     </g>
     <g id="text_1">
      <!-- 0 -->
      <g transform="translate(77.124219 489.930156)scale(0.3 -0.3)">
       <defs>
        <path id="ArialMT-30" d="M 266 2259 
Q 266 3072 433 3567 
Q 600 4063 929 4331 
Q 1259 4600 1759 4600 
Q 2128 4600 2406 4451 
Q 2684 4303 2865 4023 
Q 3047 3744 3150 3342 
Q 3253 2941 3253 2259 
Q 3253 1453 3087 958 
Q 2922 463 2592 192 
Q 2263 -78 1759 -78 
Q 1097 -78 719 397 
Q 266 969 266 2259 
z
M 844 2259 
Q 844 1131 1108 757 
Q 1372 384 1759 384 
Q 2147 384 2411 759 
Q 2675 1134 2675 2259 
Q 2675 3391 2411 3762 
Q 2147 4134 1753 4134 
Q 1366 4134 1134 3806 
Q 844 3388 844 2259 
z
" transform="scale(0.015625)"/>
       </defs>
       <use xlink:href="#ArialMT-30"/>
      </g>
     </g>
    </g>
    <g id="xtick_2">
     <g id="line2d_3">
      <path d="M 224.965625 461.456719 
L 224.965625 17.936719 
" clip-path="url(#p4b6821e970)" style="fill: none; stroke: #e2e2e2; stroke-width: 0.8; stroke-linecap: square"/>
     </g>
     <g id="line2d_4">
      <g>
       <use xlink:href="#mbae6f8e7ca" x="224.965625" y="461.456719" style="stroke: #000000; stroke-width: 0.8"/>
      </g>
     </g>
    </g>
    <g id="xtick_3">
     <g id="line2d_5">
      <path d="M 364.465625 461.456719 
L 364.465625 17.936719 
" clip-path="url(#p4b6821e970)" style="fill: none; stroke: #e2e2e2; stroke-width: 0.8; stroke-linecap: square"/>
     </g>
     <g id="line2d_6">
      <g>
       <use xlink:href="#mbae6f8e7ca" x="364.465625" y="461.456719" style="stroke: #000000; stroke-width: 0.8"/>
      </g>
     </g>
     <g id="text_2">
      <!-- 2 -->
      <g transform="translate(356.124219 489.930156)scale(0.3 -0.3)">
       <defs>
        <path id="ArialMT-32" d="M 3222 541 
L 3222 0 
L 194 0 
Q 188 203 259 391 
Q 375 700 629 1000 
Q 884 1300 1366 1694 
Q 2113 2306 2375 2664 
Q 2638 3022 2638 3341 
Q 2638 3675 2398 3904 
Q 2159 4134 1775 4134 
Q 1369 4134 1125 3890 
Q 881 3647 878 3216 
L 300 3275 
Q 359 3922 746 4261 
Q 1134 4600 1788 4600 
Q 2447 4600 2831 4234 
Q 3216 3869 3216 3328 
Q 3216 3053 3103 2787 
Q 2991 2522 2730 2228 
Q 2469 1934 1863 1422 
Q 1356 997 1212 845 
Q 1069 694 975 541 
L 3222 541 
z
" transform="scale(0.015625)"/>
       </defs>
       <use xlink:href="#ArialMT-32"/>
      </g>
     </g>
    </g>
    <g id="xtick_4">
     <g id="line2d_7">
      <path d="M 503.965625 461.456719 
L 503.965625 17.936719 
" clip-path="url(#p4b6821e970)" style="fill: none; stroke: #e2e2e2; stroke-width: 0.8; stroke-linecap: square"/>
     </g>
     <g id="line2d_8">
      <g>
       <use xlink:href="#mbae6f8e7ca" x="503.965625" y="461.456719" style="stroke: #000000; stroke-width: 0.8"/>
      </g>
     </g>
    </g>
    <g id="xtick_5">
     <g id="line2d_9">
      <path d="M 643.465625 461.456719 
L 643.465625 17.936719 
" clip-path="url(#p4b6821e970)" style="fill: none; stroke: #e2e2e2; stroke-width: 0.8; stroke-linecap: square"/>
     </g>
     <g id="line2d_10">
      <g>
       <use xlink:href="#mbae6f8e7ca" x="643.465625" y="461.456719" style="stroke: #000000; stroke-width: 0.8"/>
      </g>
     </g>
     <g id="text_3">
      <!-- 4 -->
      <g transform="translate(635.124219 489.930156)scale(0.3 -0.3)">
       <defs>
        <path id="ArialMT-34" d="M 2069 0 
L 2069 1097 
L 81 1097 
L 81 1613 
L 2172 4581 
L 2631 4581 
L 2631 1613 
L 3250 1613 
L 3250 1097 
L 2631 1097 
L 2631 0 
L 2069 0 
z
M 2069 1613 
L 2069 3678 
L 634 1613 
L 2069 1613 
z
" transform="scale(0.015625)"/>
       </defs>
       <use xlink:href="#ArialMT-34"/>
      </g>
     </g>
    </g>
    <g id="text_4">
     <!-- Time (ns) -->
     <g transform="translate(301.7 521.731719)scale(0.3 -0.3)">
      <defs>
       <path id="ArialMT-54" d="M 1659 0 
L 1659 4041 
L 150 4041 
L 150 4581 
L 3781 4581 
L 3781 4041 
L 2266 4041 
L 2266 0 
L 1659 0 
z
" transform="scale(0.015625)"/>
       <path id="ArialMT-69" d="M 425 3934 
L 425 4581 
L 988 4581 
L 988 3934 
L 425 3934 
z
M 425 0 
L 425 3319 
L 988 3319 
L 988 0 
L 425 0 
z
" transform="scale(0.015625)"/>
       <path id="ArialMT-6d" d="M 422 0 
L 422 3319 
L 925 3319 
L 925 2853 
Q 1081 3097 1340 3245 
Q 1600 3394 1931 3394 
Q 2300 3394 2536 3241 
Q 2772 3088 2869 2813 
Q 3263 3394 3894 3394 
Q 4388 3394 4653 3120 
Q 4919 2847 4919 2278 
L 4919 0 
L 4359 0 
L 4359 2091 
Q 4359 2428 4304 2576 
Q 4250 2725 4106 2815 
Q 3963 2906 3769 2906 
Q 3419 2906 3187 2673 
Q 2956 2441 2956 1928 
L 2956 0 
L 2394 0 
L 2394 2156 
Q 2394 2531 2256 2718 
Q 2119 2906 1806 2906 
Q 1569 2906 1367 2781 
Q 1166 2656 1075 2415 
Q 984 2175 984 1722 
L 984 0 
L 422 0 
z
" transform="scale(0.015625)"/>
       <path id="ArialMT-65" d="M 2694 1069 
L 3275 997 
Q 3138 488 2766 206 
Q 2394 -75 1816 -75 
Q 1088 -75 661 373 
Q 234 822 234 1631 
Q 234 2469 665 2931 
Q 1097 3394 1784 3394 
Q 2450 3394 2872 2941 
Q 3294 2488 3294 1666 
Q 3294 1616 3291 1516 
L 816 1516 
Q 847 969 1125 678 
Q 1403 388 1819 388 
Q 2128 388 2347 550 
Q 2566 713 2694 1069 
z
M 847 1978 
L 2700 1978 
Q 2663 2397 2488 2606 
Q 2219 2931 1791 2931 
Q 1403 2931 1139 2672 
Q 875 2413 847 1978 
z
" transform="scale(0.015625)"/>
       <path id="ArialMT-20" transform="scale(0.015625)"/>
       <path id="ArialMT-28" d="M 1497 -1347 
Q 1031 -759 709 28 
Q 388 816 388 1659 
Q 388 2403 628 3084 
Q 909 3875 1497 4659 
L 1900 4659 
Q 1522 4009 1400 3731 
Q 1209 3300 1100 2831 
Q 966 2247 966 1656 
Q 966 153 1900 -1347 
L 1497 -1347 
z
" transform="scale(0.015625)"/>
       <path id="ArialMT-6e" d="M 422 0 
L 422 3319 
L 928 3319 
L 928 2847 
Q 1294 3394 1984 3394 
Q 2284 3394 2536 3286 
Q 2788 3178 2913 3003 
Q 3038 2828 3088 2588 
Q 3119 2431 3119 2041 
L 3119 0 
L 2556 0 
L 2556 2019 
Q 2556 2363 2490 2533 
Q 2425 2703 2258 2804 
Q 2091 2906 1866 2906 
Q 1506 2906 1245 2678 
Q 984 2450 984 1813 
L 984 0 
L 422 0 
z
" transform="scale(0.015625)"/>
       <path id="ArialMT-73" d="M 197 991 
L 753 1078 
Q 800 744 1014 566 
Q 1228 388 1613 388 
Q 2000 388 2187 545 
Q 2375 703 2375 916 
Q 2375 1106 2209 1216 
Q 2094 1291 1634 1406 
Q 1016 1563 777 1677 
Q 538 1791 414 1992 
Q 291 2194 291 2438 
Q 291 2659 392 2848 
Q 494 3038 669 3163 
Q 800 3259 1026 3326 
Q 1253 3394 1513 3394 
Q 1903 3394 2198 3281 
Q 2494 3169 2634 2976 
Q 2775 2784 2828 2463 
L 2278 2388 
Q 2241 2644 2061 2787 
Q 1881 2931 1553 2931 
Q 1166 2931 1000 2803 
Q 834 2675 834 2503 
Q 834 2394 903 2306 
Q 972 2216 1119 2156 
Q 1203 2125 1616 2013 
Q 2213 1853 2448 1751 
Q 2684 1650 2818 1456 
Q 2953 1263 2953 975 
Q 2953 694 2789 445 
Q 2625 197 2315 61 
Q 2006 -75 1616 -75 
Q 969 -75 630 194 
Q 291 463 197 991 
z
" transform="scale(0.015625)"/>
       <path id="ArialMT-29" d="M 791 -1347 
L 388 -1347 
Q 1322 153 1322 1656 
Q 1322 2244 1188 2822 
Q 1081 3291 891 3722 
Q 769 4003 388 4659 
L 791 4659 
Q 1378 3875 1659 3084 
Q 1900 2403 1900 1659 
Q 1900 816 1576 28 
Q 1253 -759 791 -1347 
z
" transform="scale(0.015625)"/>
      </defs>
      <use xlink:href="#ArialMT-54"/>
      <use xlink:href="#ArialMT-69" x="57.333984"/>
      <use xlink:href="#ArialMT-6d" x="79.550781"/>
      <use xlink:href="#ArialMT-65" x="162.851562"/>
      <use xlink:href="#ArialMT-20" x="218.466797"/>
      <use xlink:href="#ArialMT-28" x="246.25"/>
      <use xlink:href="#ArialMT-6e" x="279.550781"/>
      <use xlink:href="#ArialMT-73" x="335.166016"/>
      <use xlink:href="#ArialMT-29" x="385.166016"/>
     </g>
    </g>
   </g>
   <g id="matplotlib.axis_2">
    <g id="ytick_1">
     <g id="line2d_11">
      <path d="M 85.465625 461.456719 
L 643.465625 461.456719 
" clip-path="url(#p4b6821e970)" style="fill: none; stroke: #e2e2e2; stroke-width: 0.8; stroke-linecap: square"/>
     </g>
     <g id="line2d_12">
      <defs>
       <path id="ma7a82da160" d="M 0 0 
L -3.5 0 
" style="stroke: #000000; stroke-width: 0.8"/>
      </defs>
      <g>
       <use xlink:href="#ma7a82da160" x="85.465625" y="461.456719" style="stroke: #000000; stroke-width: 0.8"/>
      </g>
     </g>
    </g>
    <g id="ytick_2">
     <g id="line2d_13">
      <path d="M 85.465625 438.113561 
L 643.465625 438.113561 
" clip-path="url(#p4b6821e970)" style="fill: none; stroke: #e2e2e2; stroke-width: 0.8; stroke-linecap: square"/>
     </g>
     <g id="line2d_14">
      <g>
       <use xlink:href="#ma7a82da160" x="85.465625" y="438.113561" style="stroke: #000000; stroke-width: 0.8"/>
      </g>
     </g>
     <g id="text_5">
      <!-- 1 -->
      <g transform="translate(61.782813 448.85028)scale(0.3 -0.3)">
       <defs>
        <path id="ArialMT-31" d="M 2384 0 
L 1822 0 
L 1822 3584 
Q 1619 3391 1289 3197 
Q 959 3003 697 2906 
L 697 3450 
Q 1169 3672 1522 3987 
Q 1875 4303 2022 4600 
L 2384 4600 
L 2384 0 
z
" transform="scale(0.015625)"/>
       </defs>
       <use xlink:href="#ArialMT-31"/>
      </g>
     </g>
    </g>
    <g id="ytick_3">
     <g id="line2d_15">
      <path d="M 85.465625 414.770403 
L 643.465625 414.770403 
" clip-path="url(#p4b6821e970)" style="fill: none; stroke: #e2e2e2; stroke-width: 0.8; stroke-linecap: square"/>
     </g>
     <g id="line2d_16">
      <g>
       <use xlink:href="#ma7a82da160" x="85.465625" y="414.770403" style="stroke: #000000; stroke-width: 0.8"/>
      </g>
     </g>
    </g>
    <g id="ytick_4">
     <g id="line2d_17">
      <path d="M 85.465625 391.427245 
L 643.465625 391.427245 
" clip-path="url(#p4b6821e970)" style="fill: none; stroke: #e2e2e2; stroke-width: 0.8; stroke-linecap: square"/>
     </g>
     <g id="line2d_18">
      <g>
       <use xlink:href="#ma7a82da160" x="85.465625" y="391.427245" style="stroke: #000000; stroke-width: 0.8"/>
      </g>
     </g>
     <g id="text_6">
      <!-- 3 -->
      <g transform="translate(61.782813 402.163964)scale(0.3 -0.3)">
       <defs>
        <path id="ArialMT-33" d="M 269 1209 
L 831 1284 
Q 928 806 1161 595 
Q 1394 384 1728 384 
Q 2125 384 2398 659 
Q 2672 934 2672 1341 
Q 2672 1728 2419 1979 
Q 2166 2231 1775 2231 
Q 1616 2231 1378 2169 
L 1441 2663 
Q 1497 2656 1531 2656 
Q 1891 2656 2178 2843 
Q 2466 3031 2466 3422 
Q 2466 3731 2256 3934 
Q 2047 4138 1716 4138 
Q 1388 4138 1169 3931 
Q 950 3725 888 3313 
L 325 3413 
Q 428 3978 793 4289 
Q 1159 4600 1703 4600 
Q 2078 4600 2393 4439 
Q 2709 4278 2876 4000 
Q 3044 3722 3044 3409 
Q 3044 3113 2884 2869 
Q 2725 2625 2413 2481 
Q 2819 2388 3044 2092 
Q 3269 1797 3269 1353 
Q 3269 753 2831 336 
Q 2394 -81 1725 -81 
Q 1122 -81 723 278 
Q 325 638 269 1209 
z
" transform="scale(0.015625)"/>
       </defs>
       <use xlink:href="#ArialMT-33"/>
      </g>
     </g>
    </g>
    <g id="ytick_5">
     <g id="line2d_19">
      <path d="M 85.465625 368.084087 
L 643.465625 368.084087 
" clip-path="url(#p4b6821e970)" style="fill: none; stroke: #e2e2e2; stroke-width: 0.8; stroke-linecap: square"/>
     </g>
     <g id="line2d_20">
      <g>
       <use xlink:href="#ma7a82da160" x="85.465625" y="368.084087" style="stroke: #000000; stroke-width: 0.8"/>
      </g>
     </g>
    </g>
    <g id="ytick_6">
     <g id="line2d_21">
      <path d="M 85.465625 344.740929 
L 643.465625 344.740929 
" clip-path="url(#p4b6821e970)" style="fill: none; stroke: #e2e2e2; stroke-width: 0.8; stroke-linecap: square"/>
     </g>
     <g id="line2d_22">
      <g>
       <use xlink:href="#ma7a82da160" x="85.465625" y="344.740929" style="stroke: #000000; stroke-width: 0.8"/>
      </g>
     </g>
     <g id="text_7">
      <!-- 5 -->
      <g transform="translate(61.782813 355.477648)scale(0.3 -0.3)">
       <defs>
        <path id="ArialMT-35" d="M 266 1200 
L 856 1250 
Q 922 819 1161 601 
Q 1400 384 1738 384 
Q 2144 384 2425 690 
Q 2706 997 2706 1503 
Q 2706 1984 2436 2262 
Q 2166 2541 1728 2541 
Q 1456 2541 1237 2417 
Q 1019 2294 894 2097 
L 366 2166 
L 809 4519 
L 3088 4519 
L 3088 3981 
L 1259 3981 
L 1013 2750 
Q 1425 3038 1878 3038 
Q 2478 3038 2890 2622 
Q 3303 2206 3303 1553 
Q 3303 931 2941 478 
Q 2500 -78 1738 -78 
Q 1113 -78 717 272 
Q 322 622 266 1200 
z
" transform="scale(0.015625)"/>
       </defs>
       <use xlink:href="#ArialMT-35"/>
      </g>
     </g>
    </g>
    <g id="ytick_7">
     <g id="line2d_23">
      <path d="M 85.465625 321.397771 
L 643.465625 321.397771 
" clip-path="url(#p4b6821e970)" style="fill: none; stroke: #e2e2e2; stroke-width: 0.8; stroke-linecap: square"/>
     </g>
     <g id="line2d_24">
      <g>
       <use xlink:href="#ma7a82da160" x="85.465625" y="321.397771" style="stroke: #000000; stroke-width: 0.8"/>
      </g>
     </g>
    </g>
    <g id="ytick_8">
     <g id="line2d_25">
      <path d="M 85.465625 298.054613 
L 643.465625 298.054613 
" clip-path="url(#p4b6821e970)" style="fill: none; stroke: #e2e2e2; stroke-width: 0.8; stroke-linecap: square"/>
     </g>
     <g id="line2d_26">
      <g>
       <use xlink:href="#ma7a82da160" x="85.465625" y="298.054613" style="stroke: #000000; stroke-width: 0.8"/>
      </g>
     </g>
     <g id="text_8">
      <!-- 7 -->
      <g transform="translate(61.782813 308.791332)scale(0.3 -0.3)">
       <defs>
        <path id="ArialMT-37" d="M 303 3981 
L 303 4522 
L 3269 4522 
L 3269 4084 
Q 2831 3619 2401 2847 
Q 1972 2075 1738 1259 
Q 1569 684 1522 0 
L 944 0 
Q 953 541 1156 1306 
Q 1359 2072 1739 2783 
Q 2119 3494 2547 3981 
L 303 3981 
z
" transform="scale(0.015625)"/>
       </defs>
       <use xlink:href="#ArialMT-37"/>
      </g>
     </g>
    </g>
    <g id="ytick_9">
     <g id="line2d_27">
      <path d="M 85.465625 274.711456 
L 643.465625 274.711456 
" clip-path="url(#p4b6821e970)" style="fill: none; stroke: #e2e2e2; stroke-width: 0.8; stroke-linecap: square"/>
     </g>
     <g id="line2d_28">
      <g>
       <use xlink:href="#ma7a82da160" x="85.465625" y="274.711456" style="stroke: #000000; stroke-width: 0.8"/>
      </g>
     </g>
    </g>
    <g id="ytick_10">
     <g id="line2d_29">
      <path d="M 85.465625 251.368298 
L 643.465625 251.368298 
" clip-path="url(#p4b6821e970)" style="fill: none; stroke: #e2e2e2; stroke-width: 0.8; stroke-linecap: square"/>
     </g>
     <g id="line2d_30">
      <g>
       <use xlink:href="#ma7a82da160" x="85.465625" y="251.368298" style="stroke: #000000; stroke-width: 0.8"/>
      </g>
     </g>
     <g id="text_9">
      <!-- 9 -->
      <g transform="translate(61.782813 262.105016)scale(0.3 -0.3)">
       <defs>
        <path id="ArialMT-39" d="M 350 1059 
L 891 1109 
Q 959 728 1153 556 
Q 1347 384 1650 384 
Q 1909 384 2104 503 
Q 2300 622 2425 820 
Q 2550 1019 2634 1356 
Q 2719 1694 2719 2044 
Q 2719 2081 2716 2156 
Q 2547 1888 2255 1720 
Q 1963 1553 1622 1553 
Q 1053 1553 659 1965 
Q 266 2378 266 3053 
Q 266 3750 677 4175 
Q 1088 4600 1706 4600 
Q 2153 4600 2523 4359 
Q 2894 4119 3086 3673 
Q 3278 3228 3278 2384 
Q 3278 1506 3087 986 
Q 2897 466 2520 194 
Q 2144 -78 1638 -78 
Q 1100 -78 759 220 
Q 419 519 350 1059 
z
M 2653 3081 
Q 2653 3566 2395 3850 
Q 2138 4134 1775 4134 
Q 1400 4134 1122 3828 
Q 844 3522 844 3034 
Q 844 2597 1108 2323 
Q 1372 2050 1759 2050 
Q 2150 2050 2401 2323 
Q 2653 2597 2653 3081 
z
" transform="scale(0.015625)"/>
       </defs>
       <use xlink:href="#ArialMT-39"/>
      </g>
     </g>
    </g>
    <g id="ytick_11">
     <g id="line2d_31">
      <path d="M 85.465625 228.02514 
L 643.465625 228.02514 
" clip-path="url(#p4b6821e970)" style="fill: none; stroke: #e2e2e2; stroke-width: 0.8; stroke-linecap: square"/>
     </g>
     <g id="line2d_32">
      <g>
       <use xlink:href="#ma7a82da160" x="85.465625" y="228.02514" style="stroke: #000000; stroke-width: 0.8"/>
      </g>
     </g>
    </g>
    <g id="ytick_12">
     <g id="line2d_33">
      <path d="M 85.465625 204.681982 
L 643.465625 204.681982 
" clip-path="url(#p4b6821e970)" style="fill: none; stroke: #e2e2e2; stroke-width: 0.8; stroke-linecap: square"/>
     </g>
     <g id="line2d_34">
      <g>
       <use xlink:href="#ma7a82da160" x="85.465625" y="204.681982" style="stroke: #000000; stroke-width: 0.8"/>
      </g>
     </g>
     <g id="text_10">
      <!-- 11 -->
      <g transform="translate(47.3125 215.418701)scale(0.3 -0.3)">
       <use xlink:href="#ArialMT-31"/>
       <use xlink:href="#ArialMT-31" x="48.240234"/>
      </g>
     </g>
    </g>
    <g id="ytick_13">
     <g id="line2d_35">
      <path d="M 85.465625 181.338824 
L 643.465625 181.338824 
" clip-path="url(#p4b6821e970)" style="fill: none; stroke: #e2e2e2; stroke-width: 0.8; stroke-linecap: square"/>
     </g>
     <g id="line2d_36">
      <g>
       <use xlink:href="#ma7a82da160" x="85.465625" y="181.338824" style="stroke: #000000; stroke-width: 0.8"/>
      </g>
     </g>
    </g>
    <g id="ytick_14">
     <g id="line2d_37">
      <path d="M 85.465625 157.995666 
L 643.465625 157.995666 
" clip-path="url(#p4b6821e970)" style="fill: none; stroke: #e2e2e2; stroke-width: 0.8; stroke-linecap: square"/>
     </g>
     <g id="line2d_38">
      <g>
       <use xlink:href="#ma7a82da160" x="85.465625" y="157.995666" style="stroke: #000000; stroke-width: 0.8"/>
      </g>
     </g>
     <g id="text_11">
      <!-- 13 -->
      <g transform="translate(45.1 168.732385)scale(0.3 -0.3)">
       <use xlink:href="#ArialMT-31"/>
       <use xlink:href="#ArialMT-33" x="55.615234"/>
      </g>
     </g>
    </g>
    <g id="ytick_15">
     <g id="line2d_39">
      <path d="M 85.465625 134.652508 
L 643.465625 134.652508 
" clip-path="url(#p4b6821e970)" style="fill: none; stroke: #e2e2e2; stroke-width: 0.8; stroke-linecap: square"/>
     </g>
     <g id="line2d_40">
      <g>
       <use xlink:href="#ma7a82da160" x="85.465625" y="134.652508" style="stroke: #000000; stroke-width: 0.8"/>
      </g>
     </g>
    </g>
    <g id="ytick_16">
     <g id="line2d_41">
      <path d="M 85.465625 111.30935 
L 643.465625 111.30935 
" clip-path="url(#p4b6821e970)" style="fill: none; stroke: #e2e2e2; stroke-width: 0.8; stroke-linecap: square"/>
     </g>
     <g id="line2d_42">
      <g>
       <use xlink:href="#ma7a82da160" x="85.465625" y="111.30935" style="stroke: #000000; stroke-width: 0.8"/>
      </g>
     </g>
     <g id="text_12">
      <!-- 15 -->
      <g transform="translate(45.1 122.046069)scale(0.3 -0.3)">
       <use xlink:href="#ArialMT-31"/>
       <use xlink:href="#ArialMT-35" x="55.615234"/>
      </g>
     </g>
    </g>
    <g id="ytick_17">
     <g id="line2d_43">
      <path d="M 85.465625 87.966192 
L 643.465625 87.966192 
" clip-path="url(#p4b6821e970)" style="fill: none; stroke: #e2e2e2; stroke-width: 0.8; stroke-linecap: square"/>
     </g>
     <g id="line2d_44">
      <g>
       <use xlink:href="#ma7a82da160" x="85.465625" y="87.966192" style="stroke: #000000; stroke-width: 0.8"/>
      </g>
     </g>
    </g>
    <g id="ytick_18">
     <g id="line2d_45">
      <path d="M 85.465625 64.623035 
L 643.465625 64.623035 
" clip-path="url(#p4b6821e970)" style="fill: none; stroke: #e2e2e2; stroke-width: 0.8; stroke-linecap: square"/>
     </g>
     <g id="line2d_46">
      <g>
       <use xlink:href="#ma7a82da160" x="85.465625" y="64.623035" style="stroke: #000000; stroke-width: 0.8"/>
      </g>
     </g>
     <g id="text_13">
      <!-- 17 -->
      <g transform="translate(45.1 75.359753)scale(0.3 -0.3)">
       <use xlink:href="#ArialMT-31"/>
       <use xlink:href="#ArialMT-37" x="55.615234"/>
      </g>
     </g>
    </g>
    <g id="ytick_19">
     <g id="line2d_47">
      <path d="M 85.465625 41.279877 
L 643.465625 41.279877 
" clip-path="url(#p4b6821e970)" style="fill: none; stroke: #e2e2e2; stroke-width: 0.8; stroke-linecap: square"/>
     </g>
     <g id="line2d_48">
      <g>
       <use xlink:href="#ma7a82da160" x="85.465625" y="41.279877" style="stroke: #000000; stroke-width: 0.8"/>
      </g>
     </g>
    </g>
    <g id="ytick_20">
     <g id="line2d_49">
      <path d="M 85.465625 17.936719 
L 643.465625 17.936719 
" clip-path="url(#p4b6821e970)" style="fill: none; stroke: #e2e2e2; stroke-width: 0.8; stroke-linecap: square"/>
     </g>
     <g id="line2d_50">
      <g>
       <use xlink:href="#ma7a82da160" x="85.465625" y="17.936719" style="stroke: #000000; stroke-width: 0.8"/>
      </g>
     </g>
     <g id="text_14">
      <!-- 19 -->
      <g transform="translate(45.1 28.673437)scale(0.3 -0.3)">
       <use xlink:href="#ArialMT-31"/>
       <use xlink:href="#ArialMT-39" x="55.615234"/>
      </g>
     </g>
    </g>
    <g id="text_15">
     <!-- J$_2$ (A/m$^2$) -->
     <g transform="translate(34.5 302.546719)rotate(-90)scale(0.3 -0.3)">
      <defs>
       <path id="ArialMT-4a" d="M 184 1300 
L 731 1375 
Q 753 850 928 656 
Q 1103 463 1413 463 
Q 1641 463 1806 567 
Q 1972 672 2034 851 
Q 2097 1031 2097 1425 
L 2097 4581 
L 2703 4581 
L 2703 1459 
Q 2703 884 2564 568 
Q 2425 253 2123 87 
Q 1822 -78 1416 -78 
Q 813 -78 492 269 
Q 172 616 184 1300 
z
" transform="scale(0.015625)"/>
       <path id="DejaVuSans-32" d="M 1228 531 
L 3431 531 
L 3431 0 
L 469 0 
L 469 531 
Q 828 903 1448 1529 
Q 2069 2156 2228 2338 
Q 2531 2678 2651 2914 
Q 2772 3150 2772 3378 
Q 2772 3750 2511 3984 
Q 2250 4219 1831 4219 
Q 1534 4219 1204 4116 
Q 875 4013 500 3803 
L 500 4441 
Q 881 4594 1212 4672 
Q 1544 4750 1819 4750 
Q 2544 4750 2975 4387 
Q 3406 4025 3406 3419 
Q 3406 3131 3298 2873 
Q 3191 2616 2906 2266 
Q 2828 2175 2409 1742 
Q 1991 1309 1228 531 
z
" transform="scale(0.015625)"/>
       <path id="ArialMT-41" d="M -9 0 
L 1750 4581 
L 2403 4581 
L 4278 0 
L 3588 0 
L 3053 1388 
L 1138 1388 
L 634 0 
L -9 0 
z
M 1313 1881 
L 2866 1881 
L 2388 3150 
Q 2169 3728 2063 4100 
Q 1975 3659 1816 3225 
L 1313 1881 
z
" transform="scale(0.015625)"/>
       <path id="ArialMT-2f" d="M 0 -78 
L 1328 4659 
L 1778 4659 
L 453 -78 
L 0 -78 
z
" transform="scale(0.015625)"/>
      </defs>
      <use xlink:href="#ArialMT-4a" transform="translate(0 0.765625)"/>
      <use xlink:href="#DejaVuSans-32" transform="translate(50.957031 -15.640625)scale(0.7)"/>
      <use xlink:href="#ArialMT-20" transform="translate(98.227539 0.765625)"/>
      <use xlink:href="#ArialMT-28" transform="translate(126.010742 0.765625)"/>
      <use xlink:href="#ArialMT-41" transform="translate(159.311523 0.765625)"/>
      <use xlink:href="#ArialMT-2f" transform="translate(226.010742 0.765625)"/>
      <use xlink:href="#ArialMT-6d" transform="translate(253.793945 0.765625)"/>
      <use xlink:href="#DejaVuSans-32" transform="translate(338.051758 39.046875)scale(0.7)"/>
      <use xlink:href="#ArialMT-29" transform="translate(385.322266 0.765625)"/>
     </g>
    </g>
   </g>
   <g id="line2d_51">
    <path d="M 85.465625 461.456719 
L 92.440625 461.456719 
L 99.415625 461.456719 
L 106.390625 461.456719 
L 113.365625 461.456719 
L 120.340625 461.456719 
L 127.315625 461.456719 
L 134.290625 461.456719 
L 141.265625 461.456719 
L 148.240625 461.456719 
L 155.215625 461.456719 
L 162.190625 461.456719 
L 169.165625 461.456719 
L 176.140625 461.456719 
L 183.115625 461.456719 
L 190.090625 461.456719 
L 197.065625 461.456719 
L 204.040625 461.456719 
L 211.015625 461.456719 
L 217.990625 461.456719 
L 224.965625 461.456719 
L 231.940625 37.202271 
L 238.915625 37.202271 
L 245.890625 37.202271 
L 252.865625 49.42229 
L 259.840625 68.864185 
L 266.815625 87.221207 
L 273.790625 104.345647 
L 280.765625 120.301388 
L 287.740625 135.445559 
L 294.715625 149.715775 
L 301.690625 162.937892 
L 308.665625 171.349439 
L 315.640625 178.954503 
L 322.615625 186.203229 
L 329.590625 193.11006 
L 336.565625 199.355585 
L 343.540625 204.839174 
L 350.515625 209.97825 
L 357.490625 214.852144 
L 364.465625 219.021772 
L 371.440625 219.025606 
L 378.415625 219.025606 
L 385.390625 219.025606 
L 392.365625 219.025606 
L 399.340625 219.025606 
L 406.315625 219.025606 
L 413.290625 219.025606 
L 420.265625 219.025606 
L 427.240625 219.025606 
L 434.215625 219.025606 
L 441.190625 219.025606 
L 448.165625 219.025606 
L 455.140625 219.025606 
L 462.115625 219.025606 
L 469.090625 219.025606 
L 476.065625 219.025606 
L 483.040625 219.025606 
L 490.015625 219.025606 
L 496.990625 219.025606 
L 503.965625 460.173955 
L 510.940625 461.456719 
L 517.915625 461.456719 
L 524.890625 461.456719 
L 531.865625 461.456719 
L 538.840625 461.456719 
L 545.815625 461.456719 
L 552.790625 461.456719 
L 559.765625 461.456719 
L 566.740625 461.456719 
L 573.715625 461.456719 
L 580.690625 461.456719 
L 587.665625 461.456719 
L 594.640625 461.456719 
L 601.615625 461.456719 
L 608.590625 461.456719 
L 615.565625 461.456719 
L 622.540625 461.456719 
L 629.515625 461.456719 
L 636.490625 461.456719 
L 643.465625 461.456719 
L 650.440625 461.456719 
L 657.415625 461.456719 
L 660.007031 461.456719 
" clip-path="url(#p4b6821e970)" style="fill: none; stroke: #000000; stroke-width: 4.5; stroke-linecap: square"/>
   </g>
   <g id="line2d_52">
    <path d="M 85.465625 461.456719 
L 92.440625 461.456719 
L 99.415625 461.456719 
L 106.390625 461.456719 
L 113.365625 461.456719 
L 120.340625 461.456719 
L 127.315625 461.456719 
L 134.290625 461.456719 
L 141.265625 461.456719 
L 148.240625 461.456719 
L 155.215625 461.456719 
L 162.190625 461.456719 
L 169.165625 461.456719 
L 176.140625 461.456719 
L 183.115625 461.456719 
L 190.090625 461.456719 
L 197.065625 461.456719 
L 204.040625 461.456719 
L 211.015625 461.456719 
L 217.990625 461.456719 
L 224.965625 461.456719 
L 231.940625 249.329495 
L 238.915625 249.329495 
L 245.890625 249.329495 
L 252.865625 255.439505 
L 259.840625 265.160452 
L 266.815625 274.338963 
L 273.790625 282.901183 
L 280.765625 290.879054 
L 287.740625 298.451139 
L 294.715625 305.586247 
L 301.690625 312.197305 
L 308.665625 316.403079 
L 315.640625 320.205611 
L 322.615625 323.829974 
L 329.590625 327.283389 
L 336.565625 330.406152 
L 343.540625 333.147946 
L 350.515625 335.717484 
L 357.490625 338.154431 
L 364.465625 340.239245 
L 371.440625 340.241162 
L 378.415625 340.241162 
L 385.390625 340.241162 
L 392.365625 340.241162 
L 399.340625 340.241162 
L 406.315625 340.241162 
L 413.290625 340.241162 
L 420.265625 340.241162 
L 427.240625 340.241162 
L 434.215625 340.241162 
L 441.190625 340.241162 
L 448.165625 340.241162 
L 455.140625 340.241162 
L 462.115625 340.241162 
L 469.090625 340.241162 
L 476.065625 340.241162 
L 483.040625 340.241162 
L 490.015625 340.241162 
L 496.990625 340.241162 
L 503.965625 460.815337 
L 510.940625 461.456719 
L 517.915625 461.456719 
L 524.890625 461.456719 
L 531.865625 461.456719 
L 538.840625 461.456719 
L 545.815625 461.456719 
L 552.790625 461.456719 
L 559.765625 461.456719 
L 566.740625 461.456719 
L 573.715625 461.456719 
L 580.690625 461.456719 
L 587.665625 461.456719 
L 594.640625 461.456719 
L 601.615625 461.456719 
L 608.590625 461.456719 
L 615.565625 461.456719 
L 622.540625 461.456719 
L 629.515625 461.456719 
L 636.490625 461.456719 
L 643.465625 461.456719 
L 650.440625 461.456719 
L 657.415625 461.456719 
L 660.007031 461.456719 
" clip-path="url(#p4b6821e970)" style="fill: none; stroke: #1f77b4; stroke-width: 4.5; stroke-linecap: square"/>
   </g>
   <g id="patch_3">
    <path d="M 85.465625 461.456719 
L 85.465625 17.936719 
" style="fill: none; stroke: #000000; stroke-width: 4; stroke-linejoin: miter; stroke-linecap: square"/>
   </g>
   <g id="patch_4">
    <path d="M 643.465625 461.456719 
L 643.465625 17.936719 
" style="fill: none; stroke: #000000; stroke-width: 4; stroke-linejoin: miter; stroke-linecap: square"/>
   </g>
   <g id="patch_5">
    <path d="M 85.465625 461.456719 
L 643.465625 461.456719 
" style="fill: none; stroke: #000000; stroke-width: 4; stroke-linejoin: miter; stroke-linecap: square"/>
   </g>
   <g id="patch_6">
    <path d="M 85.465625 17.936719 
L 643.465625 17.936719 
" style="fill: none; stroke: #000000; stroke-width: 4; stroke-linejoin: miter; stroke-linecap: square"/>
   </g>
  </g>
 </g>
 <defs>
  <clipPath id="p4b6821e970">
   <rect x="85.465625" y="17.936719" width="558" height="443.52"/>
  </clipPath>
 </defs>
</svg>
