<?xml version="1.0" encoding="utf-8" standalone="no"?>
<!DOCTYPE svg PUBLIC "-//W3C//DTD SVG 1.1//EN"
  "http://www.w3.org/Graphics/SVG/1.1/DTD/svg11.dtd">
<svg xmlns:xlink="http://www.w3.org/1999/xlink" width="530.724219pt" height="535.245781pt" viewBox="0 0 530.724219 535.245781" xmlns="http://www.w3.org/2000/svg" version="1.1">
 <metadata>
  <rdf:RDF xmlns:dc="http://purl.org/dc/elements/1.1/" xmlns:cc="http://creativecommons.org/ns#" xmlns:rdf="http://www.w3.org/1999/02/22-rdf-syntax-ns#">
   <cc:Work>
    <dc:type rdf:resource="http://purl.org/dc/dcmitype/StillImage"/>
    <dc:date>2022-11-21T10:16:22.674235</dc:date>
    <dc:format>image/svg+xml</dc:format>
    <dc:creator>
     <cc:Agent>
      <dc:title>Matplotlib v3.5.3, https://matplotlib.org/</dc:title>
     </cc:Agent>
    </dc:creator>
   </cc:Work>
  </rdf:RDF>
 </metadata>
 <defs>
  <style type="text/css">*{stroke-linejoin: round; stroke-linecap: butt}</style>
 </defs>
 <g id="figure_1">
  <g id="patch_1">
   <path d="M 0 535.245781 
L 530.724219 535.245781 
L 530.724219 0 
L 0 0 
z
" style="fill: #ffffff"/>
  </g>
  <g id="axes_1">
   <g id="patch_2">
    <path d="M 68.782813 461.456719 
L 515.182812 461.456719 
L 515.182812 17.936719 
L 68.782813 17.936719 
z
" style="fill: #ffffff"/>
   </g>
   <g id="matplotlib.axis_1">
    <g id="xtick_1">
     <g id="line2d_1">
      <path d="M 68.782813 461.456719 
L 68.782813 17.936719 
" clip-path="url(#p8e8819ba50)" style="fill: none; stroke: #e2e2e2; stroke-width: 0.8; stroke-linecap: square"/>
     </g>
     <g id="line2d_2">
      <defs>
       <path id="m3f9af6b9b3" d="M 0 0 
L 0 3.5 
" style="stroke: #000000; stroke-width: 0.8"/>
      </defs>
      <g>
       <use xlink:href="#m3f9af6b9b3" x="68.782813" y="461.456719" style="stroke: #000000; stroke-width: 0.8"/>
      </g>
     </g>
     <g id="text_1">
      <!-- 1 -->
      <g transform="translate(60.441406 489.930156)scale(0.3 -0.3)">
       <defs>
        <path id="ArialMT-31" d="M 2384 0 
L 1822 0 
L 1822 3584 
Q 1619 3391 1289 3197 
Q 959 3003 697 2906 
L 697 3450 
Q 1169 3672 1522 3987 
Q 1875 4303 2022 4600 
L 2384 4600 
L 2384 0 
z
" transform="scale(0.015625)"/>
       </defs>
       <use xlink:href="#ArialMT-31"/>
      </g>
     </g>
    </g>
    <g id="xtick_2">
     <g id="line2d_3">
      <path d="M 180.382812 461.456719 
L 180.382812 17.936719 
" clip-path="url(#p8e8819ba50)" style="fill: none; stroke: #e2e2e2; stroke-width: 0.8; stroke-linecap: square"/>
     </g>
     <g id="line2d_4">
      <g>
       <use xlink:href="#m3f9af6b9b3" x="180.382812" y="461.456719" style="stroke: #000000; stroke-width: 0.8"/>
      </g>
     </g>
     <g id="text_2">
      <!-- 2 -->
      <g transform="translate(172.041406 489.930156)scale(0.3 -0.3)">
       <defs>
        <path id="ArialMT-32" d="M 3222 541 
L 3222 0 
L 194 0 
Q 188 203 259 391 
Q 375 700 629 1000 
Q 884 1300 1366 1694 
Q 2113 2306 2375 2664 
Q 2638 3022 2638 3341 
Q 2638 3675 2398 3904 
Q 2159 4134 1775 4134 
Q 1369 4134 1125 3890 
Q 881 3647 878 3216 
L 300 3275 
Q 359 3922 746 4261 
Q 1134 4600 1788 4600 
Q 2447 4600 2831 4234 
Q 3216 3869 3216 3328 
Q 3216 3053 3103 2787 
Q 2991 2522 2730 2228 
Q 2469 1934 1863 1422 
Q 1356 997 1212 845 
Q 1069 694 975 541 
L 3222 541 
z
" transform="scale(0.015625)"/>
       </defs>
       <use xlink:href="#ArialMT-32"/>
      </g>
     </g>
    </g>
    <g id="xtick_3">
     <g id="line2d_5">
      <path d="M 291.982813 461.456719 
L 291.982813 17.936719 
" clip-path="url(#p8e8819ba50)" style="fill: none; stroke: #e2e2e2; stroke-width: 0.8; stroke-linecap: square"/>
     </g>
     <g id="line2d_6">
      <g>
       <use xlink:href="#m3f9af6b9b3" x="291.982813" y="461.456719" style="stroke: #000000; stroke-width: 0.8"/>
      </g>
     </g>
     <g id="text_3">
      <!-- 3 -->
      <g transform="translate(283.641406 489.930156)scale(0.3 -0.3)">
       <defs>
        <path id="ArialMT-33" d="M 269 1209 
L 831 1284 
Q 928 806 1161 595 
Q 1394 384 1728 384 
Q 2125 384 2398 659 
Q 2672 934 2672 1341 
Q 2672 1728 2419 1979 
Q 2166 2231 1775 2231 
Q 1616 2231 1378 2169 
L 1441 2663 
Q 1497 2656 1531 2656 
Q 1891 2656 2178 2843 
Q 2466 3031 2466 3422 
Q 2466 3731 2256 3934 
Q 2047 4138 1716 4138 
Q 1388 4138 1169 3931 
Q 950 3725 888 3313 
L 325 3413 
Q 428 3978 793 4289 
Q 1159 4600 1703 4600 
Q 2078 4600 2393 4439 
Q 2709 4278 2876 4000 
Q 3044 3722 3044 3409 
Q 3044 3113 2884 2869 
Q 2725 2625 2413 2481 
Q 2819 2388 3044 2092 
Q 3269 1797 3269 1353 
Q 3269 753 2831 336 
Q 2394 -81 1725 -81 
Q 1122 -81 723 278 
Q 325 638 269 1209 
z
" transform="scale(0.015625)"/>
       </defs>
       <use xlink:href="#ArialMT-33"/>
      </g>
     </g>
    </g>
    <g id="xtick_4">
     <g id="line2d_7">
      <path d="M 403.582812 461.456719 
L 403.582812 17.936719 
" clip-path="url(#p8e8819ba50)" style="fill: none; stroke: #e2e2e2; stroke-width: 0.8; stroke-linecap: square"/>
     </g>
     <g id="line2d_8">
      <g>
       <use xlink:href="#m3f9af6b9b3" x="403.582812" y="461.456719" style="stroke: #000000; stroke-width: 0.8"/>
      </g>
     </g>
     <g id="text_4">
      <!-- 4 -->
      <g transform="translate(395.241406 489.930156)scale(0.3 -0.3)">
       <defs>
        <path id="ArialMT-34" d="M 2069 0 
L 2069 1097 
L 81 1097 
L 81 1613 
L 2172 4581 
L 2631 4581 
L 2631 1613 
L 3250 1613 
L 3250 1097 
L 2631 1097 
L 2631 0 
L 2069 0 
z
M 2069 1613 
L 2069 3678 
L 634 1613 
L 2069 1613 
z
" transform="scale(0.015625)"/>
       </defs>
       <use xlink:href="#ArialMT-34"/>
      </g>
     </g>
    </g>
    <g id="xtick_5">
     <g id="line2d_9">
      <path d="M 515.182812 461.456719 
L 515.182812 17.936719 
" clip-path="url(#p8e8819ba50)" style="fill: none; stroke: #e2e2e2; stroke-width: 0.8; stroke-linecap: square"/>
     </g>
     <g id="line2d_10">
      <g>
       <use xlink:href="#m3f9af6b9b3" x="515.182812" y="461.456719" style="stroke: #000000; stroke-width: 0.8"/>
      </g>
     </g>
     <g id="text_5">
      <!-- 5 -->
      <g transform="translate(506.841406 489.930156)scale(0.3 -0.3)">
       <defs>
        <path id="ArialMT-35" d="M 266 1200 
L 856 1250 
Q 922 819 1161 601 
Q 1400 384 1738 384 
Q 2144 384 2425 690 
Q 2706 997 2706 1503 
Q 2706 1984 2436 2262 
Q 2166 2541 1728 2541 
Q 1456 2541 1237 2417 
Q 1019 2294 894 2097 
L 366 2166 
L 809 4519 
L 3088 4519 
L 3088 3981 
L 1259 3981 
L 1013 2750 
Q 1425 3038 1878 3038 
Q 2478 3038 2890 2622 
Q 3303 2206 3303 1553 
Q 3303 931 2941 478 
Q 2500 -78 1738 -78 
Q 1113 -78 717 272 
Q 322 622 266 1200 
z
" transform="scale(0.015625)"/>
       </defs>
       <use xlink:href="#ArialMT-35"/>
      </g>
     </g>
    </g>
    <g id="text_6">
     <!-- Time (ns) -->
     <g transform="translate(229.217188 521.731719)scale(0.3 -0.3)">
      <defs>
       <path id="ArialMT-54" d="M 1659 0 
L 1659 4041 
L 150 4041 
L 150 4581 
L 3781 4581 
L 3781 4041 
L 2266 4041 
L 2266 0 
L 1659 0 
z
" transform="scale(0.015625)"/>
       <path id="ArialMT-69" d="M 425 3934 
L 425 4581 
L 988 4581 
L 988 3934 
L 425 3934 
z
M 425 0 
L 425 3319 
L 988 3319 
L 988 0 
L 425 0 
z
" transform="scale(0.015625)"/>
       <path id="ArialMT-6d" d="M 422 0 
L 422 3319 
L 925 3319 
L 925 2853 
Q 1081 3097 1340 3245 
Q 1600 3394 1931 3394 
Q 2300 3394 2536 3241 
Q 2772 3088 2869 2813 
Q 3263 3394 3894 3394 
Q 4388 3394 4653 3120 
Q 4919 2847 4919 2278 
L 4919 0 
L 4359 0 
L 4359 2091 
Q 4359 2428 4304 2576 
Q 4250 2725 4106 2815 
Q 3963 2906 3769 2906 
Q 3419 2906 3187 2673 
Q 2956 2441 2956 1928 
L 2956 0 
L 2394 0 
L 2394 2156 
Q 2394 2531 2256 2718 
Q 2119 2906 1806 2906 
Q 1569 2906 1367 2781 
Q 1166 2656 1075 2415 
Q 984 2175 984 1722 
L 984 0 
L 422 0 
z
" transform="scale(0.015625)"/>
       <path id="ArialMT-65" d="M 2694 1069 
L 3275 997 
Q 3138 488 2766 206 
Q 2394 -75 1816 -75 
Q 1088 -75 661 373 
Q 234 822 234 1631 
Q 234 2469 665 2931 
Q 1097 3394 1784 3394 
Q 2450 3394 2872 2941 
Q 3294 2488 3294 1666 
Q 3294 1616 3291 1516 
L 816 1516 
Q 847 969 1125 678 
Q 1403 388 1819 388 
Q 2128 388 2347 550 
Q 2566 713 2694 1069 
z
M 847 1978 
L 2700 1978 
Q 2663 2397 2488 2606 
Q 2219 2931 1791 2931 
Q 1403 2931 1139 2672 
Q 875 2413 847 1978 
z
" transform="scale(0.015625)"/>
       <path id="ArialMT-20" transform="scale(0.015625)"/>
       <path id="ArialMT-28" d="M 1497 -1347 
Q 1031 -759 709 28 
Q 388 816 388 1659 
Q 388 2403 628 3084 
Q 909 3875 1497 4659 
L 1900 4659 
Q 1522 4009 1400 3731 
Q 1209 3300 1100 2831 
Q 966 2247 966 1656 
Q 966 153 1900 -1347 
L 1497 -1347 
z
" transform="scale(0.015625)"/>
       <path id="ArialMT-6e" d="M 422 0 
L 422 3319 
L 928 3319 
L 928 2847 
Q 1294 3394 1984 3394 
Q 2284 3394 2536 3286 
Q 2788 3178 2913 3003 
Q 3038 2828 3088 2588 
Q 3119 2431 3119 2041 
L 3119 0 
L 2556 0 
L 2556 2019 
Q 2556 2363 2490 2533 
Q 2425 2703 2258 2804 
Q 2091 2906 1866 2906 
Q 1506 2906 1245 2678 
Q 984 2450 984 1813 
L 984 0 
L 422 0 
z
" transform="scale(0.015625)"/>
       <path id="ArialMT-73" d="M 197 991 
L 753 1078 
Q 800 744 1014 566 
Q 1228 388 1613 388 
Q 2000 388 2187 545 
Q 2375 703 2375 916 
Q 2375 1106 2209 1216 
Q 2094 1291 1634 1406 
Q 1016 1563 777 1677 
Q 538 1791 414 1992 
Q 291 2194 291 2438 
Q 291 2659 392 2848 
Q 494 3038 669 3163 
Q 800 3259 1026 3326 
Q 1253 3394 1513 3394 
Q 1903 3394 2198 3281 
Q 2494 3169 2634 2976 
Q 2775 2784 2828 2463 
L 2278 2388 
Q 2241 2644 2061 2787 
Q 1881 2931 1553 2931 
Q 1166 2931 1000 2803 
Q 834 2675 834 2503 
Q 834 2394 903 2306 
Q 972 2216 1119 2156 
Q 1203 2125 1616 2013 
Q 2213 1853 2448 1751 
Q 2684 1650 2818 1456 
Q 2953 1263 2953 975 
Q 2953 694 2789 445 
Q 2625 197 2315 61 
Q 2006 -75 1616 -75 
Q 969 -75 630 194 
Q 291 463 197 991 
z
" transform="scale(0.015625)"/>
       <path id="ArialMT-29" d="M 791 -1347 
L 388 -1347 
Q 1322 153 1322 1656 
Q 1322 2244 1188 2822 
Q 1081 3291 891 3722 
Q 769 4003 388 4659 
L 791 4659 
Q 1378 3875 1659 3084 
Q 1900 2403 1900 1659 
Q 1900 816 1576 28 
Q 1253 -759 791 -1347 
z
" transform="scale(0.015625)"/>
      </defs>
      <use xlink:href="#ArialMT-54"/>
      <use xlink:href="#ArialMT-69" x="57.333984"/>
      <use xlink:href="#ArialMT-6d" x="79.550781"/>
      <use xlink:href="#ArialMT-65" x="162.851562"/>
      <use xlink:href="#ArialMT-20" x="218.466797"/>
      <use xlink:href="#ArialMT-28" x="246.25"/>
      <use xlink:href="#ArialMT-6e" x="279.550781"/>
      <use xlink:href="#ArialMT-73" x="335.166016"/>
      <use xlink:href="#ArialMT-29" x="385.166016"/>
     </g>
    </g>
   </g>
   <g id="matplotlib.axis_2">
    <g id="ytick_1">
     <g id="line2d_11">
      <path d="M 68.782813 461.456719 
L 515.182812 461.456719 
" clip-path="url(#p8e8819ba50)" style="fill: none; stroke: #e2e2e2; stroke-width: 0.8; stroke-linecap: square"/>
     </g>
     <g id="line2d_12">
      <defs>
       <path id="me31d0726ac" d="M 0 0 
L -3.5 0 
" style="stroke: #000000; stroke-width: 0.8"/>
      </defs>
      <g>
       <use xlink:href="#me31d0726ac" x="68.782813" y="461.456719" style="stroke: #000000; stroke-width: 0.8"/>
      </g>
     </g>
    </g>
    <g id="ytick_2">
     <g id="line2d_13">
      <path d="M 68.782813 398.096719 
L 515.182812 398.096719 
" clip-path="url(#p8e8819ba50)" style="fill: none; stroke: #e2e2e2; stroke-width: 0.8; stroke-linecap: square"/>
     </g>
     <g id="line2d_14">
      <g>
       <use xlink:href="#me31d0726ac" x="68.782813" y="398.096719" style="stroke: #000000; stroke-width: 0.8"/>
      </g>
     </g>
     <g id="text_7">
      <!-- 1 -->
      <g transform="translate(45.1 408.833437)scale(0.3 -0.3)">
       <use xlink:href="#ArialMT-31"/>
      </g>
     </g>
    </g>
    <g id="ytick_3">
     <g id="line2d_15">
      <path d="M 68.782813 334.736719 
L 515.182812 334.736719 
" clip-path="url(#p8e8819ba50)" style="fill: none; stroke: #e2e2e2; stroke-width: 0.8; stroke-linecap: square"/>
     </g>
     <g id="line2d_16">
      <g>
       <use xlink:href="#me31d0726ac" x="68.782813" y="334.736719" style="stroke: #000000; stroke-width: 0.8"/>
      </g>
     </g>
    </g>
    <g id="ytick_4">
     <g id="line2d_17">
      <path d="M 68.782813 271.376719 
L 515.182812 271.376719 
" clip-path="url(#p8e8819ba50)" style="fill: none; stroke: #e2e2e2; stroke-width: 0.8; stroke-linecap: square"/>
     </g>
     <g id="line2d_18">
      <g>
       <use xlink:href="#me31d0726ac" x="68.782813" y="271.376719" style="stroke: #000000; stroke-width: 0.8"/>
      </g>
     </g>
     <g id="text_8">
      <!-- 3 -->
      <g transform="translate(45.1 282.113437)scale(0.3 -0.3)">
       <use xlink:href="#ArialMT-33"/>
      </g>
     </g>
    </g>
    <g id="ytick_5">
     <g id="line2d_19">
      <path d="M 68.782813 208.016719 
L 515.182812 208.016719 
" clip-path="url(#p8e8819ba50)" style="fill: none; stroke: #e2e2e2; stroke-width: 0.8; stroke-linecap: square"/>
     </g>
     <g id="line2d_20">
      <g>
       <use xlink:href="#me31d0726ac" x="68.782813" y="208.016719" style="stroke: #000000; stroke-width: 0.8"/>
      </g>
     </g>
    </g>
    <g id="ytick_6">
     <g id="line2d_21">
      <path d="M 68.782813 144.656719 
L 515.182812 144.656719 
" clip-path="url(#p8e8819ba50)" style="fill: none; stroke: #e2e2e2; stroke-width: 0.8; stroke-linecap: square"/>
     </g>
     <g id="line2d_22">
      <g>
       <use xlink:href="#me31d0726ac" x="68.782813" y="144.656719" style="stroke: #000000; stroke-width: 0.8"/>
      </g>
     </g>
     <g id="text_9">
      <!-- 5 -->
      <g transform="translate(45.1 155.393437)scale(0.3 -0.3)">
       <use xlink:href="#ArialMT-35"/>
      </g>
     </g>
    </g>
    <g id="ytick_7">
     <g id="line2d_23">
      <path d="M 68.782813 81.296719 
L 515.182812 81.296719 
" clip-path="url(#p8e8819ba50)" style="fill: none; stroke: #e2e2e2; stroke-width: 0.8; stroke-linecap: square"/>
     </g>
     <g id="line2d_24">
      <g>
       <use xlink:href="#me31d0726ac" x="68.782813" y="81.296719" style="stroke: #000000; stroke-width: 0.8"/>
      </g>
     </g>
    </g>
    <g id="ytick_8">
     <g id="line2d_25">
      <path d="M 68.782813 17.936719 
L 515.182812 17.936719 
" clip-path="url(#p8e8819ba50)" style="fill: none; stroke: #e2e2e2; stroke-width: 0.8; stroke-linecap: square"/>
     </g>
     <g id="line2d_26">
      <g>
       <use xlink:href="#me31d0726ac" x="68.782813" y="17.936719" style="stroke: #000000; stroke-width: 0.8"/>
      </g>
     </g>
     <g id="text_10">
      <!-- 7 -->
      <g transform="translate(45.1 28.673437)scale(0.3 -0.3)">
       <defs>
        <path id="ArialMT-37" d="M 303 3981 
L 303 4522 
L 3269 4522 
L 3269 4084 
Q 2831 3619 2401 2847 
Q 1972 2075 1738 1259 
Q 1569 684 1522 0 
L 944 0 
Q 953 541 1156 1306 
Q 1359 2072 1739 2783 
Q 2119 3494 2547 3981 
L 303 3981 
z
" transform="scale(0.015625)"/>
       </defs>
       <use xlink:href="#ArialMT-37"/>
      </g>
     </g>
    </g>
    <g id="text_11">
     <!-- J$_2$ (A/m$^2$) -->
     <g transform="translate(34.5 302.546719)rotate(-90)scale(0.3 -0.3)">
      <defs>
       <path id="ArialMT-4a" d="M 184 1300 
L 731 1375 
Q 753 850 928 656 
Q 1103 463 1413 463 
Q 1641 463 1806 567 
Q 1972 672 2034 851 
Q 2097 1031 2097 1425 
L 2097 4581 
L 2703 4581 
L 2703 1459 
Q 2703 884 2564 568 
Q 2425 253 2123 87 
Q 1822 -78 1416 -78 
Q 813 -78 492 269 
Q 172 616 184 1300 
z
" transform="scale(0.015625)"/>
       <path id="DejaVuSans-32" d="M 1228 531 
L 3431 531 
L 3431 0 
L 469 0 
L 469 531 
Q 828 903 1448 1529 
Q 2069 2156 2228 2338 
Q 2531 2678 2651 2914 
Q 2772 3150 2772 3378 
Q 2772 3750 2511 3984 
Q 2250 4219 1831 4219 
Q 1534 4219 1204 4116 
Q 875 4013 500 3803 
L 500 4441 
Q 881 4594 1212 4672 
Q 1544 4750 1819 4750 
Q 2544 4750 2975 4387 
Q 3406 4025 3406 3419 
Q 3406 3131 3298 2873 
Q 3191 2616 2906 2266 
Q 2828 2175 2409 1742 
Q 1991 1309 1228 531 
z
" transform="scale(0.015625)"/>
       <path id="ArialMT-41" d="M -9 0 
L 1750 4581 
L 2403 4581 
L 4278 0 
L 3588 0 
L 3053 1388 
L 1138 1388 
L 634 0 
L -9 0 
z
M 1313 1881 
L 2866 1881 
L 2388 3150 
Q 2169 3728 2063 4100 
Q 1975 3659 1816 3225 
L 1313 1881 
z
" transform="scale(0.015625)"/>
       <path id="ArialMT-2f" d="M 0 -78 
L 1328 4659 
L 1778 4659 
L 453 -78 
L 0 -78 
z
" transform="scale(0.015625)"/>
      </defs>
      <use xlink:href="#ArialMT-4a" transform="translate(0 0.765625)"/>
      <use xlink:href="#DejaVuSans-32" transform="translate(50.957031 -15.640625)scale(0.7)"/>
      <use xlink:href="#ArialMT-20" transform="translate(98.227539 0.765625)"/>
      <use xlink:href="#ArialMT-28" transform="translate(126.010742 0.765625)"/>
      <use xlink:href="#ArialMT-41" transform="translate(159.311523 0.765625)"/>
      <use xlink:href="#ArialMT-2f" transform="translate(226.010742 0.765625)"/>
      <use xlink:href="#ArialMT-6d" transform="translate(253.793945 0.765625)"/>
      <use xlink:href="#DejaVuSans-32" transform="translate(338.051758 39.046875)scale(0.7)"/>
      <use xlink:href="#ArialMT-29" transform="translate(385.322266 0.765625)"/>
     </g>
    </g>
   </g>
   <g id="line2d_27">
    <path d="M 68.782813 461.456719 
L 74.362813 461.456719 
L 79.942813 461.456719 
L 85.522813 461.456719 
L 91.102812 461.456719 
L 96.682813 461.456719 
L 102.262812 461.456719 
L 107.842813 461.456719 
L 113.422812 461.456719 
L 119.002813 461.456719 
L 124.582813 461.456719 
L 130.162813 461.456719 
L 135.742813 461.456719 
L 141.322812 461.456719 
L 146.902813 461.456719 
L 152.482812 461.456719 
L 158.062813 461.456719 
L 163.642812 461.456719 
L 169.222812 461.456719 
L 174.802813 461.456719 
L 180.382812 461.456719 
L 185.962812 27.505348 
L 191.542813 27.505348 
L 197.122812 27.505348 
L 202.702812 27.505348 
L 208.282813 27.505348 
L 213.862812 27.505348 
L 219.442813 27.505348 
L 225.022813 27.505348 
L 230.602812 27.505348 
L 236.182812 27.505348 
L 241.762812 27.505348 
L 247.342812 27.505348 
L 252.922812 27.505348 
L 258.502813 45.809562 
L 264.082812 120.929003 
L 269.662812 128.080017 
L 275.242813 78.477176 
L 280.822812 74.016615 
L 286.402812 74.016615 
L 291.982813 74.016615 
L 297.562812 74.016615 
L 303.142812 74.016615 
L 308.722812 74.016615 
L 314.302813 74.016615 
L 319.882812 74.016615 
L 325.462812 74.016615 
L 331.042812 74.016615 
L 336.622813 74.016615 
L 342.202812 74.016615 
L 347.782812 74.016615 
L 353.362813 74.016615 
L 358.942812 74.016615 
L 364.522812 74.016615 
L 370.102813 74.016615 
L 375.682812 74.016615 
L 381.262812 74.016615 
L 386.842813 74.016615 
L 392.422812 74.016615 
L 398.002813 74.016615 
L 403.582812 459.406685 
L 409.162812 461.456719 
L 414.742812 461.456719 
L 420.322812 461.456719 
L 425.902812 461.456719 
L 431.482813 461.456719 
L 437.062812 461.456719 
L 442.642812 461.456719 
L 448.222813 461.456719 
L 453.802812 461.456719 
L 459.382812 461.456719 
L 464.962812 461.456719 
L 470.542812 461.456719 
L 476.122813 461.456719 
L 481.702812 461.456719 
L 487.282812 461.456719 
L 492.862813 461.456719 
L 498.442812 461.456719 
L 504.022812 461.456719 
L 509.602812 461.456719 
L 515.182812 461.456719 
L 520.762812 461.456719 
L 526.342812 461.456719 
L 531.724219 461.456719 
" clip-path="url(#p8e8819ba50)" style="fill: none; stroke: #000000; stroke-width: 4.5; stroke-linecap: square"/>
   </g>
   <g id="line2d_28">
    <path d="M 68.782813 461.456719 
L 74.362813 461.456719 
L 79.942813 461.456719 
L 85.522813 461.456719 
L 91.102812 461.456719 
L 96.682813 461.456719 
L 102.262812 461.456719 
L 107.842813 461.456719 
L 113.422812 461.456719 
L 119.002813 461.456719 
L 124.582813 461.456719 
L 130.162813 461.456719 
L 135.742813 461.456719 
L 141.322812 461.456719 
L 146.902813 461.456719 
L 152.482812 461.456719 
L 158.062813 461.456719 
L 163.642812 461.456719 
L 169.222812 461.456719 
L 174.802813 461.456719 
L 180.382812 461.456719 
L 185.962812 145.841741 
L 191.542813 145.841741 
L 197.122812 145.841741 
L 202.702812 145.841741 
L 208.282813 145.841741 
L 213.862812 145.841741 
L 219.442813 145.841741 
L 225.022813 145.841741 
L 230.602812 145.841741 
L 236.182812 145.841741 
L 241.762812 145.841741 
L 247.342812 145.841741 
L 252.922812 145.841741 
L 258.502813 164.145955 
L 264.082812 242.389631 
L 269.662812 281.105303 
L 275.242813 281.105303 
L 280.822812 281.105303 
L 286.402812 281.105303 
L 291.982813 281.105303 
L 297.562812 281.105303 
L 303.142812 281.105303 
L 308.722812 281.105303 
L 314.302813 281.105303 
L 319.882812 281.105303 
L 325.462812 281.105303 
L 331.042812 281.105303 
L 336.622813 281.105303 
L 342.202812 281.105303 
L 347.782812 281.105303 
L 353.362813 281.105303 
L 358.942812 281.105303 
L 364.522812 281.105303 
L 370.102813 281.105303 
L 375.682812 281.105303 
L 381.262812 281.105303 
L 386.842813 281.105303 
L 392.422812 281.105303 
L 398.002813 281.105303 
L 403.582812 460.502293 
L 409.162812 461.456719 
L 414.742812 461.456719 
L 420.322812 461.456719 
L 425.902812 461.456719 
L 431.482813 461.456719 
L 437.062812 461.456719 
L 442.642812 461.456719 
L 448.222813 461.456719 
L 453.802812 461.456719 
L 459.382812 461.456719 
L 464.962812 461.456719 
L 470.542812 461.456719 
L 476.122813 461.456719 
L 481.702812 461.456719 
L 487.282812 461.456719 
L 492.862813 461.456719 
L 498.442812 461.456719 
L 504.022812 461.456719 
L 509.602812 461.456719 
L 515.182812 461.456719 
L 520.762812 461.456719 
L 526.342812 461.456719 
L 531.724219 461.456719 
" clip-path="url(#p8e8819ba50)" style="fill: none; stroke: #1f77b4; stroke-width: 4.5; stroke-linecap: square"/>
   </g>
   <g id="line2d_29">
    <path d="M 68.782813 461.456719 
L 74.362813 461.456719 
L 79.942813 461.456719 
L 85.522813 461.456719 
L 91.102812 461.456719 
L 96.682813 461.456719 
L 102.262812 461.456719 
L 107.842813 461.456719 
L 113.422812 461.456719 
L 119.002813 461.456719 
L 124.582813 461.456719 
L 130.162813 461.456719 
L 135.742813 461.456719 
L 141.322812 461.456719 
L 146.902813 461.456719 
L 152.482812 461.456719 
L 158.062813 461.456719 
L 163.642812 461.456719 
L 169.222812 461.456719 
L 174.802813 461.456719 
L 180.382812 461.456719 
L 185.962812 343.120326 
L 191.542813 343.120326 
L 197.122812 343.120326 
L 202.702812 343.120326 
L 208.282813 343.120326 
L 213.862812 343.120326 
L 219.442813 343.120326 
L 225.022813 343.120326 
L 230.602812 343.120326 
L 236.182812 343.120326 
L 241.762812 343.120326 
L 247.342812 343.120326 
L 252.922812 343.120326 
L 258.502813 343.120326 
L 264.082812 339.996091 
L 269.662812 308.431433 
L 275.242813 258.828592 
L 280.822812 254.368031 
L 286.402812 254.368031 
L 291.982813 254.368031 
L 297.562812 254.368031 
L 303.142812 254.368031 
L 308.722812 254.368031 
L 314.302813 254.368031 
L 319.882812 254.368031 
L 325.462812 254.368031 
L 331.042812 254.368031 
L 336.622813 254.368031 
L 342.202812 254.368031 
L 347.782812 254.368031 
L 353.362813 254.368031 
L 358.942812 254.368031 
L 364.522812 254.368031 
L 370.102813 254.368031 
L 375.682812 254.368031 
L 381.262812 254.368031 
L 386.842813 254.368031 
L 392.422812 254.368031 
L 398.002813 254.368031 
L 403.582812 460.361111 
L 409.162812 461.456719 
L 414.742812 461.456719 
L 420.322812 461.456719 
L 425.902812 461.456719 
L 431.482813 461.456719 
L 437.062812 461.456719 
L 442.642812 461.456719 
L 448.222813 461.456719 
L 453.802812 461.456719 
L 459.382812 461.456719 
L 464.962812 461.456719 
L 470.542812 461.456719 
L 476.122813 461.456719 
L 481.702812 461.456719 
L 487.282812 461.456719 
L 492.862813 461.456719 
L 498.442812 461.456719 
L 504.022812 461.456719 
L 509.602812 461.456719 
L 515.182812 461.456719 
L 520.762812 461.456719 
L 526.342812 461.456719 
L 531.724219 461.456719 
" clip-path="url(#p8e8819ba50)" style="fill: none; stroke: #ff7f0e; stroke-width: 4.5; stroke-linecap: square"/>
   </g>
   <g id="patch_3">
    <path d="M 68.782813 461.456719 
L 68.782813 17.936719 
" style="fill: none; stroke: #000000; stroke-width: 4; stroke-linejoin: miter; stroke-linecap: square"/>
   </g>
   <g id="patch_4">
    <path d="M 515.182812 461.456719 
L 515.182812 17.936719 
" style="fill: none; stroke: #000000; stroke-width: 4; stroke-linejoin: miter; stroke-linecap: square"/>
   </g>
   <g id="patch_5">
    <path d="M 68.782813 461.456719 
L 515.182812 461.456719 
" style="fill: none; stroke: #000000; stroke-width: 4; stroke-linejoin: miter; stroke-linecap: square"/>
   </g>
   <g id="patch_6">
    <path d="M 68.782813 17.936719 
L 515.182812 17.936719 
" style="fill: none; stroke: #000000; stroke-width: 4; stroke-linejoin: miter; stroke-linecap: square"/>
   </g>
  </g>
 </g>
 <defs>
  <clipPath id="p8e8819ba50">
   <rect x="68.782813" y="17.936719" width="446.4" height="443.52"/>
  </clipPath>
 </defs>
</svg>
