<?xml version="1.0" encoding="utf-8" standalone="no"?>
<!DOCTYPE svg PUBLIC "-//W3C//DTD SVG 1.1//EN"
  "http://www.w3.org/Graphics/SVG/1.1/DTD/svg11.dtd">
<svg xmlns:xlink="http://www.w3.org/1999/xlink" width="558.342969pt" height="524.509062pt" viewBox="0 0 558.342969 524.509062" xmlns="http://www.w3.org/2000/svg" version="1.1">
 <metadata>
  <rdf:RDF xmlns:dc="http://purl.org/dc/elements/1.1/" xmlns:cc="http://creativecommons.org/ns#" xmlns:rdf="http://www.w3.org/1999/02/22-rdf-syntax-ns#">
   <cc:Work>
    <dc:type rdf:resource="http://purl.org/dc/dcmitype/StillImage"/>
    <dc:date>2022-11-21T09:37:28.365789</dc:date>
    <dc:format>image/svg+xml</dc:format>
    <dc:creator>
     <cc:Agent>
      <dc:title>Matplotlib v3.5.3, https://matplotlib.org/</dc:title>
     </cc:Agent>
    </dc:creator>
   </cc:Work>
  </rdf:RDF>
 </metadata>
 <defs>
  <style type="text/css">*{stroke-linejoin: round; stroke-linecap: butt}</style>
 </defs>
 <g id="figure_1">
  <g id="patch_1">
   <path d="M 0 524.509062 
L 558.342969 524.509062 
L 558.342969 0 
L 0 0 
z
" style="fill: #ffffff"/>
  </g>
  <g id="axes_1">
   <g id="patch_2">
    <path d="M 96.401563 450.72 
L 542.801562 450.72 
L 542.801562 7.2 
L 96.401563 7.2 
z
" style="fill: #ffffff"/>
   </g>
   <g id="matplotlib.axis_1">
    <g id="xtick_1">
     <g id="line2d_1">
      <path d="M 96.401563 450.72 
L 96.401563 7.2 
" clip-path="url(#p85b5f5fb51)" style="fill: none; stroke: #e2e2e2; stroke-width: 0.8; stroke-linecap: square"/>
     </g>
     <g id="line2d_2">
      <defs>
       <path id="mb5dee7407d" d="M 0 0 
L 0 3.5 
" style="stroke: #000000; stroke-width: 0.8"/>
      </defs>
      <g>
       <use xlink:href="#mb5dee7407d" x="96.401563" y="450.72" style="stroke: #000000; stroke-width: 0.8"/>
      </g>
     </g>
     <g id="text_1">
      <!-- 0 -->
      <g transform="translate(88.060156 479.193437)scale(0.3 -0.3)">
       <defs>
        <path id="ArialMT-30" d="M 266 2259 
Q 266 3072 433 3567 
Q 600 4063 929 4331 
Q 1259 4600 1759 4600 
Q 2128 4600 2406 4451 
Q 2684 4303 2865 4023 
Q 3047 3744 3150 3342 
Q 3253 2941 3253 2259 
Q 3253 1453 3087 958 
Q 2922 463 2592 192 
Q 2263 -78 1759 -78 
Q 1097 -78 719 397 
Q 266 969 266 2259 
z
M 844 2259 
Q 844 1131 1108 757 
Q 1372 384 1759 384 
Q 2147 384 2411 759 
Q 2675 1134 2675 2259 
Q 2675 3391 2411 3762 
Q 2147 4134 1753 4134 
Q 1366 4134 1134 3806 
Q 844 3388 844 2259 
z
" transform="scale(0.015625)"/>
       </defs>
       <use xlink:href="#ArialMT-30"/>
      </g>
     </g>
    </g>
    <g id="xtick_2">
     <g id="line2d_3">
      <path d="M 170.801562 450.72 
L 170.801562 7.2 
" clip-path="url(#p85b5f5fb51)" style="fill: none; stroke: #e2e2e2; stroke-width: 0.8; stroke-linecap: square"/>
     </g>
     <g id="line2d_4">
      <g>
       <use xlink:href="#mb5dee7407d" x="170.801562" y="450.72" style="stroke: #000000; stroke-width: 0.8"/>
      </g>
     </g>
    </g>
    <g id="xtick_3">
     <g id="line2d_5">
      <path d="M 245.201562 450.72 
L 245.201562 7.2 
" clip-path="url(#p85b5f5fb51)" style="fill: none; stroke: #e2e2e2; stroke-width: 0.8; stroke-linecap: square"/>
     </g>
     <g id="line2d_6">
      <g>
       <use xlink:href="#mb5dee7407d" x="245.201562" y="450.72" style="stroke: #000000; stroke-width: 0.8"/>
      </g>
     </g>
     <g id="text_2">
      <!-- 2 -->
      <g transform="translate(236.860156 479.193437)scale(0.3 -0.3)">
       <defs>
        <path id="ArialMT-32" d="M 3222 541 
L 3222 0 
L 194 0 
Q 188 203 259 391 
Q 375 700 629 1000 
Q 884 1300 1366 1694 
Q 2113 2306 2375 2664 
Q 2638 3022 2638 3341 
Q 2638 3675 2398 3904 
Q 2159 4134 1775 4134 
Q 1369 4134 1125 3890 
Q 881 3647 878 3216 
L 300 3275 
Q 359 3922 746 4261 
Q 1134 4600 1788 4600 
Q 2447 4600 2831 4234 
Q 3216 3869 3216 3328 
Q 3216 3053 3103 2787 
Q 2991 2522 2730 2228 
Q 2469 1934 1863 1422 
Q 1356 997 1212 845 
Q 1069 694 975 541 
L 3222 541 
z
" transform="scale(0.015625)"/>
       </defs>
       <use xlink:href="#ArialMT-32"/>
      </g>
     </g>
    </g>
    <g id="xtick_4">
     <g id="line2d_7">
      <path d="M 319.601562 450.72 
L 319.601562 7.2 
" clip-path="url(#p85b5f5fb51)" style="fill: none; stroke: #e2e2e2; stroke-width: 0.8; stroke-linecap: square"/>
     </g>
     <g id="line2d_8">
      <g>
       <use xlink:href="#mb5dee7407d" x="319.601562" y="450.72" style="stroke: #000000; stroke-width: 0.8"/>
      </g>
     </g>
    </g>
    <g id="xtick_5">
     <g id="line2d_9">
      <path d="M 394.001562 450.72 
L 394.001562 7.2 
" clip-path="url(#p85b5f5fb51)" style="fill: none; stroke: #e2e2e2; stroke-width: 0.8; stroke-linecap: square"/>
     </g>
     <g id="line2d_10">
      <g>
       <use xlink:href="#mb5dee7407d" x="394.001562" y="450.72" style="stroke: #000000; stroke-width: 0.8"/>
      </g>
     </g>
     <g id="text_3">
      <!-- 4 -->
      <g transform="translate(385.660156 479.193437)scale(0.3 -0.3)">
       <defs>
        <path id="ArialMT-34" d="M 2069 0 
L 2069 1097 
L 81 1097 
L 81 1613 
L 2172 4581 
L 2631 4581 
L 2631 1613 
L 3250 1613 
L 3250 1097 
L 2631 1097 
L 2631 0 
L 2069 0 
z
M 2069 1613 
L 2069 3678 
L 634 1613 
L 2069 1613 
z
" transform="scale(0.015625)"/>
       </defs>
       <use xlink:href="#ArialMT-34"/>
      </g>
     </g>
    </g>
    <g id="xtick_6">
     <g id="line2d_11">
      <path d="M 468.401562 450.72 
L 468.401562 7.2 
" clip-path="url(#p85b5f5fb51)" style="fill: none; stroke: #e2e2e2; stroke-width: 0.8; stroke-linecap: square"/>
     </g>
     <g id="line2d_12">
      <g>
       <use xlink:href="#mb5dee7407d" x="468.401562" y="450.72" style="stroke: #000000; stroke-width: 0.8"/>
      </g>
     </g>
    </g>
    <g id="xtick_7">
     <g id="line2d_13">
      <path d="M 542.801562 450.72 
L 542.801562 7.2 
" clip-path="url(#p85b5f5fb51)" style="fill: none; stroke: #e2e2e2; stroke-width: 0.8; stroke-linecap: square"/>
     </g>
     <g id="line2d_14">
      <g>
       <use xlink:href="#mb5dee7407d" x="542.801562" y="450.72" style="stroke: #000000; stroke-width: 0.8"/>
      </g>
     </g>
     <g id="text_4">
      <!-- 6 -->
      <g transform="translate(534.460156 479.193437)scale(0.3 -0.3)">
       <defs>
        <path id="ArialMT-36" d="M 3184 3459 
L 2625 3416 
Q 2550 3747 2413 3897 
Q 2184 4138 1850 4138 
Q 1581 4138 1378 3988 
Q 1113 3794 959 3422 
Q 806 3050 800 2363 
Q 1003 2672 1297 2822 
Q 1591 2972 1913 2972 
Q 2475 2972 2870 2558 
Q 3266 2144 3266 1488 
Q 3266 1056 3080 686 
Q 2894 316 2569 119 
Q 2244 -78 1831 -78 
Q 1128 -78 684 439 
Q 241 956 241 2144 
Q 241 3472 731 4075 
Q 1159 4600 1884 4600 
Q 2425 4600 2770 4297 
Q 3116 3994 3184 3459 
z
M 888 1484 
Q 888 1194 1011 928 
Q 1134 663 1356 523 
Q 1578 384 1822 384 
Q 2178 384 2434 671 
Q 2691 959 2691 1453 
Q 2691 1928 2437 2201 
Q 2184 2475 1800 2475 
Q 1419 2475 1153 2201 
Q 888 1928 888 1484 
z
" transform="scale(0.015625)"/>
       </defs>
       <use xlink:href="#ArialMT-36"/>
      </g>
     </g>
    </g>
    <g id="text_5">
     <!-- Time (ns) -->
     <g transform="translate(256.835938 510.995)scale(0.3 -0.3)">
      <defs>
       <path id="ArialMT-54" d="M 1659 0 
L 1659 4041 
L 150 4041 
L 150 4581 
L 3781 4581 
L 3781 4041 
L 2266 4041 
L 2266 0 
L 1659 0 
z
" transform="scale(0.015625)"/>
       <path id="ArialMT-69" d="M 425 3934 
L 425 4581 
L 988 4581 
L 988 3934 
L 425 3934 
z
M 425 0 
L 425 3319 
L 988 3319 
L 988 0 
L 425 0 
z
" transform="scale(0.015625)"/>
       <path id="ArialMT-6d" d="M 422 0 
L 422 3319 
L 925 3319 
L 925 2853 
Q 1081 3097 1340 3245 
Q 1600 3394 1931 3394 
Q 2300 3394 2536 3241 
Q 2772 3088 2869 2813 
Q 3263 3394 3894 3394 
Q 4388 3394 4653 3120 
Q 4919 2847 4919 2278 
L 4919 0 
L 4359 0 
L 4359 2091 
Q 4359 2428 4304 2576 
Q 4250 2725 4106 2815 
Q 3963 2906 3769 2906 
Q 3419 2906 3187 2673 
Q 2956 2441 2956 1928 
L 2956 0 
L 2394 0 
L 2394 2156 
Q 2394 2531 2256 2718 
Q 2119 2906 1806 2906 
Q 1569 2906 1367 2781 
Q 1166 2656 1075 2415 
Q 984 2175 984 1722 
L 984 0 
L 422 0 
z
" transform="scale(0.015625)"/>
       <path id="ArialMT-65" d="M 2694 1069 
L 3275 997 
Q 3138 488 2766 206 
Q 2394 -75 1816 -75 
Q 1088 -75 661 373 
Q 234 822 234 1631 
Q 234 2469 665 2931 
Q 1097 3394 1784 3394 
Q 2450 3394 2872 2941 
Q 3294 2488 3294 1666 
Q 3294 1616 3291 1516 
L 816 1516 
Q 847 969 1125 678 
Q 1403 388 1819 388 
Q 2128 388 2347 550 
Q 2566 713 2694 1069 
z
M 847 1978 
L 2700 1978 
Q 2663 2397 2488 2606 
Q 2219 2931 1791 2931 
Q 1403 2931 1139 2672 
Q 875 2413 847 1978 
z
" transform="scale(0.015625)"/>
       <path id="ArialMT-20" transform="scale(0.015625)"/>
       <path id="ArialMT-28" d="M 1497 -1347 
Q 1031 -759 709 28 
Q 388 816 388 1659 
Q 388 2403 628 3084 
Q 909 3875 1497 4659 
L 1900 4659 
Q 1522 4009 1400 3731 
Q 1209 3300 1100 2831 
Q 966 2247 966 1656 
Q 966 153 1900 -1347 
L 1497 -1347 
z
" transform="scale(0.015625)"/>
       <path id="ArialMT-6e" d="M 422 0 
L 422 3319 
L 928 3319 
L 928 2847 
Q 1294 3394 1984 3394 
Q 2284 3394 2536 3286 
Q 2788 3178 2913 3003 
Q 3038 2828 3088 2588 
Q 3119 2431 3119 2041 
L 3119 0 
L 2556 0 
L 2556 2019 
Q 2556 2363 2490 2533 
Q 2425 2703 2258 2804 
Q 2091 2906 1866 2906 
Q 1506 2906 1245 2678 
Q 984 2450 984 1813 
L 984 0 
L 422 0 
z
" transform="scale(0.015625)"/>
       <path id="ArialMT-73" d="M 197 991 
L 753 1078 
Q 800 744 1014 566 
Q 1228 388 1613 388 
Q 2000 388 2187 545 
Q 2375 703 2375 916 
Q 2375 1106 2209 1216 
Q 2094 1291 1634 1406 
Q 1016 1563 777 1677 
Q 538 1791 414 1992 
Q 291 2194 291 2438 
Q 291 2659 392 2848 
Q 494 3038 669 3163 
Q 800 3259 1026 3326 
Q 1253 3394 1513 3394 
Q 1903 3394 2198 3281 
Q 2494 3169 2634 2976 
Q 2775 2784 2828 2463 
L 2278 2388 
Q 2241 2644 2061 2787 
Q 1881 2931 1553 2931 
Q 1166 2931 1000 2803 
Q 834 2675 834 2503 
Q 834 2394 903 2306 
Q 972 2216 1119 2156 
Q 1203 2125 1616 2013 
Q 2213 1853 2448 1751 
Q 2684 1650 2818 1456 
Q 2953 1263 2953 975 
Q 2953 694 2789 445 
Q 2625 197 2315 61 
Q 2006 -75 1616 -75 
Q 969 -75 630 194 
Q 291 463 197 991 
z
" transform="scale(0.015625)"/>
       <path id="ArialMT-29" d="M 791 -1347 
L 388 -1347 
Q 1322 153 1322 1656 
Q 1322 2244 1188 2822 
Q 1081 3291 891 3722 
Q 769 4003 388 4659 
L 791 4659 
Q 1378 3875 1659 3084 
Q 1900 2403 1900 1659 
Q 1900 816 1576 28 
Q 1253 -759 791 -1347 
z
" transform="scale(0.015625)"/>
      </defs>
      <use xlink:href="#ArialMT-54"/>
      <use xlink:href="#ArialMT-69" x="57.333984"/>
      <use xlink:href="#ArialMT-6d" x="79.550781"/>
      <use xlink:href="#ArialMT-65" x="162.851562"/>
      <use xlink:href="#ArialMT-20" x="218.466797"/>
      <use xlink:href="#ArialMT-28" x="246.25"/>
      <use xlink:href="#ArialMT-6e" x="279.550781"/>
      <use xlink:href="#ArialMT-73" x="335.166016"/>
      <use xlink:href="#ArialMT-29" x="385.166016"/>
     </g>
    </g>
   </g>
   <g id="matplotlib.axis_2">
    <g id="ytick_1">
     <g id="line2d_15">
      <path d="M 96.401563 450.72 
L 542.801562 450.72 
" clip-path="url(#p85b5f5fb51)" style="fill: none; stroke: #e2e2e2; stroke-width: 0.8; stroke-linecap: square"/>
     </g>
     <g id="line2d_16">
      <defs>
       <path id="mb7b4605771" d="M 0 0 
L -3.5 0 
" style="stroke: #000000; stroke-width: 0.8"/>
      </defs>
      <g>
       <use xlink:href="#mb7b4605771" x="96.401563" y="450.72" style="stroke: #000000; stroke-width: 0.8"/>
      </g>
     </g>
     <g id="text_6">
      <!-- 0 -->
      <g transform="translate(72.71875 461.456719)scale(0.3 -0.3)">
       <use xlink:href="#ArialMT-30"/>
      </g>
     </g>
    </g>
    <g id="ytick_2">
     <g id="line2d_17">
      <path d="M 96.401563 398.541176 
L 542.801562 398.541176 
" clip-path="url(#p85b5f5fb51)" style="fill: none; stroke: #e2e2e2; stroke-width: 0.8; stroke-linecap: square"/>
     </g>
     <g id="line2d_18">
      <g>
       <use xlink:href="#mb7b4605771" x="96.401563" y="398.541176" style="stroke: #000000; stroke-width: 0.8"/>
      </g>
     </g>
     <g id="text_7">
      <!-- 30 -->
      <g transform="translate(56.035938 409.277895)scale(0.3 -0.3)">
       <defs>
        <path id="ArialMT-33" d="M 269 1209 
L 831 1284 
Q 928 806 1161 595 
Q 1394 384 1728 384 
Q 2125 384 2398 659 
Q 2672 934 2672 1341 
Q 2672 1728 2419 1979 
Q 2166 2231 1775 2231 
Q 1616 2231 1378 2169 
L 1441 2663 
Q 1497 2656 1531 2656 
Q 1891 2656 2178 2843 
Q 2466 3031 2466 3422 
Q 2466 3731 2256 3934 
Q 2047 4138 1716 4138 
Q 1388 4138 1169 3931 
Q 950 3725 888 3313 
L 325 3413 
Q 428 3978 793 4289 
Q 1159 4600 1703 4600 
Q 2078 4600 2393 4439 
Q 2709 4278 2876 4000 
Q 3044 3722 3044 3409 
Q 3044 3113 2884 2869 
Q 2725 2625 2413 2481 
Q 2819 2388 3044 2092 
Q 3269 1797 3269 1353 
Q 3269 753 2831 336 
Q 2394 -81 1725 -81 
Q 1122 -81 723 278 
Q 325 638 269 1209 
z
" transform="scale(0.015625)"/>
       </defs>
       <use xlink:href="#ArialMT-33"/>
       <use xlink:href="#ArialMT-30" x="55.615234"/>
      </g>
     </g>
    </g>
    <g id="ytick_3">
     <g id="line2d_19">
      <path d="M 96.401563 372.451765 
L 542.801562 372.451765 
" clip-path="url(#p85b5f5fb51)" style="fill: none; stroke: #e2e2e2; stroke-width: 0.8; stroke-linecap: square"/>
     </g>
     <g id="line2d_20">
      <g>
       <use xlink:href="#mb7b4605771" x="96.401563" y="372.451765" style="stroke: #000000; stroke-width: 0.8"/>
      </g>
     </g>
     <g id="text_8">
      <!-- 45 -->
      <g transform="translate(56.035938 383.188483)scale(0.3 -0.3)">
       <defs>
        <path id="ArialMT-35" d="M 266 1200 
L 856 1250 
Q 922 819 1161 601 
Q 1400 384 1738 384 
Q 2144 384 2425 690 
Q 2706 997 2706 1503 
Q 2706 1984 2436 2262 
Q 2166 2541 1728 2541 
Q 1456 2541 1237 2417 
Q 1019 2294 894 2097 
L 366 2166 
L 809 4519 
L 3088 4519 
L 3088 3981 
L 1259 3981 
L 1013 2750 
Q 1425 3038 1878 3038 
Q 2478 3038 2890 2622 
Q 3303 2206 3303 1553 
Q 3303 931 2941 478 
Q 2500 -78 1738 -78 
Q 1113 -78 717 272 
Q 322 622 266 1200 
z
" transform="scale(0.015625)"/>
       </defs>
       <use xlink:href="#ArialMT-34"/>
       <use xlink:href="#ArialMT-35" x="55.615234"/>
      </g>
     </g>
    </g>
    <g id="ytick_4">
     <g id="line2d_21">
      <path d="M 96.401563 268.094118 
L 542.801562 268.094118 
" clip-path="url(#p85b5f5fb51)" style="fill: none; stroke: #e2e2e2; stroke-width: 0.8; stroke-linecap: square"/>
     </g>
     <g id="line2d_22">
      <g>
       <use xlink:href="#mb7b4605771" x="96.401563" y="268.094118" style="stroke: #000000; stroke-width: 0.8"/>
      </g>
     </g>
     <g id="text_9">
      <!-- 105 -->
      <g transform="translate(39.353125 278.830836)scale(0.3 -0.3)">
       <defs>
        <path id="ArialMT-31" d="M 2384 0 
L 1822 0 
L 1822 3584 
Q 1619 3391 1289 3197 
Q 959 3003 697 2906 
L 697 3450 
Q 1169 3672 1522 3987 
Q 1875 4303 2022 4600 
L 2384 4600 
L 2384 0 
z
" transform="scale(0.015625)"/>
       </defs>
       <use xlink:href="#ArialMT-31"/>
       <use xlink:href="#ArialMT-30" x="55.615234"/>
       <use xlink:href="#ArialMT-35" x="111.230469"/>
      </g>
     </g>
    </g>
    <g id="ytick_5">
     <g id="line2d_23">
      <path d="M 96.401563 189.825882 
L 542.801562 189.825882 
" clip-path="url(#p85b5f5fb51)" style="fill: none; stroke: #e2e2e2; stroke-width: 0.8; stroke-linecap: square"/>
     </g>
     <g id="line2d_24">
      <g>
       <use xlink:href="#mb7b4605771" x="96.401563" y="189.825882" style="stroke: #000000; stroke-width: 0.8"/>
      </g>
     </g>
     <g id="text_10">
      <!-- 150 -->
      <g transform="translate(39.353125 200.562601)scale(0.3 -0.3)">
       <use xlink:href="#ArialMT-31"/>
       <use xlink:href="#ArialMT-35" x="55.615234"/>
       <use xlink:href="#ArialMT-30" x="111.230469"/>
      </g>
     </g>
    </g>
    <g id="ytick_6">
     <g id="line2d_25">
      <path d="M 96.401563 85.468235 
L 542.801562 85.468235 
" clip-path="url(#p85b5f5fb51)" style="fill: none; stroke: #e2e2e2; stroke-width: 0.8; stroke-linecap: square"/>
     </g>
     <g id="line2d_26">
      <g>
       <use xlink:href="#mb7b4605771" x="96.401563" y="85.468235" style="stroke: #000000; stroke-width: 0.8"/>
      </g>
     </g>
     <g id="text_11">
      <!-- 210 -->
      <g transform="translate(39.353125 96.204954)scale(0.3 -0.3)">
       <use xlink:href="#ArialMT-32"/>
       <use xlink:href="#ArialMT-31" x="55.615234"/>
       <use xlink:href="#ArialMT-30" x="111.230469"/>
      </g>
     </g>
    </g>
    <g id="ytick_7">
     <g id="line2d_27">
      <path d="M 96.401563 59.378824 
L 542.801562 59.378824 
" clip-path="url(#p85b5f5fb51)" style="fill: none; stroke: #e2e2e2; stroke-width: 0.8; stroke-linecap: square"/>
     </g>
     <g id="line2d_28">
      <g>
       <use xlink:href="#mb7b4605771" x="96.401563" y="59.378824" style="stroke: #000000; stroke-width: 0.8"/>
      </g>
     </g>
     <g id="text_12">
      <!-- 225 -->
      <g transform="translate(39.353125 70.115542)scale(0.3 -0.3)">
       <use xlink:href="#ArialMT-32"/>
       <use xlink:href="#ArialMT-32" x="55.615234"/>
       <use xlink:href="#ArialMT-35" x="111.230469"/>
      </g>
     </g>
    </g>
    <g id="text_13">
     <!-- DW Position (nm) -->
     <g transform="translate(29.039063 346.473281)rotate(-90)scale(0.3 -0.3)">
      <defs>
       <path id="ArialMT-44" d="M 494 0 
L 494 4581 
L 2072 4581 
Q 2606 4581 2888 4516 
Q 3281 4425 3559 4188 
Q 3922 3881 4101 3404 
Q 4281 2928 4281 2316 
Q 4281 1794 4159 1391 
Q 4038 988 3847 723 
Q 3656 459 3429 307 
Q 3203 156 2883 78 
Q 2563 0 2147 0 
L 494 0 
z
M 1100 541 
L 2078 541 
Q 2531 541 2789 625 
Q 3047 709 3200 863 
Q 3416 1078 3536 1442 
Q 3656 1806 3656 2325 
Q 3656 3044 3420 3430 
Q 3184 3816 2847 3947 
Q 2603 4041 2063 4041 
L 1100 4041 
L 1100 541 
z
" transform="scale(0.015625)"/>
       <path id="ArialMT-57" d="M 1294 0 
L 78 4581 
L 700 4581 
L 1397 1578 
Q 1509 1106 1591 641 
Q 1766 1375 1797 1488 
L 2669 4581 
L 3400 4581 
L 4056 2263 
Q 4303 1400 4413 641 
Q 4500 1075 4641 1638 
L 5359 4581 
L 5969 4581 
L 4713 0 
L 4128 0 
L 3163 3491 
Q 3041 3928 3019 4028 
Q 2947 3713 2884 3491 
L 1913 0 
L 1294 0 
z
" transform="scale(0.015625)"/>
       <path id="ArialMT-50" d="M 494 0 
L 494 4581 
L 2222 4581 
Q 2678 4581 2919 4538 
Q 3256 4481 3484 4323 
Q 3713 4166 3852 3881 
Q 3991 3597 3991 3256 
Q 3991 2672 3619 2267 
Q 3247 1863 2275 1863 
L 1100 1863 
L 1100 0 
L 494 0 
z
M 1100 2403 
L 2284 2403 
Q 2872 2403 3119 2622 
Q 3366 2841 3366 3238 
Q 3366 3525 3220 3729 
Q 3075 3934 2838 4000 
Q 2684 4041 2272 4041 
L 1100 4041 
L 1100 2403 
z
" transform="scale(0.015625)"/>
       <path id="ArialMT-6f" d="M 213 1659 
Q 213 2581 725 3025 
Q 1153 3394 1769 3394 
Q 2453 3394 2887 2945 
Q 3322 2497 3322 1706 
Q 3322 1066 3130 698 
Q 2938 331 2570 128 
Q 2203 -75 1769 -75 
Q 1072 -75 642 372 
Q 213 819 213 1659 
z
M 791 1659 
Q 791 1022 1069 705 
Q 1347 388 1769 388 
Q 2188 388 2466 706 
Q 2744 1025 2744 1678 
Q 2744 2294 2464 2611 
Q 2184 2928 1769 2928 
Q 1347 2928 1069 2612 
Q 791 2297 791 1659 
z
" transform="scale(0.015625)"/>
       <path id="ArialMT-74" d="M 1650 503 
L 1731 6 
Q 1494 -44 1306 -44 
Q 1000 -44 831 53 
Q 663 150 594 308 
Q 525 466 525 972 
L 525 2881 
L 113 2881 
L 113 3319 
L 525 3319 
L 525 4141 
L 1084 4478 
L 1084 3319 
L 1650 3319 
L 1650 2881 
L 1084 2881 
L 1084 941 
Q 1084 700 1114 631 
Q 1144 563 1211 522 
Q 1278 481 1403 481 
Q 1497 481 1650 503 
z
" transform="scale(0.015625)"/>
      </defs>
      <use xlink:href="#ArialMT-44"/>
      <use xlink:href="#ArialMT-57" x="72.216797"/>
      <use xlink:href="#ArialMT-20" x="166.601562"/>
      <use xlink:href="#ArialMT-50" x="194.384766"/>
      <use xlink:href="#ArialMT-6f" x="261.083984"/>
      <use xlink:href="#ArialMT-73" x="316.699219"/>
      <use xlink:href="#ArialMT-69" x="366.699219"/>
      <use xlink:href="#ArialMT-74" x="388.916016"/>
      <use xlink:href="#ArialMT-69" x="416.699219"/>
      <use xlink:href="#ArialMT-6f" x="438.916016"/>
      <use xlink:href="#ArialMT-6e" x="494.53125"/>
      <use xlink:href="#ArialMT-20" x="550.146484"/>
      <use xlink:href="#ArialMT-28" x="577.929688"/>
      <use xlink:href="#ArialMT-6e" x="611.230469"/>
      <use xlink:href="#ArialMT-6d" x="666.845703"/>
      <use xlink:href="#ArialMT-29" x="750.146484"/>
     </g>
    </g>
   </g>
   <g id="line2d_29">
    <path d="M 22.001563 375.69258 
L 27.209658 375.576821 
L 33.905749 375.178606 
L 48.044489 374.252561 
L 53.996645 374.11417 
L 60.690145 374.194788 
L 70.365167 374.589108 
L 81.524872 375.008716 
L 89.706074 375.075924 
L 99.381003 374.898657 
L 117.977967 374.490597 
L 128.397101 374.533891 
L 158.157165 374.839211 
L 203.540918 374.700034 
L 227.346538 374.750474 
L 248.921563 374.678594 
L 254.87602 368.342124 
L 257.106541 365.816497 
L 260.081563 362.536142 
L 262.316211 360.153384 
L 264.546614 357.810898 
L 269.011438 352.670716 
L 271.241563 349.562953 
L 273.476253 346.059694 
L 275.706645 341.903766 
L 278.681563 335.8148 
L 287.611406 316.427477 
L 295.051398 301.218575 
L 303.981073 282.385889 
L 306.211515 278.167605 
L 308.441562 274.346773 
L 310.676474 270.959853 
L 312.906821 267.99448 
L 315.885543 264.477467 
L 321.091731 258.857634 
L 325.556527 253.95169 
L 329.276493 249.553619 
L 332.996492 244.820991 
L 338.205536 237.74988 
L 345.645541 227.188099 
L 358.291682 209.08663 
L 362.75659 203.199658 
L 368.706865 195.789029 
L 376.891783 185.559548 
L 381.356712 179.65464 
L 385.076725 174.41842 
L 388.05183 169.889432 
L 391.026908 164.916884 
L 394.005564 159.561786 
L 396.236819 156.762429 
L 398.466923 154.312061 
L 399.956905 152.960342 
L 401.445572 151.855314 
L 402.931901 150.964059 
L 404.417929 150.263109 
L 405.906933 149.757868 
L 408.137934 149.294111 
L 409.626937 149.172006 
L 411.857946 149.256473 
L 414.091919 149.630575 
L 416.325576 150.309394 
L 418.556887 151.282211 
L 420.786939 152.573152 
L 423.017944 154.176802 
L 425.251894 156.085799 
L 428.226932 158.961304 
L 432.691876 163.296748 
L 434.925569 165.120368 
L 437.156803 166.568022 
L 438.645567 167.310843 
L 440.131852 167.871779 
L 441.617805 168.252645 
L 443.106912 168.462171 
L 444.596784 168.50478 
L 446.085564 168.386277 
L 448.31677 167.926127 
L 450.54691 167.149855 
L 452.777797 166.093694 
L 455.011841 164.803898 
L 458.731846 162.352987 
L 462.451862 159.950838 
L 464.685567 158.749724 
L 466.916826 157.836275 
L 469.146923 157.254241 
L 470.636836 157.058383 
L 472.12557 157.015892 
L 474.356839 157.2251 
L 476.586926 157.731049 
L 478.817885 158.483542 
L 481.796835 159.752968 
L 487.746929 162.431296 
L 489.977848 163.233884 
L 492.211867 163.836721 
L 494.445567 164.210574 
L 496.676802 164.346864 
L 498.906918 164.253465 
L 501.137826 163.950788 
L 504.116795 163.277984 
L 507.836798 162.161438 
L 513.786919 160.359299 
L 516.765568 159.721743 
L 518.996816 159.43129 
L 521.226923 159.316861 
L 523.457858 159.375941 
L 526.436835 159.695789 
L 530.156825 160.379072 
L 539.085568 162.212063 
L 542.057842 162.574138 
L 545.036808 162.729599 
L 548.012674 162.674704 
L 551.73348 162.351604 
L 556.940256 161.610797 
L 559.342969 161.24385 
L 559.342969 161.24385 
" clip-path="url(#p85b5f5fb51)" style="fill: none; stroke: #1f77b4; stroke-width: 4.5; stroke-linecap: square"/>
   </g>
   <g id="line2d_30">
    <path d="M 22.001563 378.707296 
L 27.209658 378.601862 
L 34.650867 378.201783 
L 45.813428 377.604147 
L 52.506642 377.505235 
L 59.949024 377.655861 
L 80.780097 378.277619 
L 88.965164 378.199485 
L 113.517052 377.781921 
L 126.162747 377.945707 
L 141.787537 378.101195 
L 157.412373 377.978293 
L 175.26667 377.898979 
L 222.140907 377.956109 
L 248.921563 377.978348 
L 254.87602 371.513699 
L 257.851346 368.014761 
L 263.061012 362.064089 
L 269.756247 354.887792 
L 272.731447 351.283783 
L 274.221057 349.192943 
L 276.451446 345.638113 
L 278.681563 341.604325 
L 281.661031 335.519505 
L 285.38101 327.421052 
L 288.356199 321.11544 
L 291.331397 315.109399 
L 298.026606 301.972834 
L 306.211515 285.730112 
L 309.186762 280.286235 
L 311.421337 276.567509 
L 313.651695 273.287638 
L 315.885543 270.478524 
L 318.116617 268.101564 
L 320.346851 266.049789 
L 323.325546 263.645031 
L 335.226801 254.493144 
L 338.205536 251.782349 
L 341.181379 248.799553 
L 344.156547 245.535059 
L 347.876599 241.098697 
L 352.341359 235.366277 
L 357.546818 228.271046 
L 363.50147 219.742784 
L 378.37767 198.173843 
L 383.586894 191.187689 
L 390.285562 182.702397 
L 394.005564 177.907434 
L 399.211908 173.529319 
L 402.186925 170.69482 
L 404.417929 168.309197 
L 407.396885 164.781597 
L 414.836896 155.489825 
L 417.066931 153.167407 
L 419.297941 151.152088 
L 421.531908 149.411317 
L 424.506922 147.404179 
L 428.971891 144.7523 
L 434.177858 141.627751 
L 437.156803 139.563229 
L 439.386914 137.772398 
L 441.617805 135.699267 
L 443.851846 133.26034 
L 446.085564 130.390675 
L 448.31677 127.053061 
L 450.54691 123.316993 
L 457.245564 111.704909 
L 459.476785 108.361253 
L 461.706917 105.385277 
L 464.685567 101.842785 
L 468.405569 97.802429 
L 478.076845 87.470614 
L 482.537871 82.307873 
L 486.257861 77.691691 
L 492.956811 69.299043 
L 495.186919 67.022465 
L 496.676802 65.786149 
L 498.165566 64.806086 
L 499.651856 64.092118 
L 501.137826 63.641046 
L 502.626911 63.449481 
L 504.116795 63.507487 
L 505.605566 63.804742 
L 507.091852 64.326737 
L 508.577821 65.059681 
L 510.066917 65.978603 
L 512.297834 67.651532 
L 515.276818 70.215199 
L 518.996816 73.433478 
L 521.226923 75.120581 
L 523.457858 76.522733 
L 525.691879 77.599384 
L 527.925569 78.346902 
L 530.156825 78.770619 
L 532.386924 78.886769 
L 534.617846 78.712763 
L 536.85188 78.269008 
L 539.085568 77.576463 
L 541.316815 76.664524 
L 544.291862 75.170152 
L 553.964399 69.897607 
L 556.195313 69.078289 
L 558.426227 68.550059 
L 559.342969 68.42632 
L 559.342969 68.42632 
" clip-path="url(#p85b5f5fb51)" style="fill: none; stroke: #ff7f0e; stroke-width: 4.5; stroke-linecap: square"/>
   </g>
   <g id="line2d_31">
    <path d="M 22.001563 381.478406 
L 28.700751 381.350586 
L 49.530571 380.692457 
L 57.713911 380.816235 
L 76.315592 381.217935 
L 85.985855 381.121111 
L 104.587018 380.866565 
L 117.977967 380.991318 
L 133.602758 381.100056 
L 220.651323 380.986165 
L 248.921563 381.020964 
L 254.131229 375.195681 
L 261.571397 365.207278 
L 266.036235 359.633912 
L 269.756247 355.168495 
L 272.731447 351.235398 
L 274.221057 348.997016 
L 276.451446 345.22287 
L 278.681563 340.992532 
L 282.401563 333.08815 
L 289.841563 316.843815 
L 299.516212 297.285439 
L 304.721563 286.738795 
L 308.441562 279.795492 
L 310.676474 276.049811 
L 312.906821 272.764405 
L 315.141444 269.943141 
L 317.371736 267.547129 
L 319.605547 265.446352 
L 322.577565 262.950709 
L 332.251644 255.092997 
L 335.226801 252.339726 
L 338.205536 249.31878 
L 341.181379 246.026976 
L 344.901414 241.55604 
L 349.365544 235.781555 
L 354.571661 228.638853 
L 360.525541 220.063586 
L 375.405553 198.368842 
L 379.866889 192.315898 
L 385.076725 185.629047 
L 391.026908 178.007176 
L 394.746922 173.177746 
L 397.72557 170.2081 
L 399.956905 167.661713 
L 402.931901 163.801171 
L 411.857946 151.343604 
L 420.786939 139.984481 
L 423.017944 136.653297 
L 425.251894 132.854305 
L 427.485573 128.493124 
L 429.71685 123.554442 
L 433.436826 114.593407 
L 447.57184 79.673603 
L 452.036779 68.302425 
L 454.266912 63.261844 
L 455.756783 60.322395 
L 457.245564 57.752229 
L 458.731846 55.539201 
L 460.217805 53.645695 
L 461.706917 52.051681 
L 463.196804 50.718605 
L 464.685567 49.626126 
L 466.171876 48.756591 
L 467.657857 48.090883 
L 469.146923 47.619841 
L 470.636836 47.331771 
L 472.12557 47.220506 
L 473.611882 47.277913 
L 475.097874 47.497745 
L 476.586926 47.873286 
L 478.817885 48.721499 
L 481.051877 49.899609 
L 483.28557 51.414291 
L 485.516836 53.276753 
L 487.746929 55.517757 
L 489.977848 58.175218 
L 492.211867 61.257172 
L 494.445567 64.74066 
L 501.137826 75.709037 
L 503.371854 78.693889 
L 504.857815 80.367187 
L 506.346911 81.769457 
L 507.836798 82.908396 
L 509.325566 83.783831 
L 510.811864 84.401777 
L 512.297834 84.773089 
L 513.786919 84.904732 
L 515.276818 84.806943 
L 516.765568 84.489005 
L 518.251872 83.962504 
L 519.737845 83.23546 
L 521.226923 82.322737 
L 523.457858 80.623616 
L 525.691879 78.580525 
L 528.666918 75.437873 
L 534.617846 68.897302 
L 536.85188 66.914662 
L 538.337852 65.858742 
L 539.82692 65.048328 
L 541.316815 64.490292 
L 542.805568 64.189569 
L 544.291862 64.141321 
L 545.77784 64.335829 
L 547.267727 64.757829 
L 548.7537 65.390582 
L 550.988528 66.67528 
L 553.219451 68.264678 
L 559.342969 73.002286 
L 559.342969 73.002286 
" clip-path="url(#p85b5f5fb51)" style="fill: none; stroke: #2ca02c; stroke-width: 4.5; stroke-linecap: square"/>
   </g>
   <g id="line2d_32">
    <path d="M 245.201562 450.72 
L 245.201562 7.2 
" clip-path="url(#p85b5f5fb51)" style="fill: none; stroke-dasharray: 16.65,7.2; stroke-dashoffset: 0; stroke: #000000; stroke-width: 4.5"/>
   </g>
   <g id="line2d_33">
    <path d="M 394.001562 450.72 
L 394.001562 7.2 
" clip-path="url(#p85b5f5fb51)" style="fill: none; stroke-dasharray: 16.65,7.2; stroke-dashoffset: 0; stroke: #000000; stroke-width: 4.5"/>
   </g>
   <g id="line2d_34">
    <path d="M 22.001563 268.094118 
L 559.342969 268.094118 
" clip-path="url(#p85b5f5fb51)" style="fill: none; stroke-dasharray: 4.5,7.425; stroke-dashoffset: 0; stroke: #ff0000; stroke-width: 4.5"/>
   </g>
   <g id="line2d_35">
    <path d="M 22.001563 189.825882 
L 559.342969 189.825882 
" clip-path="url(#p85b5f5fb51)" style="fill: none; stroke-dasharray: 4.5,7.425; stroke-dashoffset: 0; stroke: #ff0000; stroke-width: 4.5"/>
   </g>
   <g id="line2d_36">
    <path d="M 22.001563 398.541176 
L 559.342969 398.541176 
" clip-path="url(#p85b5f5fb51)" style="fill: none; stroke-dasharray: 4.5,7.425; stroke-dashoffset: 0; stroke: #008000; stroke-width: 4.5"/>
   </g>
   <g id="line2d_37">
    <path d="M 22.001563 372.451765 
L 559.342969 372.451765 
" clip-path="url(#p85b5f5fb51)" style="fill: none; stroke-dasharray: 4.5,7.425; stroke-dashoffset: 0; stroke: #008000; stroke-width: 4.5"/>
   </g>
   <g id="line2d_38">
    <path d="M 22.001563 85.468235 
L 559.342969 85.468235 
" clip-path="url(#p85b5f5fb51)" style="fill: none; stroke-dasharray: 4.5,7.425; stroke-dashoffset: 0; stroke: #008000; stroke-width: 4.5"/>
   </g>
   <g id="line2d_39">
    <path d="M 22.001563 59.378824 
L 559.342969 59.378824 
" clip-path="url(#p85b5f5fb51)" style="fill: none; stroke-dasharray: 4.5,7.425; stroke-dashoffset: 0; stroke: #008000; stroke-width: 4.5"/>
   </g>
   <g id="patch_3">
    <path d="M 96.401563 450.72 
L 96.401563 7.2 
" style="fill: none; stroke: #000000; stroke-width: 4; stroke-linejoin: miter; stroke-linecap: square"/>
   </g>
   <g id="patch_4">
    <path d="M 542.801562 450.72 
L 542.801562 7.2 
" style="fill: none; stroke: #000000; stroke-width: 4; stroke-linejoin: miter; stroke-linecap: square"/>
   </g>
   <g id="patch_5">
    <path d="M 96.401563 450.72 
L 542.801562 450.72 
" style="fill: none; stroke: #000000; stroke-width: 4; stroke-linejoin: miter; stroke-linecap: square"/>
   </g>
   <g id="patch_6">
    <path d="M 96.401563 7.2 
L 542.801562 7.2 
" style="fill: none; stroke: #000000; stroke-width: 4; stroke-linejoin: miter; stroke-linecap: square"/>
   </g>
   <g id="legend_1">
    <g id="patch_7">
     <path d="M 321.457812 435.72 
L 521.801562 435.72 
Q 527.801562 435.72 527.801562 429.72 
L 527.801562 300.616875 
Q 527.801562 294.616875 521.801562 294.616875 
L 321.457812 294.616875 
Q 315.457812 294.616875 315.457812 300.616875 
L 315.457812 429.72 
Q 315.457812 435.72 321.457812 435.72 
z
" style="fill: #ffffff; opacity: 0.8; stroke: #cccccc; stroke-linejoin: miter"/>
    </g>
    <g id="line2d_40">
     <path d="M 327.457812 318.912187 
L 357.457812 318.912187 
L 387.457812 318.912187 
" style="fill: none; stroke: #1f77b4; stroke-width: 4.5; stroke-linecap: square"/>
    </g>
    <g id="text_14">
     <!-- 5e5 -->
     <g transform="translate(411.457812 329.412187)scale(0.3 -0.3)">
      <defs>
       <path id="DejaVuSans-35" d="M 691 4666 
L 3169 4666 
L 3169 4134 
L 1269 4134 
L 1269 2991 
Q 1406 3038 1543 3061 
Q 1681 3084 1819 3084 
Q 2600 3084 3056 2656 
Q 3513 2228 3513 1497 
Q 3513 744 3044 326 
Q 2575 -91 1722 -91 
Q 1428 -91 1123 -41 
Q 819 9 494 109 
L 494 744 
Q 775 591 1075 516 
Q 1375 441 1709 441 
Q 2250 441 2565 725 
Q 2881 1009 2881 1497 
Q 2881 1984 2565 2268 
Q 2250 2553 1709 2553 
Q 1456 2553 1204 2497 
Q 953 2441 691 2322 
L 691 4666 
z
" transform="scale(0.015625)"/>
       <path id="DejaVuSans-65" d="M 3597 1894 
L 3597 1613 
L 953 1613 
Q 991 1019 1311 708 
Q 1631 397 2203 397 
Q 2534 397 2845 478 
Q 3156 559 3463 722 
L 3463 178 
Q 3153 47 2828 -22 
Q 2503 -91 2169 -91 
Q 1331 -91 842 396 
Q 353 884 353 1716 
Q 353 2575 817 3079 
Q 1281 3584 2069 3584 
Q 2775 3584 3186 3129 
Q 3597 2675 3597 1894 
z
M 3022 2063 
Q 3016 2534 2758 2815 
Q 2500 3097 2075 3097 
Q 1594 3097 1305 2825 
Q 1016 2553 972 2059 
L 3022 2063 
z
" transform="scale(0.015625)"/>
      </defs>
      <use xlink:href="#DejaVuSans-35"/>
      <use xlink:href="#DejaVuSans-65" x="63.623047"/>
      <use xlink:href="#DejaVuSans-35" x="125.146484"/>
     </g>
    </g>
    <g id="line2d_41">
     <path d="M 327.457812 362.946562 
L 357.457812 362.946562 
L 387.457812 362.946562 
" style="fill: none; stroke: #ff7f0e; stroke-width: 4.5; stroke-linecap: square"/>
    </g>
    <g id="text_15">
     <!-- 4.85e5 -->
     <g transform="translate(411.457812 373.446562)scale(0.3 -0.3)">
      <defs>
       <path id="DejaVuSans-34" d="M 2419 4116 
L 825 1625 
L 2419 1625 
L 2419 4116 
z
M 2253 4666 
L 3047 4666 
L 3047 1625 
L 3713 1625 
L 3713 1100 
L 3047 1100 
L 3047 0 
L 2419 0 
L 2419 1100 
L 313 1100 
L 313 1709 
L 2253 4666 
z
" transform="scale(0.015625)"/>
       <path id="DejaVuSans-2e" d="M 684 794 
L 1344 794 
L 1344 0 
L 684 0 
L 684 794 
z
" transform="scale(0.015625)"/>
       <path id="DejaVuSans-38" d="M 2034 2216 
Q 1584 2216 1326 1975 
Q 1069 1734 1069 1313 
Q 1069 891 1326 650 
Q 1584 409 2034 409 
Q 2484 409 2743 651 
Q 3003 894 3003 1313 
Q 3003 1734 2745 1975 
Q 2488 2216 2034 2216 
z
M 1403 2484 
Q 997 2584 770 2862 
Q 544 3141 544 3541 
Q 544 4100 942 4425 
Q 1341 4750 2034 4750 
Q 2731 4750 3128 4425 
Q 3525 4100 3525 3541 
Q 3525 3141 3298 2862 
Q 3072 2584 2669 2484 
Q 3125 2378 3379 2068 
Q 3634 1759 3634 1313 
Q 3634 634 3220 271 
Q 2806 -91 2034 -91 
Q 1263 -91 848 271 
Q 434 634 434 1313 
Q 434 1759 690 2068 
Q 947 2378 1403 2484 
z
M 1172 3481 
Q 1172 3119 1398 2916 
Q 1625 2713 2034 2713 
Q 2441 2713 2670 2916 
Q 2900 3119 2900 3481 
Q 2900 3844 2670 4047 
Q 2441 4250 2034 4250 
Q 1625 4250 1398 4047 
Q 1172 3844 1172 3481 
z
" transform="scale(0.015625)"/>
      </defs>
      <use xlink:href="#DejaVuSans-34"/>
      <use xlink:href="#DejaVuSans-2e" x="63.623047"/>
      <use xlink:href="#DejaVuSans-38" x="95.410156"/>
      <use xlink:href="#DejaVuSans-35" x="159.033203"/>
      <use xlink:href="#DejaVuSans-65" x="222.65625"/>
      <use xlink:href="#DejaVuSans-35" x="284.179688"/>
     </g>
    </g>
    <g id="line2d_42">
     <path d="M 327.457812 406.980937 
L 357.457812 406.980937 
L 387.457812 406.980937 
" style="fill: none; stroke: #2ca02c; stroke-width: 4.5; stroke-linecap: square"/>
    </g>
    <g id="text_16">
     <!-- 4.7e5 -->
     <g transform="translate(411.457812 417.480937)scale(0.3 -0.3)">
      <defs>
       <path id="DejaVuSans-37" d="M 525 4666 
L 3525 4666 
L 3525 4397 
L 1831 0 
L 1172 0 
L 2766 4134 
L 525 4134 
L 525 4666 
z
" transform="scale(0.015625)"/>
      </defs>
      <use xlink:href="#DejaVuSans-34"/>
      <use xlink:href="#DejaVuSans-2e" x="63.623047"/>
      <use xlink:href="#DejaVuSans-37" x="95.410156"/>
      <use xlink:href="#DejaVuSans-65" x="159.033203"/>
      <use xlink:href="#DejaVuSans-35" x="220.556641"/>
     </g>
    </g>
   </g>
  </g>
 </g>
 <defs>
  <clipPath id="p85b5f5fb51">
   <rect x="96.401563" y="7.2" width="446.4" height="443.52"/>
  </clipPath>
 </defs>
</svg>
